<?xml version="1.0" encoding="utf-8"?>
<!-- Generator: Adobe Illustrator 16.0.0, SVG Export Plug-In . SVG Version: 6.00 Build 0)  -->
<!DOCTYPE svg PUBLIC "-//W3C//DTD SVG 1.1//EN" "http://www.w3.org/Graphics/SVG/1.1/DTD/svg11.dtd">
<svg version="1.1" id="Warstwa_1" xmlns="http://www.w3.org/2000/svg" xmlns:xlink="http://www.w3.org/1999/xlink" x="0px" y="0px"
	 width="14.2px" height="27.6px" viewBox="0 0 14.2 27.6" enable-background="new 0 0 14.2 27.6" xml:space="preserve">
<g>
	<path d="M2.1,17c0.3,0.8,0.6,1.5,1,2.3c0.3,0.7,0.7,1.5,1.1,2.2C4.6,22.2,5,23,5.4,23.7c0.4,0.7,0.8,1.4,1.2,2.2H5
		c0.2-0.3,0.4-0.7,0.7-1.1c0.2-0.4,0.4-0.7,0.6-1.1c0.4-0.7,0.8-1.4,1.2-2.2c0.2-0.4,0.4-0.7,0.6-1.1c0.2-0.4,0.4-0.7,0.6-1.1
		c0.2-0.4,0.3-0.7,0.5-1.1c0.1-0.4,0.3-0.8,0.3-1.2c0.1-0.5,0.6-0.8,1.1-0.7c0.5,0.1,0.8,0.6,0.7,1.1c0,0.2-0.1,0.3-0.2,0.5
		c-0.3,0.3-0.5,0.7-0.8,1c-0.2,0.3-0.4,0.7-0.6,1.1c-0.2,0.4-0.4,0.7-0.6,1.1c-0.2,0.4-0.4,0.7-0.5,1.1c-0.4,0.7-0.7,1.5-1,2.2
		c-0.2,0.4-0.3,0.8-0.5,1.1c-0.2,0.4-0.3,0.8-0.5,1.2c-0.2,0.4-0.6,0.7-1.1,0.5c-0.2-0.1-0.4-0.3-0.5-0.5l0,0
		c-0.3-0.8-0.7-1.5-1-2.3c-0.3-0.7-0.7-1.5-1.1-2.2c-0.4-0.7-0.7-1.5-1.1-2.2c-0.4-0.7-0.8-1.4-1.3-2.1c-0.3-0.4-0.2-1,0.3-1.2
		c0.4-0.3,1-0.2,1.2,0.3C2.1,16.9,2.1,17,2.1,17z"/>
	<path d="M4.9,26.4c0,0,0-0.1,0-0.4c0-0.3-0.1-0.6-0.1-1.1c-0.1-1-0.1-2.4,0.1-4C5,20,5.1,19.1,5.4,18.2c0.3-0.9,0.6-1.9,1.1-2.8
		c0.5-0.9,1.2-1.9,2.1-2.6c0.4-0.4,0.9-0.7,1.4-1c0.5-0.3,1.1-0.5,1.5-0.7c0.4-0.2,0.8-0.5,1-0.7c0.1-0.1,0.1-0.2,0.1-0.3
		c0-0.1-0.1-0.3-0.2-0.4c-0.2-0.3-0.6-0.7-1-0.9c-0.4-0.3-0.8-0.6-1.2-0.8C8.4,6.8,6.7,6,5.3,5.3C3.8,4.5,2.6,3.9,1.8,3.2
		C1.4,2.8,1,2.4,0.9,2c-0.2-0.5,0-0.8-0.1-0.8c0.1-0.5,0.6-0.8,1.1-0.7C2.3,0.5,2.6,1,2.5,1.5c0,0,0-0.1,0-0.1c0,0,0.1,0.2,0.4,0.5
		C3.5,2.5,4.6,3.2,6,4C7.3,4.8,9,5.6,10.8,6.7c0.4,0.3,0.9,0.6,1.3,0.9c0.4,0.3,0.9,0.7,1.3,1.2c0.2,0.3,0.4,0.6,0.4,1
		c0.1,0.4-0.1,0.9-0.3,1.2c-0.5,0.6-1,0.9-1.5,1.2c-0.5,0.2-1,0.4-1.4,0.6c-0.4,0.2-0.8,0.5-1.2,0.8c-0.7,0.6-1.3,1.4-1.7,2.3
		c-0.4,0.8-0.7,1.7-0.9,2.6c-0.2,0.9-0.3,1.7-0.3,2.5c-0.1,1.5,0,2.8,0.1,3.7c0.1,0.4,0.1,0.8,0.2,1c0,0.2,0.1,0.3,0.1,0.3l0,0
		c0.1,0.5-0.2,1-0.7,1.1C5.5,27.3,5,27,4.9,26.4C4.9,26.5,4.9,26.4,4.9,26.4z"/>
</g>
</svg>
