<?xml version="1.0" encoding="utf-8"?>
<!-- Generator: Adobe Illustrator 16.0.0, SVG Export Plug-In . SVG Version: 6.00 Build 0)  -->
<!DOCTYPE svg PUBLIC "-//W3C//DTD SVG 1.1//EN" "http://www.w3.org/Graphics/SVG/1.1/DTD/svg11.dtd">
<svg version="1.1" id="Warstwa_1" xmlns="http://www.w3.org/2000/svg" xmlns:xlink="http://www.w3.org/1999/xlink" x="0px" y="0px"
	 width="186px" height="186px" viewBox="0 0 186 186" enable-background="new 0 0 186 186" xml:space="preserve">
<path opacity="0.1" d="M-860.1,25.3c0,0,1.6-1.1,4.6-3.2c1.5-1,3.7-2.2,6.1-3.6c1.2-0.7,2.6-1.3,4-2c1.4-0.7,2.9-1.4,4.6-2
	c6.6-2.7,15-5.1,24.8-5.9c1.2-0.1,2.5-0.1,3.8-0.2c0.6,0,1.3-0.1,1.9-0.1l1,0l1.1,0c2.5,0.1,5.1,0.2,7.8,0.4
	c2.8,0.4,5.7,0.8,8.6,1.3c2.8,0.7,5.7,1.4,8.7,2.3c11.6,3.7,23.4,10.4,33.5,20.1c1.3,1.1,2.4,2.5,3.6,3.8c1.2,1.3,2.5,2.6,3.5,4
	c2.1,2.9,4.4,5.7,6.2,8.9c4,6.2,6.9,13.2,9.2,20.4c0.9,3.7,2,7.4,2.5,11.3c0.7,3.8,0.8,7.7,1,11.6l0,0.7l0,0.4l0,0.2
	c0,0.1,0-0.1,0,0.4l-0.1,1.4l-0.1,2.8c-0.2,1.9-0.1,3.7-0.4,5.8c-0.3,2-0.6,4-0.9,6c-0.3,2-0.9,3.9-1.4,5.8l-0.8,2.9
	c-0.3,1-0.7,1.9-1,2.8l-2.1,5.7c-1.8,3.6-3.3,7.4-5.6,10.7c-2,3.6-4.5,6.7-7,10c-1.3,1.5-2.7,3-4.1,4.5c-1.3,1.6-2.8,2.9-4.3,4.3
	c-1.5,1.3-2.9,2.8-4.6,4l-4.9,3.6c-1.7,1.2-3.4,2.1-5.2,3.2c-0.9,0.5-1.7,1.1-2.6,1.6l-2.7,1.3c-7.2,3.7-15,6.1-22.9,7.5
	c-2,0.3-4,0.6-5.9,0.9c-2,0.2-4,0.2-6,0.3l-3,0.1l-0.2,0l-0.4,0l-0.4,0l-0.7,0l-1.4-0.1c-1.9-0.1-3.8-0.2-5.6-0.3
	c-2-0.3-4-0.6-5.9-0.9l-2.9-0.5l-2.8-0.7c-1.9-0.5-3.8-0.9-5.6-1.5c-1.8-0.7-3.6-1.3-5.4-2c-1.8-0.6-3.5-1.4-5.2-2.3
	c-1.7-0.9-3.4-1.6-5-2.5c-3.2-2-6.4-3.8-9.3-6.1c-6-4.2-10.9-9.6-15.4-14.8c-8.6-11-14-23.3-16.6-35c-0.4-1.5-0.6-2.9-0.8-4.4
	c-0.2-1.5-0.4-2.9-0.6-4.3c-0.3-1.4-0.3-2.9-0.3-4.3c-0.1-1.4-0.1-2.8-0.2-4.2c0-0.7-0.1-1.2-0.1-2.2c0-0.7,0.1-1.3,0.1-2
	c0.1-1.3,0.1-2.6,0.2-3.8c0-1.2,0.2-2.5,0.4-3.8c0.2-1.3,0.3-2.5,0.5-3.8c1.6-9.8,4.6-17.8,7.6-24.2c3.2-6.3,6.2-11,8.5-14
	c2.3-3,3.5-4.6,3.5-4.6c1.2-1.5,3.4-1.8,4.9-0.7c1.5,1.2,1.8,3.4,0.7,4.9c0,0.1-0.1,0.1-0.1,0.2L-868,42c0,0-1.2,1.4-3.5,4.1
	c-2.2,2.7-5.2,6.9-8.4,12.7c-2.9,5.8-5.9,13.4-7.4,22.4c-0.2,1.1-0.3,2.2-0.5,3.4c-0.2,1.1-0.3,2.3-0.4,3.6
	c-0.1,1.3-0.1,2.5-0.2,3.8c0,0.6-0.1,1.3-0.1,2c0,0.4,0.1,1.2,0.1,1.8c0.1,1.3,0.1,2.6,0.2,3.9c0.1,1.3,0.1,2.6,0.4,4
	c0.2,1.3,0.4,2.7,0.6,4c0.2,1.4,0.4,2.7,0.8,4.1c2.6,10.9,8,22.2,16.1,32.1c4.3,4.8,8.9,9.5,14.5,13.3c2.6,2.1,5.6,3.7,8.6,5.5
	c1.5,0.8,3.1,1.5,4.6,2.3c1.6,0.8,3.1,1.5,4.8,2c1.6,0.6,3.3,1.2,4.9,1.8c1.7,0.5,3.4,0.9,5.1,1.3l2.6,0.7l2.6,0.4
	c1.7,0.3,3.4,0.5,5.2,0.8c1.9,0.1,3.8,0.2,5.6,0.3l1.4,0.1l0.7,0l0.4,0c0,0,0.3,0,0,0l0.2,0l2.7-0.1c1.8-0.1,3.6-0.1,5.4-0.3
	l5.4-0.8c7.2-1.3,14.3-3.5,20.9-6.9l2.5-1.2c0.8-0.4,1.6-1,2.4-1.4c1.6-1,3.2-1.9,4.7-2.9l4.5-3.3c1.5-1,2.8-2.4,4.2-3.6
	c1.4-1.2,2.8-2.5,4-3.9c1.2-1.4,2.5-2.7,3.7-4.1c2.2-3,4.6-5.9,6.3-9.1c2.1-3.1,3.5-6.5,5.1-9.8l1.9-5.2c0.3-0.9,0.7-1.7,0.9-2.6
	l0.7-2.7c0.4-1.8,1-3.5,1.3-5.3c0.3-1.8,0.5-3.5,0.8-5.3c0.4-1.7,0.3-3.7,0.4-5.5l0.1-2.8l0.1-1.4c0,0.3,0,0,0,0l0-0.2l0-0.3l0-0.7
	c-0.2-3.6-0.3-7.1-0.9-10.6c-0.4-3.5-1.4-6.9-2.2-10.3c-2.1-6.6-4.7-13-8.4-18.6c-1.6-2.9-3.8-5.5-5.7-8.1c-1-1.3-2.2-2.4-3.2-3.7
	c-1.1-1.2-2.1-2.5-3.3-3.5c-9.2-8.8-20-14.9-30.5-18.4c-2.7-0.8-5.3-1.4-7.9-2.1c-2.6-0.4-5.1-0.8-7.5-1.2c-2.6-0.2-5.2-0.3-7.7-0.4
	l-0.8,0l-0.9,0c-0.6,0-1.2,0-1.8,0.1c-1.2,0-2.3,0.1-3.5,0.1c-9.1,0.7-16.7,2.8-22.8,5.3c-1.5,0.5-2.9,1.2-4.2,1.8
	c-1.3,0.6-2.6,1.2-3.7,1.8c-2.1,1.3-4,2.2-5.5,3.2c-3,2.1-4.6,3.1-4.6,3.1c-1.6,1.1-3.8,0.7-4.9-0.9
	C-862.1,28.6-861.7,26.4-860.1,25.3z"/>
<path opacity="0.1" d="M-886.5,63.1c0,0,9.7-0.1,24.1-0.2c14.5-0.2,33.8-0.1,53.1-0.2c9.7,0,19.3-0.1,28.4-0.1
	c9.1,0,17.5-0.1,24.8,0c14.5,0,24.1,0.6,24.1,0.6v7c0,0-9.7,0.6-24.1,0.6c-7.2,0.1-15.7,0-24.8,0c-9.1,0-18.7-0.1-28.4-0.1
	c-19.3-0.1-38.6-0.1-53.1-0.2c-14.5-0.1-24.1-0.2-24.1-0.2V63.1z"/>
<path opacity="0.1" d="M-886.5,117.8c0,0,2.4,0,6.7-0.1c4.3,0,10.3,0,17.7-0.1c14.6,0,34.1,0,53.6,0c39,0,77.9,0.1,77.9,0.1v7
	c0,0-39,0-77.9,0.1c-19.5,0-39,0-53.6,0c-7.3,0-13.4-0.1-17.7-0.1c-4.3,0-6.7-0.1-6.7-0.1V117.8z"/>
<path opacity="0.1" d="M-776,94c0,0,0,1.4,0,4.1c-0.1,2.8-0.1,6.8-0.5,11.9c-0.4,5.1-1,11.3-2.2,18.4c-1.2,7.1-2.9,15-5.8,23.4
	c-1.5,4.2-3.2,8.5-5.7,12.8c-2.4,4.2-5.5,8.7-10.4,11.9c-2.5,1.6-5.7,2.6-8.9,2.3c-0.5,0-1.5-0.2-2.4-0.4c-0.8-0.2-1.5-0.5-2.3-0.8
	c-1.4-0.7-2.7-1.5-3.9-2.4c-4.6-3.8-7.6-8.8-10-13.8c-4.8-10.2-7.6-21.3-9.4-32.7c-1.8-11.4-2.6-23-2.6-34.7
	c0.2-11.7,0.6-23.3,2.1-34.8c1.5-11.5,4.4-22.6,9.3-32.9c2.5-5.1,5.5-10.1,10.3-14c2.4-1.9,5.5-3.5,8.9-3.7l0.6,0l0.3,0l0.2,0
	c0,0,0.6,0,0.4,0l0.9,0.1l0.5,0l0.7,0.1l1.4,0.3c1.6,0.5,3.1,1.1,4.3,1.9c5.1,3.3,8.1,7.8,10.6,12.1c2.4,4.3,4.2,8.7,5.6,13
	c2.9,8.5,4.5,16.4,5.6,23.5c1.1,7.1,1.7,13.3,2.1,18.4c0.4,5.1,0.4,9.1,0.5,11.9C-776,92.5-776,94-776,94L-776,94z M-782.9,94
	c0,0,0-1.4,0-4.1c-0.1-2.7-0.2-6.6-0.5-11.5c-0.4-4.9-0.9-11-2.1-17.8c-1.1-6.8-2.7-14.4-5.4-22.3c-1.4-3.9-3-8-5.1-11.8
	c-2.1-3.8-4.8-7.5-8.1-9.5c-3.2-2.1-6.7-1.8-10,0.9c-3.3,2.7-6.1,6.9-8.3,11.5c-2.2,4.6-4,9.6-5.5,14.8c-1.5,5.2-2.7,10.6-3.8,16
	c-2.2,10.9-3.4,22.3-3.3,33.7c0,11.4,0.9,22.8,2.7,33.8c1.9,11,4.6,21.8,9.1,31.1c2.3,4.6,5.1,8.9,8.6,11.7c1.8,1.4,3.6,2.2,5.4,2.3
	c1.9,0.2,3.7-0.4,5.4-1.5c3.4-2.2,6.1-6,8.2-9.8c2.1-3.8,3.7-7.9,5.1-11.9c2.6-8,4.2-15.6,5.3-22.4c1.1-6.8,1.6-12.8,1.9-17.8
	c0.3-5,0.4-8.9,0.5-11.5C-782.9,95.4-782.9,93.9-782.9,94L-782.9,94z"/>
<path fill="none" stroke="#000000" stroke-width="3" stroke-miterlimit="10" d="M-505.5,189.4"/>
<path opacity="0.1" d="M-532.7,164c0,0-1.6,1.1-4.6,3.2c-1.5,1-3.7,2.2-6.1,3.6c-1.2,0.7-2.6,1.3-4,2c-1.4,0.7-2.9,1.4-4.6,2
	c-6.6,2.7-15,5.1-24.9,5.9c-1.2,0.1-2.5,0.1-3.8,0.2c-0.6,0-1.3,0.1-1.9,0.1l-1,0l-1.1,0c-2.5-0.1-5.1-0.2-7.8-0.4
	c-2.8-0.4-5.7-0.8-8.7-1.3c-2.8-0.7-5.8-1.4-8.7-2.3c-11.7-3.7-23.5-10.4-33.6-20.1c-1.4-1.1-2.4-2.5-3.7-3.8
	c-1.2-1.3-2.5-2.6-3.5-4c-2.1-2.9-4.5-5.7-6.2-8.9c-4-6.2-6.9-13.2-9.2-20.5c-0.9-3.7-2-7.4-2.5-11.3c-0.7-3.8-0.8-7.7-1-11.7l0-0.7
	l0-0.4l0-0.2c0-0.1,0,0.1,0-0.4l0.1-1.4l0.1-2.8c0.1-1.9,0.1-3.7,0.5-5.8c0.3-2,0.6-4,0.9-6c0.3-2,0.9-3.9,1.4-5.9l0.8-2.9
	c0.3-1,0.7-1.9,1-2.9l2.1-5.7c1.8-3.6,3.4-7.4,5.6-10.8c2-3.6,4.5-6.7,7-10c1.3-1.6,2.7-3,4.1-4.5c1.3-1.6,2.8-2.9,4.4-4.3
	c1.5-1.3,2.9-2.8,4.6-4l4.9-3.7c1.7-1.2,3.5-2.1,5.2-3.2c0.9-0.5,1.7-1.1,2.6-1.6l2.7-1.3c7.2-3.7,15.1-6.1,22.9-7.5
	c2-0.3,4-0.6,5.9-0.9c2-0.2,4-0.2,6-0.3l3-0.1l0.2,0l0.4,0l0.4,0l0.7,0l1.4,0.1c1.9,0.1,3.8,0.2,5.7,0.3c2,0.3,4,0.6,5.9,0.9l3,0.5
	l2.8,0.7c1.9,0.5,3.8,0.9,5.6,1.5c1.8,0.7,3.6,1.3,5.4,2c1.8,0.6,3.5,1.4,5.2,2.3c1.7,0.9,3.4,1.6,5,2.5c3.2,2,6.5,3.8,9.3,6.1
	c6,4.2,10.9,9.6,15.4,14.9c8.6,11,14,23.3,16.7,35.1c0.4,1.5,0.6,2.9,0.8,4.4c0.2,1.5,0.4,2.9,0.6,4.3c0.3,1.4,0.3,2.9,0.4,4.3
	c0.1,1.4,0.1,2.8,0.2,4.2c0,0.7,0.1,1.3,0.1,2.2c0,0.7-0.1,1.3-0.1,2c-0.1,1.3-0.1,2.6-0.2,3.8c0,1.2-0.2,2.5-0.4,3.8
	c-0.2,1.3-0.3,2.5-0.5,3.8c-1.6,9.8-4.6,17.8-7.6,24.3c-3.2,6.3-6.2,11-8.5,14.1c-2.3,3-3.5,4.6-3.5,4.6c-1.2,1.5-3.4,1.8-4.9,0.7
	c-1.5-1.2-1.8-3.4-0.7-4.9c0-0.1,0.1-0.1,0.1-0.2l0.2-0.2c0,0,1.2-1.4,3.5-4.1c2.2-2.7,5.3-6.9,8.4-12.7c3-5.8,5.9-13.4,7.4-22.4
	c0.2-1.1,0.3-2.2,0.5-3.4c0.2-1.1,0.3-2.3,0.4-3.6c0.1-1.3,0.1-2.5,0.2-3.8c0-0.6,0.1-1.3,0.1-2c0-0.4-0.1-1.2-0.1-1.8
	c-0.1-1.3-0.1-2.6-0.2-3.9c-0.1-1.3-0.1-2.7-0.4-4c-0.2-1.3-0.4-2.7-0.6-4c-0.2-1.4-0.4-2.7-0.8-4.1c-2.6-11-8-22.2-16.2-32.2
	c-4.3-4.8-8.9-9.5-14.5-13.4c-2.6-2.1-5.7-3.7-8.6-5.5c-1.5-0.8-3.1-1.5-4.6-2.3c-1.6-0.8-3.1-1.5-4.8-2c-1.6-0.6-3.3-1.2-4.9-1.8
	c-1.7-0.5-3.4-0.9-5.1-1.3l-2.6-0.7l-2.6-0.4c-1.7-0.3-3.5-0.5-5.2-0.8c-1.9-0.1-3.8-0.2-5.7-0.3l-1.4-0.1l-0.7,0l-0.4,0
	c0,0-0.3,0,0,0l-0.2,0l-2.7,0.1c-1.8,0.1-3.6,0.1-5.5,0.3l-5.4,0.8c-7.2,1.4-14.3,3.5-20.9,6.9l-2.5,1.2c-0.8,0.4-1.6,1-2.4,1.4
	c-1.6,1-3.2,1.9-4.7,2.9l-4.5,3.3c-1.5,1-2.8,2.5-4.2,3.7c-1.4,1.2-2.8,2.5-4,3.9c-1.2,1.4-2.5,2.7-3.7,4.1c-2.2,3-4.6,5.9-6.4,9.1
	c-2.1,3.1-3.5,6.5-5.1,9.8l-1.9,5.2c-0.3,0.9-0.7,1.7-0.9,2.6l-0.7,2.7c-0.4,1.8-1,3.5-1.3,5.3c-0.3,1.8-0.5,3.5-0.8,5.3
	c-0.4,1.7-0.3,3.7-0.4,5.6l-0.1,2.8l-0.1,1.4c0-0.3,0,0,0,0l0,0.2l0,0.3l0,0.7c0.2,3.6,0.3,7.2,0.9,10.7c0.4,3.5,1.4,6.9,2.2,10.3
	c2.1,6.6,4.7,13,8.4,18.7c1.6,3,3.8,5.5,5.7,8.2c1,1.3,2.2,2.5,3.2,3.7c1.1,1.2,2.1,2.5,3.3,3.5c9.3,8.9,20,15,30.6,18.4
	c2.7,0.8,5.3,1.4,7.9,2.1c2.6,0.4,5.1,0.8,7.6,1.2c2.6,0.2,5.2,0.3,7.8,0.4l0.8,0l0.9,0c0.6,0,1.2,0,1.8-0.1c1.2,0,2.3-0.1,3.5-0.1
	c9.1-0.7,16.8-2.9,22.8-5.3c1.5-0.5,2.9-1.2,4.2-1.8c1.3-0.6,2.6-1.2,3.7-1.8c2.2-1.3,4-2.2,5.5-3.2c3-2.1,4.6-3.2,4.6-3.2
	c1.6-1.1,3.8-0.7,4.9,0.9C-530.7,160.8-531.2,162.9-532.7,164z"/>
<path opacity="0.1" d="M-610.5,172.8c0.7-3,2-5.8,3.1-8.7l3.3-8.6l6.7-17.2l6.6-17.2l6.5-17.3c0.5-1.2,1.8-1.8,3-1.4
	c0.6,0.2,1.1,0.7,1.3,1.3l0,0.1c2.2,5.6,4.5,11.3,6.6,17c2.2,5.7,4.3,11.3,6.4,17c4.2,11.4,8.5,22.7,11.8,34.4
	c0.4,1.2-0.4,2.5-1.6,2.9c-1.1,0.3-2.3-0.3-2.8-1.3c-4.9-11.1-8.9-22.6-13-34c-2.1-5.7-4-11.4-6-17.2c-2-5.7-3.9-11.5-5.8-17.3
	l4.4,0l-6.6,17.3l-6.5,17.3l-6.4,17.3l-3.2,8.7c-1.1,2.9-2,5.8-3.5,8.6c-0.6,1.2-2,1.6-3.2,1C-610.3,174.9-610.7,173.8-610.5,172.8z
	"/>
<path opacity="0.1" d="M-656.5,66.6c0,0,0.8,1.5,1.8,4.2c1,2.8,2.5,6.7,4.2,11.4c1.7,4.7,3.7,10.3,5.9,16.2
	c2.2,5.9,4.5,12.2,6.8,18.5c2.3,6.3,4.6,12.6,6.8,18.5c1.1,3,2.2,5.8,3.3,8.5c1.1,2.7,2.2,5.2,3.2,7.5c1,2.3,1.8,4.5,2.6,6.4
	c0.7,1.9,1.3,3.6,1.7,5c0.8,2.8,1.1,4.5,1.1,4.5c0.2,1.3-0.7,2.5-2,2.7c-1,0.1-1.9-0.3-2.4-1.1c0,0-0.9-1.5-2.1-4.1
	c-0.6-1.3-1.3-3-2-4.9c-0.7-1.9-1.5-4.1-2.2-6.5c-0.8-2.4-1.6-5-2.5-7.8c-0.9-2.8-1.9-5.6-3-8.6c-2.2-5.9-4.6-12.2-6.9-18.5
	c-2.4-6.3-4.7-12.6-7-18.5c-2.2-5.9-4.3-11.4-6.1-16.1c-1.8-4.7-3.3-8.7-4.3-11.4c-1-2.8-1.4-4.4-1.4-4.4c-0.3-1.3,0.6-2.5,1.8-2.8
	C-658.1,65.2-657,65.8-656.5,66.6z"/>
<path opacity="0.1" d="M-651.7,46.5c1.3,0.4,2.5,0.2,3.8,0.2l3.8,0l7.5,0c5,0,10-0.1,15-0.2c1.3,0,2.3,1,2.3,2.2v0l0,0.1v0
	c0.3,1.3,0.4,2.6,0.4,3.8c0,1.3-0.1,2.6-0.4,3.8l-0.2,1c-0.2,1-1.2,1.6-2.1,1.3l0,0h0c-2.1,0.6-4.2,0.3-6.2,0.3
	c-2.1,0-4.2-0.1-6.3-0.3l2.2-3.1l0,0c2.4,6.5,4.8,13,7.1,19.6l7,19.6c4.6,13.1,9.2,26.2,13.7,39.3l-4.4,0l0,0l18.4-51.6l0.1,1.7
	l-11.7-27l2.1,1.4h0c-2-0.5-3.9-0.7-5.9-0.8c-2-0.1-3.9,0-5.9,0.8c-0.7,0.3-1.4-0.1-1.7-0.7l-0.6-1.6l0,0c-0.3-1.3-0.4-2.6-0.4-3.8
	c0-1.3,0.1-2.6,0.4-3.8l0.3-1.1c0.2-0.9,1.1-1.5,2.1-1.3l0,0l0,0c4.3,0.2,8.7,0.2,13,0.2c4.3,0.1,8.7,0,13,0c8.7,0,17.3-0.1,26-0.2
	c1.3,0,2.3,1,2.3,2.3v0l0,0.1v0v8c0,1.3-1,2.3-2.3,2.3h0h-11.7l2.2-3.1l0,0c2.5,6.9,4.9,13.9,7.4,20.8l7.2,20.9l14.3,41.8l-4.4-0.2
	l0,0c2-4.6,3.9-9.5,5.6-14.3c0.9-2.4,1.6-4.9,2.4-7.3c0.8-2.4,1.5-4.9,2.1-7.4c0.6-2.5,1.3-4.9,1.7-7.4c0.5-2.5,0.9-5,1.2-7.5
	l0.3-3.7l0-3.7c0-1.2-0.2-2.4-0.3-3.6c0-0.4-0.2-1.2-0.3-1.8c-0.1-0.7-0.3-1.1-0.4-1.7c-1.3-4.6-3.7-9-6.4-13.3
	c-2.7-4.3-5.8-8.5-8.1-13.7c-1.1-2.6-2-5.6-1.6-8.8c0.3-3.2,2-6,3.9-8.2c0.5-0.5,1-1,1.5-1.5l0,0l0.3-0.2l0.1-0.1l0.2-0.1l0.4-0.3
	l0.8-0.6c0.6-0.4,1-0.8,1.6-1.2l2.1-1.1c0.7-0.4,1.5-0.6,2.2-0.8c0.7-0.3,1.5-0.4,2.4-0.4c0.8-0.1,1.7,0,2.6,0.1
	c0.9,0.3,1.7,0.4,2.8,1.2c1,0.8,1.1,2.3,0.3,3.3c-0.8,1-2.3,1.1-3.3,0.3c0,0,0,0,0.1,0l-0.1,0c-0.1,0-0.1-0.1-0.2-0.1
	c-0.2,0-0.3-0.1-0.5-0.2c-0.4,0-0.8-0.1-1.3,0c-0.5,0-0.9,0.1-1.4,0.3c-0.5,0.2-1,0.2-1.4,0.5l-1.4,0.7c-0.5,0.3-1,0.7-1.5,1.1
	l-1.3,1c-0.4,0.4-0.8,0.8-1.2,1.2c-1.5,1.7-2.5,3.6-2.7,5.6c-0.3,2,0.3,4.2,1.2,6.3c1.9,4.3,5,8.5,7.8,12.9c2.8,4.4,5.5,9.2,7,14.6
	c0.2,0.7,0.4,1.5,0.5,2.1c0.1,0.7,0.3,1.2,0.3,2c0.1,1.4,0.3,2.8,0.3,4.1l-0.1,4.1l-0.4,4c-0.3,2.6-0.7,5.3-1.3,7.9
	c-0.5,2.6-1.2,5.2-1.8,7.7c-0.7,2.5-1.4,5.1-2.2,7.6c-0.8,2.5-1.6,5-2.5,7.5c-1.8,4.9-3.6,9.8-5.8,14.6l0,0
	c-0.5,1.2-1.9,1.7-3.1,1.2c-0.6-0.3-1.1-0.8-1.3-1.4l0,0l-14.6-41.7l-7.2-20.9c-2.4-7-4.8-13.9-7.1-21l0,0c-0.4-1.2,0.2-2.6,1.4-3
	c0.3-0.1,0.5-0.1,0.8-0.1h11.7h0l-2.3,2.3v-8v0l2.3,2.3c-8.7-0.2-17.3-0.2-26-0.2c-4.3,0-8.7-0.1-13,0c-4.3,0.1-8.7,0-13,0.2l0,0
	l2.3-2.3c0.3,1.3,0.4,2.6,0.4,3.8c0,1.3-0.1,2.6-0.4,3.8l0,0l-2.3-2.3c2,0.8,3.9,0.8,5.9,0.8c2-0.1,3.9-0.2,5.9-0.8h0
	c1,0,1.8,0.6,2.1,1.4l11.7,27c0.2,0.6,0.2,1.2,0.1,1.7l-18.4,51.6l0,0c-0.4,1.2-1.8,1.9-3,1.4c-0.7-0.2-1.2-0.8-1.4-1.4l0-0.1
	c-4.8-13-9.4-26.1-14.1-39.2l-6.9-19.6c-2.3-6.5-4.6-13.1-6.8-19.7l0,0c-0.5-1.1,0-2.4,1-2.9c0.2-0.1,0.5-0.2,0.7-0.2l0.5,0
	c2.1-0.2,4.2-0.3,6.3-0.3c2.1,0,4.2-0.2,6.2,0.3h0l-2.3,2.3c-0.3-1.3-0.4-2.6-0.4-3.8c0-1.3,0.1-2.6,0.4-3.8v0l2.3,2.3
	c-5-0.1-10-0.2-15-0.2l-7.5,0l-3.8,0c-1.3,0-2.5-0.1-3.8,0.2c-1.3,0.4-2.7-0.4-3-1.7s0.4-2.7,1.7-3
	C-652.6,46.4-652.1,46.4-651.7,46.5z"/>
<path opacity="0.1" d="M-505.5,63.5c0,0.1,0.1,0.1,0,1.7c-0.1,0.8-0.2,1.2-0.3,1.8c-0.1,0.6-0.3,1.2-0.5,2
	c-0.7,2.9-1.9,6.9-3.3,11.7c-2.9,9.6-7,22.2-11.2,34.8c-4.3,12.6-8.6,25.2-11.8,34.6c-3.3,9.4-5.5,15.7-5.5,15.7l-4.4-1.5
	c0,0,8.4-25.2,16.9-50.4c4.2-12.6,8.4-25.2,11.4-34.7c1.5-4.7,2.7-8.7,3.4-11.4c0.2-0.7,0.4-1.3,0.5-1.8c0.1-0.5,0.2-1,0.2-1
	c0.2,0,0.1-0.8,0.1-0.7L-505.5,63.5z"/>
<path opacity="0.1" d="M-426.5,102.7l0.3-5.3c0.1-1.8,0.5-3.6,0.7-5.5c0.6-3.6,1.4-7.1,2.7-10.6c0.5-1.7,1.4-3.4,2.1-5.1
	c0.7-1.7,1.7-3.2,2.5-4.9c1-1.5,2-3.1,3.1-4.5c1.2-1.4,2.3-2.9,3.6-4.1l2-1.9l2.1-1.8c1.4-1.2,3-2.2,4.5-3.2
	c3.2-1.8,6.6-3.5,10.3-4.4c0.9-0.3,1.8-0.5,2.8-0.6c0.9-0.2,1.9-0.4,2.8-0.4l2.9-0.2h2.7c4,0.2,7.7,1,11.3,2.4
	c3.5,1.4,6.8,3.3,9.6,4.5c0.7,0.3,1.4,0.5,2,0.7c0.3,0,0.6,0.1,0.9,0.2l0.4,0l0.2,0l0.1,0c-0.9,0.1-0.2,0-0.4,0l0,0l0.2,0l1.3-0.2
	l0.8-0.3c0.4-0.1,1.3-0.5,2.1-0.8c3.2-1.3,6.5-2.8,10-3.9c1.7-0.6,3.5-1.1,5.3-1.6c1.8-0.3,3.6-0.8,5.5-1c1.9-0.2,3.7-0.5,5.7-0.4
	l2.9,0c1,0.1,1.9,0.2,2.9,0.4c0.9,0.2,1.9,0.2,2.8,0.5l2.8,0.8c1.9,0.4,3.6,1.4,5.3,2.2c1.8,0.7,3.3,1.9,4.9,3
	c0.8,0.5,1.6,1,2.3,1.7l2,1.9c2.9,2.4,4.9,5.5,7.2,8.3c0.8,1,0.6,2.5-0.4,3.3c-0.2,0.1-0.4,0.3-0.6,0.3l0,0
	c-1.1,0.7-2.3,1.7-3.4,2.7c-1.1,1-2.1,2.1-3.1,3.2c-1,1.1-1.9,2.3-2.7,3.5c-0.8,1.2-1.5,2.5-2.2,3.8c-0.6,1.3-1.2,2.6-1.6,4.1
	c-0.5,1.4-0.9,2.8-1.2,4.2c-0.3,1.4-0.5,2.9-0.7,4.4l-0.1,2.2l-0.1,1.1l0,0.3l0,0.1c0,0.2,0-0.2,0-0.2v0l0,0l0,0.1l0,0.6l0.1,2.4
	c0,0.4,0,0.8,0.1,1.2l0.2,1l0.3,2c0.2,0.7,0.4,1.4,0.6,2.1c0.3,1.4,1,2.7,1.4,4.1c0.7,1.3,1.3,2.6,2.1,3.8c0.7,1.3,1.7,2.4,2.7,3.5
	c1,1.1,2,2.1,3.1,3.2c1.1,1,2.3,1.9,3.6,2.8c1.2,0.8,2.6,1.7,3.8,2.2l0.4,0.2c1,0.5,1.5,1.7,1.1,2.8l0,0c-1.2,3.8-2.5,7.4-4,10.9
	c-1.5,3.6-3.2,7.1-5,10.5c-1.8,3.4-4,6.8-6.4,9.9c-2.4,3.2-5.2,6.2-8.5,8.7c-3.3,2.5-7.5,4.5-12,4.9l-0.9,0.1l-0.4,0l-0.2,0l-0.1,0
	l-0.1,0l-0.3,0l-1.4-0.1c-1-0.1-1.9-0.1-2.9-0.2l-3.3-0.6c-1.1-0.2-2-0.6-3-0.8c-3.9-1.2-7.4-3-10.5-3.8c-0.8-0.2-1.6-0.4-2.3-0.4
	l-1.1-0.1l-0.3,0l-0.1,0l0,0c0.6,0,0.1,0,0.2,0l-0.1,0l-0.7,0.1l-1.4,0.1l-0.7,0.1l-0.6,0.1l-2.3,0.5c-3.4,1-7,2.3-10.8,3.4
	c-3.8,1.1-7.9,1.8-12.2,1.9l0,0l-0.4,0l-0.1,0l-0.2,0l-0.4,0l-0.7-0.1c-0.2,0-0.4,0-0.7-0.1l-1-0.3c-0.6-0.2-1.3-0.4-1.9-0.6
	c-0.6-0.2-1-0.5-1.5-0.7l-1.5-0.7l-1.3-0.8c-0.9-0.5-1.8-1.1-2.6-1.7c-3.3-2.4-6.2-5.2-8.9-8.1l-2-2.2l-1.8-2.3
	c-1.3-1.5-2.3-3.2-3.4-4.8c-1.1-1.6-2.1-3.3-3.1-5l-2.8-5.2c-0.8-1.8-1.7-3.5-2.4-5.3c-0.7-1.8-1.4-3.6-2.1-5.5l-1.8-5.6l-1.4-5.7
	c-0.3-1.3,0.5-2.6,1.7-2.9c1.2-0.3,2.4,0.4,2.8,1.6l0,0.2l1.7,5.3l1.9,5.2c0.7,1.7,1.5,3.4,2.2,5l2.5,4.9l2.8,4.8
	c1,1.5,2,3.1,3.1,4.6c2.2,2.9,4.4,5.8,6.9,8.4c2.5,2.6,5.1,5.1,7.9,7.1c0.7,0.5,1.4,1,2.1,1.4l1.1,0.7l1.1,0.5
	c0.4,0.2,0.7,0.4,1.1,0.5c0.3,0.1,0.5,0.2,0.8,0.3l0.4,0.2c0.2,0.1,0.4,0.1,0.7,0.1l0.7,0.1l0.4,0l0.2,0l0.1,0c-0.2,0,0.4,0-0.3,0
	l0,0c3.4-0.1,6.8-0.7,10.2-1.7c3.5-1,7-2.2,10.9-3.3c1-0.3,2.2-0.5,3.3-0.7c0.6-0.1,1.1-0.2,1.5-0.2l1.4-0.1l0.7-0.1l0.1,0l0.3,0
	l0.1,0l0.2,0l0.4,0l1.7,0.2c1.2,0.1,2.2,0.4,3.3,0.6c4.2,1.2,7.5,2.9,10.8,4c1.7,0.6,3.2,0.9,4.7,1.2c0.9,0.1,1.9,0.1,2.8,0.2
	l1.4,0.1c0.2,0-0.2,0-0.2,0l0,0l0.1,0l0.1,0l0.3,0l0.6,0c3-0.2,6.1-1.5,8.8-3.5c2.8-2,5.3-4.5,7.5-7.3c2.3-2.8,4.3-5.9,6.2-9
	c1.9-3.2,3.6-6.4,5.2-9.8c1.6-3.4,3.1-6.8,4.3-10.2l0,0l1.5,3c-1.8-0.6-3.4-1.3-4.9-2.1c-1.6-0.8-3-1.8-4.5-2.8l-2.1-1.6
	c-0.7-0.6-1.3-1.2-1.9-1.8c-1.2-1.3-2.5-2.6-3.5-4.1c-1.1-1.4-2-3-2.9-4.6c-0.7-1.6-1.6-3.3-2-5c-0.3-0.9-0.5-1.7-0.8-2.6l-0.5-2.8
	c-0.4-2-0.3-3.4-0.5-5.1l0-0.6l0-0.4l0-0.2l0-0.3l0.1-1.3l0.1-2.6c0.2-1.8,0.4-3.5,0.8-5.3c0.4-1.7,0.9-3.5,1.5-5.1
	c0.6-1.7,1.4-3.3,2.3-4.9c0.9-1.6,1.9-3.1,3-4.5c1.1-1.4,2.3-2.7,3.6-3.9c1.3-1.2,2.7-2.3,4.2-3.3c1.5-1,3-1.8,4.8-2.5l0,0l-0.9,3.6
	c-2.4-2.4-4.4-5.1-7.1-7.1l-1.9-1.6c-0.6-0.5-1.4-0.9-2-1.3c-1.4-0.8-2.7-1.8-4.2-2.3c-1.5-0.6-2.9-1.4-4.5-1.7l-2.3-0.6
	c-0.8-0.2-1.6-0.2-2.4-0.3l-2.4-0.3l-2.4,0c-1.6-0.1-3.2,0.2-4.8,0.4c-1.6,0.2-3.2,0.6-4.8,0.9c-1.6,0.5-3.2,0.9-4.8,1.5
	c-3.2,1.1-6.3,2.4-9.6,3.7c-0.9,0.3-1.6,0.7-2.8,1l-1.7,0.5l-1.3,0.2l-0.2,0l0,0l-0.5,0l-0.1,0l-0.5,0l-0.9-0.1
	c-0.6-0.1-1.1-0.2-1.7-0.3c-1.1-0.3-2.1-0.7-3-1.1c-3.6-1.7-6.3-3.6-9.3-4.9c-2.9-1.3-6.1-2.2-9.1-2.4l-2.6-0.1l-2.4,0.1
	c-0.8,0-1.6,0.2-2.4,0.3c-0.8,0.1-1.6,0.2-2.4,0.4c-3.2,0.7-6.2,2.1-9.1,3.6c-1.4,0.9-2.9,1.7-4.1,2.8l-2,1.5l-1.8,1.7
	c-1.3,1.1-2.2,2.5-3.3,3.7c-1,1.3-1.9,2.7-2.9,4.1c-0.8,1.5-1.7,2.9-2.4,4.4c-0.6,1.6-1.4,3.1-1.9,4.7c-1.1,3.2-1.9,6.5-2.3,9.8
	c-0.1,1.7-0.4,3.3-0.5,5l-0.1,5.3c0,1.3-1.1,2.4-2.4,2.3C-425.5,105.2-426.5,104.1-426.5,102.7
	C-426.5,102.8-426.5,102.7-426.5,102.7z"/>
<path opacity="0.1" d="M-359.5,48c-0.2-1.1-0.4-2.4-0.5-3.5c-0.1-1.1-0.1-2.3-0.1-3.4c0-1.2,0.2-2.3,0.3-3.4
	c0.1-1.2,0.4-2.3,0.6-3.4c0.3-1.1,0.6-2.3,1-3.4l1.4-3.3c0.5-1.1,1.2-2.1,1.8-3.1c0.6-1,1.4-1.9,2.2-2.9c0.7-1,1.6-1.8,2.5-2.6
	c0.9-0.8,1.7-1.7,2.8-2.3c1-0.7,2-1.3,3-2c1.1-0.5,2.1-1,3.2-1.5l1.6-0.7l1.7-0.5l3.3-0.9c1.1-0.3,2.3-0.3,3.4-0.5
	c1.1-0.1,2.2-0.2,3.4-0.3l0.3,0c1.2-0.1,2.3,0.9,2.4,2.1c0.1,1.3,0.1,2.4,0.1,3.5c0,1.1-0.1,2.3-0.2,3.4c-0.1,1.1-0.3,2.2-0.5,3.3
	c-0.2,1.1-0.5,2.2-0.8,3.3l-1.1,3.2l-1.4,3.1l-1.8,2.9c-0.6,1-1.4,1.8-2.1,2.7c-0.7,0.9-1.6,1.7-2.4,2.5c-0.8,0.8-1.7,1.6-2.6,2.2
	l-2.8,2l-3,1.6l-1.5,0.8l-1.6,0.6l-3.2,1.1c-1.1,0.4-2.2,0.5-3.2,0.8l-3.2,0.7c-1.2,0.3-2.4-0.5-2.7-1.7l0,0L-359.5,48z
	 M-354.5,44.8c1-0.2,1.9-0.4,2.9-0.7l2.8-1l1.4-0.5l1.3-0.7l2.6-1.4l2.4-1.7c0.8-0.5,1.5-1.2,2.2-1.9c0.7-0.7,1.5-1.3,2-2.1
	c0.6-0.8,1.3-1.5,1.8-2.3l1.5-2.5l1.2-2.6l1-2.8l0.7-2.9c0.1-1,0.4-1.9,0.5-2.9c0.1-1,0.2-2,0.2-3c0-1,0-2-0.1-2.8l2.7,2.1
	c-1,0.4-1.9,0.7-2.9,1c-0.9,0.3-1.9,0.5-2.8,0.9l-2.7,1.2l-1.4,0.5l-1.2,0.7c-0.8,0.5-1.7,0.9-2.5,1.4c-0.7,0.6-1.5,1.1-2.2,1.7
	c-0.8,0.5-1.4,1.2-2.1,1.8c-0.7,0.6-1.4,1.3-1.9,2c-0.6,0.7-1.2,1.4-1.7,2.2c-0.5,0.8-1,1.6-1.5,2.4l-1.3,2.5l-1,2.7
	c-0.6,1.8-1.1,3.7-1.5,5.6C-354.3,42.7-354.4,43.7-354.5,44.8C-354.5,44.7-354.5,44.7-354.5,44.8z"/>
<g opacity="0.8">
	<g>
		<path d="M166.1,47.8L155.9,161c-0.1,1.4-1.1,2.6-2.4,2.9l-59.7,16.9c-0.6,0.2-1.3,0.2-1.8,0L32.3,164c-1.4-0.4-2.3-1.6-2.4-2.9
			l0,0l-3.5-37.5L22.9,86l-6.6-75c-0.2-1.9,1.2-3.5,3.1-3.7c0.1,0,0.2,0,0.3,0L166,7h0c2,0,3.6,1.6,3.6,3.6c0,0.1,0,0.3,0,0.4
			l-2.1,19.9c-0.2,1.9-1.9,3.2-3.7,3c-1.8-0.2-3.2-1.8-3-3.6l1.5-20l3.7,4L19.7,14l3.4-3.7l6.9,75l3.3,37.5l3.2,37.5l-2.4-2.9
			l59.7,16.9h-1.8l59.7-16.9l-2.4,2.9l10.2-113.2c0.2-1.9,1.8-3.2,3.7-3.1C164.9,44.3,166.2,46,166.1,47.8z"/>
	</g>
	<g>
		<path fill="none" stroke="#000000" stroke-width="3" stroke-linecap="round" stroke-linejoin="round" stroke-miterlimit="10" d="
			M162.7,47.5"/>
	</g>
	<g>
		<path fill="none" stroke="#000000" stroke-width="3" stroke-linecap="round" stroke-linejoin="round" stroke-miterlimit="10" d="
			M164.2,30.6"/>
	</g>
	<g>
		<path fill="none" stroke="#000000" stroke-width="2" stroke-linecap="round" stroke-linejoin="round" stroke-miterlimit="10" d="
			M77.2,78.5"/>
	</g>
	<g>
		<path d="M77.2,80.8l-27.1,0l2.2-2.5l1.9,18.8l-2.5-2.2l63.6,0.2c1.2,0,2.3,1,2.3,2.3c0,0.1,0,0.2,0,0.2l-2.5,23.1
			c-0.1,0.9-0.8,1.7-1.7,1.9l-20,5.3l0,0c-0.4,0.1-0.8,0.1-1.2,0c-6.9-2.1-13.9-4-20.8-5.9c-0.9-0.3-1.6-1.1-1.6-2l0,0l-1.1-13.8
			l2.2,2.1H51.8l2.2-2.4l2.5,29.6l-1.6-2l38.6,10.7l-1.2,0l38-10.7l-1.6,2c1.2-15.6,2.4-31.3,3.7-46.9l1.9-23.4l1-11.7l0.5-5.9
			l0.2-2.9l0.1-1.5c0-0.5,0.1-1,0.5-1.4l2.2,2.4c-15.3,0.2-30.5,0.2-45.8,0.3c-7.6,0.1-15.3,0-22.9-0.1c-7.6,0-15.3-0.1-22.9-0.2
			l2.2-2.4l1.4,17.5l-2.2-2.1h70.7c1.2,0,2.3,1,2.3,2.3c0,0.1,0,0.2,0,0.3l-2.3,19.1c-0.1,1.1-1.1,2-2.2,2H94.6
			c-1.2,0-2.3-1-2.3-2.3s1-2.3,2.3-2.3h22.4l-2.2,2l2.3-19.1l2.2,2.5H48.7c-1.2,0-2.1-0.9-2.2-2.1L45,42.1c-0.1-1.2,0.8-2.3,2.1-2.4
			l0.1,0h0c7.6-0.1,15.3-0.2,22.9-0.2c7.6,0,15.3-0.1,22.9-0.1c15.3,0.1,30.5,0.1,45.8,0.3c0.4,0,0.8,0.2,1,0.6l1.2,1.9
			c0.3,0.5,0.3,1,0.2,1.5l-0.1,1.5l-0.3,2.9l-0.5,5.9l-1,11.7l-2,23.4c-1.3,15.6-2.7,31.2-4.2,46.9v0c-0.1,1-0.8,1.7-1.6,2l-38,10.7
			c-0.4,0.1-0.8,0.1-1.2,0l-38.6-10.7c-0.9-0.3-1.6-1.1-1.6-2l-2.5-29.6c-0.1-1.2,0.8-2.3,2.1-2.4l0.2,0h19.1c1.2,0,2.1,0.9,2.2,2.1
			l1.1,13.8l-1.6-2c6.9,2,13.8,4.1,20.8,5.9l-1.2,0l20-5.3l-1.7,1.9l2.5-23.1l2.2,2.5l-63.6,0.2h0c-1.3,0-2.3-1-2.4-2.2l-1.5-18.9
			l0,0c-0.1-1.2,0.8-2.3,2.1-2.4l0.2,0h27.1c1.2,0,2.3,1,2.3,2.3S78.4,80.8,77.2,80.8z"/>
	</g>
</g>
<g opacity="0.8">
	<g>
		<path fill="none" stroke="#000000" stroke-width="3" stroke-linecap="round" stroke-linejoin="round" stroke-miterlimit="10" d="
			M381.8,115.3"/>
	</g>
	<g>
		<path fill="none" stroke="#000000" stroke-width="3" stroke-linecap="round" stroke-linejoin="round" stroke-miterlimit="10" d="
			M383.2,99.2"/>
	</g>
	<g>
		<path d="M385.1,115.6l-3.9,43.5c-0.1,1.4-1.1,2.5-2.4,2.9l0,0l-59.1,17c-0.7,0.2-1.3,0.2-1.9,0l-59.1-17l0,0
			c-1.4-0.4-2.3-1.6-2.4-2.9l-3.1-37.2l-3.3-37.2l-3.3-37.2l-1.6-18.6c-0.5-6.2-1.1-12.4-2.1-18.6c-0.3-1.7,0.9-3.3,2.6-3.6
			c0.1,0,0.3,0,0.4,0l0.3,0c24.2-0.2,48.4-0.2,72.6-0.3L355,6.4c12.1,0,24.2,0.1,36.3,0.2c1.9,0,3.3,1.5,3.3,3.4v0.3
			c0,3.7-0.2,7.5-0.4,11.2c-0.2,3.7-0.6,7.4-0.9,11.2l-2.1,22.3L389,77.2l-2.4,22.3c-0.2,1.8-1.9,3.2-3.7,3c-1.8-0.2-3.1-1.8-3-3.6
			l1.6-22.3l1.8-22.3l1.9-22.3c0.3-3.7,0.7-7.4,1.1-11.1c0.5-3.7,0.9-7.4,1.6-11.1l3.3,3.7c-12.1,0.1-24.2,0.2-36.3,0.2l-36.3,0.1
			c-24.2-0.1-48.4,0-72.6-0.3l3.3-3.7c0.2,6.2,0.7,12.4,1.3,18.6l1.7,18.6l3.4,37.2l3.4,37.2l3.6,37.2l-2.4-2.9l59.2,16.6h-1.9
			l59.2-16.6l-2.4,2.9l3.9-43.5c0.2-1.8,1.8-3.2,3.6-3C383.9,112.2,385.3,113.8,385.1,115.6z"/>
	</g>
	<g>
		<path fill="none" stroke="#000000" stroke-width="2" stroke-linecap="round" stroke-linejoin="round" stroke-miterlimit="10" d="
			M276,71.1"/>
	</g>
	<g>
		<path d="M278.3,70.9l2.1,24.3l-2.2-2h63.7c1.2,0,2.2,1,2.2,2.2c0,0.1,0,0.2,0,0.3l-2.8,23.5c-0.1,0.9-0.7,1.6-1.5,1.9l-20.4,6.7
			c-0.5,0.2-1,0.1-1.4,0l-19.9-6.7c-0.8-0.3-1.4-1-1.5-1.8l-1.7-13.1l2.2,2l-18.4,0.3l2.5-2.7l2.5,27.9l-1.6-1.9l37.2,10.9l-1.3,0
			l37.7-11.2l-1.6,1.9l5-55.3l2.2,2.4l-33.2-0.1l-33.2,0.1c-1.2,0-2.1-0.9-2.2-2L291,59c-0.1-1.2,0.8-2.3,2-2.4l0.1,0l0.1,0
			c5.8-0.3,11.7-0.5,17.5-0.6c5.8-0.1,11.7-0.2,17.5-0.1c5.8,0,11.7,0,17.5,0.1c5.8,0,11.7,0.2,17.5,0.4l-2.2,2l2-17.6l2.2,2.5
			h-91.9l2.2-2.4l1.4,15.6c0.1,1.2-0.8,2.3-2,2.4c-1.2,0.1-2.3-0.8-2.4-2l-1.4-15.6c-0.1-1.2,0.8-2.3,2-2.4l0.2,0h91.9
			c1.2,0,2.2,1,2.2,2.2c0,0.1,0,0.2,0,0.2l-2,17.6c-0.1,1.1-1.1,1.9-2.1,2l-0.1,0c-5.8,0.2-11.7,0.4-17.5,0.5
			c-5.8,0.2-11.7,0.2-17.5,0.2c-5.8,0.1-11.7,0-17.5,0c-5.8-0.1-11.7-0.2-17.5-0.5l2.2-2.4l1.7,19.3l-2.2-2l33.2,0.1l33.2-0.1
			c1.2,0,2.2,1,2.2,2.2c0,0.1,0,0.1,0,0.2l-5,55.3c-0.1,0.9-0.7,1.7-1.6,1.9l-37.7,11.2c-0.4,0.1-0.9,0.1-1.3,0l-37.2-10.9
			c-0.9-0.3-1.5-1-1.6-1.9l0,0l-3-27.9v0c-0.1-1.3,0.8-2.6,2.2-2.7c0.1,0,0.2,0,0.3,0l18.4,0.3h0c1.1,0,2,0.9,2.2,2l1.7,13.1
			l-1.5-1.8l19.9,6.7l-1.4,0l20.4-6.7l-1.5,1.9l2.8-23.5l2.2,2.5h-63.7c-1.2,0-2.1-0.9-2.2-2l-2.1-24.3c-0.1-1.2,0.8-2.3,2-2.4
			S278.2,69.7,278.3,70.9z"/>
	</g>
</g>
<g opacity="0.8">
	<path fill="none" stroke="#000000" stroke-width="3" stroke-linecap="round" stroke-linejoin="round" stroke-miterlimit="10" d="
		M274.2,163.6"/>
</g>
<g opacity="0.8">
	<g>
		<path d="M-181.1,165.6l-11.7-3.3l0,0c-1.4-0.4-2.3-1.6-2.4-2.9c-2-24.8-4.3-49.6-6.4-74.5l-3.4-37.2c-1.1-12.4-2.3-24.8-3.6-37.2
			c-0.2-1.8,1.1-3.5,3-3.6c0.1,0,0.2,0,0.3,0h0h145.2c1.8,0,3.4,1.5,3.4,3.4c0,0.1,0,0.2,0,0.3l-6.5,74.5l-6.9,74.4
			c-0.1,1.4-1.1,2.6-2.4,2.9l-59.2,16.8c-0.6,0.2-1.3,0.2-1.8,0l-22.7-6.4c-1.8-0.5-2.8-2.4-2.3-4.1c0.5-1.8,2.4-2.8,4.1-2.3
			l22.7,6.4h-1.8l59.2-16.8l-2.4,2.9l6.5-74.5l6.9-74.4l3.3,3.7h-145.2l3.3-3.7c1,12.4,2,24.8,3.1,37.2l3.3,37.2
			c2.3,24.8,4.5,49.6,7,74.4l-2.4-2.9l11.7,3.3c1.8,0.5,2.8,2.4,2.3,4.1C-177.5,165-179.4,166.1-181.1,165.6z"/>
	</g>
	<g>
		<path d="M-139.6,38.5l52.7-0.5c1.5,0,2.8,1.2,2.8,2.7c0,0.1,0,0.2,0,0.3l0,0l-8.9,93.8c-0.1,0.9-0.7,1.7-1.6,1.9l-18.8,5.6
			c-6.3,1.9-12.5,3.8-18.9,5.5l0,0c-0.4,0.1-0.8,0.1-1.2,0l-37.7-10.9c-0.9-0.3-1.5-1.1-1.6-2l-2.2-28.5c-0.1-1.2,0.8-2.3,2.1-2.4
			l0.2,0l18.2,0c1.1,0,2.1,0.8,2.2,1.9l2,14.5l-1.7-1.9l19.7,4.7l-1.1,0l20.2-5.9l-1.6,1.9l6.1-59.8l2.2,2.5l-70.4-0.3
			c-1,0-1.8-0.8-1.9-1.7l0,0l-2.3-19.2c-0.1-1.2,0.7-2.3,1.9-2.4c0.1,0,0.2,0,0.2,0h0h24.4c1.2,0,2.2,1,2.2,2.2c0,1.2-1,2.2-2.2,2.2
			H-179l2.2-2.5l1.6,19.3l-1.9-1.7l70.4-0.3c1.2,0,2.2,1,2.2,2.2c0,0.1,0,0.2,0,0.2l-6.1,59.8c-0.1,0.9-0.8,1.7-1.6,1.9l-20.2,5.9
			c-0.4,0.1-0.8,0.1-1.1,0l-19.7-4.7c-0.9-0.2-1.6-1-1.7-1.9l-2-14.5l2.2,1.9l-18.2,0l2.2-2.4l2.2,28.5l-1.6-2l37.7,10.9l-1.3,0
			c6.2-2,12.6-3.8,18.8-5.6l18.9-5.5l-1.6,1.9l7.8-93.9l2.8,3l-52.7-0.6c-1.2,0-2.2-1-2.2-2.3C-141.8,39.5-140.8,38.5-139.6,38.5z"
			/>
	</g>
</g>
<g opacity="0.8">
	<path fill="none" stroke="#000000" stroke-width="2" stroke-linecap="round" stroke-linejoin="round" stroke-miterlimit="10" d="
		M315.2,41.1"/>
</g>
<g opacity="0.8">
	<path fill="none" stroke="#000000" stroke-width="2" stroke-linecap="round" stroke-linejoin="round" stroke-miterlimit="10" d="
		M314.7,76.2"/>
</g>
</svg>
