<?xml version="1.0" encoding="utf-8"?>
<!-- Generator: Adobe Illustrator 16.0.0, SVG Export Plug-In . SVG Version: 6.00 Build 0)  -->
<!DOCTYPE svg PUBLIC "-//W3C//DTD SVG 1.1//EN" "http://www.w3.org/Graphics/SVG/1.1/DTD/svg11.dtd">
<svg version="1.1" id="Warstwa_1" xmlns="http://www.w3.org/2000/svg" xmlns:xlink="http://www.w3.org/1999/xlink" x="0px" y="0px"
	 width="186px" height="186px" viewBox="0 0 186 186" enable-background="new 0 0 186 186" xml:space="preserve">
<path opacity="0.8" d="M-183.1-200.4c0,0,1.6-1.1,4.6-3.2c1.5-1,3.7-2.2,6.1-3.6c1.2-0.7,2.6-1.3,4-2c1.4-0.7,2.9-1.4,4.6-2
	c6.6-2.7,15-5.1,24.8-5.9c1.2-0.1,2.5-0.1,3.8-0.2c0.6,0,1.3-0.1,1.9-0.1l1,0l1.1,0c2.5,0.1,5.1,0.2,7.8,0.4
	c2.8,0.4,5.7,0.8,8.6,1.3c2.8,0.7,5.7,1.4,8.7,2.3c11.6,3.7,23.4,10.4,33.5,20.1c1.3,1.1,2.4,2.5,3.6,3.8c1.2,1.3,2.5,2.6,3.5,4
	c2.1,2.9,4.4,5.7,6.2,8.9c4,6.2,6.9,13.2,9.2,20.4c0.9,3.7,2,7.4,2.5,11.3c0.7,3.8,0.8,7.7,1,11.6l0,0.7l0,0.4l0,0.2
	c0,0.1,0-0.1,0,0.4l-0.1,1.4l-0.1,2.8c-0.2,1.9-0.1,3.7-0.4,5.8c-0.3,2-0.6,4-0.9,6c-0.3,2-0.9,3.9-1.4,5.8l-0.8,2.9
	c-0.3,1-0.7,1.9-1,2.8l-2.1,5.7c-1.8,3.6-3.3,7.4-5.6,10.7c-2,3.6-4.5,6.7-7,10c-1.3,1.5-2.7,3-4.1,4.5c-1.3,1.6-2.8,2.9-4.3,4.3
	c-1.5,1.3-2.9,2.8-4.6,4l-4.9,3.6c-1.7,1.2-3.4,2.1-5.2,3.2c-0.9,0.5-1.7,1.1-2.6,1.6l-2.7,1.3c-7.2,3.7-15,6.1-22.9,7.5
	c-2,0.3-4,0.6-5.9,0.9c-2,0.2-4,0.2-6,0.3l-3,0.1l-0.2,0l-0.4,0l-0.4,0l-0.7,0l-1.4-0.1c-1.9-0.1-3.8-0.2-5.6-0.3
	c-2-0.3-4-0.6-5.9-0.9l-2.9-0.5l-2.8-0.7c-1.9-0.5-3.8-0.9-5.6-1.5c-1.8-0.7-3.6-1.3-5.4-2c-1.8-0.6-3.5-1.4-5.2-2.3
	c-1.7-0.9-3.4-1.6-5-2.5c-3.2-2-6.4-3.8-9.3-6.1c-6-4.2-10.9-9.6-15.4-14.8c-8.6-11-14-23.3-16.6-35c-0.4-1.5-0.6-2.9-0.8-4.4
	c-0.2-1.5-0.4-2.9-0.6-4.3c-0.3-1.4-0.3-2.9-0.3-4.3c-0.1-1.4-0.1-2.8-0.2-4.2c0-0.7-0.1-1.2-0.1-2.2c0-0.7,0.1-1.3,0.1-2
	c0.1-1.3,0.1-2.6,0.2-3.8c0-1.2,0.2-2.5,0.4-3.8c0.2-1.3,0.3-2.5,0.5-3.8c1.6-9.8,4.6-17.8,7.6-24.2c3.2-6.3,6.2-11,8.5-14
	c2.3-3,3.5-4.6,3.5-4.6c1.2-1.5,3.4-1.8,4.9-0.7c1.5,1.2,1.8,3.4,0.7,4.9c0,0.1-0.1,0.1-0.1,0.2l-0.2,0.2c0,0-1.2,1.4-3.5,4.1
	c-2.2,2.7-5.2,6.9-8.4,12.7c-2.9,5.8-5.9,13.4-7.4,22.4c-0.2,1.1-0.3,2.2-0.5,3.4c-0.2,1.1-0.3,2.3-0.4,3.6
	c-0.1,1.3-0.1,2.5-0.2,3.8c0,0.6-0.1,1.3-0.1,2c0,0.4,0.1,1.2,0.1,1.8c0.1,1.3,0.1,2.6,0.2,3.9c0.1,1.3,0.1,2.6,0.4,4
	c0.2,1.3,0.4,2.7,0.6,4c0.2,1.4,0.4,2.7,0.8,4.1c2.6,10.9,8,22.2,16.1,32.1c4.3,4.8,8.9,9.5,14.5,13.3c2.6,2.1,5.6,3.7,8.6,5.5
	c1.5,0.8,3.1,1.5,4.6,2.3c1.6,0.8,3.1,1.5,4.8,2c1.6,0.6,3.3,1.2,4.9,1.8c1.7,0.5,3.4,0.9,5.1,1.3l2.6,0.7l2.6,0.4
	c1.7,0.3,3.4,0.5,5.2,0.8c1.9,0.1,3.8,0.2,5.6,0.3l1.4,0.1l0.7,0l0.4,0c0,0,0.3,0,0,0l0.2,0l2.7-0.1c1.8-0.1,3.6-0.1,5.4-0.3
	l5.4-0.8c7.2-1.3,14.3-3.5,20.9-6.9l2.5-1.2c0.8-0.4,1.6-1,2.4-1.4c1.6-1,3.2-1.9,4.7-2.9l4.5-3.3c1.5-1,2.8-2.4,4.2-3.6
	c1.4-1.2,2.8-2.5,4-3.9c1.2-1.4,2.5-2.7,3.7-4.1c2.2-3,4.6-5.9,6.3-9.1c2.1-3.1,3.5-6.5,5.1-9.8l1.9-5.2c0.3-0.9,0.7-1.7,0.9-2.6
	l0.7-2.7c0.4-1.8,1-3.5,1.3-5.3c0.3-1.8,0.5-3.5,0.8-5.3c0.4-1.7,0.3-3.7,0.4-5.5l0.1-2.8l0.1-1.4c0,0.3,0,0,0,0l0-0.2l0-0.3l0-0.7
	c-0.2-3.6-0.3-7.1-0.9-10.6c-0.4-3.5-1.4-6.9-2.2-10.3c-2.1-6.6-4.7-13-8.4-18.6c-1.6-2.9-3.8-5.5-5.7-8.1c-1-1.3-2.2-2.4-3.2-3.7
	c-1.1-1.2-2.1-2.5-3.3-3.5c-9.2-8.8-20-14.9-30.5-18.4c-2.7-0.8-5.3-1.4-7.9-2.1c-2.6-0.4-5.1-0.8-7.5-1.2c-2.6-0.2-5.2-0.3-7.7-0.4
	l-0.8,0l-0.9,0c-0.6,0-1.2,0-1.8,0.1c-1.2,0-2.3,0.1-3.5,0.1c-9.1,0.7-16.7,2.8-22.8,5.3c-1.5,0.5-2.9,1.2-4.2,1.8
	c-1.3,0.6-2.6,1.2-3.7,1.8c-2.1,1.3-4,2.2-5.5,3.2c-3,2.1-4.6,3.1-4.6,3.1c-1.6,1.1-3.8,0.7-4.9-0.9
	C-185-197.1-184.6-199.3-183.1-200.4z"/>
<path opacity="0.8" d="M-209.4-162.5c0,0,9.7-0.1,24.1-0.2c14.5-0.2,33.8-0.1,53.1-0.2c9.7,0,19.3-0.1,28.4-0.1
	c9.1,0,17.5-0.1,24.8,0c14.5,0,24.1,0.6,24.1,0.6v7c0,0-9.7,0.6-24.1,0.6c-7.2,0.1-15.7,0-24.8,0c-9.1,0-18.7-0.1-28.4-0.1
	c-19.3-0.1-38.6-0.1-53.1-0.2c-14.5-0.1-24.1-0.2-24.1-0.2V-162.5z"/>
<path opacity="0.8" d="M-209.4-107.9c0,0,2.4,0,6.7-0.1c4.3,0,10.3,0,17.7-0.1c14.6,0,34.1,0,53.6,0c39,0,77.9,0.1,77.9,0.1v7
	c0,0-39,0-77.9,0.1c-19.5,0-39,0-53.6,0c-7.3,0-13.4-0.1-17.7-0.1c-4.3,0-6.7-0.1-6.7-0.1V-107.9z"/>
<path opacity="0.8" d="M-98.9-131.7c0,0,0,1.4,0,4.1c-0.1,2.8-0.1,6.8-0.5,11.9c-0.4,5.1-1,11.3-2.2,18.4c-1.2,7.1-2.9,15-5.8,23.4
	c-1.5,4.2-3.2,8.5-5.7,12.8c-2.4,4.2-5.5,8.7-10.4,11.9c-2.5,1.6-5.7,2.6-8.9,2.3c-0.5,0-1.5-0.2-2.4-0.4c-0.8-0.2-1.5-0.5-2.3-0.8
	c-1.4-0.7-2.7-1.5-3.9-2.4c-4.6-3.8-7.6-8.8-10-13.8c-4.8-10.2-7.6-21.3-9.4-32.7c-1.8-11.4-2.6-23-2.6-34.7
	c0.2-11.7,0.6-23.3,2.1-34.8c1.5-11.5,4.4-22.6,9.3-32.9c2.5-5.1,5.5-10.1,10.3-14c2.4-1.9,5.5-3.5,8.9-3.7l0.6,0l0.3,0l0.2,0
	c0,0,0.6,0,0.4,0l0.9,0.1l0.5,0l0.7,0.1l1.4,0.3c1.6,0.5,3.1,1.1,4.3,1.9c5.1,3.3,8.1,7.8,10.6,12.1c2.4,4.3,4.2,8.7,5.6,13
	c2.9,8.5,4.5,16.4,5.6,23.5c1.1,7.1,1.7,13.3,2.1,18.4c0.4,5.1,0.4,9.1,0.5,11.9C-98.9-133.2-98.9-131.7-98.9-131.7L-98.9-131.7z
	 M-105.9-131.7c0,0,0-1.4,0-4.1c-0.1-2.7-0.2-6.6-0.5-11.5c-0.4-4.9-0.9-11-2.1-17.8c-1.1-6.8-2.7-14.4-5.4-22.3
	c-1.4-3.9-3-8-5.1-11.8c-2.1-3.8-4.8-7.5-8.1-9.5c-3.2-2.1-6.7-1.8-10,0.9c-3.3,2.7-6.1,6.9-8.3,11.5c-2.2,4.6-4,9.6-5.5,14.8
	c-1.5,5.2-2.7,10.6-3.8,16c-2.2,10.9-3.4,22.3-3.3,33.7c0,11.4,0.9,22.8,2.7,33.8c1.9,11,4.6,21.8,9.1,31.1
	c2.3,4.6,5.1,8.9,8.6,11.7c1.8,1.4,3.6,2.2,5.4,2.3c1.9,0.2,3.7-0.4,5.4-1.5c3.4-2.2,6.1-6,8.2-9.8c2.1-3.8,3.7-7.9,5.1-11.9
	c2.6-8,4.2-15.6,5.3-22.4c1.1-6.8,1.6-12.8,1.9-17.8c0.3-5,0.4-8.9,0.5-11.5C-105.9-130.3-105.9-131.8-105.9-131.7L-105.9-131.7z"/>
<path opacity="0.9" fill="none" stroke="#000000" stroke-width="3" stroke-miterlimit="10" d="M-43.5-138.3"/>
<path opacity="0.8" d="M144.3-61.7c0,0-1.6,1.1-4.6,3.2c-1.5,1-3.7,2.2-6.1,3.6c-1.2,0.7-2.6,1.3-4,2c-1.4,0.7-2.9,1.4-4.6,2
	c-6.6,2.7-15,5.1-24.9,5.9c-1.2,0.1-2.5,0.1-3.8,0.2c-0.6,0-1.3,0.1-1.9,0.1l-1,0l-1.1,0c-2.5-0.1-5.1-0.2-7.8-0.4
	c-2.8-0.4-5.7-0.8-8.7-1.3c-2.8-0.7-5.8-1.4-8.7-2.3c-11.7-3.7-23.5-10.4-33.6-20.1c-1.4-1.1-2.4-2.5-3.7-3.8
	c-1.2-1.3-2.5-2.6-3.5-4c-2.1-2.9-4.5-5.7-6.2-8.9c-4-6.2-6.9-13.2-9.2-20.5c-0.9-3.7-2-7.4-2.5-11.3c-0.7-3.8-0.8-7.7-1-11.7l0-0.7
	l0-0.4l0-0.2c0-0.1,0,0.1,0-0.4l0.1-1.4l0.1-2.8c0.2-1.9,0.1-3.7,0.5-5.8c0.3-2,0.6-4,0.9-6c0.3-2,0.9-3.9,1.4-5.9l0.8-2.9
	c0.3-1,0.7-1.9,1-2.9l2.1-5.7c1.8-3.6,3.4-7.4,5.6-10.8c2-3.6,4.5-6.7,7-10c1.3-1.6,2.7-3,4.1-4.5c1.3-1.6,2.8-2.9,4.4-4.3
	c1.5-1.3,2.9-2.8,4.6-4l4.9-3.7c1.7-1.2,3.5-2.1,5.2-3.2c0.9-0.5,1.7-1.1,2.6-1.6l2.7-1.3c7.2-3.7,15.1-6.1,22.9-7.5
	c2-0.3,4-0.6,5.9-0.9c2-0.2,4-0.2,6-0.3l3-0.1l0.2,0l0.4,0l0.4,0l0.7,0l1.4,0.1c1.9,0.1,3.8,0.2,5.7,0.3c2,0.3,4,0.6,5.9,0.9l3,0.5
	l2.8,0.7c1.9,0.5,3.8,0.9,5.6,1.5c1.8,0.7,3.6,1.3,5.4,2c1.8,0.6,3.5,1.4,5.2,2.3c1.7,0.9,3.4,1.6,5,2.5c3.2,2,6.5,3.8,9.3,6.1
	c6,4.2,10.9,9.6,15.4,14.9c8.6,11,14,23.3,16.7,35.1c0.4,1.5,0.6,2.9,0.8,4.4c0.2,1.5,0.4,2.9,0.6,4.3c0.3,1.4,0.3,2.9,0.4,4.3
	c0.1,1.4,0.1,2.8,0.2,4.2c0,0.7,0.1,1.3,0.1,2.2c0,0.7-0.1,1.3-0.1,2c-0.1,1.3-0.1,2.6-0.2,3.8c0,1.2-0.2,2.5-0.4,3.8
	c-0.2,1.3-0.3,2.5-0.5,3.8c-1.6,9.8-4.6,17.8-7.6,24.3c-3.2,6.3-6.2,11-8.5,14.1c-2.3,3-3.5,4.6-3.5,4.6c-1.2,1.5-3.4,1.8-4.9,0.7
	c-1.5-1.2-1.8-3.4-0.7-4.9c0-0.1,0.1-0.1,0.1-0.2l0.2-0.2c0,0,1.2-1.4,3.5-4.1c2.2-2.7,5.3-6.9,8.4-12.7c3-5.8,5.9-13.4,7.4-22.4
	c0.2-1.1,0.3-2.2,0.5-3.4c0.2-1.1,0.3-2.3,0.4-3.6c0.1-1.3,0.1-2.5,0.2-3.8c0-0.6,0.1-1.3,0.1-2c0-0.4-0.1-1.2-0.1-1.8
	c-0.1-1.3-0.1-2.6-0.2-3.9c-0.1-1.3-0.1-2.7-0.4-4c-0.2-1.3-0.4-2.7-0.6-4c-0.2-1.4-0.4-2.7-0.8-4.1c-2.6-11-8-22.2-16.2-32.2
	c-4.3-4.8-8.9-9.5-14.5-13.4c-2.6-2.1-5.7-3.7-8.6-5.5c-1.5-0.8-3.1-1.5-4.6-2.3c-1.6-0.8-3.1-1.5-4.8-2c-1.6-0.6-3.3-1.2-4.9-1.8
	c-1.7-0.5-3.4-0.9-5.1-1.3l-2.6-0.7l-2.6-0.4c-1.7-0.3-3.5-0.5-5.2-0.8c-1.9-0.1-3.8-0.2-5.7-0.3l-1.4-0.1l-0.7,0l-0.4,0
	c0,0-0.3,0,0,0l-0.2,0l-2.7,0.1c-1.8,0.1-3.6,0.1-5.5,0.3l-5.4,0.8c-7.2,1.4-14.3,3.5-20.9,6.9l-2.5,1.2c-0.8,0.4-1.6,1-2.4,1.4
	c-1.6,1-3.2,1.9-4.7,2.9l-4.5,3.3c-1.5,1-2.8,2.5-4.2,3.7c-1.4,1.2-2.8,2.5-4,3.9c-1.2,1.4-2.5,2.7-3.7,4.1c-2.2,3-4.6,5.9-6.4,9.1
	c-2.1,3.1-3.5,6.5-5.1,9.8l-1.9,5.2c-0.3,0.9-0.7,1.7-0.9,2.6l-0.7,2.7c-0.4,1.8-1,3.5-1.3,5.3c-0.3,1.8-0.5,3.5-0.8,5.3
	c-0.4,1.7-0.3,3.7-0.4,5.6l-0.1,2.8l-0.1,1.4c0-0.3,0,0,0,0l0,0.2l0,0.3l0,0.7c0.2,3.6,0.3,7.2,0.9,10.7c0.4,3.5,1.4,6.9,2.2,10.3
	c2.1,6.6,4.7,13,8.4,18.7c1.6,3,3.8,5.5,5.7,8.2c1,1.3,2.2,2.5,3.2,3.7c1.1,1.2,2.1,2.5,3.3,3.5c9.3,8.9,20,15,30.6,18.4
	c2.7,0.8,5.3,1.4,7.9,2.1c2.6,0.4,5.1,0.8,7.6,1.2c2.6,0.2,5.2,0.3,7.8,0.4l0.8,0l0.9,0c0.6,0,1.2,0,1.8-0.1c1.2,0,2.3-0.1,3.5-0.1
	c9.1-0.7,16.8-2.9,22.8-5.3c1.5-0.5,2.9-1.2,4.2-1.8c1.3-0.6,2.6-1.2,3.7-1.8c2.2-1.3,4-2.2,5.5-3.2c3-2.1,4.6-3.2,4.6-3.2
	c1.6-1.1,3.8-0.7,4.9,0.9C146.3-64.9,145.9-62.8,144.3-61.7z"/>
<path opacity="0.8" d="M66.6-52.9c0.7-3,2-5.8,3.1-8.7l3.3-8.6l6.7-17.2l6.6-17.2l6.5-17.3c0.5-1.2,1.8-1.8,3-1.4
	c0.6,0.2,1.1,0.7,1.3,1.3l0,0.1c2.2,5.6,4.5,11.3,6.6,17c2.2,5.7,4.3,11.3,6.4,17c4.2,11.4,8.5,22.7,11.8,34.4
	c0.4,1.2-0.4,2.5-1.6,2.9c-1.1,0.3-2.3-0.3-2.8-1.3c-4.9-11.1-8.9-22.6-13-34c-2.1-5.7-4-11.4-6-17.2c-2-5.7-3.9-11.5-5.8-17.3
	l4.4,0L90.5-103L84-85.7l-6.4,17.3l-3.2,8.7c-1.1,2.9-2,5.8-3.5,8.6c-0.6,1.2-2,1.6-3.2,1C66.8-50.8,66.3-51.8,66.6-52.9z"/>
<path opacity="0.8" d="M20.5-159c0,0,0.8,1.5,1.8,4.2c1,2.8,2.5,6.7,4.2,11.4c1.7,4.7,3.7,10.3,5.9,16.2c2.2,5.9,4.5,12.2,6.8,18.5
	c2.3,6.3,4.6,12.6,6.8,18.5c1.1,3,2.2,5.8,3.3,8.5c1.1,2.7,2.2,5.2,3.2,7.5c1,2.3,1.8,4.5,2.6,6.4c0.7,1.9,1.3,3.6,1.7,5
	c0.8,2.8,1.1,4.5,1.1,4.5c0.2,1.3-0.7,2.5-2,2.7c-1,0.1-1.9-0.3-2.4-1.1c0,0-0.9-1.5-2.1-4.1c-0.6-1.3-1.3-3-2-4.9
	c-0.7-1.9-1.5-4.1-2.2-6.5c-0.8-2.4-1.6-5-2.5-7.8c-0.9-2.8-1.9-5.6-3-8.6c-2.2-5.9-4.6-12.2-6.9-18.5c-2.4-6.3-4.7-12.6-7-18.5
	c-2.2-5.9-4.3-11.4-6.1-16.1c-1.8-4.7-3.3-8.7-4.3-11.4c-1-2.8-1.4-4.4-1.4-4.4c-0.3-1.3,0.6-2.5,1.8-2.8
	C19-160.4,20-159.9,20.5-159z"/>
<path opacity="0.8" d="M25.4-179.2c1.3,0.4,2.5,0.2,3.8,0.2l3.8,0l7.5,0c5,0,10-0.1,15-0.2c1.3,0,2.3,1,2.3,2.2v0v0.1v0
	c0.3,1.3,0.4,2.6,0.4,3.8c0,1.3-0.1,2.6-0.4,3.8l-0.2,1c-0.2,1-1.2,1.6-2.1,1.3l0,0h0c-2.1,0.6-4.2,0.3-6.2,0.3
	c-2.1,0-4.2-0.1-6.3-0.3l2.2-3.1l0,0c2.4,6.5,4.8,13,7.1,19.6l7,19.6c4.6,13.1,9.2,26.2,13.7,39.3l-4.4,0l0,0L86.8-143l0.1,1.7
	l-11.7-27l2.1,1.4h0c-2-0.5-3.9-0.7-5.9-0.8c-1.9-0.1-3.9,0-5.9,0.8c-0.7,0.3-1.4-0.1-1.7-0.7l-0.6-1.6l0,0
	c-0.3-1.3-0.4-2.6-0.4-3.8c0-1.3,0.1-2.6,0.4-3.8l0.3-1.1c0.2-0.9,1.1-1.5,2.1-1.3l0,0l0,0c4.3,0.2,8.7,0.2,13,0.2
	c4.3,0.1,8.7,0,13,0c8.7,0,17.3-0.1,26-0.2c1.3,0,2.3,1,2.3,2.3v0l0,0.1v0v8c0,1.3-1,2.3-2.3,2.3h0h-11.7l2.2-3.1l0,0
	c2.5,6.9,4.9,13.9,7.4,20.8l7.2,20.9L137-85.9l-4.4-0.2l0,0c2-4.6,3.9-9.5,5.6-14.3c0.9-2.4,1.6-4.9,2.4-7.3
	c0.8-2.4,1.5-4.9,2.1-7.4c0.6-2.5,1.3-4.9,1.7-7.4c0.5-2.5,0.9-5,1.2-7.5l0.3-3.7l0-3.7c0-1.2-0.2-2.4-0.3-3.6
	c0-0.4-0.2-1.2-0.3-1.8c-0.1-0.7-0.3-1.1-0.4-1.7c-1.3-4.6-3.7-9-6.4-13.3c-2.7-4.3-5.8-8.5-8.1-13.7c-1.1-2.6-2-5.6-1.6-8.8
	c0.3-3.2,2-6,3.9-8.2c0.5-0.5,1-1,1.5-1.5l0,0l0.3-0.2l0.1-0.1l0.2-0.1l0.4-0.3l0.8-0.6c0.5-0.4,1-0.8,1.6-1.2l2.1-1.1
	c0.7-0.4,1.5-0.6,2.2-0.8c0.7-0.3,1.5-0.4,2.4-0.4c0.8-0.1,1.7,0,2.6,0.1c0.9,0.3,1.7,0.4,2.8,1.2c1,0.8,1.1,2.3,0.3,3.3
	c-0.8,1-2.3,1.1-3.3,0.3c0,0,0,0,0.1,0l-0.1,0c-0.1,0-0.1-0.1-0.2-0.1c-0.2,0-0.3-0.1-0.5-0.2c-0.4,0-0.8-0.1-1.3,0
	c-0.5,0-0.9,0.1-1.4,0.3c-0.5,0.2-1,0.2-1.4,0.5l-1.4,0.7c-0.5,0.3-1,0.7-1.5,1.1l-1.3,1c-0.4,0.4-0.8,0.8-1.2,1.2
	c-1.5,1.7-2.5,3.6-2.7,5.6c-0.3,2,0.3,4.2,1.2,6.3c1.9,4.3,5,8.5,7.8,12.9c2.8,4.4,5.5,9.2,7,14.6c0.2,0.7,0.4,1.5,0.5,2.1
	c0.1,0.7,0.3,1.2,0.3,2c0.1,1.4,0.3,2.8,0.3,4.1l-0.1,4.1l-0.4,4c-0.3,2.6-0.7,5.3-1.3,7.9c-0.5,2.6-1.2,5.2-1.8,7.7
	c-0.7,2.5-1.4,5.1-2.2,7.6c-0.8,2.5-1.6,5-2.5,7.5c-1.8,4.9-3.6,9.8-5.8,14.6l0,0c-0.5,1.2-1.9,1.7-3.1,1.2
	c-0.6-0.3-1.1-0.8-1.3-1.4l0,0l-14.6-41.7l-7.2-20.9c-2.4-7-4.8-13.9-7.1-21l0,0c-0.4-1.2,0.2-2.6,1.4-3c0.3-0.1,0.5-0.1,0.8-0.1
	h11.7h0l-2.3,2.3v-8v0l2.3,2.3c-8.7-0.2-17.3-0.2-26-0.2c-4.3,0-8.7-0.1-13,0c-4.3,0.1-8.7,0-13,0.2l0,0l2.3-2.3
	c0.3,1.3,0.4,2.6,0.4,3.8c0,1.3-0.1,2.6-0.4,3.8l0,0l-2.3-2.3c2,0.8,3.9,0.8,5.9,0.8c2-0.1,3.9-0.2,5.9-0.8h0c1,0,1.8,0.6,2.1,1.4
	l11.7,27c0.2,0.6,0.2,1.2,0.1,1.7L72.9-89.9l0,0c-0.4,1.2-1.8,1.9-3,1.4c-0.7-0.2-1.2-0.8-1.4-1.4l0-0.1c-4.8-13-9.4-26.1-14.1-39.2
	l-6.9-19.6c-2.3-6.5-4.6-13.1-6.8-19.7l0,0c-0.5-1.1,0-2.4,1-2.9c0.2-0.1,0.5-0.2,0.7-0.2l0.5,0c2.1-0.2,4.2-0.3,6.3-0.3
	c2.1,0,4.2-0.2,6.2,0.3h0l-2.3,2.3c-0.3-1.3-0.4-2.6-0.4-3.8c0-1.3,0.1-2.6,0.4-3.8v0l2.3,2.3c-5-0.1-10-0.2-15-0.2l-7.5,0l-3.8,0
	c-1.3,0-2.5-0.1-3.8,0.2c-1.3,0.4-2.7-0.4-3-1.7s0.4-2.7,1.7-3C24.5-179.3,25-179.3,25.4-179.2z"/>
<path opacity="0.8" d="M171.6-162.2c0,0.1,0.1,0.1,0,1.7c-0.1,0.8-0.2,1.2-0.3,1.8c-0.1,0.6-0.3,1.2-0.5,2
	c-0.7,2.9-1.9,6.9-3.3,11.7c-2.9,9.6-7,22.2-11.2,34.8c-4.3,12.6-8.6,25.2-11.8,34.6c-3.3,9.4-5.5,15.7-5.5,15.7l-4.4-1.5
	c0,0,8.4-25.2,16.9-50.4c4.2-12.6,8.4-25.2,11.4-34.7c1.5-4.7,2.7-8.7,3.4-11.4c0.2-0.7,0.4-1.3,0.5-1.8c0.1-0.5,0.2-1,0.2-1
	c0.2,0,0.1-0.8,0.1-0.7L171.6-162.2z"/>
<path opacity="0.8" d="M-200.8,102.7l0.3-5.3c0.1-1.8,0.5-3.6,0.7-5.5c0.6-3.6,1.4-7.1,2.7-10.6c0.5-1.7,1.4-3.4,2.1-5.1
	c0.7-1.7,1.7-3.2,2.5-4.9c1-1.5,2-3.1,3.1-4.5c1.2-1.4,2.3-2.9,3.6-4.1l2-1.9l2.1-1.8c1.4-1.2,3-2.2,4.5-3.2
	c3.2-1.8,6.6-3.5,10.3-4.4c0.9-0.3,1.8-0.5,2.8-0.6c0.9-0.2,1.9-0.4,2.8-0.4l2.9-0.2h2.7c4,0.2,7.7,1,11.3,2.4
	c3.5,1.4,6.8,3.3,9.6,4.5c0.7,0.3,1.4,0.5,2,0.7c0.3,0,0.6,0.1,0.9,0.2l0.4,0l0.2,0l0.1,0c-0.9,0.1-0.2,0-0.4,0l0,0l0.2,0l1.3-0.2
	l0.8-0.3c0.4-0.1,1.3-0.5,2.1-0.8c3.2-1.3,6.5-2.8,10-3.9c1.7-0.6,3.5-1.1,5.3-1.6c1.8-0.3,3.6-0.8,5.5-1c1.9-0.2,3.7-0.5,5.7-0.4
	l2.9,0c1,0.1,1.9,0.2,2.9,0.4c0.9,0.2,1.9,0.2,2.8,0.5l2.8,0.8c1.9,0.4,3.6,1.4,5.3,2.2c1.8,0.7,3.3,1.9,4.9,3
	c0.8,0.5,1.6,1,2.3,1.7l2,1.9c2.9,2.4,4.9,5.5,7.2,8.3c0.8,1,0.6,2.5-0.4,3.3c-0.2,0.1-0.4,0.3-0.6,0.3l0,0
	c-1.1,0.7-2.3,1.7-3.4,2.7c-1.1,1-2.1,2.1-3.1,3.2c-1,1.1-1.9,2.3-2.7,3.5c-0.8,1.2-1.5,2.5-2.2,3.8c-0.6,1.3-1.2,2.6-1.6,4.1
	c-0.5,1.4-0.9,2.8-1.2,4.2c-0.3,1.4-0.5,2.9-0.7,4.4l-0.1,2.2l-0.1,1.1l0,0.3l0,0.1c0,0.2,0-0.2,0-0.2v0l0,0l0,0.1l0,0.6l0.1,2.4
	c0,0.4,0,0.8,0.1,1.2l0.2,1l0.3,2c0.2,0.7,0.4,1.4,0.6,2.1c0.3,1.4,1,2.7,1.4,4.1c0.7,1.3,1.3,2.6,2.1,3.8c0.7,1.3,1.7,2.4,2.7,3.5
	c1,1.1,2,2.1,3.1,3.2c1.1,1,2.3,1.9,3.6,2.8c1.2,0.8,2.6,1.7,3.8,2.2l0.4,0.2c1,0.5,1.5,1.7,1.1,2.8l0,0c-1.2,3.8-2.5,7.4-4,10.9
	c-1.5,3.6-3.2,7.1-5,10.5c-1.8,3.4-4,6.8-6.4,9.9c-2.4,3.2-5.2,6.2-8.5,8.7c-3.3,2.5-7.5,4.5-12,4.9l-0.9,0.1l-0.4,0l-0.2,0l-0.1,0
	l-0.1,0l-0.3,0l-1.4-0.1c-1-0.1-1.9-0.1-2.9-0.2l-3.3-0.6c-1.1-0.2-2-0.6-3-0.8c-3.9-1.2-7.4-3-10.5-3.8c-0.8-0.2-1.6-0.4-2.3-0.4
	l-1.1-0.1l-0.3,0l-0.1,0l0,0c0.6,0,0.1,0,0.2,0l-0.1,0l-0.7,0.1l-1.4,0.1l-0.7,0.1l-0.6,0.1l-2.3,0.5c-3.4,1-7,2.3-10.8,3.4
	c-3.8,1.1-7.9,1.8-12.2,1.9l0,0l-0.4,0l-0.1,0l-0.2,0l-0.4,0l-0.7-0.1c-0.2,0-0.4,0-0.7-0.1l-1-0.3c-0.6-0.2-1.3-0.4-1.9-0.6
	c-0.6-0.2-1-0.5-1.5-0.7l-1.5-0.7l-1.3-0.8c-0.9-0.5-1.8-1.1-2.6-1.7c-3.3-2.4-6.2-5.2-8.9-8.1l-2-2.2l-1.8-2.3
	c-1.3-1.5-2.3-3.2-3.4-4.8c-1.1-1.6-2.1-3.3-3.1-5l-2.8-5.2c-0.8-1.8-1.7-3.5-2.4-5.3c-0.7-1.8-1.4-3.6-2.1-5.5l-1.8-5.6l-1.4-5.7
	c-0.3-1.3,0.5-2.6,1.7-2.9c1.2-0.3,2.4,0.4,2.8,1.6l0,0.2l1.7,5.3l1.9,5.2c0.7,1.7,1.5,3.4,2.2,5l2.5,4.9l2.8,4.8
	c1,1.5,2,3.1,3.1,4.6c2.2,2.9,4.4,5.8,6.9,8.4c2.5,2.6,5.1,5.1,7.9,7.1c0.7,0.5,1.4,1,2.1,1.4l1.1,0.7l1.1,0.5
	c0.4,0.2,0.7,0.4,1.1,0.5c0.3,0.1,0.5,0.2,0.8,0.3l0.4,0.2c0.2,0.1,0.4,0.1,0.7,0.1l0.7,0.1l0.4,0l0.2,0l0.1,0c-0.2,0,0.4,0-0.3,0
	l0,0c3.4-0.1,6.8-0.7,10.2-1.7c3.5-1,7-2.2,10.9-3.3c1-0.3,2.2-0.5,3.3-0.7c0.6-0.1,1.1-0.2,1.5-0.2l1.4-0.1l0.7-0.1l0.1,0l0.3,0
	l0.1,0l0.2,0l0.4,0l1.7,0.2c1.2,0.1,2.2,0.4,3.3,0.6c4.2,1.2,7.5,2.9,10.8,4c1.7,0.6,3.2,0.9,4.7,1.2c0.9,0.1,1.9,0.1,2.8,0.2
	l1.4,0.1c0.2,0-0.2,0-0.2,0l0,0l0.1,0l0.1,0l0.3,0l0.6,0c3-0.2,6.1-1.5,8.8-3.5c2.8-2,5.3-4.5,7.5-7.3c2.3-2.8,4.3-5.8,6.2-9
	c1.9-3.2,3.6-6.4,5.2-9.8c1.6-3.4,3.1-6.8,4.3-10.2l0,0l1.5,3c-1.8-0.6-3.4-1.3-4.9-2.1c-1.6-0.8-3-1.8-4.5-2.8l-2.1-1.6
	c-0.7-0.6-1.3-1.2-1.9-1.8c-1.2-1.3-2.5-2.6-3.5-4.1c-1.1-1.4-2-3-2.9-4.6c-0.7-1.7-1.6-3.3-2-5c-0.3-0.9-0.5-1.7-0.8-2.6l-0.5-2.8
	c-0.4-2-0.3-3.4-0.5-5.1l0-0.6l0-0.4l0-0.2l0-0.3l0.1-1.3l0.1-2.6c0.2-1.8,0.4-3.5,0.8-5.3c0.4-1.7,0.9-3.5,1.5-5.1
	c0.6-1.7,1.4-3.3,2.3-4.9c0.9-1.6,1.9-3.1,3-4.5c1.1-1.4,2.3-2.7,3.6-3.9c1.3-1.2,2.7-2.3,4.2-3.3c1.5-1,3-1.8,4.8-2.5l0,0l-0.9,3.6
	c-2.4-2.4-4.4-5.1-7.1-7.1l-1.9-1.6c-0.6-0.5-1.4-0.9-2-1.3c-1.4-0.8-2.7-1.8-4.2-2.3c-1.5-0.6-2.9-1.4-4.5-1.7l-2.3-0.6
	c-0.8-0.2-1.6-0.2-2.4-0.3l-2.4-0.3l-2.4,0c-1.6-0.1-3.2,0.2-4.8,0.4c-1.6,0.2-3.2,0.6-4.8,0.9c-1.6,0.5-3.2,0.9-4.8,1.5
	c-3.2,1.1-6.3,2.4-9.6,3.7c-0.9,0.3-1.6,0.7-2.8,1l-1.7,0.5l-1.3,0.2l-0.2,0l0,0l-0.5,0l-0.1,0l-0.5,0l-0.9-0.1
	c-0.6-0.1-1.1-0.2-1.7-0.3c-1.1-0.3-2.1-0.7-3-1.1c-3.6-1.7-6.3-3.6-9.3-4.9c-2.9-1.3-6.1-2.2-9.1-2.4l-2.6-0.1l-2.4,0.1
	c-0.8,0-1.6,0.2-2.4,0.3c-0.8,0.1-1.6,0.2-2.4,0.4c-3.2,0.7-6.2,2.1-9.1,3.6c-1.4,0.9-2.9,1.7-4.1,2.8l-2,1.5l-1.8,1.7
	c-1.3,1.1-2.2,2.5-3.3,3.7c-1,1.3-1.9,2.7-2.9,4.1c-0.8,1.5-1.7,2.9-2.4,4.4c-0.6,1.6-1.4,3.1-1.9,4.7c-1.1,3.2-1.9,6.5-2.3,9.8
	c-0.1,1.7-0.4,3.3-0.5,5l-0.1,5.3c0,1.3-1.1,2.4-2.4,2.3C-199.8,105.2-200.9,104.1-200.8,102.7
	C-200.8,102.8-200.8,102.7-200.8,102.7z"/>
<path opacity="0.8" d="M-133.8,48c-0.2-1.1-0.4-2.4-0.5-3.5c-0.1-1.1-0.1-2.3-0.1-3.4c0-1.2,0.2-2.3,0.3-3.4
	c0.1-1.2,0.4-2.3,0.6-3.4c0.3-1.1,0.6-2.3,1-3.4l1.4-3.3c0.5-1.1,1.2-2.1,1.8-3.1c0.6-1,1.4-1.9,2.2-2.9c0.7-1,1.6-1.8,2.5-2.6
	c0.9-0.8,1.7-1.7,2.8-2.3c1-0.7,2-1.3,3-2c1.1-0.5,2.1-1,3.2-1.5l1.6-0.7l1.7-0.5l3.3-0.9c1.1-0.3,2.3-0.3,3.4-0.5
	c1.1-0.1,2.2-0.2,3.4-0.3l0.3,0c1.2-0.1,2.3,0.9,2.4,2.1c0.1,1.3,0.1,2.4,0.1,3.5c0,1.1-0.1,2.3-0.2,3.4c-0.1,1.1-0.3,2.2-0.5,3.3
	c-0.2,1.1-0.5,2.2-0.8,3.3l-1.1,3.2l-1.4,3.1l-1.8,2.9c-0.6,1-1.4,1.8-2.1,2.7c-0.7,0.9-1.6,1.7-2.4,2.5c-0.8,0.8-1.7,1.6-2.6,2.2
	l-2.8,2l-3,1.6l-1.5,0.8l-1.6,0.6l-3.2,1.1c-1.1,0.4-2.2,0.5-3.2,0.8l-3.2,0.7c-1.2,0.3-2.4-0.5-2.7-1.7l0,0L-133.8,48z
	 M-128.9,44.8c1-0.2,1.9-0.4,2.9-0.7l2.8-1l1.4-0.5l1.3-0.7l2.6-1.4l2.4-1.7c0.8-0.5,1.5-1.2,2.2-1.9c0.7-0.7,1.5-1.3,2-2.1
	c0.6-0.8,1.3-1.5,1.8-2.3l1.5-2.5l1.2-2.6l1-2.8l0.7-2.9c0.1-1,0.4-1.9,0.5-2.9c0.1-1,0.2-2,0.2-3c0-1,0-2-0.1-2.8l2.7,2.1
	c-1,0.4-1.9,0.7-2.9,1c-0.9,0.3-1.9,0.5-2.8,0.9l-2.7,1.2l-1.4,0.5l-1.2,0.7c-0.8,0.5-1.7,0.9-2.5,1.4c-0.7,0.6-1.5,1.1-2.2,1.7
	c-0.8,0.5-1.4,1.2-2.1,1.8c-0.7,0.6-1.4,1.3-1.9,2c-0.6,0.7-1.2,1.4-1.7,2.2c-0.5,0.8-1,1.6-1.5,2.4l-1.3,2.5l-1,2.7
	c-0.6,1.8-1.1,3.7-1.5,5.6C-128.6,42.7-128.7,43.7-128.9,44.8C-128.8,44.7-128.9,44.7-128.9,44.8z"/>
<g opacity="0.8">
	<path d="M263-135.4c0.8,12.1,1.5,24.3,2.1,36.4l1.9,36.5l-3-2.9c18.3,0.2,36.6,0.2,55,0.2l27.5-0.1c9.2,0,18.3-0.1,27.5-0.2l-3,2.9
		c0.5-4.9,0.8-9.8,1.2-14.7c0.4-4.9,0.6-9.8,0.9-14.7l1.5-29.5l1.4-29.5l1.2-29.5c0.1-1.7,1.5-3,3.2-2.9c1.7,0.1,3,1.5,2.9,3.2
		c0,0,0,0.1,0,0.1l-1.9,29.5l-1.7,29.5L378-91.7c-0.2,4.9-0.5,9.8-0.6,14.8c-0.2,4.9-0.3,9.8-0.3,14.8c0,1.6-1.3,2.9-2.9,2.9h0
		l-0.1,0c-9.2-0.1-18.3-0.2-27.5-0.2L319-59.6c-18.3,0.1-36.6,0-55,0.2c-1.6,0-2.9-1.2-3-2.8l0,0l-2.1-36.4
		c-0.7-12.1-1.4-24.3-2-36.5c-0.1-1.7,1.2-3.1,2.9-3.2C261.5-138.4,262.9-137.1,263-135.4z"/>
	<path fill="none" d="M260-135.3"/>
	<path fill="none" d="M258.8-156"/>
	<path d="M260.5-180.5c0,0,0.2,1.5,0.3,3.8c0.1,1.1,0.1,2.5,0.1,3.9c0.1,1.4-0.1,3,0,4.5c0,1.5,0.7,3,0.4,4.5
		c-0.2,0.7-0.5,1.4-0.3,2.1c0,0.7,0.1,1.3,0.2,1.8c0.3,2.3,0.7,3.8,0.7,3.8c0.5,1.7-0.4,3.4-2.1,3.9c-1.7,0.5-3.4-0.4-3.9-2.1
		c-0.2-0.5-0.2-1-0.1-1.5c0,0,0.3-1.5,0.3-3.8c0-0.6,0-1.2,0-1.8c0.1-0.7-0.3-1.3-0.6-2c-0.4-1.4,0.1-3-0.1-4.5
		c-0.1-1.5-0.4-3-0.5-4.5c-0.1-1.4-0.2-2.8-0.3-3.9c-0.2-2.3-0.1-3.8-0.1-3.8c0.1-1.7,1.5-3,3.2-2.9
		C259.1-183.1,260.3-182,260.5-180.5z"/>
	<path d="M390.1-190.8l0,1.6c-0.1,0.7-0.1,1.5-0.3,2.2c-0.3,1.4-0.7,2.8-1.5,4c-1.5,2.6-4.2,4.4-6.8,5.3c-1.3,0.5-2.6,0.7-4,0.8
		c-1.5,0.1-2.4,0-3.6,0l-6.5-0.2l-6.5-0.2l-1.6,0l-0.8,0l-0.2,0l-0.1,0l0,0c0,0,0.3,0,0.1,0l0,0l-0.4,0c-0.7,0-0.7,0.1-1,0.1
		c-0.3,0.1-0.5,0.1-0.6,0.2c-0.3,0.2-0.5,0.4-0.7,1c-0.2,0.6-0.4,1.4-0.4,2.3c0,0.9,0,2,0,3.1l0,3.3l0.1,13l0,6.5l0,1.6l0,0.3l0,0.4
		l0,0.3c0,0.4-0.1,0.8-0.1,1.2c-0.3,1.6-1,3.2-2.4,4.6c-1.4,1.4-3.2,2-4.8,2.2l-1.1,0.1l-0.1,0l-0.1,0l-0.3,0l-0.2,0l-0.4,0
		l-0.8-0.1c-0.3,0-0.5,0-1-0.1c-0.8-0.2-1.6-0.3-2.4-0.6c-0.7-0.4-1.5-0.6-2.1-1.1c-0.7-0.5-1.4-1-1.8-1.7l-0.8-1
		c-0.2-0.4-0.4-0.7-0.5-1.1c-0.7-1.5-0.9-3-1-4.4c0-0.4,0-0.7,0-0.9l0-0.8l0-1.6l0-6.5l0,0.5c0-0.2-0.3-0.9-0.5-1.2
		c-0.2-0.4-0.4-0.6-0.6-0.8c-0.2-0.1-0.3-0.2-0.5-0.2c-0.1,0-0.1,0-0.2,0l-0.6,0c-0.4,0-0.7,0-1,0.1c-1.3,0.1-2,0.4-2.2,0.7
		c-0.3,0.3-0.7,1.2-0.8,2.5c-0.1,0.6-0.1,1.3-0.1,2l0,2.5l0,4.9l0,4.9l0,1.2c0,0.5,0,0.6,0,1.5c-0.1,1.3-0.4,2.4-1,3.6
		c-0.6,1.2-1.5,2.4-2.7,3.3c-1.2,0.9-2.6,1.4-3.9,1.6c-0.3,0.1-0.6,0.1-0.9,0.1l-0.5,0l-0.2,0l0,0l-0.4,0l0,0l-0.1,0l-1.2-0.1
		l-0.6-0.1l-1-0.2c-0.7-0.2-1.4-0.3-1.9-0.6c-2.4-1-4.3-3.2-5.2-5.5c-0.3-0.6-0.4-1.2-0.5-1.7c-0.2-0.6-0.3-1.2-0.3-1.7
		c-0.1-1.3-0.1-1.9-0.1-2.8l0-9.8c0-3.3,0-6.6,0-9.8l0,0.3c0,0.1,0-0.2-0.1-0.4c0-0.2-0.1-0.3-0.1-0.5c-0.1-0.3-0.3-0.5-0.4-0.7
		c-0.2-0.2-0.3-0.4-0.9-0.5l-0.1,0l0,0c0.5,0,0.1,0,0.2,0l-0.3,0l-0.5,0c-0.3,0-0.7,0-1,0c-0.3,0.1-0.7,0-1,0.2
		c-0.8,0.2-1.3,0.5-1.5,0.9c-0.1,0.2-0.2,0.3-0.2,0.6l0,0.1l0,0.3l0,0.5l0,1l-0.2,4.1l-0.2,4.1l-0.1,1.3l0,0.3l0,0.1l-0.1,0.3
		c-0.1,0.4-0.2,0.7-0.3,1.1c-0.5,1-1.1,1.9-1.9,2.5c-0.8,0.7-1.7,1.1-2.5,1.5c-0.9,0.2-1.8,0.6-2.6,0.6l-1.3,0.1l-0.3,0l-0.1,0
		c-0.1,0,0.2,0-0.4,0l-0.1,0l-0.5-0.1l-1-0.1c-0.3,0-1-0.3-1.4-0.4c-2.1-0.6-3.5-2.1-4.4-3.8c-0.5-0.8-0.7-1.7-0.9-2.6
		c-0.1-0.4-0.2-0.9-0.2-1.3c0-0.5-0.1-0.9,0-1.2l0-16.4l0-4.1c0-1.1-0.2-2-0.6-2.7c-0.4-0.7-1-1.1-1.8-1.4c-0.8-0.3-1.8-0.3-3.3-0.3
		l-16.4,0l-0.7,0l-0.5,0l-1-0.1l-0.5,0c-0.2,0-0.4-0.1-0.7-0.1l-1.3-0.3c-0.9-0.2-1.6-0.7-2.4-1c-0.8-0.4-1.4-1-2.1-1.6
		c-0.6-0.7-1.2-1.3-1.6-2.1c-0.4-0.8-0.9-1.6-1.1-2.4c-0.2-0.8-0.5-1.6-0.6-2.5l-0.1-1.2l0-0.6l0-0.2c0,0.2,0-0.3,0-0.3l0-0.1l0-0.3
		c0.1-0.7,0.1-1.3,0.2-2.1c0.2-0.9,0.4-1.8,0.7-2.6c0.4-0.8,0.7-1.6,1.2-2.3c0.6-0.7,1-1.5,1.7-2c2.6-2.5,6.4-3.2,9.3-3.2l65.7-0.4
		c11,0,21.9-0.2,32.9-0.1c5.5,0.1,11,0.2,16.4,0.2l1,0l0.3,0l0.5,0l0.5,0l0.5,0l0.7,0.1c0.5,0.1,1,0.2,1.4,0.4
		c1.8,0.6,3.4,1.6,4.6,3c2.5,2.7,3.6,6,3.7,9.6L390.1-190.8z M383.7-191c0-1.9-0.8-4.1-1.9-5.5c-0.6-0.7-1.2-1.3-2-1.6
		c-0.2-0.1-0.4-0.2-0.6-0.2l-0.3-0.1l-0.5-0.1l-0.5-0.1l-0.1,0l-0.1,0c0.5,0,0.1,0,0.2,0l-0.3,0l-1,0c-5.5,0-11,0.1-16.4,0.2
		c-11,0.1-21.9-0.1-32.9-0.1l-65.7-0.4c-2.5,0-4.5,0.5-5.9,1.8c-0.4,0.3-0.6,0.8-0.9,1.1c-0.3,0.4-0.4,0.9-0.7,1.3
		c-0.2,0.5-0.2,0.9-0.4,1.4c-0.1,0.6-0.1,1.3-0.2,2l0,0.3l0,0.1c0,0.1,0-0.3,0-0.1l0,0.1l0,0.4l0.1,0.8c0,0.6,0.2,1,0.3,1.5
		c0.1,0.5,0.4,0.9,0.6,1.4c0.2,0.4,0.6,0.7,0.9,1.1c0.4,0.3,0.7,0.6,1.2,0.8c0.5,0.2,0.9,0.5,1.3,0.6c0.2,0.1,0.4,0.1,0.7,0.2
		c0.1,0,0.2,0.1,0.3,0.1l0.5,0l1,0.1l0.5,0c-0.4,0-0.1,0-0.1,0l0.1,0h0.1h0.3l16.4,0l1,0l0.5,0l0.6,0c0.9,0,1.8,0.2,2.6,0.5
		c1.8,0.6,3.6,1.9,4.5,3.6c0.9,1.7,1.3,3.5,1.3,5.2l0,4.1l0,16.4c-0.1,2.2,1,3.9,2.3,4.3c0.1,0,0.1,0.1,0.2,0.1
		c0.1,0,0.1,0.1,0.3,0.1l1,0.1l0.5,0l0.1,0c-0.5,0-0.1,0-0.2,0l0,0l0.2,0l0.8-0.1c0.6,0,0.9-0.3,1.4-0.3c0.3-0.2,0.7-0.4,0.9-0.7
		c0.3-0.2,0.4-0.5,0.5-0.8c0,0,0,0.1,0,0.1c0,0,0,0,0,0l0-0.1l0-0.3c0-0.1,0,0.5,0,0.2v-0.1l0-0.1l0-0.3l0-0.5l-0.2-4.1l-0.2-4.1
		l0-1l0-0.5l0-0.3l0-0.4c0-1.1,0.3-2.3,0.9-3.3c0.3-0.5,0.6-1,0.9-1.5c0.4-0.4,0.8-0.8,1.2-1.2c0.9-0.6,1.8-1.2,2.7-1.5
		c0.9-0.4,1.9-0.6,2.9-0.8c0.4-0.1,0.7-0.1,1.1-0.1l0.5,0l0.3,0l0.3,0l0.1,0l0.2,0c1.1,0,2.2,0.2,3.4,0.7c1.1,0.5,2.2,1.2,3,2.1
		c0.8,0.9,1.3,1.9,1.7,2.8c0.2,0.5,0.4,1,0.5,1.5c0.1,0.5,0.2,0.9,0.3,1.7l0,0.1v0.1c0,3.3,0,6.6,0,9.8l0,9.8c0,1.9,0,2.7,0.3,3.4
		c0.3,0.7,0.7,1.2,1.4,1.5c0.1,0.1,0.3,0.1,0.4,0.1c0.1,0,0.1,0.1,0.2,0.1l0.6,0.1l1.2,0.1l0.1,0l0,0c-0.7,0-0.2,0-0.3,0l0,0l0.1,0
		l0.2,0c0.1,0,0.2,0,0.3,0c0.7-0.2,0.7-0.2,1-0.7c0.1-0.3,0.3-0.7,0.3-1.1l0-2.1l0-4.9l0-4.9l0-2.5c0-0.9,0.1-1.9,0.2-2.9
		c0.1-1,0.4-2.1,0.7-3.2c0.4-1.1,1.1-2.3,2-3.3c1-1,2.3-1.8,3.5-2.2c1.2-0.4,2.3-0.6,3.3-0.6c0.5,0,1.1-0.1,1.5-0.1h0.7l1,0.1
		c1.4,0.2,2.8,0.8,4,1.7c1.1,0.9,1.9,2,2.4,3c0.6,1.1,0.9,2,1.1,3.4c0,0.1,0,0.3,0,0.4v0.1l-0.1,6.5l0,1.6l0,0.8c0,0.3,0,0.5,0,0.7
		c0,0.8,0.1,1.5,0.4,1.9l0.2,0.4c0.1,0.1,0.2,0.2,0.2,0.3c0.1,0.2,0.3,0.3,0.5,0.5c0.2,0.2,0.5,0.2,0.7,0.4c0.3,0.1,0.5,0.1,0.8,0.2
		c0.1,0.1,0.4,0.1,0.7,0.1l0.8,0.1l0.4,0l0.2,0l0,0c-0.1,0,0.3,0-0.2,0l0,0l0.1,0l0.5,0c0.6-0.1,0.9-0.2,1.1-0.4
		c0.2-0.2,0.4-0.5,0.5-1.1c0-0.1,0-0.3,0.1-0.4l0-0.1l0-0.5l0-1.6l0-6.5l0.1-13l0-3.3c0-1.1,0-2.1,0.1-3.4c0.1-1.2,0.2-2.6,0.7-4.1
		c0.5-1.5,1.6-3.1,3.1-4.1c0.8-0.5,1.6-0.8,2.4-1c0.8-0.2,1.9-0.3,2.2-0.3l0.4,0l0.6,0l0.8,0h1.6l6.5,0l6.5,0c1.1,0,2.3,0,3,0
		c0.8-0.1,1.6-0.3,2.3-0.5c1.5-0.5,2.6-1.4,3.2-2.5c0.4-0.5,0.6-1.2,0.9-1.9l0.3-1l0.1-1.6L383.7-191z"/>
	<path d="M289.7-102.4l0-0.2c0,0,0-0.1,0.1-0.3c0-0.1,0.1-0.3,0.1-0.4c0-0.2,0.1-0.3,0.2-0.7c0.2-0.7,0.5-1.4,1-2.2
		c0.5-0.8,1.2-1.8,2.4-2.6c1.1-0.8,2.5-1.4,4-1.5c1.4-0.2,2.8-0.1,4.2,0.1c0.7,0.1,1.4,0.3,2,0.4c0.6,0.2,1.2,0.3,1.9,0.5
		c1.3,0.4,2.5,0.6,3.9,0.9c1.3,0.2,2.8,0.4,4.2,0.6c1.5,0.1,3,0.1,4.6,0.2l0.3,0l0.2,0l0,0c0,0,0.2,0-0.1,0l0.1,0l0.6,0l1.3,0
		c0.9,0,1.7-0.1,2.6-0.1c0.9,0,1.7-0.1,2.5-0.2c0.8-0.1,1.7-0.2,2.5-0.3c1.7-0.2,3.4-0.7,5.2-1c0.9-0.2,1.8-0.5,2.6-0.7l0.7-0.2
		l0.2,0l0.5-0.1l0.1,0l0.4-0.1l0.7-0.1l0.4-0.1l0.6,0c1.9,0.1,3.2,0.6,4.4,1.4c0.6,0.4,1.1,0.8,1.5,1.3c0.5,0.5,0.9,1,1.2,1.5
		c0.7,1,1.3,2.2,1.7,3.4l0,0.1l0,0.1c0,0.1,0-0.1,0.1,0.2l0,0.2l0.1,0.4c0.1,0.3,0.1,0.4,0.2,0.8c0.1,0.8,0.2,1.6,0,2.3
		c0,0.8-0.3,1.5-0.6,2.3c-0.3,0.7-0.8,1.3-1.3,2c-0.5,0.5-1,1-1.6,1.4l-1.7,0.9c-1.1,0.5-2.2,0.9-3.2,1.2c-0.9,0.3-1.9,0.5-2.8,0.8
		c-0.9,0.3-1.9,0.5-2.9,0.6c-1,0.2-2,0.3-3,0.5c-2,0.2-3.9,0.4-5.8,0.6c-1.9,0.1-3.7,0.2-5.5,0.2l-1.3,0.1l-0.3,0l-0.4,0l-0.6,0
		c-0.9,0-1.7,0-2.5-0.1c-3.5-0.2-6.8-0.5-9.7-0.9c-3-0.4-5.7-1-8.1-1.6c-0.6-0.2-1.2-0.4-1.8-0.6c-0.5-0.1-1.3-0.5-2-0.8
		c-1.3-0.6-2.6-2-3.2-3.2c-1.3-2.5-1.1-4.4-1-5.6C289.5-101.6,289.6-102.1,289.7-102.4z M295.6-100.8c0,0.1-0.1,0.3-0.1,0.6
		c-0.1,0.6,0,1.5,0.3,2c0.2,0.3,0.2,0.4,0.7,0.7c0.3,0.1,0.5,0.2,1,0.4c0.5,0.1,1,0.3,1.5,0.4c2.2,0.6,4.6,1.2,7.4,1.6
		c2.8,0.5,5.8,0.8,9,1c0.8,0,1.7,0.1,2.5,0.1l0.6,0c0.1,0,0.3,0,0.2,0l0.3,0l1.3,0c1.7,0,3.4-0.1,5.2-0.1c1.7-0.2,3.5-0.4,5.2-0.7
		c1.7-0.5,3.4-0.8,5.2-1.3c0.9-0.3,1.8-0.5,2.8-0.8c0.8-0.2,1.5-0.5,2.2-0.8c0.3-0.2,0.6-0.3,0.9-0.5c0.2-0.2,0.4-0.3,0.6-0.5
		c0.2-0.4,0.4-0.6,0.5-1c0.1-0.2,0-0.4,0-0.6c0-0.2-0.2-1.1-0.2-1.1c-0.2-0.6-0.5-1.3-0.8-1.8c-0.2-0.3-0.4-0.5-0.6-0.8
		c-0.2-0.3-0.4-0.4-0.6-0.6c-0.4-0.3-0.9-0.4-1-0.5c0,0,0-0.1-0.1-0.1l-0.4,0.1l-0.7,0.1l-0.4,0.1l-0.1,0c-0.4,0.1,0.4-0.1,0.3-0.1
		l0,0l-0.2,0l-0.7,0.2c-0.9,0.3-1.9,0.5-2.8,0.7c-1.9,0.4-3.7,0.9-5.7,1.1c-1,0.1-1.9,0.3-2.9,0.4c-1,0.1-1.9,0.3-2.7,0.3
		c-0.9,0-1.7,0.1-2.6,0.1l-1.3,0.1l-0.6,0l-0.3,0l-0.2,0l-0.3,0c-1.7-0.1-3.4-0.1-5.1-0.2c-1.7-0.2-3.3-0.4-4.8-0.6
		c-1.5-0.3-3-0.6-4.3-0.9c-0.6-0.2-1.3-0.3-1.9-0.5c-0.6-0.1-1.1-0.2-1.6-0.3c-2-0.3-3.1,0-3.6,0.4c-0.3,0.2-0.5,0.5-0.7,0.7
		c-0.2,0.3-0.3,0.6-0.4,0.8c0,0.1-0.1,0.3-0.1,0.5c0,0.2-0.1,0.3-0.1,0.4c-0.1,0.2-0.1,0.3-0.1,0.3L295.6-100.8z"/>
	<path d="M251-189.1c-0.1,0-0.3,0-1.1,0.2c-0.7,0.2-1.8,0.5-3.1,1.1c-1.3,0.6-2.6,1.6-3.8,3c-1.2,1.4-2.1,3.3-2.8,5.7
		c-0.6,2.4-0.7,5.2-0.6,8.3l0,0.4l0.1,0.6l0.1,1.2c0.1,0.8,0.2,1.7,0.3,2.5c0.3,1.6,0.5,3.1,1,4.8c0.8,3.3,1.9,6.7,3.3,10.1
		c0.7,1.7,1.4,3.4,2.2,5c0.8,1.7,1.6,3.3,2.6,4.9c0.9,1.6,1.8,3.2,2.9,4.8c1,1.5,2,3.1,3.1,4.5c2.1,3,4.5,5.7,6.8,8.3
		c1.2,1.2,2.4,2.5,3.6,3.6c1.2,1.2,2.5,2.2,3.7,3.3c1.2,1.1,2.4,2,3.6,2.9c1.2,0.9,2.3,1.8,3.5,2.5c2.4,1.4,4.5,2.9,6.5,3.9
		c2,1,3.7,2,5.3,2.5c3,1.2,4.7,1.9,4.7,1.9l0.2,0.1c1,0.4,1.5,1.6,1.1,2.6c-0.4,1-1.6,1.5-2.6,1.1c0,0-1.8-0.7-5-1.9
		c-1.6-0.5-3.4-1.6-5.6-2.6c-2.2-1-4.4-2.5-7-4c-1.3-0.7-2.5-1.7-3.8-2.6c-1.3-0.9-2.6-1.9-3.9-3c-1.3-1.1-2.6-2.2-3.9-3.4
		c-1.3-1.2-2.5-2.5-3.9-3.8c-2.5-2.7-5-5.5-7.3-8.6c-1.2-1.5-2.3-3.1-3.4-4.7c-1.1-1.6-2.1-3.3-3.1-5c-1-1.7-1.9-3.4-2.8-5.1
		c-0.9-1.7-1.7-3.5-2.5-5.3c-1.6-3.5-2.9-7.1-3.9-10.7c-0.6-1.8-0.9-3.7-1.3-5.5c-0.2-0.9-0.2-1.7-0.4-2.6l-0.2-1.2l-0.1-0.6
		c-0.1-0.5,0-0.5,0-0.8c-0.2-3.5,0-6.9,0.8-10.1c0.8-3.2,2.4-6,4.4-8c2-2,4.2-3.2,6.1-3.8c1.9-0.6,3.4-0.7,4.4-0.8
		c1,0,1.7,0.1,1.6,0.1c1.1,0,2,0.9,2,2.1C253-190,252.1-189.1,251-189.1z"/>
	<path d="M344.9-103.8c0,0,0.4-0.2,1.2-0.5c0.8-0.4,2-0.9,3.4-1.6c2.9-1.4,7.1-3.6,11.9-6.6c2.4-1.5,4.9-3.2,7.5-5
		c1.3-1,2.6-2,3.9-3c1.2-1.1,2.6-2.2,3.8-3.4c1.2-1.2,2.5-2.4,3.7-3.7c1.1-1.4,2.4-2.6,3.4-4.1c2.1-2.8,4.1-5.8,5.5-9.1
		c1.4-3.1,2.6-6.8,3.7-10.3c1.1-3.5,2-7,2.8-10.4c1.5-6.7,2.4-13.2,1.7-18.1c-0.3-2.5-1.1-4.5-2.2-5.8c-1.1-1.4-2.4-2.2-3.7-2.7
		c-1.3-0.5-2.4-0.6-3.2-0.8c-0.8-0.1-1.2-0.1-1.2-0.1l-0.2,0c-1.1-0.1-1.9-1.1-1.8-2.2c0.1-1,0.9-1.8,1.9-1.8c0,0,0.5,0,1.5-0.1
		c1,0,2.5,0,4.4,0.5c1.9,0.5,4.3,1.5,6.3,3.7c2,2.1,3.3,5.1,4,8.3c0.7,3.2,0.7,6.5,0.5,10c-0.2,3.5-0.9,7-1.6,10.6
		c-0.8,3.6-1.8,7.2-3,10.9c-1.2,3.7-2.3,7.2-4.1,11c-1.7,3.7-4,7.1-6.4,10.2c-1.2,1.6-2.6,3-3.9,4.4c-1.3,1.4-2.8,2.6-4.1,3.9
		c-1.4,1.2-2.8,2.3-4.2,3.5c-1.4,1.1-2.8,2.1-4.2,3.1c-2.8,1.9-5.5,3.6-8,5c-5.1,2.9-9.5,4.9-12.7,6.2c-1.6,0.7-2.8,1.1-3.7,1.4
		c-0.9,0.3-1.3,0.5-1.3,0.5c-1.1,0.4-2.2-0.2-2.6-1.2C343.4-102.2,343.9-103.3,344.9-103.8L344.9-103.8z"/>
	<path d="M263.4-76.3c0,0,2.7-0.3,6.7-0.4c4-0.2,9.3-0.3,14.7-0.3c5.3,0,10.7,0.2,14.7,0.3c4,0.2,6.7,0.4,6.7,0.4
		c1.1,0.1,1.9,1.1,1.9,2.2c-0.1,1-0.9,1.8-1.9,1.9c0,0-2.7,0.2-6.7,0.4c-4,0.2-9.3,0.4-14.7,0.3c-5.3,0-10.7-0.1-14.7-0.3
		c-4-0.2-6.7-0.4-6.7-0.4c-1.1-0.1-1.9-1.1-1.8-2.2C261.7-75.5,262.4-76.2,263.4-76.3z"/>
	<path d="M374.6-72.3c0,0-2.7,0.3-6.8,0.5c-4.1,0.2-9.6,0.3-15,0.2c-2.7,0-5.5,0-8-0.1c-2.6-0.1-4.9-0.2-7-0.2
		c-4.1-0.2-6.8-0.4-6.8-0.4c-1.1-0.1-2-1-1.9-2.2c0.1-1,0.9-1.8,1.9-1.9c0,0,2.7-0.2,6.8-0.4c2-0.1,4.4-0.1,7-0.2
		c2.6-0.1,5.3-0.1,8-0.1c5.5-0.1,10.9-0.1,15,0.2c4.1,0.2,6.8,0.5,6.8,0.5c1.1,0.1,1.9,1.2,1.8,2.3
		C376.2-73.1,375.5-72.4,374.6-72.3z"/>
</g>
<g opacity="0.8">
	<g>
		<path d="M31.6,114.9H11.5c-1.3,0-2.3-1-2.3-2.3V92.4c0-1.3,1-2.3,2.3-2.3h20.1c1.3,0,2.3,1,2.3,2.3v20.1
			C33.9,113.8,32.9,114.9,31.6,114.9z M13.8,110.3h15.6V94.7H13.8V110.3z"/>
	</g>
	<g>
		<path d="M174.5,114.9h-20.1c-1.3,0-2.3-1-2.3-2.3V92.4c0-1.3,1-2.3,2.3-2.3h20.1c1.3,0,2.3,1,2.3,2.3v20.1
			C176.8,113.8,175.8,114.9,174.5,114.9z M156.6,110.3h15.6V94.7h-15.6V110.3z"/>
	</g>
	<g>
		<path d="M103.1,34.3H82.9c-1.3,0-2.3-1-2.3-2.3V11.9c0-1.3,1-2.3,2.3-2.3h20.1c1.3,0,2.3,1,2.3,2.3V32
			C105.4,33.3,104.3,34.3,103.1,34.3z M85.2,29.7h15.6V14.1H85.2V29.7z"/>
	</g>
	<g>
		<path d="M83.5,25.1c0,0-1.6,0.3-4.3,0.9c-0.7,0.1-1.5,0.3-2.3,0.5c-0.7,0.2-1.6,0.5-2.4,0.7c-0.9,0.2-1.8,0.5-2.8,0.8
			c-1,0.3-2,0.8-3,1.1c-1.1,0.4-2.2,0.8-3.3,1.3c-1.1,0.5-2.2,1.1-3.4,1.7c-0.6,0.3-1.2,0.6-1.8,0.9c-0.6,0.3-1.1,0.7-1.7,1.1
			c-1.2,0.7-2.4,1.4-3.6,2.2c-2.3,1.7-4.7,3.4-6.9,5.4c-2.3,1.9-4.3,4.2-6.4,6.4c-1.9,2.4-3.9,4.7-5.4,7.2c-1.8,2.4-3,5.1-4.4,7.6
			c-1.1,2.6-2.4,5.1-3.1,7.6c-0.4,1.2-0.8,2.4-1.2,3.6c-0.3,1.2-0.6,2.3-0.8,3.5c-0.6,2.2-0.9,4.3-1.1,6.1c-0.1,0.9-0.3,1.8-0.4,2.6
			c0,0.8-0.1,1.5-0.1,2.2c-0.1,2.7-0.2,4.2-0.2,4.2l0,0.3c-0.1,1.9-1.7,3.3-3.6,3.2c-1.9-0.1-3.3-1.7-3.2-3.6c0,0,0.1-1.7,0.2-4.6
			c0-0.7,0.1-1.5,0.1-2.4c0.1-0.9,0.2-1.8,0.4-2.8c0.3-2,0.5-4.3,1.2-6.7c0.3-1.2,0.6-2.5,0.9-3.8c0.4-1.3,0.9-2.6,1.3-4
			c0.8-2.8,2.2-5.5,3.4-8.4c1.5-2.7,2.9-5.7,4.8-8.4c1.7-2.8,3.9-5.4,6-8c2.3-2.4,4.5-5,7.1-7.1c2.4-2.3,5.1-4.1,7.6-6
			c1.3-0.9,2.7-1.6,3.9-2.4c0.6-0.4,1.3-0.8,1.9-1.2c0.7-0.3,1.3-0.7,2-1c1.3-0.6,2.6-1.2,3.8-1.8c1.2-0.5,2.5-1,3.6-1.4
			c1.2-0.4,2.3-0.9,3.4-1.2c1.1-0.3,2.2-0.6,3.2-0.9c1-0.3,2-0.5,2.8-0.8c0.8-0.2,1.6-0.3,2.3-0.4c2.7-0.5,4.3-0.8,4.3-0.8
			c1.9-0.3,3.6,0.9,4,2.8C86.6,23,85.3,24.7,83.5,25.1z"/>
	</g>
	<g>
		<path d="M161,92.6c0,0-0.1-1.6-0.3-4.4c0-0.7-0.1-1.5-0.1-2.3c-0.1-0.8-0.3-1.6-0.4-2.5c-0.3-1.8-0.5-3.8-1.2-6
			c-0.3-1.1-0.5-2.3-0.8-3.4c-0.4-1.2-0.8-2.4-1.2-3.6c-0.7-2.5-2-4.9-3.1-7.6c-1.4-2.5-2.6-5.1-4.4-7.5c-1.6-2.5-3.5-4.8-5.4-7.2
			c-2.1-2.2-4.1-4.5-6.4-6.3c-2.2-2-4.6-3.7-6.9-5.4c-1.2-0.8-2.4-1.5-3.5-2.2c-0.6-0.4-1.2-0.7-1.7-1.1c-0.6-0.3-1.2-0.6-1.8-0.9
			c-1.2-0.6-2.3-1.1-3.4-1.7c-1.1-0.5-2.2-0.9-3.3-1.3c-1.1-0.4-2-0.9-3-1.2c-1-0.3-1.9-0.6-2.8-0.8c-0.9-0.3-1.7-0.5-2.5-0.8
			c-0.8-0.2-1.5-0.3-2.1-0.5c-2.6-0.6-4.1-0.9-4.1-0.9l-0.3-0.1c-1.8-0.4-3-2.2-2.6-4.1c0.4-1.8,2.1-2.9,3.9-2.7
			c0,0,1.6,0.3,4.5,0.7c0.7,0.1,1.5,0.2,2.4,0.4c0.9,0.2,1.8,0.5,2.8,0.7c1,0.3,2,0.6,3.1,0.9c1.1,0.3,2.2,0.8,3.4,1.2
			c1.2,0.5,2.4,0.9,3.7,1.4c1.2,0.6,2.5,1.2,3.8,1.8c0.6,0.3,1.3,0.6,2,1c0.6,0.4,1.3,0.8,1.9,1.2c1.3,0.8,2.6,1.6,4,2.4
			c2.5,1.9,5.2,3.7,7.6,6c2.6,2.1,4.8,4.7,7.1,7.1c2.1,2.6,4.2,5.2,6,8c1.9,2.7,3.3,5.7,4.8,8.4c1.2,2.9,2.6,5.6,3.4,8.4
			c0.4,1.4,0.9,2.7,1.3,4c0.3,1.3,0.6,2.6,0.9,3.8c0.6,2.4,0.9,4.8,1.1,6.8c0.1,1,0.2,2,0.4,2.9c0,0.8,0.1,1.6,0.1,2.3
			c0.1,2.8,0.1,4.4,0.1,4.4c0.1,1.9-1.4,3.5-3.3,3.5C162.7,95.9,161.1,94.4,161,92.6z"/>
	</g>
	<g>
		<path d="M78.2,133.7c-1.3,0-2.3-1-2.3-2.3c0-13.2-14.4-29.5-14.6-29.6c-0.7-0.7-0.8-1.8-0.3-2.7l6.4-10.9c0.6-1.1,2-1.4,3.1-0.8
			c1.1,0.6,1.4,2,0.8,3.1l-5.6,9.5c3.6,4.3,14.6,18.6,14.6,31.4C80.5,132.7,79.5,133.7,78.2,133.7z"/>
	</g>
	<g>
		<path fill="none" stroke="#000000" stroke-width="2" stroke-linecap="round" stroke-linejoin="round" stroke-miterlimit="10" d="
			M69.5,89.4"/>
	</g>
	<g>
		<path fill="none" stroke="#000000" stroke-width="2" stroke-linecap="round" stroke-linejoin="round" stroke-miterlimit="10" d="
			M80.3,71"/>
	</g>
	<g>
		<path d="M105.5,131.3l0.1-2.2c0-0.7,0.2-1.6,0.3-2.3c0.2-1.7,0.6-3.1,1-4.6l0.7-2.2c0.2-0.7,0.5-1.4,0.8-2.1
			c0.5-1.4,1.2-2.8,1.9-4.1c1.4-2.7,2.9-5.3,4.6-7.7c0.8-1.2,1.7-2.5,2.6-3.7c0.9-1.2,1.8-2.3,2.9-3.6l0,0l-0.4,3.6L91,50.6v0l4,0
			c-1.5,4-3.4,7.7-5.4,11.3c-1,1.8-2,3.6-3.3,5.3c-1.2,1.7-2.5,3.4-4,4.9c-1,0.9-2.5,0.9-3.4-0.1c-0.6-0.6-0.8-1.5-0.6-2.2
			c0.5-2.1,1.4-4,2.3-5.9c0.9-1.9,2-3.7,3.1-5.4c2.2-3.5,4.5-7,7.3-10.2l0.5-0.6c0.7-0.8,2-0.9,2.8-0.2c0.3,0.2,0.5,0.5,0.6,0.9l0,0
			l30.2,51c0.7,1.2,0.5,2.6-0.3,3.5l-0.1,0.1l0,0c-0.9,0.9-1.8,2-2.7,3.1c-0.9,1.1-1.7,2.2-2.6,3.3c-1.6,2.2-3.2,4.5-4.5,6.9
			c-0.6,1.2-1.3,2.4-1.9,3.7c-0.3,0.6-0.6,1.2-0.8,1.9l-0.7,1.9c-0.2,0.6-0.4,1.3-0.6,1.9c-0.2,0.7-0.3,1.3-0.4,1.9
			c-0.1,0.6-0.3,1.2-0.3,1.9l-0.2,2.2c-0.1,1.3-1.2,2.2-2.5,2.1C106.4,133.6,105.4,132.5,105.5,131.3z"/>
	</g>
	<g>
		<path d="M92.8,105.4c-5.8,0-10.6-4.7-10.6-10.6S87,84.3,92.8,84.3s10.6,4.7,10.6,10.6S98.6,105.4,92.8,105.4z M92.8,88.9
			c-3.3,0-6,2.7-6,6s2.7,6,6,6s6-2.7,6-6S96.1,88.9,92.8,88.9z"/>
	</g>
	<g>
		<path d="M92.8,88.9c-1.3,0-2.3-1-2.3-2.3V51.7c0-1.3,1-2.3,2.3-2.3s2.3,1,2.3,2.3v34.9C95.1,87.8,94,88.9,92.8,88.9z"/>
	</g>
	<g>
		<path d="M122.9,137.2c0,0-0.1,0.5-0.2,1.4c-0.3,1.4-1,3.2-2.7,4.9c-0.9,0.8-1.9,1.5-3.3,2c-1.3,0.5-3.1,0.5-4.1,0.5
			c-2.4,0-5.1,0-8.1,0c-5.9,0-12.9,0-20.3,0c-3.7,0-7.5,0-11.4,0h-0.7h-0.4h-0.2l-0.4,0l-0.7-0.1c-0.2,0-0.5,0-0.9-0.1
			c-1.5-0.4-2.7-0.9-3.7-1.8c-2.1-1.7-3.3-4.3-3.3-6.9l0.1-1c0-0.3,0-0.4,0.1-0.8c0.2-0.7,0.4-1.5,0.7-2.1c0.6-1.2,1.4-2.3,2.4-3.1
			c1-0.9,2.2-1.4,3.5-1.8c0.6-0.2,1.3-0.2,1.9-0.3c0.6,0,1,0,1.5,0c3.9,0,7.7,0,11.4,0c7.4,0,14.4,0,20.3,0c3,0,5.7,0,8.1,0
			c0.3,0,0.6,0,0.9,0h0.2l0.3,0l0.1,0l0.4,0c0.3,0,0.5,0,0.9,0.1c0.4,0.1,0.8,0.2,1.2,0.3c1.5,0.5,2.5,1.2,3.3,2
			c1.7,1.6,2.3,3.4,2.6,4.6c0.2,1.2,0.2,1.9,0.2,1.9L122.9,137.2z M118.3,137c0,0,0-0.3-0.1-0.9c-0.2-0.6-0.4-1.5-1.3-2.3
			c-0.4-0.4-1-0.8-1.5-0.9c-0.1,0-0.2-0.1-0.4-0.2c-0.2,0-0.5-0.1-0.8-0.1l-0.4,0l-0.1,0l-0.1,0c0.5,0,0.1,0,0.2,0h0h-0.2
			c-0.3,0-0.6,0-0.9,0c-2.4,0-5.1,0-8.1,0c-5.9,0-12.9,0-20.3,0c-3.7,0-7.5,0-11.4,0c-0.5,0-1,0-1.4,0c-0.3,0.1-0.7,0-1,0.1
			c-0.6,0.2-1.2,0.4-1.7,0.9c-0.5,0.4-0.9,0.9-1.2,1.5c-0.2,0.3-0.1,0.5-0.3,0.7c-0.1,0.1-0.1,0.5-0.1,0.7l0,0.4l0,0.2l0,0.1l0,0
			c0-0.1,0,0.3,0-0.2c0,1.3,0.6,2.6,1.6,3.4c0.5,0.5,1.2,0.7,1.5,0.8c0.1,0.1,0.3,0.1,0.6,0.1l0.7,0.1l0.1,0l0,0c-0.1,0,0.3,0-0.2,0
			h0.2h0.4h0.7c3.9,0,7.7,0,11.4,0c7.4,0,14.4,0,20.3,0c3,0,5.7,0,8.1,0c0.6,0,1.3,0,1.5-0.1c0.4,0,0.7-0.1,1-0.2
			c0.7-0.2,1.2-0.6,1.6-1c0.4-0.4,0.7-0.8,0.9-1.2c0.3-0.4,0.2-0.6,0.4-0.8c0.1-0.9,0.1-1.4,0.1-1.4L118.3,137z"/>
	</g>
	<g>
		<path d="M72.8,143.7c0,0,0.3,1.9,0.4,4.9c0.2,2.9,0.2,6.8,0.1,10.7c0,3.9-0.2,7.8-0.3,10.7c-0.1,2.9-0.3,4.9-0.3,4.9
			c-0.1,1.3-1.2,2.2-2.4,2.1c-1.2-0.1-2.1-1-2.1-2.1c0,0-0.1-1.9-0.3-4.9c-0.1-2.9-0.2-6.8-0.3-10.7c0-3.9-0.1-7.8,0.1-10.7
			c0.1-2.9,0.4-4.9,0.4-4.9c0.2-1.3,1.4-2.1,2.6-2C71.9,141.9,72.6,142.7,72.8,143.7z"/>
	</g>
	<g>
		<path d="M117.6,143.7c0,0-0.2,1.9-0.3,4.9c-0.1,2.9-0.2,6.8-0.1,10.7c0,3.9,0.1,7.8,0.2,10.7c0.1,2.9,0.2,4.9,0.2,4.9
			c0.1,1.3-0.9,2.3-2.2,2.4c-1.3,0.1-2.3-0.9-2.4-2.2c0-0.1,0-0.1,0-0.2c0,0,0.1-1.9,0.2-4.9c0.1-2.9,0.2-6.8,0.2-10.7
			c0.1-3.9,0-7.8-0.1-10.7c-0.1-2.9-0.3-4.9-0.3-4.9c-0.1-1.3,0.8-2.4,2-2.5c1.3-0.1,2.4,0.8,2.5,2
			C117.7,143.4,117.7,143.5,117.6,143.7z"/>
	</g>
</g>
</svg>
