<?xml version="1.0" encoding="utf-8"?>
<!-- Generator: Adobe Illustrator 16.0.0, SVG Export Plug-In . SVG Version: 6.00 Build 0)  -->
<!DOCTYPE svg PUBLIC "-//W3C//DTD SVG 1.1//EN" "http://www.w3.org/Graphics/SVG/1.1/DTD/svg11.dtd">
<svg version="1.1" xmlns="http://www.w3.org/2000/svg" xmlns:xlink="http://www.w3.org/1999/xlink" x="0px" y="0px" width="186px"
	 height="221px" viewBox="0 0 186 221" enable-background="new 0 0 186 221" xml:space="preserve">
<g id="Warstwa_1">
	<path opacity="0.1" d="M-1988.5,60.3c0,0,1.6-1.1,4.6-3.2c1.5-1,3.7-2.2,6.1-3.6c1.2-0.7,2.6-1.3,4-2c1.4-0.7,2.9-1.4,4.6-2
		c6.6-2.7,15-5.1,24.8-5.9c1.2-0.1,2.5-0.1,3.8-0.2c0.6,0,1.3-0.1,1.9-0.1l1,0l1.1,0c2.5,0.1,5.1,0.2,7.8,0.4
		c2.8,0.4,5.7,0.8,8.6,1.3c2.8,0.7,5.7,1.4,8.7,2.3c11.6,3.7,23.4,10.4,33.5,20.1c1.3,1.1,2.4,2.5,3.6,3.8c1.2,1.3,2.5,2.6,3.5,4
		c2.1,2.9,4.4,5.7,6.2,8.9c4,6.2,6.9,13.2,9.2,20.4c0.9,3.7,2,7.4,2.5,11.3c0.7,3.8,0.8,7.7,1,11.6l0,0.7l0,0.4l0,0.2
		c0,0.1,0-0.1,0,0.4l-0.1,1.4l-0.1,2.8c-0.2,1.9-0.1,3.7-0.4,5.8c-0.3,2-0.6,4-0.9,6c-0.3,2-0.9,3.9-1.4,5.8l-0.8,2.9
		c-0.3,1-0.7,1.9-1,2.8l-2.1,5.7c-1.8,3.6-3.3,7.4-5.6,10.7c-2,3.6-4.5,6.7-7,10c-1.3,1.5-2.7,3-4.1,4.5c-1.3,1.6-2.8,2.9-4.3,4.3
		c-1.5,1.3-2.9,2.8-4.6,4l-4.9,3.6c-1.7,1.2-3.4,2.1-5.2,3.2c-0.9,0.5-1.7,1.1-2.6,1.6l-2.7,1.3c-7.2,3.7-15,6.1-22.9,7.5
		c-2,0.3-4,0.6-5.9,0.9c-2,0.2-4,0.2-6,0.3l-3,0.1l-0.2,0l-0.4,0l-0.4,0l-0.7,0l-1.4-0.1c-1.9-0.1-3.8-0.2-5.6-0.3
		c-2-0.3-4-0.6-5.9-0.9l-2.9-0.5l-2.8-0.7c-1.9-0.5-3.8-0.9-5.6-1.5c-1.8-0.7-3.6-1.3-5.4-2c-1.8-0.6-3.5-1.4-5.2-2.3
		c-1.7-0.9-3.4-1.6-5-2.5c-3.2-2-6.4-3.8-9.3-6.1c-6-4.2-10.9-9.6-15.4-14.8c-8.6-11-14-23.3-16.6-35c-0.4-1.5-0.6-2.9-0.8-4.4
		c-0.2-1.5-0.4-2.9-0.6-4.3c-0.3-1.4-0.3-2.9-0.3-4.3c-0.1-1.4-0.1-2.8-0.2-4.2c0-0.7-0.1-1.2-0.1-2.2c0-0.7,0.1-1.3,0.1-2
		c0.1-1.3,0.1-2.6,0.2-3.8c0-1.2,0.2-2.5,0.4-3.8c0.2-1.3,0.3-2.5,0.5-3.8c1.6-9.8,4.6-17.8,7.6-24.2c3.2-6.3,6.2-11,8.5-14
		c2.3-3,3.5-4.6,3.5-4.6c1.2-1.5,3.4-1.8,4.9-0.7c1.5,1.2,1.8,3.4,0.7,4.9c0,0.1-0.1,0.1-0.1,0.2l-0.2,0.2c0,0-1.2,1.4-3.5,4.1
		c-2.2,2.7-5.2,6.9-8.4,12.7c-2.9,5.8-5.9,13.4-7.4,22.4c-0.2,1.1-0.3,2.2-0.5,3.4c-0.2,1.1-0.3,2.3-0.4,3.6
		c-0.1,1.3-0.1,2.5-0.2,3.8c0,0.6-0.1,1.3-0.1,2c0,0.4,0.1,1.2,0.1,1.8c0.1,1.3,0.1,2.6,0.2,3.9c0.1,1.3,0.1,2.6,0.4,4
		c0.2,1.3,0.4,2.7,0.6,4c0.2,1.4,0.4,2.7,0.8,4.1c2.6,10.9,8,22.2,16.1,32.1c4.3,4.8,8.9,9.5,14.5,13.3c2.6,2.1,5.6,3.7,8.6,5.5
		c1.5,0.8,3.1,1.5,4.6,2.3c1.6,0.8,3.1,1.5,4.8,2c1.6,0.6,3.3,1.2,4.9,1.8c1.7,0.5,3.4,0.9,5.1,1.3l2.6,0.7l2.6,0.4
		c1.7,0.3,3.4,0.5,5.2,0.8c1.9,0.1,3.8,0.2,5.6,0.3l1.4,0.1l0.7,0l0.4,0c0,0,0.3,0,0,0l0.2,0l2.7-0.1c1.8-0.1,3.6-0.1,5.4-0.3
		l5.4-0.8c7.2-1.3,14.3-3.5,20.9-6.9l2.5-1.2c0.8-0.4,1.6-1,2.4-1.4c1.6-1,3.2-1.9,4.7-2.9l4.5-3.3c1.5-1,2.8-2.4,4.2-3.6
		c1.4-1.2,2.8-2.5,4-3.9c1.2-1.4,2.5-2.7,3.7-4.1c2.2-3,4.6-5.9,6.3-9.1c2.1-3.1,3.5-6.5,5.1-9.8l1.9-5.2c0.3-0.9,0.7-1.7,0.9-2.6
		l0.7-2.7c0.4-1.8,1-3.5,1.3-5.3c0.3-1.8,0.5-3.5,0.8-5.3c0.4-1.7,0.3-3.7,0.4-5.5l0.1-2.8l0.1-1.4c0,0.3,0,0,0,0l0-0.2l0-0.3l0-0.7
		c-0.2-3.6-0.3-7.1-0.9-10.6c-0.4-3.5-1.4-6.9-2.2-10.3c-2.1-6.6-4.7-13-8.4-18.6c-1.6-2.9-3.8-5.5-5.7-8.1c-1-1.3-2.2-2.4-3.2-3.7
		c-1.1-1.2-2.1-2.5-3.3-3.5c-9.2-8.8-20-14.9-30.5-18.4c-2.7-0.8-5.3-1.4-7.9-2.1c-2.6-0.4-5.1-0.8-7.5-1.2
		c-2.6-0.2-5.2-0.3-7.7-0.4l-0.8,0l-0.9,0c-0.6,0-1.2,0-1.8,0.1c-1.2,0-2.3,0.1-3.5,0.1c-9.1,0.7-16.7,2.8-22.8,5.3
		c-1.5,0.5-2.9,1.2-4.2,1.8c-1.3,0.6-2.6,1.2-3.7,1.8c-2.1,1.3-4,2.2-5.5,3.2c-3,2.1-4.6,3.1-4.6,3.1c-1.6,1.1-3.8,0.7-4.9-0.9
		C-1990.5,63.6-1990.1,61.4-1988.5,60.3z"/>
	<path opacity="0.1" d="M-2014.9,98.1c0,0,9.7-0.1,24.1-0.2c14.5-0.2,33.8-0.1,53.1-0.2c9.7,0,19.3-0.1,28.4-0.1
		c9.1,0,17.5-0.1,24.8,0c14.5,0,24.1,0.6,24.1,0.6v7c0,0-9.7,0.6-24.1,0.6c-7.2,0.1-15.7,0-24.8,0c-9.1,0-18.7-0.1-28.4-0.1
		c-19.3-0.1-38.6-0.1-53.1-0.2c-14.5-0.1-24.1-0.2-24.1-0.2V98.1z"/>
	<path opacity="0.1" d="M-2014.9,152.8c0,0,2.4,0,6.7-0.1c4.3,0,10.3,0,17.7-0.1c14.6,0,34.1,0,53.6,0c39,0,77.9,0.1,77.9,0.1v7
		c0,0-39,0-77.9,0.1c-19.5,0-39,0-53.6,0c-7.3,0-13.4-0.1-17.7-0.1c-4.3,0-6.7-0.1-6.7-0.1V152.8z"/>
	<path opacity="0.1" d="M-1904.4,129c0,0,0,1.4,0,4.1c-0.1,2.8-0.1,6.8-0.5,11.9c-0.4,5.1-1,11.3-2.2,18.4c-1.2,7.1-2.9,15-5.8,23.4
		c-1.5,4.2-3.2,8.5-5.7,12.8c-2.4,4.2-5.5,8.7-10.4,11.9c-2.5,1.6-5.7,2.6-8.9,2.3c-0.5,0-1.5-0.2-2.4-0.4c-0.8-0.2-1.5-0.5-2.3-0.8
		c-1.4-0.7-2.7-1.5-3.9-2.4c-4.6-3.8-7.6-8.8-10-13.8c-4.8-10.2-7.6-21.3-9.4-32.7c-1.8-11.4-2.6-23-2.6-34.7
		c0.2-11.7,0.6-23.3,2.1-34.8c1.5-11.5,4.4-22.6,9.3-32.9c2.5-5.1,5.5-10.1,10.3-14c2.4-1.9,5.5-3.5,8.9-3.7l0.6,0l0.3,0l0.2,0
		c0,0,0.6,0,0.4,0l0.9,0.1l0.5,0l0.7,0.1l1.4,0.3c1.6,0.5,3.1,1.1,4.3,1.9c5.1,3.3,8.1,7.8,10.6,12.1c2.4,4.3,4.2,8.7,5.6,13
		c2.9,8.5,4.5,16.4,5.6,23.5c1.1,7.1,1.7,13.3,2.1,18.4c0.4,5.1,0.4,9.1,0.5,11.9C-1904.4,127.5-1904.4,129-1904.4,129L-1904.4,129z
		 M-1911.4,129c0,0,0-1.4,0-4.1c-0.1-2.7-0.2-6.6-0.5-11.5c-0.4-4.9-0.9-11-2.1-17.8c-1.1-6.8-2.7-14.4-5.4-22.3
		c-1.4-3.9-3-8-5.1-11.8c-2.1-3.8-4.8-7.5-8.1-9.5c-3.2-2.1-6.7-1.8-10,0.9c-3.3,2.7-6.1,6.9-8.3,11.5c-2.2,4.6-4,9.6-5.5,14.8
		c-1.5,5.2-2.7,10.6-3.8,16c-2.2,10.9-3.4,22.3-3.3,33.7c0,11.4,0.9,22.8,2.7,33.8c1.9,11,4.6,21.8,9.1,31.1
		c2.3,4.6,5.1,8.9,8.6,11.7c1.8,1.4,3.6,2.2,5.4,2.3c1.9,0.2,3.7-0.4,5.4-1.5c3.4-2.2,6.1-6,8.2-9.8c2.1-3.8,3.7-7.9,5.1-11.9
		c2.6-8,4.2-15.6,5.3-22.4c1.1-6.8,1.6-12.8,1.9-17.8c0.3-5,0.4-8.9,0.5-11.5C-1911.4,130.4-1911.4,128.9-1911.4,129L-1911.4,129z"
		/>
	<path opacity="0.8" d="M-634.4,60.3c0,0,1.6-1.1,4.6-3.2c1.5-1,3.7-2.2,6.1-3.6c1.2-0.7,2.6-1.3,4-2c1.4-0.7,2.9-1.4,4.6-2
		c6.6-2.7,15-5.1,24.8-5.9c1.2-0.1,2.5-0.1,3.8-0.2c0.6,0,1.3-0.1,1.9-0.1l1,0l1.1,0c2.5,0.1,5.1,0.2,7.8,0.4
		c2.8,0.4,5.7,0.8,8.6,1.3c2.8,0.7,5.7,1.4,8.7,2.3c11.6,3.7,23.4,10.4,33.5,20.1c1.3,1.1,2.4,2.5,3.6,3.8c1.2,1.3,2.5,2.6,3.5,4
		c2.1,2.9,4.4,5.7,6.2,8.9c4,6.2,6.9,13.2,9.2,20.4c0.9,3.7,2,7.4,2.5,11.3c0.7,3.8,0.8,7.7,1,11.6l0,0.7l0,0.4l0,0.2
		c0,0.1,0-0.1,0,0.4l-0.1,1.4l-0.1,2.8c-0.2,1.9-0.1,3.7-0.4,5.8c-0.3,2-0.6,4-0.9,6c-0.3,2-0.9,3.9-1.4,5.8l-0.8,2.9
		c-0.3,1-0.7,1.9-1,2.8l-2.1,5.7c-1.8,3.6-3.3,7.4-5.6,10.7c-2,3.6-4.5,6.7-7,10c-1.3,1.5-2.7,3-4.1,4.5c-1.3,1.6-2.8,2.9-4.3,4.3
		c-1.5,1.3-2.9,2.8-4.6,4l-4.9,3.6c-1.7,1.2-3.4,2.1-5.2,3.2c-0.9,0.5-1.7,1.1-2.6,1.6l-2.7,1.3c-7.2,3.7-15,6.1-22.9,7.5
		c-2,0.3-4,0.6-5.9,0.9c-2,0.2-4,0.2-5.9,0.3l-3,0.1l-0.2,0l-0.4,0l-0.4,0l-0.7,0l-1.4-0.1c-1.9-0.1-3.8-0.2-5.6-0.3
		c-2-0.3-4-0.6-5.9-0.9l-2.9-0.5l-2.8-0.7c-1.9-0.5-3.8-0.9-5.6-1.5c-1.8-0.7-3.6-1.3-5.4-2c-1.8-0.6-3.5-1.4-5.2-2.3
		c-1.7-0.9-3.4-1.6-5-2.5c-3.2-2-6.4-3.8-9.3-6.1c-6-4.2-10.9-9.6-15.4-14.8c-8.6-11-14-23.3-16.6-35c-0.4-1.5-0.6-2.9-0.8-4.4
		c-0.2-1.5-0.4-2.9-0.6-4.3c-0.3-1.4-0.3-2.9-0.3-4.3c-0.1-1.4-0.1-2.8-0.2-4.2c0-0.7-0.1-1.2-0.1-2.2c0-0.7,0.1-1.3,0.1-2
		c0.1-1.3,0.1-2.6,0.2-3.8c0-1.2,0.2-2.5,0.4-3.8c0.2-1.3,0.3-2.5,0.5-3.8c1.6-9.8,4.6-17.8,7.6-24.2c3.2-6.3,6.2-11,8.5-14
		c2.3-3,3.5-4.6,3.5-4.6c1.2-1.5,3.4-1.8,4.9-0.7c1.5,1.2,1.8,3.4,0.7,4.9c0,0.1-0.1,0.1-0.1,0.2l-0.2,0.2c0,0-1.2,1.4-3.5,4.1
		c-2.2,2.7-5.2,6.9-8.4,12.7c-2.9,5.8-5.9,13.4-7.4,22.4c-0.2,1.1-0.3,2.2-0.5,3.4c-0.2,1.1-0.3,2.3-0.4,3.6
		c-0.1,1.3-0.1,2.5-0.2,3.8c0,0.6-0.1,1.3-0.1,2c0,0.4,0.1,1.2,0.1,1.8c0.1,1.3,0.1,2.6,0.2,3.9c0.1,1.3,0.1,2.6,0.4,4
		c0.2,1.3,0.4,2.7,0.6,4c0.2,1.4,0.4,2.7,0.8,4.1c2.6,10.9,8,22.2,16.1,32.1c4.3,4.8,8.9,9.5,14.5,13.3c2.6,2.1,5.6,3.7,8.6,5.5
		c1.5,0.8,3.1,1.5,4.6,2.3c1.6,0.8,3.1,1.5,4.8,2c1.6,0.6,3.3,1.2,4.9,1.8c1.7,0.5,3.4,0.9,5.1,1.3l2.6,0.7l2.6,0.4
		c1.7,0.3,3.4,0.5,5.2,0.8c1.9,0.1,3.8,0.2,5.6,0.3l1.4,0.1l0.7,0l0.4,0c0,0,0.3,0,0,0l0.2,0l2.7-0.1c1.8-0.1,3.6-0.1,5.4-0.3
		l5.4-0.8c7.2-1.3,14.3-3.5,20.9-6.9l2.5-1.2c0.8-0.4,1.6-1,2.4-1.4c1.6-1,3.2-1.9,4.7-2.9l4.5-3.3c1.5-1,2.8-2.4,4.2-3.6
		c1.4-1.2,2.8-2.5,4-3.9c1.2-1.4,2.5-2.7,3.7-4.1c2.2-3,4.6-5.9,6.3-9.1c2.1-3.1,3.5-6.5,5.1-9.8l1.9-5.2c0.3-0.9,0.7-1.7,0.9-2.6
		l0.7-2.7c0.4-1.8,1-3.5,1.3-5.3c0.3-1.8,0.5-3.5,0.8-5.3c0.4-1.7,0.3-3.7,0.4-5.5l0.1-2.8l0.1-1.4c0,0.3,0,0,0,0l0-0.2l0-0.3l0-0.7
		c-0.2-3.6-0.3-7.1-0.9-10.6c-0.4-3.5-1.4-6.9-2.2-10.3c-2.1-6.6-4.7-13-8.4-18.6c-1.6-2.9-3.8-5.5-5.7-8.1c-1-1.3-2.2-2.4-3.2-3.7
		c-1.1-1.2-2.1-2.5-3.3-3.5c-9.2-8.8-20-14.9-30.5-18.4c-2.7-0.8-5.3-1.4-7.9-2.1c-2.6-0.4-5.1-0.8-7.5-1.2
		c-2.6-0.2-5.2-0.3-7.7-0.4l-0.8,0l-0.9,0c-0.6,0-1.2,0-1.8,0.1c-1.2,0-2.3,0.1-3.5,0.1c-9.1,0.7-16.7,2.8-22.8,5.3
		c-1.5,0.5-2.9,1.2-4.2,1.8c-1.3,0.6-2.6,1.2-3.7,1.8c-2.1,1.3-4,2.2-5.5,3.2c-3,2.1-4.6,3.1-4.6,3.1c-1.6,1.1-3.8,0.7-4.9-0.9
		C-636.4,63.6-636,61.4-634.4,60.3z"/>
	<path opacity="0.8" d="M-660.8,98.1c0,0,9.7-0.1,24.1-0.2c14.5-0.2,33.8-0.1,53.1-0.2c9.7,0,19.3-0.1,28.4-0.1
		c9.1,0,17.5-0.1,24.8,0c14.5,0,24.1,0.6,24.1,0.6v7c0,0-9.7,0.6-24.1,0.6c-7.2,0.1-15.7,0-24.8,0c-9.1,0-18.7-0.1-28.4-0.1
		c-19.3-0.1-38.6-0.1-53.1-0.2c-14.5-0.1-24.1-0.2-24.1-0.2V98.1z"/>
	<path opacity="0.8" d="M-660.8,152.8c0,0,2.4,0,6.7-0.1c4.3,0,10.3,0,17.7-0.1c14.6,0,34.1,0,53.6,0c39,0,77.9,0.1,77.9,0.1v7
		c0,0-39,0-77.9,0.1c-19.5,0-39,0-53.6,0c-7.3,0-13.4-0.1-17.7-0.1c-4.3,0-6.7-0.1-6.7-0.1V152.8z"/>
	<path opacity="0.8" d="M-550.3,129c0,0,0,1.4,0,4.1c-0.1,2.8-0.1,6.8-0.5,11.9c-0.4,5.1-1,11.3-2.2,18.4c-1.2,7.1-2.9,15-5.8,23.4
		c-1.5,4.2-3.2,8.5-5.7,12.8c-2.4,4.2-5.5,8.7-10.4,11.9c-2.5,1.6-5.7,2.6-8.9,2.3c-0.5,0-1.5-0.2-2.4-0.4c-0.8-0.2-1.5-0.5-2.3-0.8
		c-1.4-0.7-2.7-1.5-3.9-2.4c-4.6-3.8-7.6-8.8-10-13.8c-4.8-10.2-7.6-21.3-9.4-32.7c-1.8-11.4-2.6-23-2.6-34.7
		c0.2-11.7,0.6-23.3,2.1-34.8c1.5-11.5,4.4-22.6,9.3-32.9c2.5-5.1,5.5-10.1,10.3-14c2.4-1.9,5.5-3.5,8.9-3.7l0.6,0l0.3,0l0.2,0
		c0,0,0.6,0,0.4,0l0.9,0.1l0.5,0l0.7,0.1l1.4,0.3c1.6,0.5,3.1,1.1,4.3,1.9c5.1,3.3,8.1,7.8,10.6,12.1c2.4,4.3,4.2,8.7,5.6,13
		c2.9,8.5,4.5,16.4,5.6,23.5c1.1,7.1,1.7,13.3,2.1,18.4c0.4,5.1,0.4,9.1,0.5,11.9C-550.3,127.5-550.3,129-550.3,129L-550.3,129z
		 M-557.2,129c0,0,0-1.4,0-4.1c-0.1-2.7-0.2-6.6-0.5-11.5c-0.4-4.9-0.9-11-2.1-17.8c-1.1-6.8-2.7-14.4-5.4-22.3
		c-1.4-3.9-3-8-5.1-11.8c-2.1-3.8-4.8-7.5-8.1-9.5c-3.2-2.1-6.7-1.8-10,0.9c-3.3,2.7-6.1,6.9-8.3,11.5c-2.2,4.6-4,9.6-5.5,14.8
		c-1.5,5.2-2.7,10.6-3.8,16c-2.2,10.9-3.4,22.3-3.3,33.7c0,11.4,0.9,22.8,2.7,33.8c1.9,11,4.6,21.8,9.1,31.1
		c2.3,4.6,5.1,8.9,8.6,11.7c1.8,1.4,3.6,2.2,5.4,2.3c1.9,0.2,3.7-0.4,5.4-1.5c3.4-2.2,6.1-6,8.2-9.8c2.1-3.8,3.7-7.9,5.1-11.9
		c2.6-8,4.2-15.6,5.3-22.4c1.1-6.8,1.6-12.8,1.9-17.8c0.3-5,0.4-8.9,0.5-11.5C-557.3,130.4-557.2,128.9-557.2,129L-557.2,129z"/>
	<path fill="none" stroke="#000000" stroke-width="3" stroke-miterlimit="10" d="M-1633.9,224.4"/>
	<path opacity="0.1" d="M-1661.2,199c0,0-1.6,1.1-4.6,3.2c-1.5,1-3.7,2.2-6.1,3.6c-1.2,0.7-2.6,1.3-4,2c-1.4,0.7-2.9,1.4-4.6,2
		c-6.6,2.7-15,5.1-24.9,5.9c-1.2,0.1-2.5,0.1-3.8,0.2c-0.6,0-1.3,0.1-1.9,0.1l-1,0l-1.1,0c-2.5-0.1-5.1-0.2-7.8-0.4
		c-2.8-0.4-5.7-0.8-8.7-1.3c-2.8-0.7-5.8-1.4-8.7-2.3c-11.7-3.7-23.5-10.4-33.6-20.1c-1.4-1.1-2.4-2.5-3.7-3.8
		c-1.2-1.3-2.5-2.6-3.5-4c-2.1-2.9-4.5-5.7-6.2-8.9c-4-6.2-6.9-13.2-9.2-20.5c-0.9-3.7-2-7.4-2.5-11.3c-0.7-3.8-0.8-7.7-1-11.7
		l0-0.7l0-0.4l0-0.2c0-0.1,0,0.1,0-0.4l0.1-1.4l0.1-2.8c0.1-1.9,0.1-3.7,0.5-5.8c0.3-2,0.6-4,0.9-6c0.3-2,0.9-3.9,1.4-5.9l0.8-2.9
		c0.3-1,0.7-1.9,1-2.9l2.1-5.7c1.8-3.6,3.4-7.4,5.6-10.8c2-3.6,4.5-6.7,7-10c1.3-1.6,2.7-3,4.1-4.5c1.3-1.6,2.8-2.9,4.4-4.3
		c1.5-1.3,2.9-2.8,4.6-4l4.9-3.7c1.7-1.2,3.5-2.1,5.2-3.2c0.9-0.5,1.7-1.1,2.6-1.6l2.7-1.3c7.2-3.7,15.1-6.1,22.9-7.5
		c2-0.3,4-0.6,5.9-0.9c2-0.2,4-0.2,6-0.3l3-0.1l0.2,0l0.4,0l0.4,0l0.7,0l1.4,0.1c1.9,0.1,3.8,0.2,5.7,0.3c2,0.3,4,0.6,5.9,0.9l3,0.5
		l2.8,0.7c1.9,0.5,3.8,0.9,5.6,1.5c1.8,0.7,3.6,1.3,5.4,2c1.8,0.6,3.5,1.4,5.2,2.3c1.7,0.9,3.4,1.6,5,2.5c3.2,2,6.5,3.8,9.3,6.1
		c6,4.2,10.9,9.6,15.4,14.9c8.6,11,14,23.3,16.7,35.1c0.4,1.5,0.6,2.9,0.8,4.4c0.2,1.5,0.4,2.9,0.6,4.3c0.3,1.4,0.3,2.9,0.4,4.3
		c0.1,1.4,0.1,2.8,0.2,4.2c0,0.7,0.1,1.3,0.1,2.2c0,0.7-0.1,1.3-0.1,2c-0.1,1.3-0.1,2.6-0.2,3.8c0,1.2-0.2,2.5-0.4,3.8
		c-0.2,1.3-0.3,2.5-0.5,3.8c-1.6,9.8-4.6,17.8-7.6,24.3c-3.2,6.3-6.2,11-8.5,14.1c-2.3,3-3.5,4.6-3.5,4.6c-1.2,1.5-3.4,1.8-4.9,0.7
		c-1.5-1.2-1.8-3.4-0.7-4.9c0-0.1,0.1-0.1,0.1-0.2l0.2-0.2c0,0,1.2-1.4,3.5-4.1c2.2-2.7,5.3-6.9,8.4-12.7c3-5.8,5.9-13.4,7.4-22.4
		c0.2-1.1,0.3-2.2,0.5-3.4c0.2-1.1,0.3-2.3,0.4-3.6c0.1-1.3,0.1-2.5,0.2-3.8c0-0.6,0.1-1.3,0.1-2c0-0.4-0.1-1.2-0.1-1.8
		c-0.1-1.3-0.1-2.6-0.2-3.9c-0.1-1.3-0.1-2.7-0.4-4c-0.2-1.3-0.4-2.7-0.6-4c-0.2-1.4-0.4-2.7-0.8-4.1c-2.6-11-8-22.2-16.2-32.2
		c-4.3-4.8-8.9-9.5-14.5-13.4c-2.6-2.1-5.7-3.7-8.6-5.5c-1.5-0.8-3.1-1.5-4.6-2.3c-1.6-0.8-3.1-1.5-4.8-2c-1.6-0.6-3.3-1.2-4.9-1.8
		c-1.7-0.5-3.4-0.9-5.1-1.3l-2.6-0.7l-2.6-0.4c-1.7-0.3-3.5-0.5-5.2-0.8c-1.9-0.1-3.8-0.2-5.7-0.3l-1.4-0.1l-0.7,0l-0.4,0
		c0,0-0.3,0,0,0l-0.2,0l-2.7,0.1c-1.8,0.1-3.6,0.1-5.5,0.3l-5.4,0.8c-7.2,1.4-14.3,3.5-20.9,6.9l-2.5,1.2c-0.8,0.4-1.6,1-2.4,1.4
		c-1.6,1-3.2,1.9-4.7,2.9l-4.5,3.3c-1.5,1-2.8,2.5-4.2,3.7c-1.4,1.2-2.8,2.5-4,3.9c-1.2,1.4-2.5,2.7-3.7,4.1c-2.2,3-4.6,5.9-6.4,9.1
		c-2.1,3.1-3.5,6.5-5.1,9.8l-1.9,5.2c-0.3,0.9-0.7,1.7-0.9,2.6l-0.7,2.7c-0.4,1.8-1,3.5-1.3,5.3c-0.3,1.8-0.5,3.5-0.8,5.3
		c-0.4,1.7-0.3,3.7-0.4,5.6l-0.1,2.8l-0.1,1.4c0-0.3,0,0,0,0l0,0.2l0,0.3l0,0.7c0.2,3.6,0.3,7.2,0.9,10.7c0.4,3.5,1.4,6.9,2.2,10.3
		c2.1,6.6,4.7,13,8.4,18.7c1.6,3,3.8,5.5,5.7,8.2c1,1.3,2.2,2.5,3.2,3.7c1.1,1.2,2.1,2.5,3.3,3.5c9.3,8.9,20,15,30.6,18.4
		c2.7,0.8,5.3,1.4,7.9,2.1c2.6,0.4,5.1,0.8,7.6,1.2c2.6,0.2,5.2,0.3,7.8,0.4l0.8,0l0.9,0c0.6,0,1.2,0,1.8-0.1c1.2,0,2.3-0.1,3.5-0.1
		c9.1-0.7,16.8-2.9,22.8-5.3c1.5-0.5,2.9-1.2,4.2-1.8c1.3-0.6,2.6-1.2,3.7-1.8c2.2-1.3,4-2.2,5.5-3.2c3-2.1,4.6-3.2,4.6-3.2
		c1.6-1.1,3.8-0.7,4.9,0.9C-1659.2,195.8-1659.6,197.9-1661.2,199z"/>
	<path opacity="0.1" d="M-1738.9,207.8c0.7-3,2-5.8,3.1-8.7l3.3-8.6l6.7-17.2l6.6-17.2l6.5-17.3c0.5-1.2,1.8-1.8,3-1.4
		c0.6,0.2,1.1,0.7,1.3,1.3l0,0.1c2.2,5.6,4.5,11.3,6.6,17c2.2,5.7,4.3,11.3,6.4,17c4.2,11.4,8.5,22.7,11.8,34.4
		c0.4,1.2-0.4,2.5-1.6,2.9c-1.1,0.3-2.3-0.3-2.8-1.3c-4.9-11.1-8.9-22.6-13-34c-2.1-5.7-4-11.4-6-17.2c-2-5.7-3.9-11.5-5.8-17.3
		l4.4,0l-6.6,17.3l-6.5,17.3l-6.4,17.3l-3.2,8.7c-1.1,2.9-2,5.8-3.5,8.6c-0.6,1.2-2,1.6-3.2,1
		C-1738.7,209.9-1739.2,208.8-1738.9,207.8z"/>
	<path opacity="0.1" d="M-1785,101.6c0,0,0.8,1.5,1.8,4.2c1,2.8,2.5,6.7,4.2,11.4c1.7,4.7,3.7,10.3,5.9,16.2
		c2.2,5.9,4.5,12.2,6.8,18.5c2.3,6.3,4.6,12.6,6.8,18.5c1.1,3,2.2,5.8,3.3,8.5c1.1,2.7,2.2,5.2,3.2,7.5c1,2.3,1.8,4.5,2.6,6.4
		c0.7,1.9,1.3,3.6,1.7,5c0.8,2.8,1.1,4.5,1.1,4.5c0.2,1.3-0.7,2.5-2,2.7c-1,0.1-1.9-0.3-2.4-1.1c0,0-0.9-1.5-2.1-4.1
		c-0.6-1.3-1.3-3-2-4.9c-0.7-1.9-1.5-4.1-2.2-6.5c-0.8-2.4-1.6-5-2.5-7.8c-0.9-2.8-1.9-5.6-3-8.6c-2.2-5.9-4.6-12.2-6.9-18.5
		c-2.4-6.3-4.7-12.6-7-18.5c-2.2-5.9-4.3-11.4-6.1-16.1c-1.8-4.7-3.3-8.7-4.3-11.4c-1-2.8-1.4-4.4-1.4-4.4c-0.3-1.3,0.6-2.5,1.8-2.8
		C-1786.5,100.2-1785.5,100.8-1785,101.6z"/>
	<path opacity="0.1" d="M-1780.1,81.5c1.3,0.4,2.5,0.2,3.8,0.2l3.8,0l7.5,0c5,0,10-0.1,15-0.2c1.3,0,2.3,1,2.3,2.2v0l0,0.1v0
		c0.3,1.3,0.4,2.6,0.4,3.8c0,1.3-0.1,2.6-0.4,3.8l-0.2,1c-0.2,1-1.2,1.6-2.1,1.3l0,0h0c-2.1,0.6-4.2,0.3-6.2,0.3
		c-2.1,0-4.2-0.1-6.3-0.3l2.2-3.1l0,0c2.4,6.5,4.8,13,7.1,19.6l7,19.6c4.6,13.1,9.2,26.2,13.7,39.3l-4.4,0l0,0l18.4-51.6l0.1,1.7
		l-11.7-27l2.1,1.4h0c-2-0.5-3.9-0.7-5.9-0.8c-2-0.1-3.9,0-5.9,0.8c-0.7,0.3-1.4-0.1-1.7-0.7l-0.6-1.6l0,0c-0.3-1.3-0.4-2.6-0.4-3.8
		c0-1.3,0.1-2.6,0.4-3.8l0.3-1.1c0.2-0.9,1.1-1.5,2.1-1.3l0,0l0,0c4.3,0.2,8.7,0.2,13,0.2c4.3,0.1,8.7,0,13,0c8.7,0,17.3-0.1,26-0.2
		c1.3,0,2.3,1,2.3,2.3v0l0,0.1v0v8c0,1.3-1,2.3-2.3,2.3h0h-11.7l2.2-3.1l0,0c2.5,6.9,4.9,13.9,7.4,20.8l7.2,20.9l14.3,41.8l-4.4-0.2
		l0,0c2-4.6,3.9-9.5,5.6-14.3c0.9-2.4,1.6-4.9,2.4-7.3c0.8-2.4,1.5-4.9,2.1-7.4c0.6-2.5,1.3-4.9,1.7-7.4c0.5-2.5,0.9-5,1.2-7.5
		l0.3-3.7l0-3.7c0-1.2-0.2-2.4-0.3-3.6c0-0.4-0.2-1.2-0.3-1.8c-0.1-0.7-0.3-1.1-0.4-1.7c-1.3-4.6-3.7-9-6.4-13.3
		c-2.7-4.3-5.8-8.5-8.1-13.7c-1.1-2.6-2-5.6-1.6-8.8c0.3-3.2,2-6,3.9-8.2c0.5-0.5,1-1,1.5-1.5l0,0l0.3-0.2l0.1-0.1l0.2-0.1l0.4-0.3
		l0.8-0.6c0.6-0.4,1-0.8,1.6-1.2l2.1-1.1c0.7-0.4,1.5-0.6,2.2-0.8c0.7-0.3,1.5-0.4,2.4-0.4c0.8-0.1,1.7,0,2.6,0.1
		c0.9,0.3,1.7,0.4,2.8,1.2c1,0.8,1.1,2.3,0.3,3.3c-0.8,1-2.3,1.1-3.3,0.3c0,0,0,0,0.1,0l-0.1,0c-0.1,0-0.1-0.1-0.2-0.1
		c-0.2,0-0.3-0.1-0.5-0.2c-0.4,0-0.8-0.1-1.3,0c-0.5,0-0.9,0.1-1.4,0.3c-0.5,0.2-1,0.2-1.4,0.5l-1.4,0.7c-0.5,0.3-1,0.7-1.5,1.1
		l-1.3,1c-0.4,0.4-0.8,0.8-1.2,1.2c-1.5,1.7-2.5,3.6-2.7,5.6c-0.3,2,0.3,4.2,1.2,6.3c1.9,4.3,5,8.5,7.8,12.9c2.8,4.4,5.5,9.2,7,14.6
		c0.2,0.7,0.4,1.5,0.5,2.1c0.1,0.7,0.3,1.2,0.3,2c0.1,1.4,0.3,2.8,0.3,4.1l-0.1,4.1l-0.4,4c-0.3,2.6-0.7,5.3-1.3,7.9
		c-0.5,2.6-1.2,5.2-1.8,7.7c-0.7,2.5-1.4,5.1-2.2,7.6c-0.8,2.5-1.6,5-2.5,7.5c-1.8,4.9-3.6,9.8-5.8,14.6l0,0
		c-0.5,1.2-1.9,1.7-3.1,1.2c-0.6-0.3-1.1-0.8-1.3-1.4l0,0l-14.6-41.7l-7.2-20.9c-2.4-7-4.8-13.9-7.1-21l0,0c-0.4-1.2,0.2-2.6,1.4-3
		c0.3-0.1,0.5-0.1,0.8-0.1h11.7h0l-2.3,2.3v-8v0l2.3,2.3c-8.7-0.2-17.3-0.2-26-0.2c-4.3,0-8.7-0.1-13,0c-4.3,0.1-8.7,0-13,0.2l0,0
		l2.3-2.3c0.3,1.3,0.4,2.6,0.4,3.8c0,1.3-0.1,2.6-0.4,3.8l0,0l-2.3-2.3c2,0.8,3.9,0.8,5.9,0.8c2-0.1,3.9-0.2,5.9-0.8h0
		c1,0,1.8,0.6,2.1,1.4l11.7,27c0.2,0.6,0.2,1.2,0.1,1.7l-18.4,51.6l0,0c-0.4,1.2-1.8,1.9-3,1.4c-0.7-0.2-1.2-0.8-1.4-1.4l0-0.1
		c-4.8-13-9.4-26.1-14.1-39.2l-6.9-19.6c-2.3-6.5-4.6-13.1-6.8-19.7l0,0c-0.5-1.1,0-2.4,1-2.9c0.2-0.1,0.5-0.2,0.7-0.2l0.5,0
		c2.1-0.2,4.2-0.3,6.3-0.3c2.1,0,4.2-0.2,6.2,0.3h0l-2.3,2.3c-0.3-1.3-0.4-2.6-0.4-3.8c0-1.3,0.1-2.6,0.4-3.8v0l2.3,2.3
		c-5-0.1-10-0.2-15-0.2l-7.5,0l-3.8,0c-1.3,0-2.5-0.1-3.8,0.2c-1.3,0.4-2.7-0.4-3-1.7s0.4-2.7,1.7-3
		C-1781,81.4-1780.5,81.4-1780.1,81.5z"/>
	<path opacity="0.1" d="M-1633.9,98.5c0,0.1,0.1,0.1,0,1.7c-0.1,0.8-0.2,1.2-0.3,1.8c-0.1,0.6-0.3,1.2-0.5,2
		c-0.7,2.9-1.9,6.9-3.3,11.7c-2.9,9.6-7,22.2-11.2,34.8c-4.3,12.6-8.6,25.2-11.8,34.6c-3.3,9.4-5.5,15.7-5.5,15.7l-4.4-1.5
		c0,0,8.4-25.2,16.9-50.4c4.2-12.6,8.4-25.2,11.4-34.7c1.5-4.7,2.7-8.7,3.4-11.4c0.2-0.7,0.4-1.3,0.5-1.8c0.1-0.5,0.2-1,0.2-1
		c0.2,0,0.1-0.8,0.1-0.7L-1633.9,98.5z"/>
	<path opacity="0.8" d="M-307.1,199c0,0-1.6,1.1-4.6,3.2c-1.5,1-3.7,2.2-6.1,3.6c-1.2,0.7-2.6,1.3-4,2c-1.4,0.7-2.9,1.4-4.6,2
		c-6.6,2.7-15,5.1-24.9,5.9c-1.2,0.1-2.5,0.1-3.8,0.2c-0.6,0-1.3,0.1-1.9,0.1l-1,0l-1.1,0c-2.5-0.1-5.1-0.2-7.8-0.4
		c-2.8-0.4-5.7-0.8-8.7-1.3c-2.8-0.7-5.8-1.4-8.7-2.3c-11.7-3.7-23.5-10.4-33.6-20.1c-1.4-1.1-2.4-2.5-3.7-3.8
		c-1.2-1.3-2.5-2.6-3.5-4c-2.1-2.9-4.5-5.7-6.2-8.9c-4-6.2-6.9-13.2-9.2-20.5c-0.9-3.7-2-7.4-2.5-11.3c-0.7-3.8-0.8-7.7-1-11.7
		l0-0.7l0-0.4l0-0.2c0-0.1,0,0.1,0-0.4l0.1-1.4l0.1-2.8c0.2-1.9,0.1-3.7,0.5-5.8c0.3-2,0.6-4,0.9-6c0.3-2,0.9-3.9,1.4-5.9l0.8-2.9
		c0.3-1,0.7-1.9,1-2.9l2.1-5.7c1.8-3.6,3.4-7.4,5.6-10.8c2-3.6,4.5-6.7,7-10c1.3-1.6,2.7-3,4.1-4.5c1.3-1.6,2.8-2.9,4.4-4.3
		c1.5-1.3,2.9-2.8,4.6-4l4.9-3.7c1.7-1.2,3.5-2.1,5.2-3.2c0.9-0.5,1.7-1.1,2.6-1.6l2.7-1.3c7.2-3.7,15.1-6.1,22.9-7.5
		c2-0.3,4-0.6,5.9-0.9c2-0.2,4-0.2,6-0.3l3-0.1l0.2,0l0.4,0l0.4,0l0.7,0l1.4,0.1c1.9,0.1,3.8,0.2,5.7,0.3c2,0.3,4,0.6,5.9,0.9l3,0.5
		l2.8,0.7c1.9,0.5,3.8,0.9,5.6,1.5c1.8,0.7,3.6,1.3,5.4,2c1.8,0.6,3.5,1.4,5.2,2.3c1.7,0.9,3.4,1.6,5,2.5c3.2,2,6.5,3.8,9.3,6.1
		c6,4.2,10.9,9.6,15.4,14.9c8.6,11,14,23.3,16.7,35.1c0.4,1.5,0.6,2.9,0.8,4.4c0.2,1.5,0.4,2.9,0.6,4.3c0.3,1.4,0.3,2.9,0.4,4.3
		c0.1,1.4,0.1,2.8,0.2,4.2c0,0.7,0.1,1.3,0.1,2.2c0,0.7-0.1,1.3-0.1,2c-0.1,1.3-0.1,2.6-0.2,3.8c0,1.2-0.2,2.5-0.4,3.8
		c-0.2,1.3-0.3,2.5-0.5,3.8c-1.6,9.8-4.6,17.8-7.6,24.3c-3.2,6.3-6.2,11-8.5,14.1c-2.3,3-3.5,4.6-3.5,4.6c-1.2,1.5-3.4,1.8-4.9,0.7
		c-1.5-1.2-1.8-3.4-0.7-4.9c0-0.1,0.1-0.1,0.1-0.2l0.2-0.2c0,0,1.2-1.4,3.5-4.1c2.2-2.7,5.3-6.9,8.4-12.7c3-5.8,5.9-13.4,7.4-22.4
		c0.2-1.1,0.3-2.2,0.5-3.4c0.2-1.1,0.3-2.3,0.4-3.6c0.1-1.3,0.1-2.5,0.2-3.8c0-0.6,0.1-1.3,0.1-2c0-0.4-0.1-1.2-0.1-1.8
		c-0.1-1.3-0.1-2.6-0.2-3.9c-0.1-1.3-0.1-2.7-0.4-4c-0.2-1.3-0.4-2.7-0.6-4c-0.2-1.4-0.4-2.7-0.8-4.1c-2.6-11-8-22.2-16.2-32.2
		c-4.3-4.8-8.9-9.5-14.5-13.4c-2.6-2.1-5.7-3.7-8.6-5.5c-1.5-0.8-3.1-1.5-4.6-2.3c-1.6-0.8-3.1-1.5-4.8-2c-1.6-0.6-3.3-1.2-4.9-1.8
		c-1.7-0.5-3.4-0.9-5.1-1.3l-2.6-0.7l-2.6-0.4c-1.7-0.3-3.5-0.5-5.2-0.8c-1.9-0.1-3.8-0.2-5.7-0.3l-1.4-0.1l-0.7,0l-0.4,0
		c0,0-0.3,0,0,0l-0.2,0l-2.7,0.1c-1.8,0.1-3.6,0.1-5.5,0.3l-5.4,0.8c-7.2,1.4-14.3,3.5-20.9,6.9l-2.5,1.2c-0.8,0.4-1.6,1-2.4,1.4
		c-1.6,1-3.2,1.9-4.7,2.9l-4.5,3.3c-1.5,1-2.8,2.5-4.2,3.7c-1.4,1.2-2.8,2.5-4,3.9c-1.2,1.4-2.5,2.7-3.7,4.1c-2.2,3-4.6,5.9-6.4,9.1
		c-2.1,3.1-3.5,6.5-5.1,9.8l-1.9,5.2c-0.3,0.9-0.7,1.7-0.9,2.6l-0.7,2.7c-0.4,1.8-1,3.5-1.3,5.3c-0.3,1.8-0.5,3.5-0.8,5.3
		c-0.4,1.7-0.3,3.7-0.4,5.6l-0.1,2.8l-0.1,1.4c0-0.3,0,0,0,0l0,0.2l0,0.3l0,0.7c0.2,3.6,0.3,7.2,0.9,10.7c0.4,3.5,1.4,6.9,2.2,10.3
		c2.1,6.6,4.7,13,8.4,18.7c1.6,3,3.8,5.5,5.7,8.2c1,1.3,2.2,2.5,3.2,3.7c1.1,1.2,2.1,2.5,3.3,3.5c9.3,8.9,20,15,30.6,18.4
		c2.7,0.8,5.3,1.4,7.9,2.1c2.6,0.4,5.1,0.8,7.6,1.2c2.6,0.2,5.2,0.3,7.8,0.4l0.8,0l0.9,0c0.6,0,1.2,0,1.8-0.1c1.2,0,2.3-0.1,3.5-0.1
		c9.1-0.7,16.8-2.9,22.8-5.3c1.5-0.5,2.9-1.2,4.2-1.8c1.3-0.6,2.6-1.2,3.7-1.8c2.2-1.3,4-2.2,5.5-3.2c3-2.1,4.6-3.2,4.6-3.2
		c1.6-1.1,3.8-0.7,4.9,0.9C-305.1,195.8-305.5,197.9-307.1,199z"/>
	<path opacity="0.8" d="M-384.8,207.8c0.7-3,2-5.8,3.1-8.7l3.3-8.6l6.7-17.2l6.6-17.2l6.5-17.3c0.5-1.2,1.8-1.8,3-1.4
		c0.6,0.2,1.1,0.7,1.3,1.3l0,0.1c2.3,5.6,4.5,11.3,6.6,17c2.2,5.7,4.3,11.3,6.4,17c4.2,11.4,8.5,22.7,11.8,34.4
		c0.4,1.2-0.4,2.5-1.6,2.9c-1.1,0.3-2.3-0.3-2.8-1.3c-4.9-11.1-8.9-22.6-13-34c-2.1-5.7-4-11.4-6-17.2c-2-5.7-3.9-11.5-5.8-17.3
		l4.4,0l-6.6,17.3l-6.5,17.3l-6.4,17.3l-3.2,8.7c-1.1,2.9-2,5.8-3.5,8.6c-0.6,1.2-2,1.6-3.2,1C-384.6,209.9-385.1,208.8-384.8,207.8
		z"/>
	<path opacity="0.8" d="M-430.8,101.6c0,0,0.8,1.5,1.8,4.2c1,2.8,2.5,6.7,4.2,11.4c1.7,4.7,3.7,10.3,5.9,16.2
		c2.2,5.9,4.5,12.2,6.8,18.5c2.3,6.3,4.6,12.6,6.8,18.5c1.1,3,2.2,5.8,3.3,8.5c1.1,2.7,2.2,5.2,3.2,7.5c1,2.3,1.8,4.5,2.6,6.4
		c0.7,1.9,1.3,3.6,1.7,5c0.8,2.8,1.1,4.5,1.1,4.5c0.2,1.3-0.7,2.5-2,2.7c-1,0.1-1.9-0.3-2.4-1.1c0,0-0.9-1.5-2.1-4.1
		c-0.6-1.3-1.3-3-2-4.9c-0.7-1.9-1.5-4.1-2.2-6.5c-0.8-2.4-1.6-5-2.5-7.8c-0.9-2.8-1.9-5.6-3-8.6c-2.2-5.9-4.6-12.2-6.9-18.5
		c-2.4-6.3-4.7-12.6-7-18.5c-2.2-5.9-4.3-11.4-6.1-16.1c-1.8-4.7-3.3-8.7-4.3-11.4c-1-2.8-1.4-4.4-1.4-4.4c-0.3-1.3,0.6-2.5,1.8-2.8
		C-432.4,100.2-431.3,100.8-430.8,101.6z"/>
	<path opacity="0.8" d="M-426,81.5c1.3,0.4,2.5,0.2,3.8,0.2l3.8,0l7.5,0c5,0,10-0.1,15-0.2c1.3,0,2.3,1,2.3,2.2v0l0,0.1v0
		c0.3,1.3,0.4,2.6,0.4,3.8c0,1.3-0.1,2.6-0.4,3.8l-0.2,1c-0.2,1-1.2,1.6-2.1,1.3l0,0h0c-2.1,0.6-4.2,0.3-6.2,0.3
		c-2.1,0-4.2-0.1-6.3-0.3l2.2-3.1l0,0c2.4,6.5,4.8,13,7.1,19.6l7,19.6c4.6,13.1,9.2,26.2,13.7,39.3l-4.4,0l0,0l18.4-51.6l0.1,1.7
		l-11.7-27l2.1,1.4h0c-2-0.5-3.9-0.7-5.9-0.8c-2-0.1-3.9,0-5.9,0.8c-0.7,0.3-1.4-0.1-1.7-0.7l-0.6-1.6l0,0c-0.3-1.3-0.4-2.6-0.4-3.8
		c0-1.3,0.1-2.6,0.4-3.8l0.3-1.1c0.2-0.9,1.1-1.5,2.1-1.3l0,0l0,0c4.3,0.2,8.7,0.2,13,0.2c4.3,0.1,8.7,0,13,0c8.7,0,17.3-0.1,26-0.2
		c1.3,0,2.3,1,2.3,2.3v0l0,0.1v0v8c0,1.3-1,2.3-2.3,2.3h0h-11.7l2.2-3.1l0,0c2.5,6.9,4.9,13.9,7.4,20.8l7.2,20.9l14.3,41.8l-4.4-0.2
		l0,0c2-4.6,3.9-9.5,5.6-14.3c0.9-2.4,1.6-4.9,2.4-7.3c0.8-2.4,1.5-4.9,2.1-7.4c0.6-2.5,1.3-4.9,1.7-7.4c0.5-2.5,0.9-5,1.2-7.5
		l0.3-3.7l0-3.7c0-1.2-0.2-2.4-0.3-3.6c0-0.4-0.2-1.2-0.3-1.8c-0.1-0.7-0.3-1.1-0.4-1.7c-1.3-4.6-3.7-9-6.4-13.3
		c-2.7-4.3-5.8-8.5-8.1-13.7c-1.1-2.6-2-5.6-1.6-8.8c0.3-3.2,2-6,3.9-8.2c0.5-0.5,1-1,1.5-1.5l0,0l0.3-0.2l0.1-0.1l0.2-0.1l0.4-0.3
		l0.8-0.6c0.5-0.4,1-0.8,1.6-1.2l2.1-1.1c0.7-0.4,1.5-0.6,2.2-0.8c0.7-0.3,1.5-0.4,2.4-0.4c0.8-0.1,1.7,0,2.6,0.1
		c0.9,0.3,1.7,0.4,2.8,1.2c1,0.8,1.1,2.3,0.3,3.3c-0.8,1-2.3,1.1-3.3,0.3c0,0,0,0,0.1,0l-0.1,0c-0.1,0-0.1-0.1-0.2-0.1
		c-0.2,0-0.3-0.1-0.5-0.2c-0.4,0-0.8-0.1-1.3,0c-0.5,0-0.9,0.1-1.4,0.3c-0.5,0.2-1,0.2-1.4,0.5l-1.4,0.7c-0.5,0.3-1,0.7-1.5,1.1
		l-1.3,1c-0.4,0.4-0.8,0.8-1.2,1.2c-1.5,1.7-2.5,3.6-2.7,5.6c-0.3,2,0.3,4.2,1.2,6.3c1.9,4.3,5,8.5,7.8,12.9c2.8,4.4,5.5,9.2,7,14.6
		c0.2,0.7,0.4,1.5,0.5,2.1c0.1,0.7,0.3,1.2,0.3,2c0.1,1.4,0.3,2.8,0.3,4.1l-0.1,4.1l-0.4,4c-0.3,2.6-0.7,5.3-1.3,7.9
		c-0.5,2.6-1.2,5.2-1.8,7.7c-0.7,2.5-1.4,5.1-2.2,7.6c-0.8,2.5-1.6,5-2.5,7.5c-1.8,4.9-3.6,9.8-5.8,14.6l0,0
		c-0.5,1.2-1.9,1.7-3.1,1.2c-0.6-0.3-1.1-0.8-1.3-1.4l0,0l-14.6-41.7l-7.2-20.9c-2.4-7-4.8-13.9-7.1-21l0,0c-0.4-1.2,0.2-2.6,1.4-3
		c0.3-0.1,0.5-0.1,0.8-0.1h11.7h0l-2.3,2.3v-8v0l2.3,2.3c-8.7-0.2-17.3-0.2-26-0.2c-4.3,0-8.7-0.1-13,0c-4.3,0.1-8.7,0-13,0.2l0,0
		l2.3-2.3c0.3,1.3,0.4,2.6,0.4,3.8c0,1.3-0.1,2.6-0.4,3.8l0,0l-2.3-2.3c2,0.8,3.9,0.8,5.9,0.8c2-0.1,3.9-0.2,5.9-0.8h0
		c1,0,1.8,0.6,2.2,1.4l11.7,27c0.2,0.6,0.3,1.2,0.1,1.7l-18.4,51.6l0,0c-0.4,1.2-1.8,1.9-3,1.4c-0.7-0.2-1.2-0.8-1.4-1.4l0-0.1
		c-4.8-13-9.4-26.1-14.1-39.2l-6.9-19.6c-2.3-6.5-4.6-13.1-6.8-19.7l0,0c-0.5-1.1,0-2.4,1-2.9c0.2-0.1,0.5-0.2,0.7-0.2l0.5,0
		c2.1-0.2,4.2-0.3,6.3-0.3c2.1,0,4.2-0.2,6.2,0.3h0l-2.3,2.3c-0.3-1.3-0.4-2.6-0.4-3.8c0-1.3,0.1-2.6,0.4-3.8v0l2.3,2.3
		c-5-0.1-10-0.2-15-0.2l-7.5,0l-3.8,0c-1.3,0-2.5-0.1-3.8,0.2c-1.3,0.4-2.7-0.4-3-1.7s0.4-2.7,1.7-3
		C-426.9,81.4-426.4,81.4-426,81.5z"/>
	<path opacity="0.8" d="M-279.8,98.5c0,0.1,0.1,0.1,0,1.7c-0.1,0.8-0.2,1.2-0.3,1.8c-0.1,0.6-0.3,1.2-0.5,2
		c-0.7,2.9-1.9,6.9-3.3,11.7c-2.9,9.6-7,22.2-11.2,34.8c-4.3,12.6-8.6,25.2-11.8,34.6c-3.3,9.4-5.5,15.7-5.5,15.7l-4.4-1.5
		c0,0,8.4-25.2,16.9-50.4c4.2-12.6,8.4-25.2,11.4-34.7c1.5-4.7,2.7-8.7,3.4-11.4c0.2-0.7,0.4-1.3,0.5-1.8c0.1-0.5,0.2-1,0.2-1
		c0.2,0,0.1-0.8,0.1-0.7L-279.8,98.5z"/>
	<path opacity="0.8" d="M-1554.9,137.7l0.3-5.3c0.1-1.8,0.5-3.6,0.7-5.5c0.6-3.6,1.4-7.1,2.7-10.6c0.5-1.7,1.4-3.4,2.1-5.1
		c0.7-1.7,1.7-3.2,2.5-4.9c1-1.5,2-3.1,3.1-4.5c1.2-1.4,2.3-2.9,3.6-4.1l2-1.9l2.1-1.8c1.4-1.2,3-2.2,4.5-3.2
		c3.2-1.8,6.6-3.5,10.3-4.4c0.9-0.3,1.8-0.5,2.8-0.6c0.9-0.2,1.9-0.4,2.8-0.4l2.9-0.2h2.7c4,0.2,7.7,1,11.3,2.4
		c3.5,1.4,6.8,3.3,9.6,4.5c0.7,0.3,1.4,0.5,2,0.7c0.3,0,0.6,0.1,0.9,0.2l0.4,0l0.2,0l0.1,0c-0.9,0.1-0.2,0-0.4,0l0,0l0.2,0l1.3-0.2
		l0.8-0.3c0.4-0.1,1.3-0.5,2.1-0.8c3.2-1.3,6.5-2.8,10-3.9c1.7-0.6,3.5-1.1,5.3-1.6c1.8-0.3,3.6-0.8,5.5-1c1.9-0.2,3.7-0.5,5.7-0.4
		l2.9,0c1,0.1,1.9,0.2,2.9,0.4c0.9,0.2,1.9,0.2,2.8,0.5l2.8,0.8c1.9,0.4,3.6,1.4,5.3,2.2c1.8,0.7,3.3,1.9,4.9,3
		c0.8,0.5,1.6,1,2.3,1.7l2,1.9c2.9,2.4,4.9,5.5,7.2,8.3c0.8,1,0.6,2.5-0.4,3.3c-0.2,0.1-0.4,0.3-0.6,0.3l0,0
		c-1.1,0.7-2.3,1.7-3.4,2.7c-1.1,1-2.1,2.1-3.1,3.2c-1,1.1-1.9,2.3-2.7,3.5c-0.8,1.2-1.5,2.5-2.2,3.8c-0.6,1.3-1.2,2.6-1.6,4.1
		c-0.5,1.4-0.9,2.8-1.2,4.2c-0.3,1.4-0.5,2.9-0.7,4.4l-0.1,2.2l-0.1,1.1l0,0.3l0,0.1c0,0.2,0-0.2,0-0.2v0l0,0l0,0.1l0,0.6l0.1,2.4
		c0,0.4,0,0.8,0.1,1.2l0.2,1l0.3,2c0.2,0.7,0.4,1.4,0.6,2.1c0.3,1.4,1,2.7,1.4,4.1c0.7,1.3,1.3,2.6,2.1,3.8c0.7,1.3,1.7,2.4,2.7,3.5
		c1,1.1,2,2.1,3.1,3.2c1.1,1,2.3,1.9,3.6,2.8c1.2,0.8,2.6,1.7,3.8,2.2l0.4,0.2c1,0.5,1.5,1.7,1.1,2.8l0,0c-1.2,3.8-2.5,7.4-4,10.9
		c-1.5,3.6-3.2,7.1-5,10.5c-1.8,3.4-4,6.8-6.4,9.9c-2.4,3.2-5.2,6.2-8.5,8.7c-3.3,2.5-7.5,4.5-12,4.9l-0.9,0.1l-0.4,0l-0.2,0l-0.1,0
		l-0.1,0l-0.3,0l-1.4-0.1c-1-0.1-1.9-0.1-2.9-0.2l-3.3-0.6c-1.1-0.2-2-0.6-3-0.8c-3.9-1.2-7.4-3-10.5-3.8c-0.8-0.2-1.6-0.4-2.3-0.4
		l-1.1-0.1l-0.3,0l-0.1,0l0,0c0.6,0,0.1,0,0.2,0l-0.1,0l-0.7,0.1l-1.4,0.1l-0.7,0.1l-0.6,0.1l-2.3,0.5c-3.4,1-7,2.3-10.8,3.4
		c-3.8,1.1-7.9,1.8-12.2,1.9l0,0l-0.4,0l-0.1,0l-0.2,0l-0.4,0l-0.7-0.1c-0.2,0-0.4,0-0.7-0.1l-1-0.3c-0.6-0.2-1.3-0.4-1.9-0.6
		c-0.6-0.2-1-0.5-1.5-0.7l-1.5-0.7l-1.3-0.8c-0.9-0.5-1.8-1.1-2.6-1.7c-3.3-2.4-6.2-5.2-8.9-8.1l-2-2.2l-1.8-2.3
		c-1.3-1.5-2.3-3.2-3.4-4.8c-1.1-1.6-2.1-3.3-3.1-5l-2.8-5.2c-0.8-1.8-1.7-3.5-2.4-5.3c-0.7-1.8-1.4-3.6-2.1-5.5l-1.8-5.6l-1.4-5.7
		c-0.3-1.3,0.5-2.6,1.7-2.9c1.2-0.3,2.4,0.4,2.8,1.6l0,0.2l1.7,5.3l1.9,5.2c0.7,1.7,1.5,3.4,2.2,5l2.5,4.9l2.8,4.8
		c1,1.5,2,3.1,3.1,4.6c2.2,2.9,4.4,5.8,6.9,8.4c2.5,2.6,5.1,5.1,7.9,7.1c0.7,0.5,1.4,1,2.1,1.4l1.1,0.7l1.1,0.5
		c0.4,0.2,0.7,0.4,1.1,0.5c0.3,0.1,0.5,0.2,0.8,0.3l0.4,0.2c0.2,0.1,0.4,0.1,0.7,0.1l0.7,0.1l0.4,0l0.2,0l0.1,0c-0.2,0,0.4,0-0.3,0
		l0,0c3.4-0.1,6.8-0.7,10.2-1.7c3.5-1,7-2.2,10.9-3.3c1-0.3,2.2-0.5,3.3-0.7c0.6-0.1,1.1-0.2,1.5-0.2l1.4-0.1l0.7-0.1l0.1,0l0.3,0
		l0.1,0l0.2,0l0.4,0l1.7,0.2c1.2,0.1,2.2,0.4,3.3,0.6c4.2,1.2,7.5,2.9,10.8,4c1.7,0.6,3.2,0.9,4.7,1.2c0.9,0.1,1.9,0.1,2.8,0.2
		l1.4,0.1c0.2,0-0.2,0-0.2,0l0,0l0.1,0l0.1,0l0.3,0l0.6,0c3-0.2,6.1-1.5,8.8-3.5c2.8-2,5.3-4.5,7.5-7.3c2.3-2.8,4.3-5.9,6.2-9
		c1.9-3.2,3.6-6.4,5.2-9.8c1.6-3.4,3.1-6.8,4.3-10.2l0,0l1.5,3c-1.8-0.6-3.4-1.3-4.9-2.1c-1.6-0.8-3-1.8-4.5-2.8l-2.1-1.6
		c-0.7-0.6-1.3-1.2-1.9-1.8c-1.2-1.3-2.5-2.6-3.5-4.1c-1.1-1.4-2-3-2.9-4.6c-0.7-1.6-1.6-3.3-2-5c-0.3-0.9-0.5-1.7-0.8-2.6l-0.5-2.8
		c-0.4-2-0.3-3.4-0.5-5.1l0-0.6l0-0.4l0-0.2l0-0.3l0.1-1.3l0.1-2.6c0.2-1.8,0.4-3.5,0.8-5.3c0.4-1.7,0.9-3.5,1.5-5.1
		c0.6-1.7,1.4-3.3,2.3-4.9c0.9-1.6,1.9-3.1,3-4.5c1.1-1.4,2.3-2.7,3.6-3.9c1.3-1.2,2.7-2.3,4.2-3.3c1.5-1,3-1.8,4.8-2.5l0,0
		l-0.9,3.6c-2.4-2.4-4.4-5.1-7.1-7.1l-1.9-1.6c-0.6-0.5-1.4-0.9-2-1.3c-1.4-0.8-2.7-1.8-4.2-2.3c-1.5-0.6-2.9-1.4-4.5-1.7l-2.3-0.6
		c-0.8-0.2-1.6-0.2-2.4-0.3l-2.4-0.3l-2.4,0c-1.6-0.1-3.2,0.2-4.8,0.4c-1.6,0.2-3.2,0.6-4.8,0.9c-1.6,0.5-3.2,0.9-4.8,1.5
		c-3.2,1.1-6.3,2.4-9.6,3.7c-0.9,0.3-1.6,0.7-2.8,1l-1.7,0.5l-1.3,0.2l-0.2,0l0,0l-0.5,0l-0.1,0l-0.5,0l-0.9-0.1
		c-0.6-0.1-1.1-0.2-1.7-0.3c-1.1-0.3-2.1-0.7-3-1.1c-3.6-1.7-6.3-3.6-9.3-4.9c-2.9-1.3-6.1-2.2-9.1-2.4l-2.6-0.1l-2.4,0.1
		c-0.8,0-1.6,0.2-2.4,0.3c-0.8,0.1-1.6,0.2-2.4,0.4c-3.2,0.7-6.2,2.1-9.1,3.6c-1.4,0.9-2.9,1.7-4.1,2.8l-2,1.5l-1.8,1.7
		c-1.3,1.1-2.2,2.5-3.3,3.7c-1,1.3-1.9,2.7-2.9,4.1c-0.8,1.5-1.7,2.9-2.4,4.4c-0.6,1.6-1.4,3.1-1.9,4.7c-1.1,3.2-1.9,6.5-2.3,9.8
		c-0.1,1.7-0.4,3.3-0.5,5l-0.1,5.3c0,1.3-1.1,2.4-2.4,2.3C-1553.9,140.2-1555,139.1-1554.9,137.7
		C-1554.9,137.8-1554.9,137.7-1554.9,137.7z"/>
	<path opacity="0.8" d="M-1487.9,83c-0.2-1.1-0.4-2.4-0.5-3.5c-0.1-1.1-0.1-2.3-0.1-3.4c0-1.2,0.2-2.3,0.3-3.4
		c0.1-1.2,0.4-2.3,0.6-3.4c0.3-1.1,0.6-2.3,1-3.4l1.4-3.3c0.5-1.1,1.2-2.1,1.8-3.1c0.6-1,1.4-1.9,2.2-2.9c0.7-1,1.6-1.8,2.5-2.6
		c0.9-0.8,1.7-1.7,2.8-2.3c1-0.7,2-1.3,3-2c1.1-0.5,2.1-1,3.2-1.5l1.6-0.7l1.7-0.5l3.3-0.9c1.1-0.3,2.3-0.3,3.4-0.5
		c1.1-0.1,2.2-0.2,3.4-0.3l0.3,0c1.2-0.1,2.3,0.9,2.4,2.1c0.1,1.3,0.1,2.4,0.1,3.5c0,1.1-0.1,2.3-0.2,3.4c-0.1,1.1-0.3,2.2-0.5,3.3
		c-0.2,1.1-0.5,2.2-0.8,3.3l-1.1,3.2l-1.4,3.1l-1.8,2.9c-0.6,1-1.4,1.8-2.1,2.7c-0.7,0.9-1.6,1.7-2.4,2.5c-0.8,0.8-1.7,1.6-2.6,2.2
		l-2.8,2l-3,1.6l-1.5,0.8l-1.6,0.6l-3.2,1.1c-1.1,0.4-2.2,0.5-3.2,0.8l-3.2,0.7c-1.2,0.3-2.4-0.5-2.7-1.7l0,0L-1487.9,83z
		 M-1483,79.8c1-0.2,1.9-0.4,2.9-0.7l2.8-1l1.4-0.5l1.3-0.7l2.6-1.4l2.4-1.7c0.8-0.5,1.5-1.2,2.2-1.9c0.7-0.7,1.5-1.3,2-2.1
		c0.6-0.8,1.3-1.5,1.8-2.3l1.5-2.5l1.2-2.6l1-2.8l0.7-2.9c0.1-1,0.4-1.9,0.5-2.9c0.1-1,0.2-2,0.2-3c0-1,0-2-0.1-2.8l2.7,2.1
		c-1,0.4-1.9,0.7-2.9,1c-0.9,0.3-1.9,0.5-2.8,0.9l-2.7,1.2l-1.4,0.5l-1.2,0.7c-0.8,0.5-1.7,0.9-2.5,1.4c-0.7,0.6-1.5,1.1-2.2,1.7
		c-0.8,0.5-1.4,1.2-2.1,1.8c-0.7,0.6-1.4,1.3-1.9,2c-0.6,0.7-1.2,1.4-1.7,2.2c-0.5,0.8-1,1.6-1.5,2.4l-1.3,2.5l-1,2.7
		c-0.6,1.8-1.1,3.7-1.5,5.6C-1482.7,77.7-1482.8,78.7-1483,79.8C-1483,79.7-1483,79.7-1483,79.8z"/>
	<g display="none">
		<path display="inline" opacity="0.1" d="M-984.1,199c0,0-1.6,1.1-4.6,3.2c-1.5,1-3.7,2.2-6.1,3.6c-1.2,0.7-2.6,1.3-4,2
			c-1.4,0.7-2.9,1.4-4.6,2c-6.6,2.7-15,5.1-24.9,5.9c-1.2,0.1-2.5,0.1-3.8,0.2c-0.6,0-1.3,0.1-1.9,0.1l-1,0l-1.1,0
			c-2.5-0.1-5.1-0.2-7.8-0.4c-2.8-0.4-5.7-0.8-8.7-1.3c-2.8-0.7-5.8-1.4-8.7-2.3c-11.7-3.7-23.5-10.4-33.6-20.1
			c-1.4-1.1-2.4-2.5-3.7-3.8c-1.2-1.3-2.5-2.6-3.5-4c-2.1-2.9-4.5-5.7-6.2-8.9c-4-6.2-6.9-13.2-9.2-20.5c-0.9-3.7-2-7.4-2.5-11.3
			c-0.7-3.8-0.8-7.7-1-11.7l0-0.7l0-0.4l0-0.2c0-0.1,0,0.1,0-0.4l0.1-1.4l0.1-2.8c0.2-1.9,0.1-3.7,0.5-5.8c0.3-2,0.6-4,0.9-6
			c0.3-2,0.9-3.9,1.4-5.9l0.8-2.9c0.3-1,0.7-1.9,1-2.9l2.1-5.7c1.8-3.6,3.4-7.4,5.6-10.8c2-3.6,4.5-6.7,7-10c1.3-1.6,2.7-3,4.1-4.5
			c1.3-1.6,2.8-2.9,4.4-4.3c1.5-1.3,2.9-2.8,4.6-4l4.9-3.7c1.7-1.2,3.5-2.1,5.2-3.2c0.9-0.5,1.7-1.1,2.6-1.6l2.7-1.3
			c7.2-3.7,15.1-6.1,22.9-7.5c2-0.3,4-0.6,5.9-0.9c2-0.2,4-0.2,6-0.3l3-0.1l0.2,0l0.4,0l0.4,0l0.7,0l1.4,0.1
			c1.9,0.1,3.8,0.2,5.7,0.3c2,0.3,4,0.6,5.9,0.9l3,0.5l2.8,0.7c1.9,0.5,3.8,0.9,5.6,1.5c1.8,0.7,3.6,1.3,5.4,2
			c1.8,0.6,3.5,1.4,5.2,2.3c1.7,0.9,3.4,1.6,5,2.5c3.2,2,6.5,3.8,9.3,6.1c6,4.2,10.9,9.6,15.4,14.9c8.6,11,14,23.3,16.7,35.1
			c0.4,1.5,0.6,2.9,0.8,4.4c0.2,1.5,0.4,2.9,0.6,4.3c0.3,1.4,0.3,2.9,0.4,4.3c0.1,1.4,0.1,2.8,0.2,4.2c0,0.7,0.1,1.3,0.1,2.2
			c0,0.7-0.1,1.3-0.1,2c-0.1,1.3-0.1,2.6-0.2,3.8c0,1.2-0.2,2.5-0.4,3.8c-0.2,1.3-0.3,2.5-0.5,3.8c-1.6,9.8-4.6,17.8-7.6,24.3
			c-3.2,6.3-6.2,11-8.5,14.1c-2.3,3-3.5,4.6-3.5,4.6c-1.2,1.5-3.4,1.8-4.9,0.7c-1.5-1.2-1.8-3.4-0.7-4.9c0-0.1,0.1-0.1,0.1-0.2
			l0.2-0.2c0,0,1.2-1.4,3.5-4.1c2.2-2.7,5.3-6.9,8.4-12.7c3-5.8,5.9-13.4,7.4-22.4c0.2-1.1,0.3-2.2,0.5-3.4c0.2-1.1,0.3-2.3,0.4-3.6
			c0.1-1.3,0.1-2.5,0.2-3.8c0-0.6,0.1-1.3,0.1-2c0-0.4-0.1-1.2-0.1-1.8c-0.1-1.3-0.1-2.6-0.2-3.9c-0.1-1.3-0.1-2.7-0.4-4
			c-0.2-1.3-0.4-2.7-0.6-4c-0.2-1.4-0.4-2.7-0.8-4.1c-2.6-11-8-22.2-16.2-32.2c-4.3-4.8-8.9-9.5-14.5-13.4c-2.6-2.1-5.7-3.7-8.6-5.5
			c-1.5-0.8-3.1-1.5-4.6-2.3c-1.6-0.8-3.1-1.5-4.8-2c-1.6-0.6-3.3-1.2-4.9-1.8c-1.7-0.5-3.4-0.9-5.1-1.3l-2.6-0.7l-2.6-0.4
			c-1.7-0.3-3.5-0.5-5.2-0.8c-1.9-0.1-3.8-0.2-5.7-0.3l-1.4-0.1l-0.7,0l-0.4,0c0,0-0.3,0,0,0l-0.2,0l-2.7,0.1
			c-1.8,0.1-3.6,0.1-5.5,0.3l-5.4,0.8c-7.2,1.4-14.3,3.5-20.9,6.9l-2.5,1.2c-0.8,0.4-1.6,1-2.4,1.4c-1.6,1-3.2,1.9-4.7,2.9l-4.5,3.3
			c-1.5,1-2.8,2.5-4.2,3.7c-1.4,1.2-2.8,2.5-4,3.9c-1.2,1.4-2.5,2.7-3.7,4.1c-2.2,3-4.6,5.9-6.4,9.1c-2.1,3.1-3.5,6.5-5.1,9.8
			l-1.9,5.2c-0.3,0.9-0.7,1.7-0.9,2.6l-0.7,2.7c-0.4,1.8-1,3.5-1.3,5.3c-0.3,1.8-0.5,3.5-0.8,5.3c-0.4,1.7-0.3,3.7-0.4,5.6l-0.1,2.8
			l-0.1,1.4c0-0.3,0,0,0,0l0,0.2l0,0.3l0,0.7c0.2,3.6,0.3,7.2,0.9,10.7c0.4,3.5,1.4,6.9,2.2,10.3c2.1,6.6,4.7,13,8.4,18.7
			c1.6,3,3.8,5.5,5.7,8.2c1,1.3,2.2,2.5,3.2,3.7c1.1,1.2,2.1,2.5,3.3,3.5c9.3,8.9,20,15,30.6,18.4c2.7,0.8,5.3,1.4,7.9,2.1
			c2.6,0.4,5.1,0.8,7.6,1.2c2.6,0.2,5.2,0.3,7.8,0.4l0.8,0l0.9,0c0.6,0,1.2,0,1.8-0.1c1.2,0,2.3-0.1,3.5-0.1
			c9.1-0.7,16.8-2.9,22.8-5.3c1.5-0.5,2.9-1.2,4.2-1.8c1.3-0.6,2.6-1.2,3.7-1.8c2.2-1.3,4-2.2,5.5-3.2c3-2.1,4.6-3.2,4.6-3.2
			c1.6-1.1,3.8-0.7,4.9,0.9C-982.1,195.8-982.5,197.9-984.1,199z"/>
		<path display="inline" opacity="0.1" d="M-1061.9,207.8c0.7-3,2-5.8,3.1-8.7l3.3-8.6l6.7-17.2l6.6-17.2l6.5-17.3
			c0.5-1.2,1.8-1.8,3-1.4c0.6,0.2,1.1,0.7,1.3,1.3l0,0.1c2.3,5.6,4.5,11.3,6.6,17c2.2,5.7,4.3,11.3,6.4,17
			c4.2,11.4,8.5,22.7,11.8,34.4c0.4,1.2-0.4,2.5-1.6,2.9c-1.1,0.3-2.3-0.3-2.8-1.3c-4.9-11.1-8.9-22.6-13-34c-2.1-5.7-4-11.4-6-17.2
			c-2-5.7-3.9-11.5-5.8-17.3l4.4,0l-6.6,17.3l-6.5,17.3l-6.4,17.3l-3.2,8.7c-1.1,2.9-2,5.8-3.5,8.6c-0.6,1.2-2,1.6-3.2,1
			C-1061.6,209.9-1062.1,208.8-1061.9,207.8z"/>
		<path display="inline" opacity="0.1" d="M-1107.9,101.6c0,0,0.8,1.5,1.8,4.2c1,2.8,2.5,6.7,4.2,11.4c1.7,4.7,3.7,10.3,5.9,16.2
			c2.2,5.9,4.5,12.2,6.8,18.5c2.3,6.3,4.6,12.6,6.8,18.5c1.1,3,2.2,5.8,3.3,8.5c1.1,2.7,2.2,5.2,3.2,7.5c1,2.3,1.8,4.5,2.6,6.4
			c0.7,1.9,1.3,3.6,1.7,5c0.8,2.8,1.1,4.5,1.1,4.5c0.2,1.3-0.7,2.5-2,2.7c-1,0.1-1.9-0.3-2.4-1.1c0,0-0.9-1.5-2.1-4.1
			c-0.6-1.3-1.3-3-2-4.9c-0.7-1.9-1.5-4.1-2.2-6.5c-0.8-2.4-1.6-5-2.5-7.8c-0.9-2.8-1.9-5.6-3-8.6c-2.2-5.9-4.6-12.2-6.9-18.5
			c-2.4-6.3-4.7-12.6-7-18.5c-2.2-5.9-4.3-11.4-6.1-16.1c-1.8-4.7-3.3-8.7-4.3-11.4c-1-2.8-1.4-4.4-1.4-4.4
			c-0.3-1.3,0.6-2.5,1.8-2.8C-1109.4,100.2-1108.4,100.8-1107.9,101.6z"/>
		<path display="inline" opacity="0.1" d="M-1103,81.5c1.3,0.4,2.5,0.2,3.8,0.2l3.8,0l7.5,0c5,0,10-0.1,15-0.2c1.3,0,2.3,1,2.3,2.2
			v0l0,0.1v0c0.3,1.3,0.4,2.6,0.4,3.8c0,1.3-0.1,2.6-0.4,3.8l-0.2,1c-0.2,1-1.2,1.6-2.1,1.3l0,0h0c-2.1,0.6-4.2,0.3-6.2,0.3
			c-2.1,0-4.2-0.1-6.3-0.3l2.2-3.1l0,0c2.4,6.5,4.8,13,7.1,19.6l7,19.6c4.6,13.1,9.2,26.2,13.7,39.3l-4.4,0l0,0l18.4-51.6l0.1,1.7
			l-11.7-27l2.1,1.4h0c-2-0.5-3.9-0.7-5.9-0.8c-2-0.1-3.9,0-5.9,0.8c-0.7,0.3-1.4-0.1-1.7-0.7l-0.6-1.6l0,0
			c-0.3-1.3-0.4-2.6-0.4-3.8c0-1.3,0.1-2.6,0.4-3.8l0.3-1.1c0.2-0.9,1.1-1.5,2.1-1.3l0,0l0,0c4.3,0.2,8.7,0.2,13,0.2
			c4.3,0.1,8.7,0,13,0c8.7,0,17.3-0.1,26-0.2c1.3,0,2.3,1,2.3,2.3v0l0,0.1v0v8c0,1.3-1,2.3-2.3,2.3h0h-11.7l2.2-3.1l0,0
			c2.5,6.9,4.9,13.9,7.4,20.8l7.2,20.9l14.3,41.8l-4.4-0.2l0,0c2-4.6,3.9-9.5,5.6-14.3c0.9-2.4,1.6-4.9,2.4-7.3
			c0.8-2.4,1.5-4.9,2.1-7.4c0.6-2.5,1.3-4.9,1.7-7.4c0.5-2.5,0.9-5,1.2-7.5l0.3-3.7l0-3.7c0-1.2-0.2-2.4-0.3-3.6
			c0-0.4-0.2-1.2-0.3-1.8c-0.1-0.7-0.3-1.1-0.4-1.7c-1.3-4.6-3.7-9-6.4-13.3c-2.7-4.3-5.8-8.5-8.1-13.7c-1.1-2.6-2-5.6-1.6-8.8
			c0.3-3.2,2-6,3.9-8.2c0.5-0.5,1-1,1.5-1.5l0,0l0.3-0.2l0.1-0.1l0.2-0.1l0.4-0.3l0.8-0.6c0.5-0.4,1-0.8,1.6-1.2l2.1-1.1
			c0.7-0.4,1.5-0.6,2.2-0.8c0.7-0.3,1.5-0.4,2.4-0.4c0.8-0.1,1.7,0,2.6,0.1c0.9,0.3,1.7,0.4,2.8,1.2c1,0.8,1.1,2.3,0.3,3.3
			c-0.8,1-2.3,1.1-3.3,0.3c0,0,0,0,0.1,0l-0.1,0c-0.1,0-0.1-0.1-0.2-0.1c-0.2,0-0.3-0.1-0.5-0.2c-0.4,0-0.8-0.1-1.3,0
			c-0.5,0-0.9,0.1-1.4,0.3c-0.5,0.2-1,0.2-1.4,0.5l-1.4,0.7c-0.5,0.3-1,0.7-1.5,1.1l-1.3,1c-0.4,0.4-0.8,0.8-1.2,1.2
			c-1.5,1.7-2.5,3.6-2.7,5.6c-0.3,2,0.3,4.2,1.2,6.3c1.9,4.3,5,8.5,7.8,12.9c2.8,4.4,5.5,9.2,7,14.6c0.2,0.7,0.4,1.5,0.5,2.1
			c0.1,0.7,0.3,1.2,0.3,2c0.1,1.4,0.3,2.8,0.3,4.1l-0.1,4.1l-0.4,4c-0.3,2.6-0.7,5.3-1.3,7.9c-0.5,2.6-1.2,5.2-1.8,7.7
			c-0.7,2.5-1.4,5.1-2.2,7.6c-0.8,2.5-1.6,5-2.5,7.5c-1.8,4.9-3.6,9.8-5.8,14.6l0,0c-0.5,1.2-1.9,1.7-3.1,1.2
			c-0.6-0.3-1.1-0.8-1.3-1.4l0,0l-14.6-41.7l-7.2-20.9c-2.4-7-4.8-13.9-7.1-21l0,0c-0.4-1.2,0.2-2.6,1.4-3c0.3-0.1,0.5-0.1,0.8-0.1
			h11.7h0l-2.3,2.3v-8v0l2.3,2.3c-8.7-0.2-17.3-0.2-26-0.2c-4.3,0-8.7-0.1-13,0c-4.3,0.1-8.7,0-13,0.2l0,0l2.3-2.3
			c0.3,1.3,0.4,2.6,0.4,3.8c0,1.3-0.1,2.6-0.4,3.8l0,0l-2.3-2.3c2,0.8,3.9,0.8,5.9,0.8c2-0.1,3.9-0.2,5.9-0.8h0c1,0,1.8,0.6,2.2,1.4
			l11.7,27c0.2,0.6,0.3,1.2,0.1,1.7l-18.4,51.6l0,0c-0.4,1.2-1.8,1.9-3,1.4c-0.7-0.2-1.2-0.8-1.4-1.4l0-0.1
			c-4.8-13-9.4-26.1-14.1-39.2l-6.9-19.6c-2.3-6.5-4.6-13.1-6.8-19.7l0,0c-0.5-1.1,0-2.4,1-2.9c0.2-0.1,0.5-0.2,0.7-0.2l0.5,0
			c2.1-0.2,4.2-0.3,6.3-0.3c2.1,0,4.2-0.2,6.2,0.3h0l-2.3,2.3c-0.3-1.3-0.4-2.6-0.4-3.8c0-1.3,0.1-2.6,0.4-3.8v0l2.3,2.3
			c-5-0.1-10-0.2-15-0.2l-7.5,0l-3.8,0c-1.3,0-2.5-0.1-3.8,0.2c-1.3,0.4-2.7-0.4-3-1.7s0.4-2.7,1.7-3
			C-1103.9,81.4-1103.5,81.4-1103,81.5z"/>
		<path display="inline" opacity="0.1" d="M-956.8,98.5c0,0.1,0.1,0.1,0,1.7c-0.1,0.8-0.2,1.2-0.3,1.8c-0.1,0.6-0.3,1.2-0.5,2
			c-0.7,2.9-1.9,6.9-3.3,11.7c-2.9,9.6-7,22.2-11.2,34.8c-4.3,12.6-8.6,25.2-11.8,34.6c-3.3,9.4-5.5,15.7-5.5,15.7l-4.4-1.5
			c0,0,8.4-25.2,16.9-50.4c4.2-12.6,8.4-25.2,11.4-34.7c1.5-4.7,2.7-8.7,3.4-11.4c0.2-0.7,0.4-1.3,0.5-1.8c0.1-0.5,0.2-1,0.2-1
			c0.2,0,0.1-0.8,0.1-0.7L-956.8,98.5z"/>
		<g display="inline">
			<path fill="none" stroke="#000000" stroke-width="2" stroke-linecap="round" stroke-linejoin="round" stroke-miterlimit="10" d="
				M-1060.6,126.2"/>
		</g>
		<g display="inline">
			<path fill="none" stroke="#000000" stroke-width="2" stroke-linecap="round" stroke-linejoin="round" stroke-miterlimit="10" d="
				M-1049.6,107.5"/>
		</g>
	</g>
	<g>
		<path opacity="0.1" d="M-1346.4,120.7l0.3-6.6c0.1-2.2,0.6-4.6,0.9-6.8c0.8-4.5,1.8-8.9,3.3-13.3c0.7-2.2,1.7-4.2,2.6-6.3
			c0.9-2.1,2.1-4.1,3.2-6.1c1.3-1.9,2.5-3.9,3.9-5.7c1.5-1.7,2.8-3.6,4.5-5.2l2.5-2.4l2.7-2.2c1.7-1.6,3.7-2.7,5.6-4.1
			c4-2.3,8.2-4.4,12.8-5.5c1.1-0.4,2.3-0.6,3.4-0.8c1.2-0.2,2.3-0.5,3.5-0.6l3.6-0.3h3.4c5,0.2,9.6,1.3,14.1,3
			c4.4,1.7,8.5,4.1,12,5.7c0.9,0.4,1.7,0.7,2.5,0.9c0.4,0.1,0.8,0.2,1.1,0.2l0.5,0l0.3,0l0.1,0c-1.1,0.1-0.3,0-0.5,0l0,0l0.2,0
			l1.6-0.3l1-0.4c0.5-0.2,1.7-0.7,2.6-1.1c4-1.7,8.1-3.5,12.5-4.9c2.1-0.8,4.4-1.3,6.6-2c2.3-0.4,4.5-1.1,6.9-1.3
			c2.4-0.3,4.7-0.6,7.1-0.5l3.6,0c1.2,0.1,2.4,0.3,3.6,0.5c1.2,0.2,2.4,0.3,3.5,0.6l3.5,1c2.4,0.6,4.5,1.7,6.6,2.7
			c2.2,0.9,4.1,2.4,6.1,3.7c1,0.7,2,1.3,2.9,2.1l2.5,2.4c3.6,3,6.2,6.9,9,10.4c1,1.3,0.8,3.1-0.4,4.1c-0.2,0.2-0.5,0.3-0.7,0.4l0,0
			c-1.3,0.9-2.9,2.1-4.3,3.3c-1.4,1.3-2.7,2.6-3.9,4c-1.2,1.4-2.3,2.9-3.4,4.4c-1,1.5-1.9,3.1-2.8,4.8c-0.7,1.7-1.5,3.3-2.1,5.1
			c-0.7,1.7-1.1,3.5-1.5,5.3c-0.4,1.8-0.6,3.7-0.9,5.5l-0.1,2.8l-0.1,1.4l0,0.4l0,0.2c0,0.2,0-0.3,0-0.2v0l0,0l0,0.1l0,0.8l0.2,3.1
			c0,0.5,0,1,0.1,1.5l0.2,1.3l0.4,2.6c0.2,0.9,0.5,1.8,0.7,2.6c0.4,1.8,1.2,3.4,1.8,5.1c0.8,1.6,1.6,3.3,2.6,4.8
			c0.9,1.6,2.1,3,3.3,4.4c1.2,1.4,2.6,2.7,3.9,4c1.4,1.2,2.9,2.4,4.5,3.5c1.5,1,3.3,2.1,4.8,2.8l0.5,0.3c1.3,0.6,1.8,2.2,1.3,3.5
			l0,0c-1.5,4.7-3.1,9.2-5,13.7c-1.9,4.5-4,8.9-6.3,13.2c-2.3,4.3-5,8.5-8,12.4c-3,4-6.5,7.7-10.7,10.9c-4.2,3.1-9.3,5.7-15,6.2
			l-1.1,0.1l-0.5,0l-0.3,0l-0.1,0l-0.1,0l-0.3,0l-1.8-0.1c-1.2-0.1-2.3-0.1-3.6-0.3l-4.1-0.8c-1.4-0.2-2.5-0.7-3.8-1.1
			c-4.9-1.5-9.2-3.7-13.2-4.7c-1-0.2-2-0.6-2.9-0.5l-1.4-0.1l-0.4,0l-0.2,0l0,0c0.7,0,0.2,0,0.3,0l-0.1,0l-0.9,0.1l-1.8,0.2
			l-0.9,0.1l-0.7,0.2l-2.8,0.7c-4.3,1.2-8.8,2.9-13.5,4.3c-4.8,1.4-9.9,2.2-15.2,2.4l-0.1,0l-0.5,0l-0.1,0l-0.2,0l-0.4-0.1l-0.9-0.1
			c-0.3,0-0.5,0-0.9-0.1l-1.2-0.3c-0.8-0.2-1.6-0.5-2.4-0.8c-0.7-0.3-1.3-0.6-1.9-0.9l-1.8-0.9l-1.7-1c-1.1-0.7-2.2-1.4-3.2-2.2
			c-4.2-3-7.8-6.5-11.1-10.2l-2.5-2.8l-2.3-2.9c-1.6-1.9-2.9-4-4.3-6c-1.4-2-2.6-4.2-3.9-6.3l-3.5-6.5c-1-2.2-2.1-4.4-3-6.7
			c-0.9-2.3-1.8-4.5-2.6-6.8l-2.2-7l-1.7-7.1c-0.4-1.6,0.6-3.2,2.2-3.6c1.5-0.4,3.1,0.5,3.5,2l0.1,0.2l2.1,6.6l2.4,6.5
			c0.9,2.1,1.9,4.2,2.8,6.3l3.1,6.1l3.5,6c1.3,1.9,2.5,3.9,3.8,5.7c2.7,3.7,5.5,7.3,8.7,10.5c3.1,3.3,6.4,6.4,9.9,8.9
			c0.9,0.7,1.8,1.2,2.7,1.8l1.4,0.8l1.4,0.6c0.4,0.2,0.9,0.5,1.3,0.6c0.3,0.1,0.7,0.2,1,0.3l0.5,0.2c0.2,0.1,0.6,0.1,0.8,0.1
			l0.9,0.1l0.4,0.1l0.2,0l0.1,0c-0.2,0,0.5,0-0.4,0l0.1,0c4.2-0.2,8.5-0.9,12.8-2.2c4.4-1.2,8.8-2.8,13.7-4.2
			c1.3-0.3,2.7-0.6,4.1-0.9c0.7-0.2,1.4-0.3,1.9-0.3l1.8-0.2l0.9-0.1l0.1,0l0.4,0l0.1,0l0.3,0l0.5,0l2.1,0.2
			c1.5,0.1,2.7,0.5,4.1,0.8c5.3,1.5,9.4,3.7,13.6,5c2.1,0.8,4,1.1,5.9,1.5c1.1,0.1,2.3,0.2,3.5,0.3l1.8,0.1c0.3,0-0.3,0-0.2,0l0,0
			l0.1,0l0.2,0l0.4,0l0.7,0c3.8-0.2,7.6-1.9,11-4.3c3.4-2.5,6.6-5.6,9.4-9.2c2.8-3.5,5.4-7.3,7.7-11.3c2.4-4,4.5-8.1,6.5-12.3
			c2-4.2,3.8-8.5,5.4-12.8l0,0l1.8,3.7c-2.3-0.8-4.2-1.6-6.2-2.7c-1.9-1-3.8-2.2-5.6-3.5l-2.6-2c-0.8-0.7-1.6-1.5-2.4-2.3
			c-1.5-1.6-3.1-3.2-4.4-5.1c-1.4-1.8-2.5-3.8-3.6-5.7c-0.9-2.1-2-4.1-2.6-6.3c-0.3-1.1-0.7-2.2-1-3.3l-0.6-3.5
			c-0.5-2.5-0.4-4.2-0.6-6.4l0-0.8l0-0.4l0-0.2l0-0.4l0.1-1.7l0.1-3.3c0.3-2.2,0.5-4.4,1-6.6c0.5-2.2,1.1-4.3,1.9-6.4
			c0.7-2.1,1.8-4.1,2.8-6.1c1.1-2,2.4-3.8,3.8-5.6c1.4-1.8,2.9-3.4,4.6-4.9c1.6-1.5,3.4-2.9,5.3-4.1c1.9-1.2,3.7-2.3,6.1-3.2l0,0
			l-1.2,4.5c-3-3-5.5-6.4-8.9-8.8l-2.4-2c-0.8-0.6-1.7-1.1-2.6-1.6c-1.7-1.1-3.4-2.3-5.3-2.9c-1.8-0.8-3.6-1.7-5.6-2.1l-2.9-0.8
			c-1-0.3-2-0.3-3-0.4l-3-0.4l-3,0c-2-0.1-4,0.2-6,0.5c-2,0.2-4,0.8-6,1.2c-2,0.6-4,1.1-6,1.8c-4,1.4-7.9,3-12,4.7
			c-1.1,0.4-2,0.8-3.5,1.3l-2.1,0.6l-1.6,0.3l-0.2,0l0,0l-0.6,0l-0.1,0l-0.6,0l-1.1-0.1c-0.7-0.1-1.4-0.3-2.1-0.4
			c-1.3-0.4-2.6-0.9-3.7-1.4c-4.5-2.1-7.8-4.5-11.6-6.1c-3.6-1.6-7.7-2.7-11.4-3.1l-3.2-0.2l-3,0.1c-1,0-2,0.2-3,0.3
			c-1,0.1-2,0.2-3,0.5c-4,0.8-7.8,2.6-11.4,4.5c-1.7,1.2-3.6,2.1-5.2,3.5l-2.5,1.9l-2.2,2.2c-1.6,1.4-2.8,3.1-4.2,4.7
			c-1.3,1.6-2.4,3.4-3.6,5.1c-1,1.9-2.1,3.6-3,5.6c-0.8,2-1.7,3.8-2.3,5.9c-1.3,4-2.3,8.1-2.9,12.3c-0.2,2.1-0.5,4.1-0.6,6.3
			l-0.1,6.6c0,1.6-1.4,3-3,2.9c-1.6,0-3-1.4-2.9-3C-1346.4,120.8-1346.4,120.8-1346.4,120.7z"/>
		<path opacity="0.1" d="M-1262.6,52.3c-0.3-1.4-0.5-2.9-0.6-4.3c-0.1-1.4-0.1-2.9-0.1-4.3c0-1.4,0.2-2.9,0.3-4.3
			c0.2-1.4,0.5-2.9,0.8-4.3c0.4-1.4,0.8-2.8,1.2-4.2l1.7-4.1c0.6-1.3,1.5-2.6,2.2-3.9c0.7-1.3,1.8-2.4,2.7-3.6
			c0.9-1.2,2-2.3,3.1-3.3c1.1-1,2.2-2.1,3.5-2.9c1.2-0.9,2.5-1.7,3.7-2.5c1.3-0.7,2.7-1.3,4-1.9l2-0.9l2.1-0.6l4.2-1.1
			c1.4-0.3,2.8-0.4,4.2-0.6c1.4-0.1,2.8-0.3,4.2-0.3l0.3,0c1.6-0.1,2.9,1.1,3.1,2.6c0.2,1.6,0.2,2.9,0.2,4.4c0,1.4-0.1,2.8-0.3,4.2
			c-0.1,1.4-0.4,2.8-0.6,4.2c-0.3,1.4-0.6,2.8-1,4.1l-1.4,4l-1.8,3.9l-2.2,3.7c-0.8,1.2-1.8,2.3-2.6,3.4c-0.8,1.2-2,2.1-3,3.1
			c-1,1-2.1,2-3.3,2.8l-3.5,2.5l-3.8,2l-1.9,1l-2,0.7l-4,1.4c-1.3,0.4-2.7,0.7-4,1l-4.1,0.9c-1.5,0.3-3-0.6-3.3-2.1l0,0
			L-1262.6,52.3z M-1256.3,48.2c1.2-0.3,2.4-0.5,3.6-0.9l3.5-1.3l1.8-0.6l1.6-0.9l3.3-1.7l3-2.1c1-0.7,1.9-1.5,2.8-2.4
			c0.9-0.8,1.8-1.6,2.5-2.6c0.7-1,1.6-1.8,2.2-2.9l1.9-3.1l1.6-3.3l1.2-3.5l0.9-3.6c0.2-1.2,0.5-2.4,0.6-3.7
			c0.1-1.2,0.2-2.5,0.3-3.7c0-1.2,0-2.5-0.1-3.6l3.4,2.6c-1.2,0.4-2.4,0.9-3.6,1.3c-1.2,0.4-2.4,0.7-3.6,1.2l-3.4,1.5l-1.7,0.7
			l-1.6,0.9c-1,0.6-2.1,1.2-3.1,1.7c-0.9,0.7-1.9,1.4-2.8,2.1c-1,0.6-1.8,1.5-2.6,2.3c-0.8,0.8-1.7,1.6-2.4,2.5
			c-0.7,0.9-1.6,1.7-2.1,2.7c-0.6,1-1.3,1.9-1.9,3l-1.6,3.2l-1.3,3.3c-0.7,2.3-1.4,4.6-1.8,7.1c-0.3,1.2-0.5,2.4-0.6,3.7
			C-1256.3,48.1-1256.3,48.2-1256.3,48.2z"/>
	</g>
	<g>
		<path opacity="0.8" d="M-54.8,150.4l-0.5-0.2c-1.4-0.7-3-1.6-4.3-2.6c-1.3-0.8-2.5-1.8-4.1-3.1c-1.4-1.3-2.6-2.5-3.6-3.6l-0.2-0.2
			c-1-1.2-2-2.5-2.9-3.8c-0.7-1-1.2-2.1-1.8-3.1c-0.2-0.4-0.4-0.8-0.6-1.1c-0.2-0.6-0.4-1.2-0.7-1.7c-0.4-1-0.8-1.9-1-3
			c-0.1-0.3-0.2-0.7-0.3-1c-0.1-0.5-0.3-1-0.4-1.4l-0.4-2.4l-0.2-1.2c0-0.2,0-0.5,0-0.8c0-0.2,0-0.4,0-0.6l-0.2-3.5l0.1-1.7l0.1-2.5
			c0.1-0.6,0.2-1.1,0.2-1.7c0.2-1.1,0.3-2.3,0.6-3.4l0-0.2c0.4-1.6,0.7-3.2,1.3-4.7c0.4-1.3,0.9-2.4,1.4-3.6c0.1-0.3,0.3-0.7,0.4-1
			l0.2-0.3c0.7-1.3,1.5-2.7,2.3-4c1-1.5,2-2.9,3.1-4c1-1.2,2.2-2.4,3.6-3.7c1.2-1,2.6-2.2,3.9-3c0.3-0.1,0.5-0.3,0.8-0.5
			c1.4-1.1,1.6-3.2,0.5-4.6c-0.6-0.7-1.2-1.5-1.7-2.2c-2-2.6-4.1-5.3-6.7-7.5l-2.4-2.2c-0.6-0.5-1.2-1-1.9-1.4
			c-0.3-0.2-0.5-0.4-0.8-0.6c-0.4-0.3-0.8-0.5-1.1-0.8c-1.4-1-2.9-2-4.6-2.7c-0.4-0.2-0.8-0.4-1.2-0.6c-1.6-0.8-3.2-1.6-5-2l-3.2-1
			c-0.7-0.2-1.5-0.3-2.2-0.4c-0.4,0-0.7-0.1-1.1-0.2c-1.1-0.2-2.2-0.3-3.4-0.5l-3.3,0c-0.3,0-0.6,0-0.9,0c-1.6,0-3.1,0.2-4.6,0.3
			l-1.1,0.1c-1.5,0.1-2.9,0.4-4.3,0.7c-0.7,0.2-1.4,0.3-2.2,0.5c-0.6,0.2-1.3,0.4-1.9,0.5c-1.4,0.4-2.9,0.8-4.2,1.3
			c-3.4,1.1-6.5,2.4-9.6,3.7c-0.7,0.3-2.4,1-2.4,1c-0.8,0.3-1.6,0.7-2.1,0.8l-0.9,0.4l-1.3,0.2l-0.5,0c-0.2,0-0.3,0-0.5-0.1
			c-0.2,0-0.3-0.1-0.4-0.1c-0.7-0.2-1.5-0.5-2.2-0.8c-1.3-0.6-2.7-1.3-4.1-2c-2.2-1.1-4.5-2.3-7-3.3c-4.5-1.7-8.8-2.7-13.3-2.8
			l-3.2,0L-166,57c-0.8,0-1.6,0.2-2.4,0.3c-0.3,0.1-0.6,0.1-0.9,0.2l-0.7,0.1c-0.9,0.2-1.7,0.3-2.5,0.6c-4.5,1.1-8.6,3.3-12.1,5.2
			c-0.5,0.4-1.1,0.7-1.6,1.1c-1.2,0.8-2.5,1.7-3.6,2.7l-2.5,2.1l-2.3,2.2c-1.1,1-2.1,2.2-3,3.4c-0.4,0.5-0.8,1-1.2,1.5
			c-1,1.2-1.8,2.6-2.7,3.9c-0.3,0.5-0.6,1-1,1.5c-0.3,0.6-0.7,1.3-1,1.9c-0.7,1.2-1.4,2.5-2,3.8c-0.3,0.7-0.6,1.4-0.9,2.1
			c-0.5,1.2-1.1,2.5-1.5,3.8c-1.3,3.8-2.4,7.8-3.1,12.4c-0.1,0.7-0.2,1.4-0.3,2.1c-0.2,1.4-0.4,2.9-0.5,4.3l-0.3,6.2
			c0,0.9,0.3,1.7,0.9,2.4c0.6,0.6,1.4,1,2.4,1c1.8,0,3.3-1.5,3.3-3.3l0.1-6.1c0-1.2,0.2-2.5,0.3-3.6c0.1-0.7,0.2-1.4,0.2-2.1
			c0.5-3.8,1.4-7.6,2.7-11.3c0.3-1.2,0.9-2.4,1.4-3.5c0.3-0.6,0.5-1.2,0.8-1.8c0.5-1.1,1.1-2.2,1.7-3.2c0.4-0.6,0.7-1.3,1-1.8
			c0.3-0.5,0.7-1,1-1.5c0.7-1.1,1.5-2.2,2.3-3.2c0.4-0.5,0.8-1,1.2-1.4c0.8-1,1.6-2,2.6-2.9l2-2l2.3-1.8c0.9-0.8,2-1.5,3.1-2.1
			c0.6-0.3,1.1-0.7,1.6-1c3.2-1.7,6.7-3.4,10.5-4.1c0.7-0.2,1.3-0.3,2-0.4l0.6-0.1c0.3,0,0.6-0.1,0.9-0.1c0.6-0.1,1.1-0.2,1.7-0.2
			l0.2,0l2.7-0.1l3,0.1c3.4,0.3,7.1,1.3,10.4,2.8c1.8,0.8,3.6,1.8,5.4,2.8c1.6,0.9,3.4,1.9,5.3,2.8c1.2,0.5,2.4,1,3.6,1.3
			c0.2,0,0.4,0.1,0.6,0.1c0.5,0.1,0.9,0.2,1.5,0.3l1.1,0.1l0.5,0l0.2,0l0.6-0.1l1.8-0.3l2-0.6c1.1-0.3,1.8-0.6,2.5-0.9
			c0.3-0.1,0.5-0.2,0.8-0.3c1.2-0.5,2.4-1,3.6-1.4c2.6-1.1,5.1-2.1,7.6-2.9c1.2-0.4,2.4-0.8,3.6-1.1c0.6-0.2,1.3-0.4,1.8-0.5
			c0.7-0.1,1.4-0.3,2.1-0.4c1.1-0.3,2.3-0.5,3.5-0.6c0.4,0,0.8-0.1,1.2-0.1c1.2-0.2,2.5-0.3,3.7-0.3c0.2,0,0.4,0,0.7,0l2.7,0
			l2.7,0.3c0.3,0,0.7,0.1,1,0.1c0.6,0,1.1,0.1,1.7,0.2l2.7,0.7c1.3,0.2,2.5,0.8,3.8,1.3c0.4,0.2,0.8,0.4,1.3,0.6
			c1.3,0.4,2.4,1.2,3.6,2c0.4,0.2,0.8,0.5,1.1,0.7c0.3,0.2,0.7,0.4,1,0.6c0.5,0.3,0.9,0.6,1.3,0.9l2.2,1.9c1.9,1.4,3.6,3.2,5.3,5
			c-0.6,0.3-1.1,0.7-1.6,1c-1.5,1-3.3,2.3-4.9,3.8c-1.5,1.3-2.9,2.9-4.3,4.6c-1.2,1.5-2.3,3.1-3.6,5.3c-0.2,0.4-0.4,0.7-0.6,1.1
			c-0.8,1.5-1.5,3-2.1,4.6c-0.8,1.9-1.2,3.8-1.8,6c-0.4,1.5-0.6,3.1-0.8,4.6c-0.1,0.5-0.1,1.1-0.2,1.6l-0.1,3.1l-0.1,1.5l0,0.6
			l0,0.4l0,0.7c0.1,0.6,0.1,1.2,0.1,1.7c0.1,1.3,0.1,2.6,0.5,4.2l0.6,3.3c0.2,0.7,0.4,1.4,0.6,2.1c0.1,0.3,0.2,0.6,0.3,1
			c0.4,1.6,1.1,3,1.7,4.5c0.2,0.5,0.4,1,0.7,1.5c0.2,0.4,0.4,0.7,0.6,1.1c0.8,1.4,1.7,2.9,2.7,4.2c1.2,1.7,2.5,3.2,4.1,4.8l0.7,0.7
			c0.5,0.5,1,1,1.6,1.5l2.4,1.9c2,1.4,3.6,2.4,5.2,3.3c0.9,0.5,1.7,0.9,2.6,1.3c-1.1,2.8-2.4,5.7-3.9,8.9c-1.8,3.9-3.8,7.7-6,11.3
			c-2.4,4-4.7,7.4-7.1,10.4c-2.7,3.4-5.6,6.3-8.6,8.4c-3.3,2.4-6.7,3.7-9.9,3.9l-0.7,0l-0.5,0l-1.5-0.1c-0.4,0-0.8-0.1-1.2-0.1
			c-0.7,0-1.4-0.1-2-0.2c-0.4-0.1-0.8-0.2-1.2-0.3c-1.3-0.3-2.7-0.6-4.2-1.1c-1.6-0.5-3.3-1.2-5-1.9c-2.3-1-4.8-2-7.6-2.7l-0.7-0.2
			c-1-0.3-2.1-0.5-3.2-0.6l-2-0.2l-0.8-0.1l-0.4,0l-2.6,0.2c-0.6,0-1.2,0.1-1.9,0.3l-0.6,0.1c-1.1,0.2-2.2,0.5-3.2,0.7
			c-2.3,0.6-4.5,1.4-6.7,2c-2.1,0.7-4,1.3-6,1.8c-3.9,1.1-7.8,1.8-11.6,2l-1.2-0.1c-0.1,0-0.2,0-0.3,0c-0.1,0-0.3,0-0.3,0l-0.5-0.2
			c-0.3-0.1-0.7-0.2-0.9-0.3c-0.2-0.1-0.5-0.2-0.7-0.3c-0.2-0.1-0.3-0.2-0.5-0.2l-1.2-0.6l-1.3-0.8c-0.7-0.4-1.6-0.9-2.4-1.6
			c-2.9-2.1-5.9-4.7-9.1-8.2c-3.1-3.2-5.9-6.9-8-9.7c-0.8-1.1-1.5-2.2-2.3-3.3c-0.4-0.6-0.8-1.3-1.3-1.9l-3.2-5.5l-2.9-5.7
			c-0.3-0.7-0.7-1.5-1-2.2c-0.5-1.2-1.1-2.4-1.6-3.6l-2.2-6l-2-6.3c-0.4-1.4-1.7-2.3-3.2-2.3c-0.3,0-0.5,0-0.8,0.1
			c-1.8,0.4-2.9,2.2-2.4,4l1.6,6.6l2,6.5c0.5,1.4,1.1,2.9,1.6,4.3c0.3,0.7,0.5,1.4,0.8,2.1c0.7,1.7,1.5,3.4,2.3,5.1l0.5,1.2l3.2,6
			c0.4,0.7,0.8,1.3,1.2,2c0.8,1.3,1.6,2.6,2.4,3.8c0.4,0.5,0.8,1.1,1.1,1.6c0.9,1.3,1.8,2.7,2.9,3.9l2.1,2.7l2.3,2.6
			c3.6,4,6.9,7,10.4,9.5c0.8,0.6,1.8,1.3,3,2.1l1.6,1l1.7,0.8l0.6,0.3c0.4,0.2,0.8,0.4,1.3,0.6c0.7,0.3,1.5,0.5,2.2,0.7l1.1,0.3
			c0.3,0.1,0.4,0.1,0.6,0.1c0.1,0,0.2,0,0.3,0l1.6,0.2l0.5,0l0.1,0c4.9-0.1,9.7-0.9,14.2-2.2c2.2-0.6,4.4-1.4,6.5-2
			c2.1-0.7,4.1-1.3,6-1.9l2.6-0.6l0.6-0.1l3.1-0.3l0.4,0l1.4,0.1c0.6,0,1.2,0.2,1.9,0.3c0.2,0.1,0.4,0.1,0.6,0.2
			c1.9,0.5,4,1.3,6.2,2.2c1.9,0.8,3.9,1.5,6,2.2c0.4,0.1,0.8,0.2,1.2,0.4c0.7,0.2,1.5,0.5,2.4,0.6l3.8,0.7c0.8,0.1,1.5,0.1,2.2,0.2
			c0.4,0,0.8,0,1.2,0.1l1.7,0.1l0.3,0l0.5,0l1.5-0.1c6.1-0.5,11.1-3.5,14.2-5.8c3.6-2.7,6.8-6,10-10.2c2.8-3.6,5.3-7.6,7.5-11.6
			c2.1-3.9,4.1-8,5.9-12.2c1.8-4.3,3.4-8.5,4.6-12.7C-52.7,152.8-53.4,151.1-54.8,150.4z"/>
		<path opacity="0.8" d="M-134,54.9c-0.3-1.3-0.5-2.7-0.5-4c-0.1-1.3-0.1-2.7-0.1-4c0-1.3,0.2-2.7,0.3-4c0.2-1.3,0.5-2.7,0.7-4
			c0.4-1.3,0.7-2.6,1.2-3.9l1.6-3.8c0.6-1.2,1.4-2.4,2.1-3.6c0.7-1.2,1.7-2.2,2.5-3.4c0.8-1.1,1.8-2.1,2.9-3c1-0.9,2-1.9,3.2-2.7
			c1.1-0.8,2.3-1.5,3.5-2.3c1.2-0.6,2.5-1.2,3.7-1.7l1.9-0.8l1.9-0.6l3.9-1c1.3-0.3,2.6-0.4,3.9-0.5c1.3-0.1,2.6-0.2,3.9-0.3l0.3,0
			c1.4-0.1,2.7,1,2.8,2.4c0.1,1.5,0.2,2.7,0.1,4.1c0,1.3-0.1,2.6-0.3,3.9c-0.1,1.3-0.4,2.6-0.6,3.9c-0.3,1.3-0.6,2.6-0.9,3.8
			l-1.3,3.7l-1.7,3.6l-2.1,3.4c-0.7,1.1-1.6,2.1-2.4,3.2c-0.8,1.1-1.8,1.9-2.8,2.9c-1,0.9-1.9,1.8-3,2.6l-3.3,2.3l-3.5,1.8l-1.8,0.9
			l-1.8,0.7l-3.7,1.3c-1.2,0.4-2.5,0.6-3.8,0.9l-3.8,0.8c-1.4,0.3-2.8-0.6-3.1-2l0,0L-134,54.9z M-128.2,51.1
			c1.1-0.3,2.3-0.5,3.3-0.8l3.3-1.2l1.6-0.6l1.5-0.8l3-1.6l2.8-2c1-0.6,1.8-1.4,2.6-2.2c0.8-0.8,1.7-1.5,2.3-2.4
			c0.7-0.9,1.5-1.7,2.1-2.7l1.8-2.9l1.4-3.1l1.1-3.2l0.8-3.3c0.2-1.1,0.4-2.3,0.5-3.4c0.1-1.1,0.2-2.3,0.2-3.4c0-1.1,0-2.3-0.1-3.3
			l3.1,2.4c-1.1,0.4-2.2,0.8-3.4,1.2c-1.1,0.4-2.2,0.6-3.3,1.1l-3.1,1.4l-1.6,0.6l-1.4,0.8c-0.9,0.6-1.9,1.1-2.9,1.6
			c-0.9,0.7-1.7,1.3-2.6,2c-0.9,0.6-1.6,1.4-2.4,2.1c-0.8,0.7-1.6,1.5-2.2,2.3c-0.6,0.9-1.4,1.6-2,2.5c-0.5,0.9-1.2,1.8-1.7,2.7
			l-1.5,2.9l-1.2,3.1c-0.7,2.1-1.3,4.3-1.7,6.5c-0.2,1.1-0.4,2.2-0.6,3.4C-128.2,51.1-128.2,51.1-128.2,51.1z"/>
	</g>
	<g>
		<path opacity="0.8" d="M241.9,98.2c0,0,9.6-0.1,24.1-0.2c14.5-0.2,33.8-0.1,53.1-0.2c9.6,0,19.3-0.1,28.3-0.1c9,0,17.5-0.1,24.7,0
			c14.5,0,24.1,0.6,24.1,0.6v7c0,0-9.6,0.6-24.1,0.6c-7.2,0.1-15.7,0-24.7,0c-9,0-18.7-0.1-28.3-0.1c-19.3-0.1-38.6-0.1-53.1-0.2
			c-14.5-0.1-24.1-0.2-24.1-0.2V98.2z"/>
		<g>
			<path fill="none" d="M345.3,133.1c0-2.6,0-4.1,0-4.1c0-0.1,0-1.5,0-4.1c-0.1-2.7-0.2-6.6-0.5-11.5c-0.4-4.9-0.9-10.9-2.1-17.7
				c-1.1-6.8-2.7-14.4-5.4-22.3c-1.3-3.9-3-7.9-5.1-11.7c-2.1-3.8-4.8-7.5-8-9.5c-3.2-2.1-6.7-1.8-10,0.9c-3.3,2.6-6.1,6.9-8.3,11.5
				c-2.2,4.6-4,9.6-5.5,14.8c-1.5,5.2-2.7,10.6-3.8,16c-2.2,10.9-3.4,22.3-3.3,33.7c0,4.8,0.2,9.5,0.5,14.3c0.1,0,0.2,0,0.3,0
				c0.8,0,2,0.3,3.1,0.7c1.1,0.3,1.9,0.9,2.8,1.3c0.8,0.6,1.5,1.2,2.1,1.8c0.6,0.7,1.1,1.3,1.6,2c0.4,0.7,0.7,1.3,1,1.9
				c0.2,0.6,0.4,1.2,0.5,1.7c4.8,0,9.7,0,14.6,0c8.3,0,16.5,0,24.4,0c0.3-3,0.5-5.7,0.7-8.1C345.1,139.6,345.2,135.7,345.3,133.1z"
				/>
			<path fill="none" d="M305.2,159.8c-0.1,0.5-0.3,1.1-0.5,1.7c-0.3,0.6-0.7,1.3-1,1.9c-0.4,0.6-1,1.3-1.6,2
				c-0.6,0.6-1.4,1.2-2.1,1.8c-0.9,0.5-1.8,1-2.9,1.4c1.8,8.9,4.3,17.5,8,25.2c2.3,4.6,5.1,8.9,8.6,11.7c1.8,1.4,3.6,2.2,5.4,2.3
				c1.9,0.2,3.7-0.4,5.4-1.5c3.4-2.2,6.1-6,8.2-9.8c2.1-3.8,3.7-7.9,5-11.9c2.6-8,4.2-15.6,5.2-22.4c0.1-0.9,0.2-1.7,0.4-2.5
				c-7.6,0-15.6,0-23.5,0C314.9,159.8,310,159.8,305.2,159.8z"/>
			<path opacity="0.8" d="M397.5,152.7c0,0-20.5,0-46.5-0.1c-0.3,2.2-0.6,4.6-0.9,7.1c26.5,0,47.5-0.1,47.5-0.1V152.7z"/>
			<path opacity="0.8" d="M279.7,157.2l0-0.5l0-0.2l0-0.1l0-0.1l0,0c0-0.1,0,0.2,0-0.3c0.1-1.1,0.1-1.9,0.5-3.4c0,0,0,0,0,0
				c-5,0-9.7,0-13.9,0c-7.3,0-13.4,0-17.6,0.1c-4.3,0-6.7,0.1-6.7,0.1v7c0,0,2.4,0,6.7,0.1c4.2,0,10.3,0,17.6,0.1c4.3,0,9,0,14,0
				c-0.2-0.6-0.4-1.1-0.4-1.7L279.7,157.2z"/>
			<path opacity="0.8" d="M305.2,152.6c0,0,0,0.1,0,0.1c0.4,1.1,0.3,2,0.4,2.6c0,0.6,0.1,0.9,0.1,0.9l0,0.3c0,0,0,0.3-0.1,0.7
				c0,0.2-0.1,0.5-0.1,0.9c0,0.2,0,0.3-0.1,0.6c-0.1,0.3-0.1,0.6-0.2,0.9c0,0.1-0.1,0.2-0.1,0.3c4.8,0,9.7,0,14.6,0
				c8,0,15.9,0,23.5,0c0.4-2.5,0.7-4.9,0.9-7.1c-7.9,0-16.2,0-24.4,0C314.9,152.6,310,152.6,305.2,152.6z"/>
			<path d="M300.6,156c0,0,0,0.1,0,0.2c0,0,0,0.1,0,0.1L300.6,156z"/>
			<path opacity="0.8" d="M300.6,156c0,0,0,0.1,0,0.2c0,0,0,0.1,0,0.1L300.6,156z"/>
			<path d="M284.7,158.6c-0.1-0.4-0.3-0.8-0.3-1.2l-0.1-0.6l0-0.3l0-0.2l0-0.1v0c0,0.1,0,0.1,0,0.2c0-0.5,0-0.1,0-0.2l0,0l0,0
				c0.1-0.9,0.1-2.1,0.4-2.6c0.1-0.4,0.3-0.7,0.5-1.1c-1.7,0-3.4,0-5.1,0c0,0,0,0,0,0c-0.5,1.5-0.4,2.3-0.5,3.4c0,0.5,0,0.2,0,0.3
				l0,0l0,0.1l0,0.1l0,0.2l0,0.5l0.1,0.9c0,0.6,0.2,1.2,0.4,1.7c1.6,0,3.3,0,5,0C285,159.5,284.8,159.1,284.7,158.6z"/>
			<path opacity="0.8" d="M284.7,158.6c-0.1-0.4-0.3-0.8-0.3-1.2l-0.1-0.6l0-0.3l0-0.2l0-0.1v0c0,0.1,0,0.1,0,0.2c0-0.5,0-0.1,0-0.2
				l0,0l0,0c0.1-0.9,0.1-2.1,0.4-2.6c0.1-0.4,0.3-0.7,0.5-1.1c-1.7,0-3.4,0-5.1,0c0,0,0,0,0,0c-0.5,1.5-0.4,2.3-0.5,3.4
				c0,0.5,0,0.2,0,0.3l0,0l0,0.1l0,0.1l0,0.2l0,0.5l0.1,0.9c0,0.6,0.2,1.2,0.4,1.7c1.6,0,3.3,0,5,0
				C285,159.5,284.8,159.1,284.7,158.6z"/>
			<path d="M299.9,153c0.2,0.4,0.2,0.8,0.4,1.1c0.3,0.6,0.2,1.2,0.3,1.6c0,0.3,0.1,0.4,0.1,0.5c0-0.1,0-0.2,0-0.2l0,0.3
				c0,0,0,0,0-0.1c0,0.1,0,0.3-0.1,0.5c0,0.2-0.1,0.5-0.1,0.9c0,0.2,0,0.4-0.1,0.5c0,0.1-0.1,0.2-0.2,0.4c-0.1,0.3-0.2,0.6-0.3,0.9
				c-0.1,0.1-0.2,0.3-0.2,0.4c1.8,0,3.7,0,5.5,0c0-0.1,0.1-0.2,0.1-0.3c0.1-0.3,0.2-0.6,0.2-0.9c0-0.2,0-0.4,0.1-0.6
				c0-0.4,0.1-0.7,0.1-0.9c0-0.5,0.1-0.7,0.1-0.7l0-0.3c0,0,0-0.3-0.1-0.9c-0.1-0.6,0-1.5-0.4-2.6c0,0,0-0.1,0-0.1
				c-1.9,0-3.7,0-5.5,0C299.7,152.8,299.8,152.9,299.9,153z"/>
			<path d="M284.4,156.3c0,0.1,0-0.2,0,0.2C284.3,156.4,284.4,156.4,284.4,156.3L284.4,156.3L284.4,156.3z"/>
			<path opacity="0.8" d="M284.4,156.3c0,0.1,0-0.2,0,0.2C284.3,156.4,284.4,156.4,284.4,156.3L284.4,156.3L284.4,156.3z"/>
			<path opacity="0.8" d="M342.9,162.3c-1,6.8-2.6,14.4-5.2,22.4c-1.3,4-2.9,8-5,11.9c-2.1,3.8-4.8,7.6-8.2,9.8
				c-1.7,1.1-3.5,1.6-5.4,1.5c-1.8-0.1-3.6-0.9-5.4-2.3c-3.5-2.7-6.3-7.1-8.6-11.7c-3.7-7.7-6.2-16.3-8-25.2c-0.9,0.4-1.9,0.6-3,0.7
				l-0.8,0.1l-0.4,0l-0.2,0l-0.4,0l-0.1,0c-0.1,0-0.3,0-0.4,0c1.8,9.3,4.4,18.4,8.4,26.9c2.5,5,5.4,10,10,13.8
				c1.2,1,2.5,1.8,3.9,2.4c0.7,0.3,1.4,0.6,2.3,0.8c0.8,0.2,1.9,0.4,2.4,0.4c3.2,0.3,6.5-0.7,8.9-2.3c5-3.2,8-7.6,10.4-11.9
				c2.4-4.3,4.2-8.6,5.7-12.8c2.9-8.4,4.6-16.3,5.8-23.4c0.2-1.2,0.4-2.4,0.6-3.6c-2.2,0-4.5,0-6.8,0
				C343.1,160.6,343,161.4,342.9,162.3z"/>
			<polygon opacity="0.8" points="345.3,128.9 345.3,128.9 345.3,129 			"/>
			<path opacity="0.8" d="M293.8,143.2c-0.3-4.7-0.5-9.5-0.5-14.3c-0.2-11.4,1-22.8,3.3-33.7c1.1-5.5,2.3-10.8,3.8-16
				c1.5-5.2,3.2-10.2,5.5-14.8c2.2-4.6,5-8.8,8.3-11.5c3.4-2.7,6.8-2.9,10-0.9c3.3,2.1,6,5.8,8,9.5c2.1,3.8,3.8,7.8,5.1,11.7
				c2.7,7.9,4.3,15.5,5.4,22.3c1.1,6.8,1.7,12.8,2.1,17.7c0.4,4.9,0.4,8.8,0.5,11.5c0,2.6,0,4,0,4.1c0,0,0,0,0,0v0c0,0,0,0,0,0
				c0,0.1,0,1.5,0,4.1c-0.1,2.6-0.2,6.5-0.5,11.5c-0.2,2.5-0.4,5.2-0.7,8.1c2.3,0,4.6,0,6.8,0c0.3-2.8,0.5-5.3,0.7-7.7
				c0.4-5.1,0.5-9.1,0.5-11.9c0-2.7,0-4.1,0-4.1v0c0,0,0-1.5,0-4.2c-0.1-2.7-0.1-6.8-0.5-11.9c-0.3-5.1-0.9-11.3-2.1-18.4
				c-1.1-7.1-2.8-15-5.6-23.5c-1.4-4.2-3.2-8.6-5.6-12.9c-2.4-4.3-5.4-8.8-10.6-12.1c-1.3-0.8-2.7-1.5-4.3-1.9l-1.4-0.3l-0.7-0.1
				l-0.5,0l-0.9-0.1c0.2,0-0.4,0-0.4,0l-0.2,0l-0.3,0l-0.6,0c-3.4,0.2-6.5,1.8-8.9,3.7c-4.8,3.9-7.8,8.9-10.3,14
				c-4.9,10.3-7.7,21.4-9.3,32.9c-1.4,11.5-1.9,23.1-2.1,34.7c0,5,0.2,10,0.5,14.9C290.3,143.3,292.1,143,293.8,143.2z"/>
			<path d="M292.8,164.2L292.8,164.2L292.8,164.2l-0.1,0c0,0,0,0-0.1,0l0,0C292.3,164.2,292.9,164.2,292.8,164.2z"/>
			<path opacity="0.8" d="M292.8,164.2L292.8,164.2L292.8,164.2l-0.1,0c0,0,0,0-0.1,0l0,0C292.3,164.2,292.9,164.2,292.8,164.2z"/>
			<path d="M292.2,169.5l0.4,0l0.2,0l0.4,0l0.8-0.1c1.1-0.1,2.1-0.3,3-0.7c-0.4-1.8-0.7-3.5-1-5.3c-0.8,0.4-1.6,0.7-2.6,0.7
				l-0.5,0.1l-0.3,0l-0.1,0c0,0,0,0,0.1,0l0.1,0l0,0l0,0c0.1,0-0.5,0-0.3,0l0,0c-0.4,0-0.9-0.1-1.3-0.1c-0.2,0-0.4,0-0.6-0.1
				c0.3,1.8,0.6,3.6,1,5.4C291.9,169.4,292,169.4,292.2,169.5L292.2,169.5z"/>
			<path d="M289.3,148.8c1.4-0.5,2.8-0.8,4.2-0.5c0.3,0,0.5,0,0.7,0.1c-0.2-1.7-0.3-3.4-0.4-5.1c-1.7-0.2-3.5,0.1-5.2,0.6
				c0.1,1.7,0.2,3.4,0.4,5.1C289,148.9,289.2,148.9,289.3,148.8z"/>
			<path opacity="0.8" d="M305.6,155.3c-0.1-0.6,0-1.5-0.4-2.6c0,0,0-0.1,0-0.1c-0.2-0.5-0.3-1.1-0.5-1.7c-0.3-0.6-0.7-1.3-1-1.9
				c-0.4-0.6-1-1.3-1.6-2c-0.6-0.6-1.4-1.2-2.1-1.8c-0.9-0.4-1.7-1-2.8-1.3c-1.1-0.3-2.3-0.7-3.1-0.7c-0.1,0-0.2,0-0.3,0
				c-1.7-0.2-3.5,0.1-5.2,0.6c-0.4,0.1-0.8,0.3-1.2,0.4c-2.2,1-4.1,2.7-5.5,4.7c-0.6,1.1-1.3,2.1-1.6,3.6c1.7,0,3.4,0,5.1,0
				c0.2-0.3,0.3-0.6,0.5-0.9c0.9-1.2,1.9-2.1,3.2-2.7c0.1-0.1,0.2-0.1,0.4-0.2c1.4-0.5,2.8-0.8,4.2-0.5c0.3,0,0.5,0,0.7,0.1
				c0.6,0.1,0.9,0.3,1.3,0.4c0.5,0.1,1.1,0.6,1.6,0.8c0.4,0.4,0.9,0.7,1.3,1.1c0.3,0.4,0.7,0.8,1,1.2c0.1,0.3,0.3,0.5,0.4,0.8
				c0.1,0.1,0.2,0.3,0.2,0.4c0.2,0.4,0.2,0.8,0.4,1.1c0.3,0.6,0.2,1.2,0.3,1.6c0,0.3,0.1,0.4,0.1,0.5c0-0.1,0-0.2,0-0.2l0,0.3
				c0,0,0,0,0-0.1c0,0.1,0,0.3-0.1,0.5c0,0.2-0.1,0.5-0.1,0.9c0,0.2,0,0.4-0.1,0.5c0,0.1-0.1,0.2-0.2,0.4c-0.1,0.3-0.2,0.6-0.3,0.9
				c-0.1,0.1-0.2,0.3-0.2,0.4c-0.1,0.2-0.3,0.5-0.4,0.8c-0.3,0.4-0.6,0.7-1,1.2c-0.4,0.4-0.9,0.7-1.3,1.1c-0.3,0.2-0.6,0.3-0.9,0.5
				c-0.8,0.4-1.6,0.7-2.6,0.7l-0.5,0.1l-0.3,0l-0.1,0c0,0,0,0,0.1,0l0.1,0l0,0l0,0c0.1,0-0.5,0-0.3,0l0,0c-0.4,0-0.9-0.1-1.3-0.1
				c-0.2,0-0.4,0-0.6-0.1c0,0-0.1,0-0.1,0l-0.4-0.2c-0.3-0.1-0.5-0.1-0.9-0.3c-0.6-0.4-1.3-0.7-1.9-1.2c-0.3-0.2-0.8-0.3-1-0.6
				c-0.3-0.3-0.5-0.6-0.8-0.9c-0.2-0.3-0.3-0.6-0.5-0.9c-1.7,0-3.4,0-5,0c0,0,0,0.1,0,0.1c0.3,1.2,1,2.3,1.6,3.4
				c0.4,0.5,0.8,0.9,1.1,1.5c0.3,0.5,0.6,1.1,1.1,1.5c0.9,0.9,2,1.4,3.1,2c0.6,0.3,1.2,0.4,1.9,0.6l1,0.3c0.3,0.1,0.5,0.1,0.7,0.1
				c0.3,0,0.6,0.1,0.9,0.1c0.1,0,0.3,0,0.4,0l0.1,0l0.4,0l0.2,0l0.4,0l0.8-0.1c1.1-0.1,2.1-0.3,3-0.7c1-0.4,2-0.9,2.9-1.4
				c0.8-0.6,1.5-1.2,2.1-1.8c0.6-0.7,1.1-1.3,1.6-2c0.4-0.7,0.7-1.3,1-1.9c0.2-0.6,0.4-1.1,0.5-1.7c0-0.1,0.1-0.2,0.1-0.3
				c0.1-0.3,0.2-0.6,0.2-0.9c0-0.2,0-0.4,0.1-0.6c0-0.4,0.1-0.7,0.1-0.9c0-0.5,0.1-0.7,0.1-0.7l0-0.3
				C305.7,156.2,305.7,155.9,305.6,155.3z"/>
			<path opacity="0.8" d="M344.1,152.7c-0.2,2.2-0.5,4.6-0.9,7.1c2.3,0,4.6,0,6.8,0c0.4-2.5,0.7-4.9,0.9-7.1
				C348.7,152.7,346.5,152.7,344.1,152.7z"/>
			<path opacity="0.8" d="M344.1,152.7c-0.2,2.2-0.5,4.6-0.9,7.1c2.3,0,4.6,0,6.8,0c0.4-2.5,0.7-4.9,0.9-7.1
				C348.7,152.7,346.5,152.7,344.1,152.7z"/>
		</g>
	</g>
	<g>
		<path fill="none" d="M385.4,74c0-0.2,0-0.4,0.1-0.5c0-0.4,0.1-0.6,0.1-0.9c0-0.3,0-0.4,0.1-0.6c0-0.1,0-0.2-0.1-0.5
			c-0.1-0.4,0-1-0.2-1.6c-0.1-0.3-0.2-0.7-0.3-1.1c-0.2-0.4-0.4-0.8-0.6-1.2c-0.3-0.4-0.6-0.8-1-1.2c-0.4-0.4-0.9-0.7-1.3-1.1
			c-0.5-0.2-1.1-0.7-1.7-0.8c-0.6-0.1-1-0.4-2-0.5c-1.1-0.2-2.2,0.1-3.2,0.5c1.2,1,2.3,2,3.4,3.1c1.3,1.1,2.4,2.5,3.6,3.8
			c1,1.1,2,2.1,2.9,3.3c0-0.1,0-0.1,0.1-0.2C385.2,74.3,385.3,74.2,385.4,74z"/>
		<path fill="none" d="M319.2,207.1C319.2,207.1,319.2,207.1,319.2,207.1L319.2,207.1z"/>
		<path fill="none" d="M373.4,72.9c-1.2-1.1-2.3-2.2-3.5-3.2c-0.3,0.4-0.3,1.5-0.4,2.4v0l0,0.1l0,0.1l0,0.3l0.1,0.6
			c0,0.4,0.1,0.8,0.3,1.1c0.1,0.8,0.6,1.4,0.9,2.1c0.9,1.3,2.1,2.3,3.4,2.9c0.3,0.2,0.6,0.2,0.9,0.3l0.4,0.2
			c0.2,0.1,0.4,0.1,0.7,0.1c0.5,0,0.9,0.1,1.3,0.1l0.1,0l0.3,0l0.5-0.1c0.5,0,1-0.1,1.4-0.3c-0.9-1.2-2-2.3-3-3.4
			C375.6,75.2,374.6,73.9,373.4,72.9z"/>
		<path opacity="0.8" d="M319.2,207.1C319.1,207.1,319.1,207.1,319.2,207.1L319.2,207.1L319.2,207.1
			C319.1,207.1,319.2,207.1,319.2,207.1z"/>
		<path opacity="0.8" d="M404.7,128.8l0-0.2l0-0.4l0-0.7c-0.2-3.9-0.3-7.8-1-11.6c-0.4-3.9-1.5-7.5-2.5-11.2
			c-2.3-7.2-5.2-14.2-9.1-20.4c-1-1.9-2.3-3.6-3.5-5.3c-0.1,0.1-0.1,0.2-0.2,0.3c-0.4,0.6-1,1.3-1.5,1.9c-0.6,0.6-1.3,1.2-2.1,1.8
			c-0.6,0.3-1.2,0.7-1.8,1c1,1.4,2,2.8,2.8,4.3c3.6,5.6,6.2,12,8.3,18.6c0.9,3.4,1.9,6.7,2.2,10.3c0.7,3.5,0.8,7,0.9,10.6l0,0.7
			l0,0.3l0,0.2c0,0,0,0.1,0,0.1l0-0.1c0,0.1,0,0.1,0,0.1l-0.1,1.3L397,133c-0.1,1.8-0.1,3.9-0.4,5.5c-0.3,1.7-0.5,3.5-0.8,5.2
			c-0.3,1.8-0.9,3.5-1.3,5.3l-0.7,2.7c-0.2,0.9-0.6,1.7-0.9,2.6l-1.9,5.2c-1.6,3.3-3,6.7-5.1,9.8c-1.8,3.2-4.1,6.1-6.3,9.1
			c-1.2,1.4-2.5,2.7-3.7,4.1c-1.2,1.4-2.6,2.7-4,3.9c-1.4,1.2-2.7,2.6-4.2,3.6l-4.5,3.3c-1.5,1.1-3.1,1.9-4.7,2.9
			c-0.8,0.5-1.6,1-2.4,1.4l-2.5,1.2c-6.6,3.4-13.7,5.5-20.8,6.9l-5.4,0.8c-1.8,0.2-3.6,0.2-5.4,0.3l-2.7,0.1l-0.2,0h0c0,0,0,0,0.1,0
			c0.1,0,0.1,0,0,0c0,0,0,0-0.1,0h0l-0.3,0l-0.7,0l-1.4-0.1c-1.9-0.1-3.8-0.2-5.6-0.3c-1.7-0.3-3.4-0.5-5.2-0.8l-2.6-0.4l-2.6-0.7
			c-1.7-0.4-3.4-0.8-5.1-1.3c-1.6-0.6-3.3-1.2-4.9-1.8c-1.7-0.5-3.2-1.3-4.8-2c-1.5-0.8-3.1-1.4-4.6-2.3c-2.9-1.8-5.9-3.4-8.5-5.5
			c-5.5-3.8-10.2-8.5-14.4-13.3c-8.2-9.9-13.6-21.1-16.1-32c-0.4-1.3-0.6-2.7-0.8-4.1c-0.2-1.4-0.4-2.7-0.6-4
			c-0.3-1.3-0.3-2.7-0.4-4c-0.1-1.3-0.1-2.6-0.2-3.9c0-0.6-0.1-1.4-0.1-1.8c0-0.7,0.1-1.3,0.1-2c0.1-1.3,0.1-2.6,0.2-3.8
			c0-1.3,0.2-2.5,0.4-3.6c0.2-1.1,0.3-2.3,0.5-3.4c1.5-9,4.4-16.5,7.4-22.3c3.1-5.8,6.1-9.9,8.3-12.6c2.3-2.6,3.5-4.1,3.5-4.1
			l0.2-0.2c0,0,0.1-0.1,0.1-0.2c1.2-1.5,0.9-3.7-0.7-4.9c-1.5-1.2-3.7-0.9-4.9,0.7c0,0-1.2,1.6-3.5,4.6c-2.3,3-5.3,7.7-8.5,14
			c-2.9,6.4-6,14.4-7.6,24.2c-0.2,1.2-0.3,2.5-0.5,3.8c-0.2,1.3-0.3,2.6-0.4,3.8c-0.1,1.3-0.1,2.5-0.2,3.8c0,0.6-0.1,1.3-0.1,2
			c0,0.9,0,1.4,0.1,2.2c0.1,1.4,0.1,2.8,0.2,4.2c0.1,1.4,0.1,2.8,0.3,4.3c0.2,1.4,0.4,2.9,0.6,4.3c0.2,1.5,0.4,2.9,0.8,4.4
			c2.6,11.8,8,24,16.6,35c4.5,5.3,9.4,10.6,15.4,14.8c2.8,2.3,6.1,4.1,9.3,6.1c1.6,0.9,3.4,1.7,5,2.5c1.7,0.8,3.4,1.7,5.2,2.3
			c1.8,0.7,3.6,1.3,5.4,2c1.8,0.5,3.7,1,5.6,1.5l2.8,0.7l2.9,0.5c2,0.3,3.9,0.6,5.9,0.9c1.9,0.1,3.7,0.2,5.6,0.3l1.4,0.1l0.7,0
			l0.4,0l0.4,0l0.2,0l3-0.1c2-0.1,4-0.2,5.9-0.3c2-0.3,3.9-0.6,5.9-0.9c7.8-1.5,15.7-3.8,22.8-7.5l2.7-1.3c0.9-0.5,1.7-1,2.6-1.6
			c1.7-1.1,3.5-2.1,5.2-3.2l4.9-3.6c1.7-1.2,3.1-2.7,4.6-4c1.5-1.4,3-2.7,4.3-4.3c1.4-1.5,2.8-3,4.1-4.5c2.4-3.3,5-6.4,6.9-10
			c2.2-3.4,3.8-7.1,5.6-10.7l2.1-5.7c0.3-0.9,0.7-1.9,1-2.8l0.8-2.9c0.5-2,1.1-3.8,1.4-5.8c0.3-2,0.6-4,0.9-6
			c0.4-2.1,0.3-3.8,0.5-5.7l0.1-2.8l0.1-1.4C404.7,128.7,404.7,129,404.7,128.8z"/>
		<path opacity="0.8" d="M370.6,60.8c-8.1-6.1-16.8-10.5-25.5-13.3c-2.9-0.9-5.8-1.5-8.7-2.3c-2.9-0.5-5.8-0.9-8.6-1.3
			c-2.7-0.2-5.2-0.3-7.8-0.4l-1.1,0l-1,0c-0.6,0-1.3,0.1-1.9,0.1c-1.3,0.1-2.5,0.1-3.8,0.2c-9.9,0.8-18.3,3.2-24.8,5.9
			c-1.7,0.6-3.2,1.3-4.6,2c-1.4,0.7-2.8,1.3-4,2c-2.4,1.4-4.6,2.6-6.1,3.6c-3,2.1-4.6,3.2-4.6,3.2c-1.6,1.1-2,3.3-0.9,4.9
			c1.1,1.6,3.3,2,4.9,0.9c0,0,1.6-1.1,4.6-3.1c1.5-1,3.3-1.9,5.5-3.2c1.1-0.6,2.4-1.1,3.6-1.8c1.3-0.6,2.7-1.3,4.2-1.8
			c6-2.4,13.7-4.6,22.7-5.2c1.1,0,2.3-0.1,3.4-0.1c0.6,0,1.2,0,1.8-0.1l0.9,0l0.8,0c2.5,0.1,5.1,0.2,7.7,0.4
			c2.4,0.4,4.9,0.8,7.5,1.2c2.6,0.7,5.2,1.3,7.9,2.1c7.7,2.5,15.4,6.4,22.6,11.7c0.3-0.5,0.6-1,0.8-1.5
			C367.5,63.1,369,61.7,370.6,60.8z"/>
		<path opacity="0.8" d="M397.2,128.8l0,0.1C397.2,128.9,397.2,128.9,397.2,128.8z"/>
		<path d="M377.6,80.2L377.6,80.2L377.6,80.2l-0.1,0c0,0,0,0,0,0l0,0C377.2,80.2,377.7,80.2,377.6,80.2z"/>
		<path d="M385.6,71.9c0,0,0,0.1,0,0.2c0,0,0,0.1,0,0.1L385.6,71.9z"/>
		<path d="M369.5,72.1c0,0.1,0-0.3,0,0.2C369.4,72.3,369.4,72.2,369.5,72.1L369.5,72.1L369.5,72.1z"/>
		<path opacity="0.8" d="M390.3,71.2c-0.1-0.6,0-1.5-0.5-2.5c-0.2-0.5-0.3-1.1-0.6-1.7c-0.3-0.6-0.7-1.2-1-1.9
			c-0.4-0.6-1-1.2-1.5-1.9c-0.6-0.6-1.3-1.2-2.1-1.7c-0.9-0.4-1.6-1-2.7-1.3c-1.1-0.3-2.3-0.7-3.1-0.7c-2.1-0.4-4.5-0.1-6.8,0.7
			c-0.5,0.2-0.9,0.5-1.4,0.7c-1.7,1-3.1,2.4-4.3,4c-0.3,0.5-0.6,1-0.8,1.5c-0.3,0.6-0.6,1.3-0.8,2.1c-0.5,1.5-0.4,2.3-0.6,3.4
			c0,0.5,0,0.2,0,0.3l0,0l0,0.1l0,0.1l0,0.2l0,0.5l0.1,1c0,0.7,0.2,1.3,0.4,1.9c0.3,1.3,1,2.4,1.6,3.5c1.5,2.1,3.4,3.7,5.7,4.7
			c0.6,0.3,1.2,0.4,1.8,0.6l0.9,0.2c0.3,0.1,0.5,0.1,0.7,0.1c0.5,0,0.9,0.1,1.4,0.1l0.4,0l0.2,0l0.4,0l0.8-0.1
			c1.4-0.1,2.7-0.6,3.9-1.1c0.6-0.3,1.3-0.6,1.8-1c0.7-0.6,1.5-1.2,2.1-1.8c0.6-0.7,1.1-1.3,1.5-1.9c0.1-0.1,0.1-0.2,0.2-0.3
			c0.3-0.6,0.6-1.1,0.9-1.6c0.3-0.6,0.4-1.3,0.6-1.9c0.1-0.3,0.2-0.6,0.2-0.8c0-0.2,0-0.4,0.1-0.6c0-0.4,0.1-0.7,0.1-0.9
			c0-0.5,0.1-0.7,0.1-0.7l0-0.2C390.4,72.1,390.3,71.8,390.3,71.2z M384.9,75.4c-0.2,0.4-0.4,0.8-0.7,1.2c-0.3,0.4-0.6,0.8-1,1.2
			c-0.4,0.4-0.9,0.7-1.3,1.1c-0.7,0.4-1.4,0.7-2.2,1c-0.5,0.1-0.9,0.3-1.4,0.3l-0.5,0.1l-0.3,0l-0.1,0c0,0,0,0,0,0l0.1,0l0,0l0,0
			c0.1,0-0.5,0-0.2,0l0,0c-0.4,0-0.9-0.1-1.3-0.1c-0.2,0-0.5,0-0.7-0.1l-0.4-0.2c-0.3-0.1-0.6-0.2-0.9-0.3c-1.3-0.6-2.5-1.7-3.4-2.9
			c-0.3-0.7-0.8-1.3-0.9-2.1c-0.1-0.4-0.3-0.7-0.3-1.1l-0.1-0.6l0-0.3l0-0.1l0-0.1v0c0,0.1,0,0.1,0,0.2c0-0.5,0-0.1,0-0.2l0,0l0,0
			c0.1-0.9,0.2-2,0.4-2.4c0,0,0,0,0,0c0.1-0.6,0.6-1.3,0.9-1.9c0.9-1.2,2.1-2.2,3.4-2.9c0.3-0.1,0.7-0.3,1-0.4
			c1-0.4,2.1-0.7,3.2-0.5c1,0,1.4,0.3,2,0.5c0.5,0.1,1.1,0.6,1.7,0.8c0.5,0.4,0.9,0.7,1.3,1.1c0.3,0.4,0.7,0.8,1,1.2
			c0.2,0.4,0.4,0.8,0.6,1.2c0.2,0.4,0.2,0.8,0.3,1.1c0.3,0.7,0.2,1.2,0.2,1.6c0,0.3,0,0.4,0.1,0.5c0-0.1,0-0.2,0-0.2l0,0.2
			c0,0,0,0,0-0.1c0,0.1,0,0.3-0.1,0.6c0,0.2-0.1,0.5-0.1,0.9c0,0.2,0,0.4-0.1,0.5c0,0.1-0.1,0.3-0.2,0.4c0,0.1,0,0.1-0.1,0.2
			C385.1,74.8,385,75.1,384.9,75.4z"/>
	</g>
</g>
<g id="Warstwa_2">
	<g opacity="0.8">
		<g>
			<path d="M-1099.2,150.2h-20.9c-1.3,0-2.4-1.1-2.4-2.4V127c0-1.3,1.1-2.4,2.4-2.4h20.9c1.3,0,2.4,1.1,2.4,2.4v20.9
				C-1096.8,149.1-1097.9,150.2-1099.2,150.2z M-1117.7,145.5h16.1v-16.1h-16.1V145.5z"/>
		</g>
		<g>
			<path d="M-951.2,150.2h-20.9c-1.3,0-2.4-1.1-2.4-2.4V127c0-1.3,1.1-2.4,2.4-2.4h20.9c1.3,0,2.4,1.1,2.4,2.4v20.9
				C-948.9,149.1-949.9,150.2-951.2,150.2z M-969.7,145.5h16.1v-16.1h-16.1V145.5z"/>
		</g>
		<g>
			<path d="M-1025.2,66.8h-20.9c-1.3,0-2.4-1.1-2.4-2.4V43.5c0-1.3,1.1-2.4,2.4-2.4h20.9c1.3,0,2.4,1.1,2.4,2.4v20.9
				C-1022.8,65.7-1023.9,66.8-1025.2,66.8z M-1043.7,62h16.1V45.9h-16.1V62z"/>
		</g>
		<g>
			<path d="M-1045.4,57.2c0,0-1.6,0.3-4.5,0.9c-0.7,0.1-1.5,0.3-2.3,0.5c-0.8,0.2-1.6,0.5-2.5,0.8c-0.9,0.3-1.8,0.5-2.8,0.8
				c-1,0.3-2.1,0.8-3.1,1.2c-1.1,0.4-2.3,0.8-3.4,1.4c-1.1,0.6-2.3,1.1-3.5,1.8c-0.6,0.3-1.2,0.6-1.8,0.9c-0.6,0.4-1.2,0.7-1.8,1.1
				c-1.2,0.8-2.5,1.5-3.7,2.3c-2.3,1.8-4.9,3.5-7.1,5.6c-2.4,1.9-4.5,4.3-6.6,6.6c-2,2.4-4,4.8-5.6,7.5c-1.8,2.5-3.1,5.3-4.6,7.8
				c-1.1,2.7-2.5,5.2-3.2,7.8c-0.4,1.3-0.8,2.5-1.2,3.7c-0.3,1.2-0.6,2.4-0.8,3.6c-0.6,2.3-0.9,4.4-1.2,6.3
				c-0.1,0.9-0.3,1.8-0.4,2.7c0,0.8-0.1,1.6-0.1,2.3c-0.1,2.7-0.2,4.3-0.2,4.3l0,0.3c-0.1,2-1.8,3.5-3.7,3.4
				c-1.9-0.1-3.4-1.7-3.4-3.7c0,0,0.1-1.7,0.2-4.8c0-0.8,0.1-1.6,0.1-2.5c0.1-0.9,0.2-1.9,0.4-2.9c0.3-2.1,0.5-4.5,1.2-7
				c0.3-1.3,0.6-2.6,0.9-4c0.4-1.3,0.9-2.7,1.4-4.1c0.8-2.9,2.3-5.7,3.5-8.7c1.6-2.8,3-5.9,5-8.7c1.8-2.9,4-5.6,6.2-8.3
				c2.4-2.5,4.7-5.1,7.3-7.3c2.5-2.4,5.3-4.3,7.9-6.2c1.4-0.9,2.7-1.7,4.1-2.5c0.7-0.4,1.3-0.8,2-1.2c0.7-0.3,1.4-0.7,2-1
				c1.3-0.7,2.6-1.3,3.9-1.9c1.3-0.6,2.6-1,3.8-1.5c1.2-0.4,2.4-0.9,3.5-1.3c1.2-0.3,2.3-0.6,3.3-0.9c1-0.3,2-0.5,2.9-0.8
				c0.9-0.2,1.6-0.3,2.4-0.4c2.8-0.5,4.5-0.8,4.5-0.8c1.9-0.3,3.8,0.9,4.1,2.9C-1042.3,55-1043.6,56.9-1045.4,57.2z"/>
		</g>
		<g>
			<path d="M-965.2,127.1c0,0-0.1-1.6-0.3-4.5c0-0.7-0.1-1.5-0.1-2.4c-0.1-0.8-0.3-1.7-0.4-2.6c-0.3-1.8-0.5-3.9-1.2-6.2
				c-0.3-1.1-0.6-2.3-0.9-3.6c-0.4-1.2-0.8-2.4-1.3-3.7c-0.7-2.6-2.1-5.1-3.2-7.8c-1.5-2.5-2.7-5.3-4.6-7.8c-1.6-2.6-3.7-5-5.6-7.4
				c-2.2-2.2-4.2-4.6-6.6-6.6c-2.2-2.1-4.8-3.8-7.1-5.6c-1.2-0.8-2.5-1.5-3.7-2.3c-0.6-0.4-1.2-0.7-1.8-1.1
				c-0.6-0.3-1.2-0.6-1.8-0.9c-1.2-0.6-2.4-1.2-3.5-1.7c-1.2-0.5-2.3-0.9-3.4-1.4c-1.1-0.4-2.1-0.9-3.1-1.2c-1-0.3-2-0.6-2.9-0.9
				c-0.9-0.3-1.8-0.5-2.6-0.8c-0.8-0.2-1.5-0.3-2.2-0.5c-2.7-0.6-4.2-0.9-4.2-0.9l-0.3-0.1c-1.9-0.4-3.1-2.3-2.7-4.2
				c0.4-1.9,2.2-3,4-2.7c0,0,1.7,0.3,4.7,0.8c0.7,0.1,1.6,0.2,2.5,0.4c0.9,0.2,1.8,0.5,2.9,0.8c1,0.3,2.1,0.6,3.3,0.9
				c1.1,0.3,2.3,0.8,3.5,1.3c1.2,0.5,2.5,0.9,3.8,1.5c1.3,0.6,2.6,1.3,3.9,1.9c0.7,0.3,1.3,0.7,2,1c0.7,0.4,1.3,0.8,2,1.2
				c1.3,0.8,2.7,1.6,4.1,2.5c2.6,1.9,5.4,3.9,7.9,6.2c2.6,2.2,4.9,4.8,7.3,7.4c2.2,2.7,4.4,5.4,6.2,8.3c2,2.8,3.4,5.9,5,8.7
				c1.2,3,2.7,5.8,3.5,8.7c0.5,1.4,0.9,2.8,1.3,4.1c0.3,1.4,0.6,2.7,0.9,4c0.6,2.5,0.9,4.9,1.2,7.1c0.1,1.1,0.3,2.1,0.4,3
				c0,0.9,0.1,1.7,0.1,2.4c0.1,2.9,0.2,4.5,0.2,4.5c0.1,2-1.5,3.6-3.4,3.7C-963.5,130.6-965.1,129.1-965.2,127.1z"/>
		</g>
		<g>
			<path d="M-1050.9,169.7c-1.3,0-2.4-1.1-2.4-2.4c0-13.7-14.9-30.5-15.1-30.7c-0.7-0.8-0.8-1.9-0.3-2.8l6.6-11.3
				c0.7-1.1,2.1-1.5,3.2-0.8c1.1,0.7,1.5,2.1,0.8,3.2l-5.8,9.8c3.7,4.5,15.1,19.2,15.1,32.5
				C-1048.6,168.7-1049.6,169.7-1050.9,169.7z"/>
		</g>
		<g>
			<path fill="none" stroke="#000000" stroke-width="2" stroke-linecap="round" stroke-linejoin="round" stroke-miterlimit="10" d="
				M-1060,123.8"/>
		</g>
		<g>
			<path fill="none" stroke="#000000" stroke-width="2" stroke-linecap="round" stroke-linejoin="round" stroke-miterlimit="10" d="
				M-1048.8,104.8"/>
		</g>
		<g>
			<path d="M-1022.7,167.2l0.1-2.2c0-0.7,0.2-1.6,0.3-2.4c0.2-1.7,0.6-3.2,1-4.8l0.7-2.3c0.2-0.8,0.6-1.5,0.8-2.2
				c0.6-1.5,1.3-2.9,1.9-4.3c1.4-2.8,3-5.5,4.7-8c0.9-1.3,1.8-2.5,2.7-3.8c0.9-1.3,1.9-2.4,3-3.7l0,0l-0.4,3.7l-29.9-53.7v0l4.1,0
				c-1.5,4.1-3.5,8-5.6,11.7c-1.1,1.9-2.1,3.8-3.4,5.5c-1.2,1.8-2.5,3.5-4.2,5.1c-1,0.9-2.5,0.9-3.5-0.1c-0.6-0.6-0.8-1.5-0.6-2.3
				c0.6-2.2,1.4-4.2,2.4-6.1c0.9-1.9,2.1-3.8,3.2-5.6c2.3-3.7,4.7-7.3,7.5-10.6l0.5-0.6c0.8-0.9,2.1-1,2.9-0.2
				c0.3,0.2,0.5,0.6,0.6,0.9l0,0l31.2,52.9c0.7,1.2,0.5,2.7-0.3,3.6l-0.1,0.1l0,0c-0.9,0.9-1.9,2.1-2.8,3.2
				c-0.9,1.1-1.8,2.2-2.7,3.4c-1.7,2.3-3.3,4.7-4.7,7.2c-0.7,1.3-1.4,2.5-1.9,3.8c-0.3,0.6-0.6,1.3-0.8,1.9l-0.7,2
				c-0.2,0.7-0.4,1.3-0.6,2c-0.2,0.7-0.3,1.3-0.5,1.9c-0.1,0.7-0.3,1.2-0.3,2l-0.2,2.2c-0.1,1.3-1.2,2.3-2.5,2.2
				C-1021.8,169.6-1022.8,168.5-1022.7,167.2z"/>
		</g>
		<g>
			<path d="M-1035.9,140.4c-6,0-11-4.9-11-10.9c0-6,4.9-10.9,11-10.9c6,0,10.9,4.9,10.9,10.9
				C-1024.9,135.5-1029.8,140.4-1035.9,140.4z M-1035.9,123.3c-3.4,0-6.2,2.8-6.2,6.2c0,3.4,2.8,6.2,6.2,6.2c3.4,0,6.2-2.8,6.2-6.2
				C-1029.6,126.1-1032.4,123.3-1035.9,123.3z"/>
		</g>
		<g>
			<path d="M-1035.9,123.3c-1.3,0-2.4-1.1-2.4-2.4V84.8c0-1.3,1.1-2.4,2.4-2.4s2.4,1.1,2.4,2.4v36.1
				C-1033.5,122.2-1034.5,123.3-1035.9,123.3z"/>
		</g>
		<g>
			<path d="M-1004.6,173.4c0,0-0.1,0.5-0.2,1.5c-0.3,1.5-1,3.4-2.7,5c-0.9,0.8-2,1.6-3.4,2c-1.3,0.5-3.2,0.5-4.2,0.5
				c-2.5,0-5.3,0-8.4,0c-6.1,0-13.3,0-21,0c-3.8,0-7.8,0-11.9,0h-0.8h-0.4h-0.2l-0.4,0l-0.8-0.1c-0.2,0-0.5,0-0.9-0.2
				c-1.6-0.4-2.8-1-3.8-1.9c-2.1-1.7-3.4-4.4-3.4-7.2l0.1-1c0-0.3,0-0.4,0.1-0.8c0.2-0.7,0.4-1.6,0.7-2.2c0.6-1.2,1.4-2.4,2.5-3.2
				c1-0.9,2.3-1.5,3.6-1.8c0.7-0.2,1.3-0.2,2-0.3c0.6,0,1,0,1.6,0c4,0,8,0,11.9,0c7.7,0,14.9,0,21,0c3.1,0,5.9,0,8.4,0
				c0.3,0,0.6,0,0.9,0h0.2l0.4,0l0.1,0l0.4,0c0.3,0,0.5,0,0.9,0.1c0.4,0.1,0.8,0.2,1.2,0.3c1.5,0.5,2.5,1.2,3.5,2.1
				c1.8,1.7,2.4,3.6,2.7,4.8c0.2,1.3,0.2,2,0.2,2L-1004.6,173.4z M-1009.4,173.1c0,0-0.1-0.3-0.1-1c-0.2-0.6-0.5-1.5-1.3-2.3
				c-0.4-0.4-1.1-0.8-1.6-1c-0.1,0-0.2-0.1-0.4-0.2c-0.2,0-0.5-0.1-0.8-0.1l-0.4,0l-0.1,0l-0.1,0c0.5,0,0.1,0,0.2,0h0h-0.2
				c-0.3,0-0.6,0-0.9,0c-2.5,0-5.3,0-8.4,0c-6.2,0-13.3,0-21,0c-3.8,0-7.8,0-11.9,0c-0.5,0-1.1,0-1.5,0c-0.3,0.1-0.7,0-1,0.1
				c-0.6,0.2-1.3,0.4-1.8,0.9c-0.6,0.4-0.9,1-1.2,1.6c-0.2,0.3-0.1,0.5-0.3,0.7c-0.1,0.1-0.1,0.5-0.1,0.7l0,0.4l0,0.2l0,0.1l0,0
				c0-0.1,0,0.3,0-0.2c0,1.4,0.7,2.7,1.7,3.5c0.5,0.5,1.2,0.7,1.6,0.9c0.1,0.1,0.3,0.1,0.6,0.1l0.8,0.1l0.1,0l0,0
				c-0.1,0,0.3,0-0.2,0h0.2h0.4h0.8c4,0,8,0,11.9,0c7.7,0,14.9,0,21,0c3.1,0,5.9,0,8.4,0c0.6,0,1.3,0,1.6-0.1c0.4,0,0.7-0.1,1.1-0.2
				c0.7-0.2,1.2-0.6,1.7-1c0.4-0.4,0.7-0.8,0.9-1.3c0.3-0.4,0.2-0.6,0.4-0.9c0.1-0.9,0.2-1.4,0.2-1.4L-1009.4,173.1z"/>
		</g>
		<g>
			<path d="M-1056.6,180.1c0,0,0.3,2,0.4,5c0.2,3,0.2,7.1,0.1,11.1c0,4-0.2,8.1-0.3,11.1c-0.1,3-0.3,5-0.3,5
				c-0.1,1.3-1.2,2.3-2.5,2.2c-1.2-0.1-2.1-1-2.2-2.2c0,0-0.1-2-0.3-5c-0.1-3-0.3-7.1-0.3-11.1c-0.1-4-0.1-8.1,0.1-11.1
				c0.1-3,0.4-5,0.4-5c0.2-1.3,1.4-2.2,2.7-2C-1057.5,178.2-1056.7,179.1-1056.6,180.1z"/>
		</g>
		<g>
			<path d="M-1010.1,180.1c0,0-0.2,2-0.3,5c-0.1,3-0.2,7.1-0.1,11.1c0,4,0.1,8.1,0.2,11.1c0.1,3,0.2,5,0.2,5
				c0.1,1.3-0.9,2.4-2.3,2.5c-1.3,0.1-2.4-0.9-2.5-2.3c0-0.1,0-0.2,0-0.2c0,0,0.1-2,0.2-5c0.1-3,0.2-7.1,0.2-11.1
				c0.1-4,0-8.1-0.1-11.1c-0.1-3-0.3-5-0.3-5c-0.1-1.3,0.8-2.5,2.1-2.6c1.3-0.1,2.5,0.8,2.6,2.1
				C-1010.1,179.7-1010.1,179.9-1010.1,180.1z"/>
		</g>
	</g>
	<g opacity="0.8">
		<g>
			<path d="M29.3,149.2H8.4c-1.3,0-2.4-1.1-2.4-2.4V126c0-1.3,1.1-2.4,2.4-2.4h20.9c1.3,0,2.4,1.1,2.4,2.4v20.9
				C31.6,148.1,30.6,149.2,29.3,149.2z M10.8,144.5h16.1v-16.1H10.8V144.5z"/>
		</g>
		<g>
			<path d="M177.2,149.2h-20.9c-1.3,0-2.4-1.1-2.4-2.4V126c0-1.3,1.1-2.4,2.4-2.4h20.9c1.3,0,2.4,1.1,2.4,2.4v20.9
				C179.6,148.1,178.5,149.2,177.2,149.2z M158.7,144.5h16.1v-16.1h-16.1V144.5z"/>
		</g>
		<g>
			<path d="M103.2,65.8H82.4c-1.3,0-2.4-1.1-2.4-2.4V42.5c0-1.3,1.1-2.4,2.4-2.4h20.9c1.3,0,2.4,1.1,2.4,2.4v20.9
				C105.6,64.7,104.5,65.8,103.2,65.8z M84.7,61h16.1V44.9H84.7V61z"/>
		</g>
		<g>
			<path d="M83,56.2c0,0-1.6,0.3-4.5,0.9c-0.7,0.1-1.5,0.3-2.3,0.5c-0.8,0.2-1.6,0.5-2.5,0.8c-0.9,0.3-1.8,0.5-2.8,0.8
				c-1,0.3-2.1,0.8-3.1,1.2c-1.1,0.4-2.3,0.8-3.4,1.4c-1.1,0.6-2.3,1.1-3.5,1.8c-0.6,0.3-1.2,0.6-1.8,0.9c-0.6,0.4-1.2,0.7-1.8,1.1
				c-1.2,0.8-2.5,1.5-3.7,2.3c-2.3,1.8-4.9,3.5-7.1,5.6c-2.4,1.9-4.5,4.3-6.6,6.6c-2,2.4-4,4.8-5.6,7.5c-1.8,2.5-3.1,5.3-4.6,7.8
				c-1.1,2.7-2.5,5.2-3.2,7.8c-0.4,1.3-0.8,2.5-1.2,3.7c-0.3,1.2-0.6,2.4-0.8,3.6c-0.6,2.3-0.9,4.4-1.2,6.3
				c-0.1,0.9-0.3,1.8-0.4,2.7c0,0.8-0.1,1.6-0.1,2.3c-0.1,2.7-0.2,4.3-0.2,4.3l0,0.3c-0.1,2-1.8,3.5-3.7,3.4
				c-1.9-0.1-3.4-1.7-3.4-3.7c0,0,0.1-1.7,0.2-4.8c0-0.8,0.1-1.6,0.1-2.5c0.1-0.9,0.2-1.9,0.4-2.9c0.3-2.1,0.5-4.5,1.2-7
				c0.3-1.3,0.6-2.6,0.9-4c0.4-1.3,0.9-2.7,1.3-4.1c0.8-2.9,2.3-5.7,3.5-8.7c1.6-2.8,3-5.9,5-8.7c1.8-2.9,4-5.6,6.2-8.3
				c2.4-2.5,4.7-5.1,7.3-7.3c2.5-2.4,5.3-4.3,7.9-6.2c1.4-0.9,2.7-1.7,4.1-2.5c0.7-0.4,1.3-0.8,2-1.2c0.7-0.3,1.4-0.7,2-1
				c1.3-0.7,2.6-1.3,3.9-1.9c1.3-0.6,2.6-1,3.8-1.5c1.2-0.4,2.4-0.9,3.5-1.3c1.2-0.3,2.3-0.6,3.3-0.9c1-0.3,2-0.5,2.9-0.8
				c0.9-0.2,1.6-0.3,2.4-0.4c2.8-0.5,4.5-0.8,4.5-0.8c1.9-0.3,3.8,0.9,4.1,2.9C86.1,54,84.9,55.9,83,56.2z"/>
		</g>
		<g>
			<path d="M163.2,126.1c0,0-0.1-1.6-0.3-4.5c0-0.7-0.1-1.5-0.1-2.4c-0.1-0.8-0.3-1.7-0.4-2.6c-0.3-1.8-0.5-3.9-1.2-6.2
				c-0.3-1.1-0.6-2.3-0.9-3.6c-0.4-1.2-0.8-2.4-1.3-3.7c-0.7-2.6-2.1-5.1-3.2-7.8c-1.5-2.5-2.7-5.3-4.6-7.8c-1.6-2.6-3.7-5-5.6-7.4
				c-2.2-2.2-4.2-4.6-6.6-6.6c-2.2-2.1-4.8-3.8-7.1-5.6c-1.2-0.8-2.5-1.5-3.7-2.3c-0.6-0.4-1.2-0.7-1.8-1.1
				c-0.6-0.3-1.2-0.6-1.8-0.9c-1.2-0.6-2.4-1.2-3.5-1.7c-1.2-0.5-2.3-0.9-3.4-1.4c-1.1-0.4-2.1-0.9-3.1-1.2c-1-0.3-2-0.6-2.9-0.9
				c-0.9-0.3-1.8-0.5-2.6-0.8c-0.8-0.2-1.5-0.3-2.2-0.5c-2.7-0.6-4.2-0.9-4.2-0.9l-0.3-0.1c-1.9-0.4-3.1-2.3-2.7-4.2
				c0.4-1.9,2.2-3,4-2.7c0,0,1.7,0.3,4.7,0.8c0.7,0.1,1.6,0.2,2.5,0.4c0.9,0.2,1.8,0.5,2.9,0.8c1,0.3,2.1,0.6,3.3,0.9
				c1.1,0.3,2.3,0.8,3.5,1.3c1.2,0.5,2.5,0.9,3.8,1.5c1.3,0.6,2.6,1.3,3.9,1.9c0.7,0.3,1.3,0.7,2,1c0.7,0.4,1.3,0.8,2,1.2
				c1.3,0.8,2.7,1.6,4.1,2.5c2.6,1.9,5.4,3.9,7.9,6.2c2.6,2.2,4.9,4.8,7.3,7.4c2.2,2.7,4.4,5.4,6.2,8.3c2,2.8,3.4,5.9,5,8.7
				c1.2,3,2.7,5.8,3.5,8.7c0.5,1.4,0.9,2.8,1.3,4.1c0.3,1.4,0.6,2.7,0.9,4c0.6,2.5,0.9,4.9,1.2,7.1c0.1,1.1,0.3,2.1,0.4,3
				c0,0.9,0.1,1.7,0.1,2.4c0.1,2.9,0.2,4.5,0.2,4.5c0.1,2-1.5,3.6-3.4,3.7C165,129.6,163.3,128.1,163.2,126.1z"/>
		</g>
		<g>
			<path d="M77.5,168.7c-1.3,0-2.4-1.1-2.4-2.4c0-13.7-14.9-30.5-15.1-30.7c-0.7-0.8-0.8-1.9-0.3-2.8l6.6-11.3
				c0.7-1.1,2.1-1.5,3.2-0.8c1.1,0.7,1.5,2.1,0.8,3.2l-5.8,9.8c3.7,4.5,15.1,19.2,15.1,32.5C79.8,167.7,78.8,168.7,77.5,168.7z"/>
		</g>
		<g>
			<path fill="none" stroke="#000000" stroke-width="2" stroke-linecap="round" stroke-linejoin="round" stroke-miterlimit="10" d="
				M68.4,122.8"/>
		</g>
		<g>
			<path fill="none" stroke="#000000" stroke-width="2" stroke-linecap="round" stroke-linejoin="round" stroke-miterlimit="10" d="
				M79.7,103.8"/>
		</g>
		<g>
			<path d="M105.7,166.2l0.1-2.2c0-0.7,0.2-1.6,0.3-2.4c0.2-1.7,0.6-3.2,1-4.8l0.7-2.3c0.2-0.8,0.6-1.5,0.8-2.2
				c0.6-1.5,1.3-2.9,1.9-4.3c1.4-2.8,3-5.5,4.7-8c0.9-1.3,1.8-2.5,2.7-3.8c0.9-1.3,1.9-2.4,3-3.7l0,0l-0.4,3.7L90.7,82.6v0l4.1,0
				c-1.5,4.1-3.5,8-5.6,11.7c-1.1,1.9-2.1,3.8-3.4,5.5c-1.2,1.8-2.5,3.5-4.2,5.1c-1,0.9-2.5,0.9-3.5-0.1c-0.6-0.6-0.8-1.5-0.6-2.3
				c0.6-2.2,1.4-4.2,2.4-6.1c0.9-1.9,2.1-3.8,3.2-5.6c2.3-3.7,4.7-7.3,7.5-10.6l0.5-0.6c0.8-0.9,2.1-1,2.9-0.2
				c0.3,0.2,0.5,0.6,0.6,0.9l0,0l31.2,52.9c0.7,1.2,0.5,2.7-0.3,3.6l-0.1,0.1l0,0c-0.9,0.9-1.9,2.1-2.8,3.2
				c-0.9,1.1-1.8,2.2-2.7,3.4c-1.7,2.3-3.3,4.7-4.7,7.2c-0.7,1.3-1.4,2.5-1.9,3.8c-0.3,0.6-0.6,1.3-0.8,1.9l-0.7,2
				c-0.2,0.7-0.4,1.3-0.6,2c-0.2,0.7-0.3,1.3-0.5,1.9c-0.1,0.7-0.3,1.2-0.3,2l-0.2,2.2c-0.1,1.3-1.2,2.3-2.5,2.2
				C106.6,168.6,105.7,167.5,105.7,166.2z"/>
		</g>
		<g>
			<path d="M92.6,139.4c-6,0-11-4.9-11-10.9c0-6,4.9-10.9,11-10.9c6,0,10.9,4.9,10.9,10.9C103.5,134.5,98.6,139.4,92.6,139.4z
				 M92.6,122.3c-3.4,0-6.2,2.8-6.2,6.2c0,3.4,2.8,6.2,6.2,6.2c3.4,0,6.2-2.8,6.2-6.2C98.8,125.1,96,122.3,92.6,122.3z"/>
		</g>
		<g>
			<path d="M92.6,122.3c-1.3,0-2.4-1.1-2.4-2.4V83.8c0-1.3,1.1-2.4,2.4-2.4s2.4,1.1,2.4,2.4v36.1C94.9,121.2,93.9,122.3,92.6,122.3z
				"/>
		</g>
		<g>
			<path d="M123.8,172.4c0,0-0.1,0.5-0.2,1.5c-0.3,1.5-1,3.4-2.7,5c-0.9,0.8-2,1.6-3.4,2c-1.3,0.5-3.2,0.5-4.2,0.5
				c-2.5,0-5.3,0-8.4,0c-6.2,0-13.3,0-21,0c-3.8,0-7.8,0-11.9,0h-0.8h-0.4h-0.2l-0.4,0l-0.8-0.1c-0.2,0-0.5,0-0.9-0.2
				c-1.6-0.4-2.8-1-3.8-1.9c-2.1-1.7-3.4-4.4-3.4-7.2l0.1-1c0-0.3,0-0.4,0.1-0.8c0.2-0.7,0.4-1.6,0.7-2.2c0.6-1.2,1.4-2.4,2.5-3.2
				c1-0.9,2.3-1.5,3.6-1.8c0.7-0.2,1.3-0.2,2-0.3c0.6,0,1,0,1.6,0c4,0,8,0,11.9,0c7.7,0,14.9,0,21,0c3.1,0,5.9,0,8.4,0
				c0.3,0,0.6,0,0.9,0h0.2l0.3,0l0.1,0l0.4,0c0.3,0,0.5,0,0.9,0.1c0.4,0.1,0.8,0.2,1.2,0.3c1.5,0.5,2.5,1.2,3.5,2.1
				c1.8,1.7,2.4,3.6,2.7,4.8c0.2,1.3,0.2,2,0.2,2L123.8,172.4z M119,172.1c0,0-0.1-0.3-0.1-1c-0.2-0.6-0.5-1.5-1.3-2.3
				c-0.4-0.4-1.1-0.8-1.6-1c-0.1,0-0.2-0.1-0.4-0.2c-0.2,0-0.5-0.1-0.8-0.1l-0.4,0l-0.1,0l-0.1,0c0.5,0,0.1,0,0.2,0h0h-0.2
				c-0.3,0-0.6,0-0.9,0c-2.5,0-5.3,0-8.4,0c-6.2,0-13.3,0-21,0c-3.8,0-7.8,0-11.9,0c-0.5,0-1.1,0-1.5,0c-0.3,0.1-0.7,0-1,0.1
				c-0.6,0.2-1.3,0.4-1.8,0.9c-0.6,0.4-0.9,1-1.2,1.6c-0.2,0.3-0.1,0.5-0.3,0.7c-0.1,0.1-0.1,0.5-0.1,0.7l0,0.4l0,0.2l0,0.1l0,0
				c0-0.1,0,0.3,0-0.2c0,1.4,0.7,2.7,1.7,3.5c0.5,0.5,1.2,0.7,1.6,0.9c0.1,0.1,0.3,0.1,0.6,0.1l0.8,0.1l0.1,0l0,0
				c-0.1,0,0.3,0-0.2,0h0.2h0.4H72c4,0,8,0,11.9,0c7.7,0,14.9,0,21,0c3.1,0,5.9,0,8.4,0c0.6,0,1.3,0,1.6-0.1c0.4,0,0.7-0.1,1.1-0.2
				c0.7-0.2,1.2-0.6,1.7-1c0.4-0.4,0.7-0.8,0.9-1.3c0.3-0.4,0.2-0.6,0.4-0.9c0.1-0.9,0.2-1.4,0.2-1.4L119,172.1z"/>
		</g>
		<path d="M72.9,184.1c-0.1-3-0.4-5-0.4-5.1c-0.2-1.3-1.2-2.3-2.5-2.5c-0.1,0-0.3,0-0.4,0c-1.5,0-2.7,1.1-2.9,2.5
			c0,0.1-0.3,2.1-0.4,5.1c-0.2,3.2-0.2,7.6-0.1,11.1c0,3.6,0.1,7.2,0.2,10.1l0,1.1c0.1,3,0.3,5.1,0.3,5.1c0.1,1.5,1.3,2.6,2.7,2.7
			c0.1,0,0.1,0,0.2,0c1.5,0,2.8-1.2,2.9-2.7c0,0,0.1-2,0.3-5.1l0-1.3c0.1-2.8,0.2-6.3,0.2-9.8C73,191.7,73.1,187.3,72.9,184.1z"/>
		<path d="M118.6,206.3l0-0.3c-0.1-3.1-0.2-6.9-0.2-10.8c-0.1-4.3,0-8.2,0.1-11.1c0.1-3,0.3-5,0.3-5c0-0.2,0-0.4,0-0.7
			c-0.2-1.5-1.4-2.6-2.9-2.6c-0.1,0-0.2,0-0.3,0c-1.6,0.2-2.8,1.6-2.6,3.3c0,0,0.2,2,0.3,5c0.1,2.9,0.2,6.8,0.1,11.1
			c0,3.9-0.1,7.7-0.2,10.7l0,0.3l-0.2,5.1c0,0.1,0,0.2,0,0.3c0.1,1.6,1.4,2.8,2.9,2.8l0.1,0c0.8,0,1.5-0.4,2-1s0.8-1.3,0.8-2.1
			L118.6,206.3z"/>
	</g>
</g>
</svg>
