<?xml version="1.0" encoding="utf-8"?>
<!-- Generator: Adobe Illustrator 16.0.0, SVG Export Plug-In . SVG Version: 6.00 Build 0)  -->
<!DOCTYPE svg PUBLIC "-//W3C//DTD SVG 1.1//EN" "http://www.w3.org/Graphics/SVG/1.1/DTD/svg11.dtd">
<svg version="1.1" id="Warstwa_1" xmlns="http://www.w3.org/2000/svg" xmlns:xlink="http://www.w3.org/1999/xlink" x="0px" y="0px"
	 width="186px" height="221px" viewBox="0 0 186 221" enable-background="new 0 0 186 221" xml:space="preserve">
<g id="Warstwa_1_1_" display="none">
	<path display="inline" opacity="0.1" enable-background="new    " d="M-2214.2,60.3c0,0,1.601-1.1,4.601-3.2c1.5-1,3.7-2.2,6.1-3.6
		c1.2-0.7,2.601-1.3,4-2c1.4-0.7,2.9-1.4,4.601-2c6.6-2.7,15-5.1,24.8-5.9c1.2-0.1,2.5-0.1,3.8-0.2c0.601,0,1.3-0.1,1.9-0.1h1h1.1
		c2.5,0.1,5.101,0.2,7.8,0.4c2.8,0.4,5.7,0.8,8.6,1.3c2.8,0.7,5.7,1.4,8.7,2.3c11.6,3.7,23.399,10.4,33.5,20.1
		c1.3,1.1,2.399,2.5,3.6,3.8c1.2,1.3,2.5,2.6,3.5,4c2.101,2.9,4.4,5.7,6.2,8.9c4,6.2,6.9,13.2,9.2,20.4c0.899,3.7,2,7.4,2.5,11.3
		c0.7,3.8,0.8,7.7,1,11.601v0.699v0.4v0.2c0,0.1,0-0.101,0,0.399l-0.101,1.4l-0.1,2.8c-0.2,1.9-0.101,3.7-0.4,5.8
		c-0.3,2-0.6,4-0.899,6c-0.3,2-0.9,3.9-1.4,5.801l-0.8,2.899c-0.3,1-0.7,1.9-1,2.8l-2.1,5.7c-1.8,3.601-3.3,7.4-5.6,10.7
		c-2,3.6-4.5,6.7-7,10c-1.3,1.5-2.7,3-4.1,4.5c-1.3,1.6-2.8,2.9-4.3,4.3c-1.5,1.3-2.899,2.8-4.6,4l-4.9,3.601
		c-1.7,1.199-3.399,2.1-5.2,3.199c-0.9,0.5-1.7,1.101-2.6,1.601l-2.7,1.3c-7.2,3.7-15,6.1-22.899,7.5c-2,0.3-4,0.6-5.9,0.9
		c-2,0.199-4,0.199-6,0.3l-3,0.1h-0.2h-0.4h-0.4h-0.7l-1.4-0.1c-1.899-0.101-3.8-0.2-5.6-0.3c-2-0.301-4-0.601-5.9-0.9l-2.899-0.5
		l-2.8-0.7c-1.9-0.5-3.8-0.899-5.6-1.5c-1.8-0.7-3.6-1.3-5.4-2c-1.8-0.6-3.5-1.399-5.2-2.3c-1.7-0.9-3.4-1.6-5-2.5
		c-3.2-2-6.4-3.8-9.3-6.1c-6-4.2-10.9-9.601-15.4-14.801c-8.6-11-14-23.3-16.6-35c-0.4-1.5-0.6-2.899-0.8-4.399
		c-0.2-1.5-0.399-2.9-0.6-4.3c-0.3-1.4-0.3-2.9-0.3-4.301c-0.1-1.399-0.1-2.8-0.2-4.199c0-0.7-0.101-1.2-0.101-2.2
		c0-0.7,0.101-1.3,0.101-2c0.1-1.3,0.1-2.601,0.2-3.8c0-1.2,0.2-2.5,0.4-3.801c0.2-1.3,0.3-2.5,0.5-3.8c1.6-9.8,4.6-17.8,7.6-24.2
		c3.2-6.3,6.2-11,8.5-14s3.5-4.6,3.5-4.6c1.2-1.5,3.4-1.8,4.9-0.7c1.5,1.2,1.8,3.4,0.7,4.9c0,0.1-0.101,0.1-0.101,0.2l-0.2,0.2
		c0,0-1.2,1.4-3.5,4.1c-2.2,2.7-5.2,6.9-8.4,12.7c-2.9,5.8-5.9,13.4-7.4,22.4c-0.2,1.101-0.3,2.2-0.5,3.4c-0.2,1.1-0.3,2.3-0.4,3.6
		c-0.1,1.3-0.1,2.5-0.2,3.8c0,0.601-0.1,1.301-0.1,2c0,0.4,0.1,1.2,0.1,1.801c0.101,1.3,0.101,2.6,0.2,3.899
		c0.1,1.3,0.1,2.601,0.4,4c0.2,1.3,0.4,2.7,0.6,4c0.2,1.4,0.4,2.7,0.8,4.101c2.601,10.899,8,22.199,16.101,32.1
		c4.3,4.8,8.899,9.5,14.5,13.3c2.6,2.101,5.6,3.7,8.6,5.5c1.5,0.8,3.101,1.5,4.601,2.3c1.6,0.801,3.1,1.5,4.8,2
		c1.6,0.601,3.3,1.2,4.9,1.801c1.7,0.5,3.4,0.899,5.1,1.3l2.6,0.7l2.6,0.399c1.7,0.3,3.4,0.5,5.2,0.8c1.899,0.101,3.8,0.2,5.6,0.301
		l1.4,0.1h0.7h0.4c0,0,0.3,0,0,0h0.2l2.7-0.1c1.8-0.101,3.6-0.101,5.4-0.301l5.4-0.8c7.2-1.3,14.3-3.5,20.9-6.899l2.5-1.2
		c0.8-0.4,1.6-1,2.4-1.4c1.6-1,3.2-1.899,4.7-2.899l4.5-3.301c1.5-1,2.8-2.399,4.2-3.6s2.8-2.5,4-3.9c1.2-1.399,2.5-2.699,3.7-4.1
		c2.2-3,4.6-5.9,6.3-9.1c2.1-3.101,3.5-6.5,5.1-9.801l1.9-5.199c0.3-0.9,0.7-1.7,0.9-2.601l0.7-2.7c0.4-1.8,1-3.5,1.3-5.3
		s0.5-3.5,0.8-5.3c0.399-1.7,0.3-3.7,0.399-5.5l0.101-2.8l0.1-1.4c0,0.3,0,0,0,0v-0.2v-0.3v-0.7c-0.2-3.6-0.3-7.1-0.899-10.6
		c-0.4-3.5-1.4-6.9-2.2-10.3c-2.1-6.6-4.7-13-8.4-18.6c-1.6-2.9-3.8-5.5-5.7-8.1c-1-1.3-2.2-2.4-3.2-3.7c-1.1-1.2-2.1-2.5-3.3-3.5
		c-9.2-8.8-20-14.9-30.5-18.4c-2.7-0.8-5.3-1.4-7.9-2.1c-2.6-0.4-5.1-0.8-7.5-1.2c-2.6-0.2-5.2-0.3-7.7-0.4h-0.8h-0.899
		c-0.601,0-1.2,0-1.8,0.1c-1.2,0-2.3,0.1-3.5,0.1c-9.1,0.7-16.7,2.8-22.8,5.3c-1.5,0.5-2.899,1.2-4.2,1.8s-2.6,1.2-3.7,1.8
		c-2.101,1.3-4,2.2-5.5,3.2c-3,2.1-4.601,3.1-4.601,3.1c-1.6,1.1-3.8,0.7-4.899-0.9C-2216.2,63.6-2215.8,61.4-2214.2,60.3z"/>
	<path display="inline" opacity="0.1" enable-background="new    " d="M-2240.6,98.1c0,0,9.7-0.1,24.1-0.2
		c14.5-0.2,33.8-0.1,53.1-0.2c9.7,0,19.3-0.1,28.4-0.1c9.1,0,17.5-0.1,24.8,0c14.5,0,24.101,0.6,24.101,0.6v7
		c0,0-9.7,0.6-24.101,0.6c-7.2,0.1-15.7,0-24.8,0s-18.7-0.1-28.4-0.1c-19.3-0.1-38.6-0.1-53.1-0.2s-24.1-0.2-24.1-0.2V98.1z"/>
	<path display="inline" opacity="0.1" enable-background="new    " d="M-2240.6,152.8c0,0,2.4,0,6.7-0.1c4.3,0,10.3,0,17.7-0.101
		c14.6,0,34.1,0,53.6,0c39,0,77.9,0.101,77.9,0.101v7c0,0-39,0-77.9,0.1c-19.5,0-39,0-53.6,0c-7.3,0-13.4-0.1-17.7-0.1
		c-4.3,0-6.7-0.101-6.7-0.101V152.8z"/>
	<path display="inline" opacity="0.1" enable-background="new    " d="M-2130.1,129c0,0,0,1.4,0,4.1c-0.1,2.801-0.1,6.801-0.5,11.9
		s-1,11.3-2.2,18.4c-1.2,7.1-2.9,15-5.8,23.399c-1.5,4.2-3.2,8.5-5.7,12.8c-2.4,4.2-5.5,8.7-10.4,11.9c-2.5,1.6-5.7,2.6-8.899,2.3
		c-0.5,0-1.5-0.2-2.4-0.399c-0.8-0.2-1.5-0.5-2.3-0.801c-1.4-0.699-2.7-1.5-3.9-2.399c-4.6-3.8-7.6-8.8-10-13.8
		c-4.8-10.2-7.6-21.301-9.4-32.7c-1.8-11.4-2.6-23-2.6-34.7c0.2-11.7,0.6-23.3,2.1-34.8s4.4-22.6,9.3-32.9c2.5-5.1,5.5-10.1,10.3-14
		c2.4-1.9,5.5-3.5,8.9-3.7h0.6h0.3h0.2c0,0,0.6,0,0.4,0l0.9,0.1h0.5l0.7,0.1l1.4,0.3c1.6,0.5,3.1,1.1,4.3,1.9
		c5.1,3.3,8.1,7.8,10.6,12.1c2.4,4.3,4.2,8.7,5.6,13c2.9,8.5,4.5,16.4,5.6,23.5s1.7,13.3,2.1,18.4c0.4,5.1,0.4,9.1,0.5,11.9
		C-2130.1,127.5-2130.1,129-2130.1,129L-2130.1,129z M-2137,129c0,0,0-1.4,0-4.1c-0.1-2.7-0.2-6.601-0.5-11.5
		c-0.4-4.9-0.9-11-2.1-17.8c-1.1-6.8-2.7-14.4-5.4-22.3c-1.4-3.9-3-8-5.1-11.8s-4.8-7.5-8.1-9.5c-3.2-2.1-6.7-1.8-10,0.9
		c-3.3,2.7-6.1,6.9-8.3,11.5c-2.2,4.6-4,9.6-5.5,14.8c-1.5,5.2-2.7,10.6-3.8,16c-2.2,10.9-3.4,22.3-3.3,33.7
		c0,11.399,0.9,22.8,2.7,33.8c1.9,11,4.6,21.8,9.1,31.1c2.3,4.601,5.1,8.9,8.6,11.7c1.8,1.4,3.6,2.2,5.4,2.3
		c1.9,0.2,3.7-0.399,5.4-1.5c3.4-2.2,6.1-6,8.2-9.8c2.1-3.8,3.7-7.9,5.1-11.9c2.601-8,4.2-15.6,5.3-22.399s1.6-12.8,1.9-17.8
		s0.4-8.9,0.5-11.5C-2137.1,130.4-2137,128.9-2137,129L-2137,129z"/>
	<path display="inline" opacity="0.8" enable-background="new    " d="M-860.1,60.3c0,0,1.6-1.1,4.6-3.2c1.5-1,3.7-2.2,6.1-3.6
		c1.2-0.7,2.6-1.3,4-2s2.9-1.4,4.6-2c6.6-2.7,15-5.1,24.8-5.9c1.2-0.1,2.5-0.1,3.8-0.2c0.6,0,1.3-0.1,1.9-0.1h1h1.1
		c2.5,0.1,5.1,0.2,7.8,0.4c2.8,0.4,5.7,0.8,8.6,1.3c2.8,0.7,5.7,1.4,8.7,2.3c11.6,3.7,23.4,10.4,33.5,20.1c1.3,1.1,2.4,2.5,3.6,3.8
		c1.2,1.3,2.5,2.6,3.5,4c2.1,2.9,4.4,5.7,6.2,8.9c4,6.2,6.9,13.2,9.2,20.4c0.9,3.7,2,7.4,2.5,11.3c0.7,3.8,0.8,7.7,1,11.601v0.699
		v0.4v0.2c0,0.1,0-0.101,0,0.399l-0.1,1.4l-0.1,2.8c-0.2,1.9-0.1,3.7-0.4,5.8c-0.3,2-0.6,4-0.9,6c-0.3,2-0.9,3.9-1.4,5.801
		l-0.8,2.899c-0.3,1-0.7,1.9-1,2.8l-2.1,5.7c-1.8,3.601-3.3,7.4-5.6,10.7c-2,3.6-4.5,6.7-7,10c-1.3,1.5-2.7,3-4.1,4.5
		c-1.3,1.6-2.8,2.9-4.3,4.3c-1.5,1.3-2.9,2.8-4.6,4l-4.9,3.601c-1.7,1.199-3.4,2.1-5.2,3.199c-0.9,0.5-1.7,1.101-2.6,1.601l-2.7,1.3
		c-7.2,3.7-15,6.1-22.9,7.5c-2,0.3-4,0.6-5.9,0.9c-2,0.199-4,0.199-5.9,0.3l-3,0.1h-0.2h-0.4h-0.4h-0.7l-1.4-0.1
		c-1.9-0.101-3.8-0.2-5.6-0.3c-2-0.301-4-0.601-5.9-0.9l-2.9-0.5l-2.8-0.7c-1.9-0.5-3.8-0.899-5.6-1.5c-1.8-0.7-3.6-1.3-5.4-2
		c-1.8-0.6-3.5-1.399-5.2-2.3c-1.7-0.9-3.4-1.6-5-2.5c-3.2-2-6.4-3.8-9.3-6.1c-6-4.2-10.9-9.601-15.4-14.801
		c-8.6-11-14-23.3-16.6-35c-0.4-1.5-0.6-2.899-0.8-4.399s-0.4-2.9-0.6-4.3c-0.3-1.4-0.3-2.9-0.3-4.301c-0.1-1.399-0.1-2.8-0.2-4.199
		c0-0.7-0.1-1.2-0.1-2.2c0-0.7,0.1-1.3,0.1-2c0.1-1.3,0.1-2.601,0.2-3.8c0-1.2,0.2-2.5,0.4-3.801c0.2-1.3,0.3-2.5,0.5-3.8
		c1.6-9.8,4.6-17.8,7.6-24.2c3.2-6.3,6.2-11,8.5-14c2.3-3,3.5-4.6,3.5-4.6c1.2-1.5,3.4-1.8,4.9-0.7c1.5,1.2,1.8,3.4,0.7,4.9
		c0,0.1-0.1,0.1-0.1,0.2L-868,77c0,0-1.2,1.4-3.5,4.1c-2.2,2.7-5.2,6.9-8.4,12.7c-2.9,5.8-5.9,13.4-7.4,22.4
		c-0.2,1.1-0.3,2.2-0.5,3.399c-0.2,1.101-0.3,2.301-0.4,3.601c-0.1,1.3-0.1,2.5-0.2,3.8c0,0.6-0.1,1.3-0.1,2c0,0.4,0.1,1.2,0.1,1.8
		c0.101,1.3,0.101,2.601,0.2,3.9c0.1,1.3,0.1,2.6,0.4,4c0.2,1.3,0.4,2.7,0.6,4c0.2,1.399,0.4,2.7,0.8,4.1
		c2.601,10.9,8,22.2,16.101,32.101c4.3,4.8,8.9,9.5,14.5,13.3c2.6,2.1,5.6,3.7,8.6,5.5c1.5,0.8,3.1,1.5,4.6,2.3
		c1.6,0.8,3.1,1.5,4.8,2c1.6,0.6,3.3,1.2,4.9,1.8c1.7,0.5,3.4,0.9,5.1,1.3l2.6,0.7l2.6,0.4c1.7,0.3,3.4,0.5,5.2,0.8
		c1.9,0.1,3.8,0.2,5.6,0.3l1.4,0.101h0.7h0.4c0,0,0.3,0,0,0h0.2l2.7-0.101c1.8-0.1,3.6-0.1,5.4-0.3l5.4-0.8
		c7.2-1.3,14.3-3.5,20.9-6.9l2.5-1.2c0.8-0.399,1.6-1,2.4-1.399c1.6-1,3.2-1.9,4.7-2.9l4.5-3.3c1.5-1,2.8-2.4,4.2-3.6
		c1.4-1.2,2.8-2.5,4-3.9c1.2-1.4,2.5-2.7,3.7-4.1c2.2-3,4.6-5.9,6.3-9.101c2.1-3.1,3.5-6.5,5.1-9.8l1.9-5.2
		c0.3-0.899,0.7-1.7,0.9-2.6l0.7-2.7c0.4-1.8,1-3.5,1.3-5.3s0.5-3.5,0.8-5.3c0.4-1.7,0.3-3.7,0.4-5.5l0.1-2.801l0.1-1.399
		c0,0.3,0,0,0,0V129v-0.3V128c-0.2-3.6-0.3-7.1-0.9-10.6c-0.4-3.5-1.4-6.9-2.2-10.3c-2.1-6.6-4.7-13-8.4-18.6
		c-1.6-2.9-3.8-5.5-5.7-8.1c-1-1.3-2.2-2.4-3.2-3.7c-1.1-1.2-2.1-2.5-3.3-3.5c-9.2-8.8-20-14.9-30.5-18.4c-2.7-0.8-5.3-1.4-7.9-2.1
		c-2.6-0.4-5.1-0.8-7.5-1.2c-2.6-0.2-5.2-0.3-7.7-0.4h-0.8h-0.9c-0.6,0-1.2,0-1.8,0.1c-1.2,0-2.3,0.1-3.5,0.1
		c-9.1,0.7-16.7,2.8-22.8,5.3c-1.5,0.5-2.9,1.2-4.2,1.8c-1.3,0.6-2.6,1.2-3.7,1.8c-2.1,1.3-4,2.2-5.5,3.2c-3,2.1-4.6,3.1-4.6,3.1
		c-1.6,1.1-3.8,0.7-4.9-0.9C-862.1,63.6-861.7,61.4-860.1,60.3z"/>
	<path display="inline" opacity="0.8" enable-background="new    " d="M-886.5,98.1c0,0,9.7-0.1,24.1-0.2
		c14.5-0.2,33.8-0.1,53.1-0.2c9.7,0,19.3-0.1,28.4-0.1s17.5-0.1,24.8,0c14.5,0,24.1,0.6,24.1,0.6v7c0,0-9.7,0.6-24.1,0.6
		c-7.2,0.1-15.7,0-24.8,0s-18.7-0.1-28.4-0.1c-19.3-0.1-38.6-0.1-53.1-0.2s-24.1-0.2-24.1-0.2V98.1z"/>
	<path display="inline" opacity="0.8" enable-background="new    " d="M-886.5,152.8c0,0,2.4,0,6.7-0.1c4.3,0,10.3,0,17.7-0.101
		c14.6,0,34.1,0,53.6,0c39,0,77.9,0.101,77.9,0.101v7c0,0-39,0-77.9,0.1c-19.5,0-39,0-53.6,0c-7.3,0-13.4-0.1-17.7-0.1
		c-4.3,0-6.7-0.101-6.7-0.101V152.8z"/>
	<path display="inline" opacity="0.8" enable-background="new    " d="M-776,129c0,0,0,1.4,0,4.1c-0.1,2.801-0.1,6.801-0.5,11.9
		s-1,11.3-2.2,18.4c-1.2,7.1-2.9,15-5.8,23.399c-1.5,4.2-3.2,8.5-5.7,12.8c-2.4,4.2-5.5,8.7-10.4,11.9c-2.5,1.6-5.7,2.6-8.9,2.3
		c-0.5,0-1.5-0.2-2.4-0.399c-0.8-0.2-1.5-0.5-2.3-0.801c-1.4-0.699-2.7-1.5-3.9-2.399c-4.6-3.8-7.6-8.8-10-13.8
		c-4.8-10.2-7.6-21.301-9.4-32.7c-1.8-11.4-2.6-23-2.6-34.7c0.2-11.7,0.6-23.3,2.1-34.8s4.4-22.6,9.3-32.9c2.5-5.1,5.5-10.1,10.3-14
		c2.4-1.9,5.5-3.5,8.9-3.7h0.6h0.3h0.2c0,0,0.6,0,0.4,0l0.9,0.1h0.5l0.7,0.1l1.4,0.3c1.6,0.5,3.1,1.1,4.3,1.9
		c5.1,3.3,8.1,7.8,10.6,12.1c2.4,4.3,4.2,8.7,5.6,13c2.9,8.5,4.5,16.4,5.6,23.5c1.1,7.1,1.7,13.3,2.1,18.4c0.4,5.1,0.4,9.1,0.5,11.9
		C-776,127.5-776,129-776,129L-776,129z M-782.9,129c0,0,0-1.4,0-4.1c-0.1-2.7-0.2-6.601-0.5-11.5c-0.4-4.9-0.9-11-2.1-17.8
		c-1.1-6.8-2.7-14.4-5.4-22.3c-1.4-3.9-3-8-5.1-11.8s-4.8-7.5-8.1-9.5c-3.2-2.1-6.7-1.8-10,0.9c-3.3,2.7-6.1,6.9-8.3,11.5
		c-2.2,4.6-4,9.6-5.5,14.8c-1.5,5.2-2.7,10.6-3.8,16c-2.2,10.9-3.4,22.3-3.3,33.7c0,11.399,0.9,22.8,2.7,33.8
		c1.9,11,4.6,21.8,9.1,31.1c2.3,4.601,5.1,8.9,8.6,11.7c1.8,1.4,3.6,2.2,5.4,2.3c1.9,0.2,3.7-0.399,5.4-1.5c3.4-2.2,6.1-6,8.2-9.8
		s3.7-7.9,5.1-11.9c2.6-8,4.2-15.6,5.3-22.399c1.1-6.8,1.6-12.8,1.9-17.8c0.3-5,0.4-8.9,0.5-11.5C-783,130.4-782.9,128.9-782.9,129
		L-782.9,129z"/>
	<path display="inline" fill="none" stroke="#000000" stroke-width="3" stroke-miterlimit="10" d="M-1859.6,224.4"/>
	<path display="inline" opacity="0.1" enable-background="new    " d="M-1886.9,199c0,0-1.6,1.1-4.6,3.2c-1.5,1-3.7,2.2-6.1,3.6
		c-1.2,0.7-2.6,1.3-4,2s-2.9,1.4-4.6,2c-6.6,2.7-15,5.101-24.9,5.9c-1.2,0.1-2.5,0.1-3.8,0.2c-0.6,0-1.3,0.1-1.9,0.1h-1h-1.1
		c-2.5-0.1-5.1-0.2-7.8-0.4c-2.8-0.399-5.7-0.8-8.7-1.3c-2.8-0.7-5.8-1.399-8.7-2.3c-11.7-3.7-23.5-10.4-33.6-20.1
		c-1.4-1.101-2.4-2.5-3.7-3.801c-1.2-1.3-2.5-2.6-3.5-4c-2.1-2.899-4.5-5.699-6.2-8.899c-4-6.2-6.9-13.2-9.2-20.5
		c-0.9-3.7-2-7.4-2.5-11.3c-0.7-3.801-0.8-7.7-1-11.7V131v-0.4V130.4c0-0.101,0,0.1,0-0.4l0.1-1.4l0.1-2.8
		c0.1-1.899,0.1-3.7,0.5-5.8c0.3-2,0.6-4,0.9-6c0.3-2,0.9-3.9,1.4-5.9l0.8-2.9c0.3-1,0.7-1.9,1-2.9l2.1-5.7
		c1.8-3.6,3.4-7.4,5.6-10.8c2-3.6,4.5-6.7,7-10c1.3-1.6,2.7-3,4.1-4.5c1.3-1.6,2.8-2.9,4.4-4.3c1.5-1.3,2.9-2.8,4.6-4l4.9-3.7
		c1.7-1.2,3.5-2.1,5.2-3.2c0.9-0.5,1.7-1.1,2.6-1.6l2.7-1.3c7.2-3.7,15.1-6.1,22.9-7.5c2-0.3,4-0.6,5.9-0.9c2-0.2,4-0.2,6-0.3l3-0.1
		h0.2h0.4h0.4h0.7l1.4,0.1c1.9,0.1,3.8,0.2,5.7,0.3c2,0.3,4,0.6,5.9,0.9l3,0.5l2.8,0.7c1.9,0.5,3.8,0.9,5.6,1.5
		c1.8,0.7,3.6,1.3,5.4,2c1.8,0.6,3.5,1.4,5.2,2.3c1.7,0.9,3.4,1.6,5,2.5c3.2,2,6.5,3.8,9.3,6.1c6,4.2,10.9,9.6,15.4,14.9
		c8.6,11,14,23.3,16.7,35.1c0.4,1.5,0.6,2.9,0.8,4.4c0.2,1.5,0.4,2.899,0.6,4.3c0.3,1.4,0.3,2.9,0.4,4.3c0.1,1.4,0.1,2.8,0.2,4.2
		c0,0.7,0.1,1.3,0.1,2.2c0,0.7-0.1,1.3-0.1,2c-0.1,1.3-0.1,2.6-0.2,3.8c0,1.2-0.2,2.5-0.4,3.8c-0.2,1.3-0.3,2.5-0.5,3.8
		c-1.6,9.801-4.6,17.801-7.6,24.301c-3.2,6.3-6.2,11-8.5,14.1c-2.3,3-3.5,4.6-3.5,4.6c-1.2,1.5-3.4,1.801-4.9,0.701
		c-1.5-1.201-1.8-3.4-0.7-4.9c0-0.1,0.1-0.1,0.1-0.2l0.2-0.2c0,0,1.2-1.4,3.5-4.1c2.2-2.7,5.3-6.9,8.4-12.7
		c3-5.8,5.9-13.399,7.4-22.399c0.2-1.101,0.3-2.201,0.5-3.4c0.2-1.1,0.3-2.301,0.4-3.6c0.1-1.301,0.1-2.5,0.2-3.801
		c0-0.6,0.1-1.3,0.1-2c0-0.4-0.1-1.199-0.1-1.8c-0.1-1.3-0.1-2.601-0.2-3.899c-0.1-1.301-0.1-2.701-0.4-4
		c-0.2-1.301-0.4-2.701-0.6-4c-0.2-1.4-0.4-2.701-0.8-4.101c-2.6-11-8-22.2-16.2-32.2c-4.3-4.8-8.9-9.5-14.5-13.4
		c-2.6-2.1-5.7-3.7-8.6-5.5c-1.5-0.8-3.1-1.5-4.6-2.3c-1.6-0.8-3.1-1.5-4.8-2c-1.6-0.6-3.3-1.2-4.9-1.8c-1.7-0.5-3.4-0.9-5.1-1.3
		l-2.6-0.7l-2.6-0.4c-1.7-0.3-3.5-0.5-5.2-0.8c-1.9-0.1-3.8-0.2-5.7-0.3l-1.4-0.1h-0.7h-0.4c0,0-0.3,0,0,0h-0.2l-2.7,0.1
		c-1.8,0.1-3.6,0.1-5.5,0.3l-5.4,0.8c-7.2,1.4-14.3,3.5-20.9,6.9l-2.5,1.2c-0.8,0.4-1.6,1-2.4,1.4c-1.6,1-3.2,1.9-4.7,2.9l-4.5,3.3
		c-1.5,1-2.8,2.5-4.2,3.7c-1.4,1.2-2.8,2.5-4,3.9c-1.2,1.4-2.5,2.7-3.7,4.1c-2.2,3-4.6,5.9-6.4,9.1c-2.1,3.1-3.5,6.5-5.1,9.8
		l-1.9,5.2c-0.3,0.9-0.7,1.7-0.9,2.6l-0.7,2.7c-0.4,1.8-1,3.5-1.3,5.3c-0.3,1.8-0.5,3.5-0.8,5.3c-0.4,1.7-0.3,3.7-0.4,5.6
		l-0.1,2.801l-0.1,1.4c0-0.301,0,0,0,0v0.199v0.301v0.699c0.2,3.6,0.3,7.2,0.9,10.7c0.4,3.5,1.4,6.899,2.2,10.3
		c2.1,6.6,4.7,13,8.4,18.7c1.6,3,3.8,5.5,5.7,8.2c1,1.3,2.2,2.5,3.2,3.699c1.1,1.2,2.1,2.5,3.3,3.5c9.3,8.9,20,15,30.6,18.4
		c2.7,0.8,5.3,1.4,7.9,2.1c2.6,0.4,5.1,0.801,7.6,1.2c2.6,0.2,5.2,0.3,7.8,0.4h0.8h0.9c0.6,0,1.2,0,1.8-0.101c1.2,0,2.3-0.1,3.5-0.1
		c9.1-0.7,16.8-2.9,22.8-5.3c1.5-0.5,2.9-1.2,4.2-1.8c1.3-0.601,2.6-1.2,3.7-1.801c2.2-1.3,4-2.199,5.5-3.199
		c3-2.101,4.6-3.2,4.6-3.2c1.6-1.101,3.8-0.7,4.9,0.899C-1884.9,195.8-1885.3,197.9-1886.9,199z"/>
	<path display="inline" opacity="0.1" enable-background="new    " d="M-1964.6,207.8c0.7-3,2-5.8,3.1-8.7l3.3-8.6l6.7-17.2
		l6.6-17.2l6.5-17.3c0.5-1.2,1.8-1.8,3-1.399c0.6,0.199,1.1,0.699,1.3,1.3v0.1c2.2,5.601,4.5,11.3,6.6,17c2.2,5.7,4.3,11.3,6.4,17
		c4.2,11.4,8.5,22.7,11.8,34.4c0.4,1.2-0.4,2.5-1.6,2.899c-1.1,0.301-2.3-0.3-2.8-1.3c-4.9-11.1-8.9-22.6-13-34
		c-2.1-5.7-4-11.399-6-17.2c-2-5.699-3.9-11.5-5.8-17.3h4.4l-6.6,17.3l-6.5,17.301l-6.4,17.3l-3.2,8.7c-1.1,2.899-2,5.8-3.5,8.6
		c-0.6,1.2-2,1.6-3.2,1C-1964.4,209.9-1964.8,208.8-1964.6,207.8z"/>
	<path display="inline" opacity="0.1" enable-background="new    " d="M-2010.6,101.6c0,0,0.8,1.5,1.8,4.2c1,2.8,2.5,6.7,4.2,11.4
		c1.7,4.7,3.7,10.3,5.9,16.2c2.2,5.899,4.5,12.199,6.8,18.5c2.3,6.3,4.6,12.6,6.8,18.5c1.1,3,2.2,5.8,3.3,8.5
		c1.1,2.699,2.2,5.199,3.2,7.5c1,2.3,1.8,4.5,2.6,6.399c0.7,1.9,1.3,3.601,1.7,5c0.8,2.8,1.1,4.5,1.1,4.5c0.2,1.3-0.7,2.5-2,2.7
		c-1,0.1-1.9-0.3-2.4-1.1c0,0-0.9-1.5-2.1-4.101c-0.6-1.3-1.3-3-2-4.899c-0.7-1.9-1.5-4.101-2.2-6.5c-0.8-2.4-1.6-5-2.5-7.801
		c-0.9-2.8-1.9-5.6-3-8.6c-2.2-5.9-4.6-12.2-6.9-18.5c-2.4-6.301-4.7-12.6-7-18.5c-2.2-5.9-4.3-11.4-6.1-16.1
		c-1.8-4.7-3.3-8.7-4.3-11.4c-1-2.8-1.4-4.4-1.4-4.4c-0.3-1.3,0.6-2.5,1.8-2.8C-2012.2,100.2-2011.1,100.8-2010.6,101.6z"/>
	<path display="inline" opacity="0.1" enable-background="new    " d="M-2005.8,81.5c1.3,0.4,2.5,0.2,3.8,0.2h3.8h7.5
		c5,0,10-0.1,15-0.2c1.3,0,2.3,1,2.3,2.2l0,0v0.1l0,0c0.3,1.3,0.4,2.6,0.4,3.8c0,1.3-0.1,2.6-0.4,3.8l-0.2,1c-0.2,1-1.2,1.6-2.1,1.3
		l0,0l0,0c-2.1,0.6-4.2,0.3-6.2,0.3c-2.1,0-4.2-0.1-6.3-0.3l2.2-3.1l0,0c2.4,6.5,4.8,13,7.1,19.6l7,19.6
		c4.6,13.101,9.2,26.2,13.7,39.3h-4.4l0,0l18.4-51.6l0.1,1.7l-11.7-27l2.1,1.4l0,0c-2-0.5-3.9-0.7-5.9-0.8c-2-0.1-3.9,0-5.9,0.8
		c-0.7,0.3-1.4-0.1-1.7-0.7l-0.6-1.6l0,0c-0.3-1.3-0.4-2.6-0.4-3.8c0-1.3,0.1-2.6,0.4-3.8l0.3-1.1c0.2-0.9,1.1-1.5,2.1-1.3l0,0l0,0
		c4.3,0.2,8.7,0.2,13,0.2c4.3,0.1,8.7,0,13,0c8.7,0,17.3-0.1,26-0.2c1.3,0,2.3,1,2.3,2.3l0,0v0.1l0,0v8c0,1.3-1,2.3-2.3,2.3l0,0
		h-11.7l2.2-3.1l0,0c2.5,6.9,4.9,13.9,7.4,20.8l7.2,20.899l14.3,41.801l-4.4-0.2l0,0c2-4.601,3.9-9.5,5.6-14.3
		c0.9-2.4,1.6-4.9,2.4-7.301c0.8-2.399,1.5-4.899,2.1-7.399c0.6-2.5,1.3-4.9,1.7-7.4c0.5-2.5,0.9-5,1.2-7.5l0.3-3.7V122.9
		c0-1.2-0.2-2.4-0.3-3.601c0-0.399-0.2-1.2-0.3-1.8c-0.1-0.7-0.3-1.1-0.4-1.7c-1.3-4.6-3.7-9-6.4-13.3s-5.8-8.5-8.1-13.7
		c-1.1-2.6-2-5.6-1.6-8.8c0.3-3.2,2-6,3.9-8.2c0.5-0.5,1-1,1.5-1.5l0,0l0.3-0.2l0.1-0.1l0.2-0.1l0.4-0.3l0.8-0.6
		c0.6-0.4,1-0.8,1.6-1.2l2.1-1.1c0.7-0.4,1.5-0.6,2.2-0.8c0.7-0.3,1.5-0.4,2.4-0.4c0.8-0.1,1.7,0,2.6,0.1c0.9,0.3,1.7,0.4,2.8,1.2
		c1,0.8,1.1,2.3,0.3,3.3s-2.3,1.1-3.3,0.3c0,0,0,0,0.1,0h-0.1c-0.1,0-0.1-0.1-0.2-0.1c-0.2,0-0.3-0.1-0.5-0.2c-0.4,0-0.8-0.1-1.3,0
		c-0.5,0-0.9,0.1-1.4,0.3c-0.5,0.2-1,0.2-1.4,0.5l-1.4,0.7c-0.5,0.3-1,0.7-1.5,1.1l-1.3,1c-0.4,0.4-0.8,0.8-1.2,1.2
		c-1.5,1.7-2.5,3.6-2.7,5.6c-0.3,2,0.3,4.2,1.2,6.3c1.9,4.3,5,8.5,7.8,12.9c2.8,4.4,5.5,9.2,7,14.601c0.2,0.699,0.4,1.5,0.5,2.1
		c0.1,0.699,0.3,1.199,0.3,2c0.1,1.4,0.3,2.8,0.3,4.1l-0.1,4.1l-0.4,4c-0.3,2.601-0.7,5.301-1.3,7.9c-0.5,2.6-1.2,5.2-1.8,7.7
		c-0.7,2.5-1.4,5.101-2.2,7.601c-0.8,2.5-1.6,5-2.5,7.5c-1.8,4.899-3.6,9.799-5.8,14.6l0,0c-0.5,1.199-1.9,1.699-3.1,1.199
		c-0.6-0.299-1.1-0.799-1.3-1.399l0,0l-14.6-41.7l-7.2-20.9c-2.4-7-4.8-13.899-7.1-21l0,0c-0.4-1.2,0.2-2.6,1.4-3
		c0.3-0.1,0.5-0.1,0.8-0.1h11.7l0,0l-2.3,2.3v-8l0,0l2.3,2.3c-8.7-0.2-17.3-0.2-26-0.2c-4.3,0-8.7-0.1-13,0c-4.3,0.1-8.7,0-13,0.2
		l0,0l2.3-2.3c0.3,1.3,0.4,2.6,0.4,3.8c0,1.3-0.1,2.6-0.4,3.8l0,0l-2.3-2.3c2,0.8,3.9,0.8,5.9,0.8c2-0.1,3.9-0.2,5.9-0.8l0,0
		c1,0,1.8,0.6,2.1,1.4l11.7,27c0.2,0.6,0.2,1.2,0.1,1.7l-18.4,51.601l0,0c-0.4,1.199-1.8,1.899-3,1.399c-0.7-0.2-1.2-0.8-1.4-1.399
		V170.2c-4.8-13-9.4-26.101-14.1-39.2l-6.9-19.6c-2.3-6.5-4.6-13.1-6.8-19.7l0,0c-0.5-1.1,0-2.4,1-2.9c0.2-0.1,0.5-0.2,0.7-0.2h0.5
		c2.1-0.2,4.2-0.3,6.3-0.3c2.1,0,4.2-0.2,6.2,0.3l0,0l-2.3,2.3c-0.3-1.3-0.4-2.6-0.4-3.8c0-1.3,0.1-2.6,0.4-3.8l0,0l2.3,2.3
		c-5-0.1-10-0.2-15-0.2h-7.5h-3.8c-1.3,0-2.5-0.1-3.8,0.2c-1.3,0.4-2.7-0.4-3-1.7c-0.3-1.3,0.4-2.7,1.7-3
		C-2006.7,81.4-2006.2,81.4-2005.8,81.5z"/>
	<path display="inline" opacity="0.1" enable-background="new    " d="M-1859.6,98.5c0,0.1,0.1,0.1,0,1.7c-0.1,0.8-0.2,1.2-0.3,1.8
		s-0.3,1.2-0.5,2c-0.7,2.9-1.9,6.9-3.3,11.7c-2.9,9.6-7,22.2-11.2,34.8c-4.3,12.6-8.6,25.2-11.8,34.6c-3.3,9.4-5.5,15.7-5.5,15.7
		l-4.4-1.5c0,0,8.4-25.2,16.9-50.399c4.2-12.601,8.4-25.2,11.4-34.7c1.5-4.7,2.7-8.7,3.4-11.4c0.2-0.7,0.4-1.3,0.5-1.8s0.2-1,0.2-1
		c0.2,0,0.1-0.8,0.1-0.7L-1859.6,98.5z"/>
	<path display="inline" opacity="0.8" enable-background="new    " d="M-532.7,199c0,0-1.6,1.1-4.6,3.2c-1.5,1-3.7,2.2-6.1,3.6
		c-1.2,0.7-2.6,1.3-4,2s-2.9,1.4-4.6,2c-6.6,2.7-15,5.101-24.9,5.9c-1.2,0.1-2.5,0.1-3.8,0.2c-0.6,0-1.3,0.1-1.9,0.1h-1h-1.1
		c-2.5-0.1-5.1-0.2-7.8-0.4c-2.8-0.399-5.7-0.8-8.7-1.3c-2.8-0.7-5.8-1.399-8.7-2.3c-11.7-3.7-23.5-10.4-33.6-20.1
		c-1.4-1.101-2.4-2.5-3.7-3.801c-1.2-1.3-2.5-2.6-3.5-4c-2.1-2.899-4.5-5.699-6.2-8.899c-4-6.2-6.9-13.2-9.2-20.5
		c-0.9-3.7-2-7.4-2.5-11.3c-0.7-3.801-0.8-7.7-1-11.7V131v-0.4V130.4c0-0.101,0,0.1,0-0.4l0.1-1.4l0.1-2.8
		c0.2-1.899,0.1-3.7,0.5-5.8c0.3-2,0.6-4,0.9-6s0.9-3.9,1.4-5.9l0.8-2.9c0.3-1,0.7-1.9,1-2.9l2.1-5.7c1.8-3.6,3.4-7.4,5.6-10.8
		c2-3.6,4.5-6.7,7-10c1.3-1.6,2.7-3,4.1-4.5c1.3-1.6,2.8-2.9,4.4-4.3c1.5-1.3,2.9-2.8,4.6-4l4.9-3.7c1.7-1.2,3.5-2.1,5.2-3.2
		c0.9-0.5,1.7-1.1,2.6-1.6l2.7-1.3c7.2-3.7,15.1-6.1,22.9-7.5c2-0.3,4-0.6,5.9-0.9c2-0.2,4-0.2,6-0.3l3-0.1h0.2h0.4h0.4h0.7l1.4,0.1
		c1.9,0.1,3.8,0.2,5.7,0.3c2,0.3,4,0.6,5.9,0.9l3,0.5l2.8,0.7c1.9,0.5,3.8,0.9,5.6,1.5c1.8,0.7,3.6,1.3,5.4,2
		c1.8,0.6,3.5,1.4,5.2,2.3c1.7,0.9,3.4,1.6,5,2.5c3.2,2,6.5,3.8,9.3,6.1c6,4.2,10.9,9.6,15.4,14.9c8.6,11,14,23.3,16.7,35.1
		c0.4,1.5,0.6,2.9,0.8,4.4c0.2,1.5,0.4,2.899,0.6,4.3c0.3,1.4,0.3,2.9,0.4,4.3c0.1,1.4,0.1,2.8,0.2,4.2c0,0.7,0.1,1.3,0.1,2.2
		c0,0.7-0.1,1.3-0.1,2c-0.1,1.3-0.1,2.6-0.2,3.8c0,1.2-0.2,2.5-0.4,3.8s-0.3,2.5-0.5,3.8c-1.6,9.801-4.6,17.801-7.6,24.301
		c-3.2,6.3-6.2,11-8.5,14.1c-2.3,3-3.5,4.6-3.5,4.6c-1.2,1.5-3.4,1.801-4.9,0.701c-1.5-1.201-1.8-3.4-0.7-4.9c0-0.1,0.1-0.1,0.1-0.2
		l0.2-0.2c0,0,1.2-1.4,3.5-4.1c2.2-2.7,5.3-6.9,8.4-12.7c3-5.8,5.9-13.399,7.4-22.399c0.2-1.101,0.3-2.201,0.5-3.4
		c0.2-1.1,0.3-2.301,0.4-3.6c0.1-1.301,0.1-2.5,0.2-3.801c0-0.6,0.1-1.3,0.1-2c0-0.4-0.1-1.199-0.1-1.8
		c-0.1-1.3-0.1-2.601-0.2-3.899c-0.1-1.301-0.1-2.701-0.4-4c-0.2-1.301-0.4-2.701-0.6-4c-0.2-1.4-0.4-2.701-0.8-4.101
		c-2.6-11-8-22.2-16.2-32.2c-4.3-4.8-8.9-9.5-14.5-13.4c-2.6-2.1-5.7-3.7-8.6-5.5c-1.5-0.8-3.1-1.5-4.6-2.3c-1.6-0.8-3.1-1.5-4.8-2
		c-1.6-0.6-3.3-1.2-4.9-1.8c-1.7-0.5-3.4-0.9-5.1-1.3l-2.6-0.7l-2.6-0.4c-1.7-0.3-3.5-0.5-5.2-0.8c-1.9-0.1-3.8-0.2-5.7-0.3
		l-1.4-0.1h-0.7h-0.4c0,0-0.3,0,0,0h-0.2l-2.7,0.1c-1.8,0.1-3.6,0.1-5.5,0.3l-5.4,0.8c-7.2,1.4-14.3,3.5-20.9,6.9l-2.5,1.2
		c-0.8,0.4-1.6,1-2.4,1.4c-1.6,1-3.2,1.9-4.7,2.9l-4.5,3.3c-1.5,1-2.8,2.5-4.2,3.7c-1.4,1.2-2.8,2.5-4,3.9c-1.2,1.4-2.5,2.7-3.7,4.1
		c-2.2,3-4.6,5.9-6.4,9.1c-2.1,3.1-3.5,6.5-5.1,9.8l-1.9,5.2c-0.3,0.9-0.7,1.7-0.9,2.6l-0.7,2.7c-0.4,1.8-1,3.5-1.3,5.3
		c-0.3,1.8-0.5,3.5-0.8,5.3c-0.4,1.7-0.3,3.7-0.4,5.6l-0.1,2.801l-0.1,1.4c0-0.301,0,0,0,0v0.199v0.301v0.699
		c0.2,3.6,0.3,7.2,0.9,10.7c0.4,3.5,1.4,6.899,2.2,10.3c2.1,6.6,4.7,13,8.4,18.7c1.6,3,3.8,5.5,5.7,8.2c1,1.3,2.2,2.5,3.2,3.699
		c1.1,1.2,2.1,2.5,3.3,3.5c9.3,8.9,20,15,30.6,18.4c2.7,0.8,5.3,1.4,7.9,2.1c2.6,0.4,5.1,0.801,7.6,1.2c2.6,0.2,5.2,0.3,7.8,0.4h0.8
		h0.9c0.6,0,1.2,0,1.8-0.101c1.2,0,2.3-0.1,3.5-0.1c9.1-0.7,16.8-2.9,22.8-5.3c1.5-0.5,2.9-1.2,4.2-1.8c1.3-0.601,2.6-1.2,3.7-1.801
		c2.2-1.3,4-2.199,5.5-3.199c3-2.101,4.6-3.2,4.6-3.2c1.6-1.101,3.8-0.7,4.9,0.899C-530.7,195.8-531.2,197.9-532.7,199z"/>
	<path display="inline" opacity="0.8" enable-background="new    " d="M-610.5,207.8c0.7-3,2-5.8,3.1-8.7l3.3-8.6l6.7-17.2l6.6-17.2
		l6.5-17.3c0.5-1.2,1.8-1.8,3-1.399c0.6,0.199,1.1,0.699,1.3,1.3v0.1c2.3,5.601,4.5,11.3,6.6,17c2.2,5.7,4.3,11.3,6.4,17
		c4.2,11.4,8.5,22.7,11.8,34.4c0.4,1.2-0.4,2.5-1.6,2.899c-1.1,0.301-2.3-0.3-2.8-1.3c-4.9-11.1-8.9-22.6-13-34
		c-2.1-5.7-4-11.399-6-17.2c-2-5.699-3.9-11.5-5.8-17.3h4.4l-6.6,17.3l-6.5,17.301l-6.4,17.3l-3.2,8.7c-1.1,2.899-2,5.8-3.5,8.6
		c-0.6,1.2-2,1.6-3.2,1C-610.3,209.9-610.7,208.8-610.5,207.8z"/>
	<path display="inline" opacity="0.8" enable-background="new    " d="M-656.5,101.6c0,0,0.8,1.5,1.8,4.2c1,2.8,2.5,6.7,4.2,11.4
		s3.7,10.3,5.9,16.2c2.2,5.899,4.5,12.199,6.8,18.5c2.3,6.3,4.6,12.6,6.8,18.5c1.1,3,2.2,5.8,3.3,8.5c1.1,2.699,2.2,5.199,3.2,7.5
		c1,2.3,1.8,4.5,2.6,6.399c0.7,1.9,1.3,3.601,1.7,5c0.8,2.8,1.1,4.5,1.1,4.5c0.2,1.3-0.7,2.5-2,2.7c-1,0.1-1.9-0.3-2.4-1.1
		c0,0-0.9-1.5-2.1-4.101c-0.6-1.3-1.3-3-2-4.899c-0.7-1.9-1.5-4.101-2.2-6.5c-0.8-2.4-1.6-5-2.5-7.801c-0.9-2.8-1.9-5.6-3-8.6
		c-2.2-5.9-4.6-12.2-6.9-18.5c-2.4-6.301-4.7-12.6-7-18.5c-2.2-5.9-4.3-11.4-6.1-16.1c-1.8-4.7-3.3-8.7-4.3-11.4
		c-1-2.8-1.4-4.4-1.4-4.4c-0.3-1.3,0.6-2.5,1.8-2.8C-658.1,100.2-657,100.8-656.5,101.6z"/>
	<path display="inline" opacity="0.8" enable-background="new    " d="M-651.7,81.5c1.3,0.4,2.5,0.2,3.8,0.2h3.8h7.5
		c5,0,10-0.1,15-0.2c1.3,0,2.3,1,2.3,2.2l0,0v0.1l0,0c0.3,1.3,0.4,2.6,0.4,3.8c0,1.3-0.1,2.6-0.4,3.8l-0.2,1c-0.2,1-1.2,1.6-2.1,1.3
		l0,0l0,0c-2.1,0.6-4.2,0.3-6.2,0.3c-2.1,0-4.2-0.1-6.3-0.3l2.2-3.1l0,0c2.4,6.5,4.8,13,7.1,19.6l7,19.6
		c4.6,13.101,9.2,26.2,13.7,39.3h-4.4l0,0l18.4-51.6l0.1,1.7l-11.7-27l2.1,1.4l0,0c-2-0.5-3.9-0.7-5.9-0.8c-2-0.1-3.9,0-5.9,0.8
		c-0.7,0.3-1.4-0.1-1.7-0.7l-0.6-1.6l0,0c-0.3-1.3-0.4-2.6-0.4-3.8c0-1.3,0.1-2.6,0.4-3.8l0.3-1.1c0.2-0.9,1.1-1.5,2.1-1.3l0,0l0,0
		c4.3,0.2,8.7,0.2,13,0.2c4.3,0.1,8.7,0,13,0c8.7,0,17.3-0.1,26-0.2c1.3,0,2.3,1,2.3,2.3l0,0v0.1l0,0v8c0,1.3-1,2.3-2.3,2.3l0,0
		H-571l2.2-3.1l0,0c2.5,6.9,4.9,13.9,7.4,20.8l7.2,20.899l14.3,41.801l-4.4-0.2l0,0c2-4.601,3.9-9.5,5.6-14.3
		c0.9-2.4,1.6-4.9,2.4-7.301c0.8-2.399,1.5-4.899,2.1-7.399s1.3-4.9,1.7-7.4c0.5-2.5,0.9-5,1.2-7.5l0.3-3.7V122.9
		c0-1.2-0.2-2.4-0.3-3.601c0-0.399-0.2-1.2-0.3-1.8c-0.1-0.7-0.3-1.1-0.4-1.7c-1.3-4.6-3.7-9-6.4-13.3c-2.7-4.3-5.8-8.5-8.1-13.7
		c-1.1-2.6-2-5.6-1.6-8.8c0.3-3.2,2-6,3.9-8.2c0.5-0.5,1-1,1.5-1.5l0,0l0.3-0.2l0.1-0.1l0.2-0.1l0.4-0.3l0.8-0.6
		c0.5-0.4,1-0.8,1.6-1.2l2.1-1.1c0.7-0.4,1.5-0.6,2.2-0.8c0.7-0.3,1.5-0.4,2.4-0.4c0.8-0.1,1.7,0,2.6,0.1c0.9,0.3,1.7,0.4,2.8,1.2
		c1,0.8,1.1,2.3,0.3,3.3c-0.8,1-2.3,1.1-3.3,0.3c0,0,0,0,0.1,0h-0.1c-0.1,0-0.1-0.1-0.2-0.1c-0.2,0-0.3-0.1-0.5-0.2
		c-0.4,0-0.8-0.1-1.3,0c-0.5,0-0.9,0.1-1.4,0.3c-0.5,0.2-1,0.2-1.4,0.5l-1.4,0.7c-0.5,0.3-1,0.7-1.5,1.1l-1.3,1
		c-0.4,0.4-0.8,0.8-1.2,1.2c-1.5,1.7-2.5,3.6-2.7,5.6c-0.3,2,0.3,4.2,1.2,6.3c1.9,4.3,5,8.5,7.8,12.9c2.8,4.4,5.5,9.2,7,14.601
		c0.2,0.699,0.4,1.5,0.5,2.1c0.1,0.699,0.3,1.199,0.3,2c0.1,1.4,0.3,2.8,0.3,4.1l-0.1,4.1l-0.4,4c-0.3,2.601-0.7,5.301-1.3,7.9
		c-0.5,2.6-1.2,5.2-1.8,7.7c-0.7,2.5-1.4,5.101-2.2,7.601s-1.6,5-2.5,7.5c-1.8,4.899-3.6,9.799-5.8,14.6l0,0
		c-0.5,1.199-1.9,1.699-3.1,1.199c-0.6-0.299-1.1-0.799-1.3-1.399l0,0l-14.6-41.7l-7.2-20.9c-2.4-7-4.8-13.899-7.1-21l0,0
		c-0.4-1.2,0.2-2.6,1.4-3c0.3-0.1,0.5-0.1,0.8-0.1h11.7l0,0l-2.3,2.3v-8l0,0l2.3,2.3c-8.7-0.2-17.3-0.2-26-0.2c-4.3,0-8.7-0.1-13,0
		c-4.3,0.1-8.7,0-13,0.2l0,0l2.3-2.3c0.3,1.3,0.4,2.6,0.4,3.8c0,1.3-0.1,2.6-0.4,3.8l0,0l-2.3-2.3c2,0.8,3.9,0.8,5.9,0.8
		c2-0.1,3.9-0.2,5.9-0.8l0,0c1,0,1.8,0.6,2.2,1.4l11.7,27c0.2,0.6,0.3,1.2,0.1,1.7l-18.4,51.601l0,0c-0.4,1.199-1.8,1.899-3,1.399
		c-0.7-0.2-1.2-0.8-1.4-1.399V170.2c-4.8-13-9.4-26.101-14.1-39.2l-6.9-19.6c-2.3-6.5-4.6-13.1-6.8-19.7l0,0c-0.5-1.1,0-2.4,1-2.9
		c0.2-0.1,0.5-0.2,0.7-0.2h0.5c2.1-0.2,4.2-0.3,6.3-0.3s4.2-0.2,6.2,0.3l0,0l-2.3,2.3c-0.3-1.3-0.4-2.6-0.4-3.8
		c0-1.3,0.1-2.6,0.4-3.8l0,0l2.3,2.3c-5-0.1-10-0.2-15-0.2h-7.5h-3.8c-1.3,0-2.5-0.1-3.8,0.2c-1.3,0.4-2.7-0.4-3-1.7
		c-0.3-1.3,0.4-2.7,1.7-3C-652.6,81.4-652.1,81.4-651.7,81.5z"/>
	<path display="inline" opacity="0.8" enable-background="new    " d="M-505.5,98.5c0,0.1,0.1,0.1,0,1.7c-0.1,0.8-0.2,1.2-0.3,1.8
		c-0.1,0.6-0.3,1.2-0.5,2c-0.7,2.9-1.9,6.9-3.3,11.7c-2.9,9.6-7,22.2-11.2,34.8c-4.3,12.6-8.6,25.2-11.8,34.6
		c-3.3,9.4-5.5,15.7-5.5,15.7l-4.4-1.5c0,0,8.4-25.2,16.9-50.399c4.2-12.601,8.4-25.2,11.4-34.7c1.5-4.7,2.7-8.7,3.4-11.4
		c0.2-0.7,0.4-1.3,0.5-1.8c0.1-0.5,0.2-1,0.2-1c0.2,0,0.1-0.8,0.1-0.7L-505.5,98.5z"/>
	<path display="inline" opacity="0.8" enable-background="new    " d="M-1780.6,137.7l0.3-5.3c0.1-1.801,0.5-3.601,0.7-5.5
		c0.6-3.601,1.4-7.101,2.7-10.601c0.5-1.7,1.4-3.399,2.1-5.1c0.7-1.7,1.7-3.2,2.5-4.9c1-1.5,2-3.1,3.1-4.5c1.2-1.4,2.3-2.9,3.6-4.1
		l2-1.9l2.1-1.8c1.4-1.2,3-2.2,4.5-3.2c3.2-1.8,6.6-3.5,10.3-4.4c0.9-0.3,1.8-0.5,2.8-0.6c0.9-0.2,1.9-0.4,2.8-0.4l2.9-0.2h2.7
		c4,0.2,7.7,1,11.3,2.4c3.5,1.4,6.8,3.3,9.6,4.5c0.7,0.3,1.4,0.5,2,0.7c0.3,0,0.6,0.1,0.9,0.2h0.4h0.2h0.1c-0.9,0.1-0.2,0-0.4,0l0,0
		h0.2l1.3-0.2l0.8-0.3c0.4-0.1,1.3-0.5,2.1-0.8c3.2-1.3,6.5-2.8,10-3.9c1.7-0.6,3.5-1.1,5.3-1.6c1.8-0.3,3.6-0.8,5.5-1
		c1.9-0.2,3.7-0.5,5.7-0.4h2.9c1,0.1,1.9,0.2,2.9,0.4c0.9,0.2,1.9,0.2,2.8,0.5l2.8,0.8c1.9,0.4,3.6,1.4,5.3,2.2
		c1.8,0.7,3.3,1.9,4.9,3c0.8,0.5,1.6,1,2.3,1.7l2,1.9c2.9,2.4,4.9,5.5,7.2,8.3c0.8,1,0.6,2.5-0.4,3.3c-0.2,0.1-0.4,0.3-0.6,0.3l0,0
		c-1.1,0.7-2.3,1.7-3.4,2.7s-2.1,2.1-3.1,3.2c-1,1.101-1.9,2.301-2.7,3.5c-0.8,1.2-1.5,2.5-2.2,3.801c-0.6,1.3-1.2,2.6-1.6,4.1
		c-0.5,1.4-0.9,2.8-1.2,4.2c-0.3,1.399-0.5,2.899-0.7,4.399l-0.1,2.2l-0.1,1.101v0.3v0.1c0,0.2,0-0.2,0-0.2l0,0l0,0v0.101v0.6
		l0.1,2.4c0,0.399,0,0.8,0.1,1.2l0.2,1l0.3,2c0.2,0.699,0.4,1.399,0.6,2.1c0.3,1.4,1,2.7,1.4,4.1c0.7,1.301,1.3,2.601,2.1,3.801
		c0.7,1.3,1.7,2.399,2.7,3.5c1,1.1,2,2.1,3.1,3.199c1.1,1,2.3,1.9,3.6,2.801c1.2,0.8,2.6,1.699,3.8,2.199l0.4,0.2
		c1,0.5,1.5,1.7,1.1,2.8l0,0c-1.2,3.801-2.5,7.4-4,10.9c-1.5,3.6-3.2,7.1-5,10.5c-1.8,3.4-4,6.8-6.4,9.9
		c-2.4,3.199-5.2,6.199-8.5,8.699c-3.3,2.5-7.5,4.5-12,4.9l-0.9,0.1h-0.4h-0.2h-0.1h-0.1h-0.3l-1.4-0.1c-1-0.1-1.9-0.1-2.9-0.2
		l-3.3-0.6c-1.1-0.2-2-0.601-3-0.8c-3.9-1.2-7.4-3-10.5-3.801c-0.8-0.199-1.6-0.399-2.3-0.399l-1.1-0.101h-0.3h-0.1l0,0
		c0.6,0,0.1,0,0.2,0h-0.1l-0.7,0.101l-1.4,0.1l-0.7,0.101l-0.6,0.1l-2.3,0.5c-3.4,1-7,2.3-10.8,3.4c-3.8,1.1-7.9,1.8-12.2,1.899l0,0
		h-0.4h-0.1h-0.2h-0.4l-0.7-0.1c-0.2,0-0.4,0-0.7-0.101l-1-0.3c-0.6-0.2-1.3-0.399-1.9-0.6c-0.6-0.2-1-0.5-1.5-0.7l-1.5-0.7
		l-1.3-0.8c-0.9-0.5-1.8-1.1-2.6-1.7c-3.3-2.399-6.2-5.2-8.9-8.1l-2-2.2l-1.8-2.3c-1.3-1.5-2.3-3.2-3.4-4.8
		c-1.1-1.601-2.1-3.301-3.1-5l-2.8-5.2c-0.8-1.8-1.7-3.5-2.4-5.3c-0.7-1.801-1.4-3.601-2.1-5.5l-1.8-5.601l-1.4-5.7
		c-0.3-1.3,0.5-2.6,1.7-2.899c1.2-0.3,2.4,0.399,2.8,1.6v0.2l1.7,5.3l1.9,5.2c0.7,1.7,1.5,3.4,2.2,5l2.5,4.9l2.8,4.8
		c1,1.5,2,3.1,3.1,4.6c2.2,2.9,4.4,5.8,6.9,8.4c2.5,2.6,5.1,5.1,7.9,7.1c0.7,0.5,1.4,1,2.1,1.4l1.1,0.7l1.1,0.5
		c0.4,0.199,0.7,0.399,1.1,0.5c0.3,0.1,0.5,0.199,0.8,0.3l0.4,0.2c0.2,0.1,0.4,0.1,0.7,0.1l0.7,0.1h0.4h0.2h0.1c-0.2,0,0.4,0-0.3,0
		l0,0c3.4-0.1,6.8-0.699,10.2-1.699c3.5-1,7-2.2,10.9-3.301c1-0.3,2.2-0.5,3.3-0.699c0.6-0.101,1.1-0.2,1.5-0.2l1.4-0.101l0.7-0.1
		h0.1h0.3h0.1h0.2h0.4l1.7,0.2c1.2,0.1,2.2,0.399,3.3,0.6c4.2,1.2,7.5,2.9,10.8,4c1.7,0.601,3.2,0.9,4.7,1.2
		c0.9,0.1,1.9,0.1,2.8,0.2l1.4,0.1c0.2,0-0.2,0-0.2,0l0,0h0.1h0.1h0.3h0.6c3-0.2,6.1-1.5,8.8-3.5c2.8-2,5.3-4.5,7.5-7.3
		c2.3-2.8,4.3-5.9,6.2-9c1.9-3.2,3.6-6.4,5.2-9.8c1.6-3.4,3.1-6.8,4.3-10.2l0,0l1.5,3c-1.8-0.6-3.4-1.3-4.9-2.1
		c-1.6-0.801-3-1.801-4.5-2.801l-2.1-1.6c-0.7-0.6-1.3-1.2-1.9-1.801c-1.2-1.299-2.5-2.6-3.5-4.1c-1.1-1.4-2-3-2.9-4.6
		c-0.7-1.6-1.6-3.301-2-5c-0.3-0.9-0.5-1.7-0.8-2.6l-0.5-2.801c-0.4-2-0.3-3.4-0.5-5.1v-0.6V137v-0.2v-0.3l0.1-1.301l0.1-2.6
		c0.2-1.8,0.4-3.5,0.8-5.3c0.4-1.7,0.9-3.5,1.5-5.101c0.6-1.699,1.4-3.299,2.3-4.899s1.9-3.101,3-4.5s2.3-2.7,3.6-3.9
		s2.7-2.3,4.2-3.3s3-1.8,4.8-2.5l0,0l-0.9,3.6c-2.4-2.4-4.4-5.1-7.1-7.1l-1.9-1.6c-0.6-0.5-1.4-0.9-2-1.3c-1.4-0.8-2.7-1.8-4.2-2.3
		c-1.5-0.6-2.9-1.4-4.5-1.7l-2.3-0.6c-0.8-0.2-1.6-0.2-2.4-0.3l-2.4-0.3h-2.4c-1.6-0.1-3.2,0.2-4.8,0.4c-1.6,0.2-3.2,0.6-4.8,0.9
		c-1.6,0.5-3.2,0.9-4.8,1.5c-3.2,1.1-6.3,2.4-9.6,3.7c-0.9,0.3-1.6,0.7-2.8,1l-1.7,0.5l-1.3,0.2h-0.2l0,0h-0.5h-0.1h-0.5l-0.9-0.1
		c-0.6-0.1-1.1-0.2-1.7-0.3c-1.1-0.3-2.1-0.7-3-1.1c-3.6-1.7-6.3-3.6-9.3-4.9c-2.9-1.3-6.1-2.2-9.1-2.4l-2.6-0.1l-2.4,0.1
		c-0.8,0-1.6,0.2-2.4,0.3c-0.8,0.1-1.6,0.2-2.4,0.4c-3.2,0.7-6.2,2.1-9.1,3.6c-1.4,0.9-2.9,1.7-4.1,2.8l-2,1.5l-1.8,1.7
		c-1.3,1.1-2.2,2.5-3.3,3.7c-1,1.3-1.9,2.7-2.9,4.1c-0.8,1.5-1.7,2.9-2.4,4.4c-0.6,1.6-1.4,3.1-1.9,4.699
		c-1.1,3.2-1.9,6.5-2.3,9.801c-0.1,1.699-0.4,3.299-0.5,5l-0.1,5.299c0,1.301-1.1,2.4-2.4,2.301
		C-1779.6,140.2-1780.6,139.1-1780.6,137.7C-1780.6,137.8-1780.6,137.7-1780.6,137.7z"/>
	<path display="inline" opacity="0.8" enable-background="new    " d="M-1713.6,83c-0.2-1.1-0.4-2.4-0.5-3.5s-0.1-2.3-0.1-3.4
		c0-1.2,0.2-2.3,0.3-3.4c0.1-1.2,0.4-2.3,0.6-3.4c0.3-1.1,0.6-2.3,1-3.4l1.4-3.3c0.5-1.1,1.2-2.1,1.8-3.1c0.6-1,1.4-1.9,2.2-2.9
		c0.7-1,1.6-1.8,2.5-2.6s1.7-1.7,2.8-2.3c1-0.7,2-1.3,3-2c1.1-0.5,2.1-1,3.2-1.5l1.6-0.7l1.7-0.5l3.3-0.9c1.1-0.3,2.3-0.3,3.4-0.5
		c1.1-0.1,2.2-0.2,3.4-0.3h0.3c1.2-0.1,2.3,0.9,2.4,2.1c0.1,1.3,0.1,2.4,0.1,3.5s-0.1,2.3-0.2,3.4c-0.1,1.1-0.3,2.2-0.5,3.3
		c-0.2,1.1-0.5,2.2-0.8,3.3l-1.1,3.2l-1.4,3.1l-1.8,2.9c-0.6,1-1.4,1.8-2.1,2.7c-0.7,0.9-1.6,1.7-2.4,2.5c-0.8,0.8-1.7,1.6-2.6,2.2
		l-2.8,2l-3,1.6l-1.5,0.8l-1.6,0.6l-3.2,1.1c-1.1,0.4-2.2,0.5-3.2,0.8l-3.2,0.7c-1.2,0.3-2.4-0.5-2.7-1.7l0,0L-1713.6,83z
		 M-1708.7,79.8c1-0.2,1.9-0.4,2.9-0.7l2.8-1l1.4-0.5l1.3-0.7l2.6-1.4l2.4-1.7c0.8-0.5,1.5-1.2,2.2-1.9c0.7-0.7,1.5-1.3,2-2.1
		c0.6-0.8,1.3-1.5,1.8-2.3l1.5-2.5l1.2-2.6l1-2.8l0.7-2.9c0.1-1,0.4-1.9,0.5-2.9s0.2-2,0.2-3s0-2-0.1-2.8l2.7,2.1
		c-1,0.4-1.9,0.7-2.9,1c-0.9,0.3-1.9,0.5-2.8,0.9l-2.7,1.2l-1.4,0.5l-1.2,0.7c-0.8,0.5-1.7,0.9-2.5,1.4c-0.7,0.6-1.5,1.1-2.2,1.7
		c-0.8,0.5-1.4,1.2-2.1,1.8c-0.7,0.6-1.4,1.3-1.9,2c-0.6,0.7-1.2,1.4-1.7,2.2s-1,1.6-1.5,2.4l-1.3,2.5l-1,2.7
		c-0.6,1.8-1.1,3.7-1.5,5.6C-1708.4,77.7-1708.5,78.7-1708.7,79.8C-1708.6,79.7-1708.6,79.7-1708.7,79.8z"/>
	<g>
		<path display="inline" opacity="0.1" enable-background="new    " d="M-1209.8,199c0,0-1.6,1.1-4.6,3.2c-1.5,1-3.7,2.2-6.1,3.6
			c-1.2,0.7-2.6,1.3-4,2s-2.9,1.4-4.6,2c-6.6,2.7-15,5.101-24.9,5.9c-1.2,0.1-2.5,0.1-3.8,0.2c-0.6,0-1.3,0.1-1.9,0.1h-1h-1.1
			c-2.5-0.1-5.1-0.2-7.8-0.4c-2.8-0.399-5.7-0.8-8.7-1.3c-2.8-0.7-5.8-1.399-8.7-2.3c-11.7-3.7-23.5-10.4-33.6-20.1
			c-1.4-1.101-2.4-2.5-3.7-3.801c-1.2-1.3-2.5-2.6-3.5-4c-2.1-2.899-4.5-5.699-6.2-8.899c-4-6.2-6.9-13.2-9.2-20.5
			c-0.9-3.7-2-7.4-2.5-11.3c-0.7-3.801-0.8-7.7-1-11.7V131v-0.4V130.4c0-0.101,0,0.1,0-0.4l0.1-1.4l0.1-2.8
			c0.2-1.899,0.1-3.7,0.5-5.8c0.3-2,0.6-4,0.9-6c0.3-2,0.9-3.9,1.4-5.9l0.8-2.9c0.3-1,0.7-1.9,1-2.9l2.1-5.7
			c1.8-3.6,3.4-7.4,5.6-10.8c2-3.6,4.5-6.7,7-10c1.3-1.6,2.7-3,4.1-4.5c1.3-1.6,2.8-2.9,4.4-4.3c1.5-1.3,2.9-2.8,4.6-4l4.9-3.7
			c1.7-1.2,3.5-2.1,5.2-3.2c0.9-0.5,1.7-1.1,2.6-1.6l2.7-1.3c7.2-3.7,15.1-6.1,22.9-7.5c2-0.3,4-0.6,5.9-0.9c2-0.2,4-0.2,6-0.3
			l3-0.1h0.2h0.4h0.4h0.7l1.4,0.1c1.9,0.1,3.8,0.2,5.7,0.3c2,0.3,4,0.6,5.9,0.9l3,0.5l2.8,0.7c1.9,0.5,3.8,0.9,5.6,1.5
			c1.8,0.7,3.6,1.3,5.4,2c1.8,0.6,3.5,1.4,5.2,2.3c1.7,0.9,3.4,1.6,5,2.5c3.2,2,6.5,3.8,9.3,6.1c6,4.2,10.9,9.6,15.4,14.9
			c8.6,11,14,23.3,16.7,35.1c0.4,1.5,0.6,2.9,0.8,4.4s0.4,2.899,0.6,4.3c0.3,1.4,0.3,2.9,0.4,4.3c0.1,1.4,0.1,2.8,0.2,4.2
			c0,0.7,0.1,1.3,0.1,2.2c0,0.7-0.1,1.3-0.1,2c-0.1,1.3-0.1,2.6-0.2,3.8c0,1.2-0.2,2.5-0.4,3.8c-0.2,1.3-0.3,2.5-0.5,3.8
			c-1.6,9.801-4.6,17.801-7.6,24.301c-3.2,6.3-6.2,11-8.5,14.1c-2.3,3-3.5,4.6-3.5,4.6c-1.2,1.5-3.4,1.801-4.9,0.701
			c-1.5-1.201-1.8-3.4-0.7-4.9c0-0.1,0.1-0.1,0.1-0.2l0.2-0.2c0,0,1.2-1.4,3.5-4.1c2.2-2.7,5.3-6.9,8.4-12.7
			c3-5.8,5.9-13.399,7.4-22.399c0.2-1.101,0.3-2.201,0.5-3.4c0.2-1.1,0.3-2.301,0.4-3.6c0.1-1.301,0.1-2.5,0.2-3.801
			c0-0.6,0.1-1.3,0.1-2c0-0.4-0.1-1.199-0.1-1.8c-0.1-1.3-0.1-2.601-0.2-3.899c-0.1-1.301-0.1-2.701-0.4-4
			c-0.2-1.301-0.4-2.701-0.6-4c-0.2-1.4-0.4-2.701-0.8-4.101c-2.6-11-8-22.2-16.2-32.2c-4.3-4.8-8.9-9.5-14.5-13.4
			c-2.6-2.1-5.7-3.7-8.6-5.5c-1.5-0.8-3.1-1.5-4.6-2.3c-1.6-0.8-3.1-1.5-4.8-2c-1.6-0.6-3.3-1.2-4.9-1.8c-1.7-0.5-3.4-0.9-5.1-1.3
			l-2.6-0.7l-2.6-0.4c-1.7-0.3-3.5-0.5-5.2-0.8c-1.9-0.1-3.8-0.2-5.7-0.3l-1.4-0.1h-0.7h-0.4c0,0-0.3,0,0,0h-0.2l-2.7,0.1
			c-1.8,0.1-3.6,0.1-5.5,0.3l-5.4,0.8c-7.2,1.4-14.3,3.5-20.9,6.9l-2.5,1.2c-0.8,0.4-1.6,1-2.4,1.4c-1.6,1-3.2,1.9-4.7,2.9l-4.5,3.3
			c-1.5,1-2.8,2.5-4.2,3.7c-1.4,1.2-2.8,2.5-4,3.9c-1.2,1.4-2.5,2.7-3.7,4.1c-2.2,3-4.6,5.9-6.4,9.1c-2.1,3.1-3.5,6.5-5.1,9.8
			l-1.9,5.2c-0.3,0.9-0.7,1.7-0.9,2.6l-0.7,2.7c-0.4,1.8-1,3.5-1.3,5.3c-0.3,1.8-0.5,3.5-0.8,5.3c-0.4,1.7-0.3,3.7-0.4,5.6
			l-0.1,2.801l-0.1,1.4c0-0.301,0,0,0,0v0.199v0.301v0.699c0.2,3.6,0.3,7.2,0.9,10.7c0.4,3.5,1.4,6.899,2.2,10.3
			c2.1,6.6,4.7,13,8.4,18.7c1.6,3,3.8,5.5,5.7,8.2c1,1.3,2.2,2.5,3.2,3.699c1.1,1.2,2.1,2.5,3.3,3.5c9.3,8.9,20,15,30.6,18.4
			c2.7,0.8,5.3,1.4,7.9,2.1c2.6,0.4,5.1,0.801,7.6,1.2c2.6,0.2,5.2,0.3,7.8,0.4h0.8h0.9c0.6,0,1.2,0,1.8-0.101
			c1.2,0,2.3-0.1,3.5-0.1c9.1-0.7,16.8-2.9,22.8-5.3c1.5-0.5,2.9-1.2,4.2-1.8c1.3-0.601,2.6-1.2,3.7-1.801
			c2.2-1.3,4-2.199,5.5-3.199c3-2.101,4.6-3.2,4.6-3.2c1.6-1.101,3.8-0.7,4.9,0.899C-1207.8,195.8-1208.2,197.9-1209.8,199z"/>
		<path display="inline" opacity="0.1" enable-background="new    " d="M-1287.6,207.8c0.7-3,2-5.8,3.1-8.7l3.3-8.6l6.7-17.2
			l6.6-17.2l6.5-17.3c0.5-1.2,1.8-1.8,3-1.399c0.6,0.199,1.1,0.699,1.3,1.3v0.1c2.3,5.601,4.5,11.3,6.6,17c2.2,5.7,4.3,11.3,6.4,17
			c4.2,11.4,8.5,22.7,11.8,34.4c0.4,1.2-0.4,2.5-1.6,2.899c-1.1,0.301-2.3-0.3-2.8-1.3c-4.9-11.1-8.9-22.6-13-34
			c-2.1-5.7-4-11.399-6-17.2c-2-5.699-3.9-11.5-5.8-17.3h4.4l-6.6,17.3l-6.5,17.301l-6.4,17.3l-3.2,8.7c-1.1,2.899-2,5.8-3.5,8.6
			c-0.6,1.2-2,1.6-3.2,1C-1287.3,209.9-1287.8,208.8-1287.6,207.8z"/>
		<path display="inline" opacity="0.1" enable-background="new    " d="M-1333.6,101.6c0,0,0.8,1.5,1.8,4.2c1,2.8,2.5,6.7,4.2,11.4
			c1.7,4.7,3.7,10.3,5.9,16.2c2.2,5.899,4.5,12.199,6.8,18.5c2.3,6.3,4.6,12.6,6.8,18.5c1.1,3,2.2,5.8,3.3,8.5
			c1.1,2.699,2.2,5.199,3.2,7.5c1,2.3,1.8,4.5,2.6,6.399c0.7,1.9,1.3,3.601,1.7,5c0.8,2.8,1.1,4.5,1.1,4.5c0.2,1.3-0.7,2.5-2,2.7
			c-1,0.1-1.9-0.3-2.4-1.1c0,0-0.9-1.5-2.1-4.101c-0.6-1.3-1.3-3-2-4.899c-0.7-1.9-1.5-4.101-2.2-6.5c-0.8-2.4-1.6-5-2.5-7.801
			c-0.9-2.8-1.9-5.6-3-8.6c-2.2-5.9-4.6-12.2-6.9-18.5c-2.4-6.301-4.7-12.6-7-18.5c-2.2-5.9-4.3-11.4-6.1-16.1
			c-1.8-4.7-3.3-8.7-4.3-11.4c-1-2.8-1.4-4.4-1.4-4.4c-0.3-1.3,0.6-2.5,1.8-2.8C-1335.1,100.2-1334.1,100.8-1333.6,101.6z"/>
		<path display="inline" opacity="0.1" enable-background="new    " d="M-1328.7,81.5c1.3,0.4,2.5,0.2,3.8,0.2h3.8h7.5
			c5,0,10-0.1,15-0.2c1.3,0,2.3,1,2.3,2.2l0,0v0.1l0,0c0.3,1.3,0.4,2.6,0.4,3.8c0,1.3-0.1,2.6-0.4,3.8l-0.2,1
			c-0.2,1-1.2,1.6-2.1,1.3l0,0l0,0c-2.1,0.6-4.2,0.3-6.2,0.3c-2.1,0-4.2-0.1-6.3-0.3l2.2-3.1l0,0c2.4,6.5,4.8,13,7.1,19.6l7,19.6
			c4.6,13.101,9.2,26.2,13.7,39.3h-4.4l0,0l18.4-51.6l0.1,1.7l-11.7-27l2.1,1.4l0,0c-2-0.5-3.9-0.7-5.9-0.8c-2-0.1-3.9,0-5.9,0.8
			c-0.7,0.3-1.4-0.1-1.7-0.7l-0.6-1.6l0,0c-0.3-1.3-0.4-2.6-0.4-3.8c0-1.3,0.1-2.6,0.4-3.8l0.3-1.1c0.2-0.9,1.1-1.5,2.1-1.3l0,0l0,0
			c4.3,0.2,8.7,0.2,13,0.2c4.3,0.1,8.7,0,13,0c8.7,0,17.3-0.1,26-0.2c1.3,0,2.3,1,2.3,2.3l0,0v0.1l0,0v8c0,1.3-1,2.3-2.3,2.3l0,0
			h-11.7l2.2-3.1l0,0c2.5,6.9,4.9,13.9,7.4,20.8l7.2,20.899l14.3,41.801l-4.4-0.2l0,0c2-4.601,3.9-9.5,5.6-14.3
			c0.9-2.4,1.6-4.9,2.4-7.301c0.8-2.399,1.5-4.899,2.1-7.399s1.3-4.9,1.7-7.4c0.5-2.5,0.9-5,1.2-7.5l0.3-3.7V122.9
			c0-1.2-0.2-2.4-0.3-3.601c0-0.399-0.2-1.2-0.3-1.8c-0.1-0.7-0.3-1.1-0.4-1.7c-1.3-4.6-3.7-9-6.4-13.3c-2.7-4.3-5.8-8.5-8.1-13.7
			c-1.1-2.6-2-5.6-1.6-8.8c0.3-3.2,2-6,3.9-8.2c0.5-0.5,1-1,1.5-1.5l0,0l0.3-0.2l0.1-0.1l0.2-0.1l0.4-0.3l0.8-0.6
			c0.5-0.4,1-0.8,1.6-1.2l2.1-1.1c0.7-0.4,1.5-0.6,2.2-0.8c0.7-0.3,1.5-0.4,2.4-0.4c0.8-0.1,1.7,0,2.6,0.1c0.9,0.3,1.7,0.4,2.8,1.2
			c1,0.8,1.1,2.3,0.3,3.3c-0.8,1-2.3,1.1-3.3,0.3c0,0,0,0,0.1,0h-0.1c-0.1,0-0.1-0.1-0.2-0.1c-0.2,0-0.3-0.1-0.5-0.2
			c-0.4,0-0.8-0.1-1.3,0c-0.5,0-0.9,0.1-1.4,0.3c-0.5,0.2-1,0.2-1.4,0.5l-1.4,0.7c-0.5,0.3-1,0.7-1.5,1.1l-1.3,1
			c-0.4,0.4-0.8,0.8-1.2,1.2c-1.5,1.7-2.5,3.6-2.7,5.6c-0.3,2,0.3,4.2,1.2,6.3c1.9,4.3,5,8.5,7.8,12.9c2.8,4.4,5.5,9.2,7,14.601
			c0.2,0.699,0.4,1.5,0.5,2.1c0.1,0.699,0.3,1.199,0.3,2c0.1,1.4,0.3,2.8,0.3,4.1l-0.1,4.1l-0.4,4c-0.3,2.601-0.7,5.301-1.3,7.9
			c-0.5,2.6-1.2,5.2-1.8,7.7c-0.7,2.5-1.4,5.101-2.2,7.601c-0.8,2.5-1.6,5-2.5,7.5c-1.8,4.899-3.6,9.799-5.8,14.6l0,0
			c-0.5,1.199-1.9,1.699-3.1,1.199c-0.6-0.299-1.1-0.799-1.3-1.399l0,0l-14.6-41.7l-7.2-20.9c-2.4-7-4.8-13.899-7.1-21l0,0
			c-0.4-1.2,0.2-2.6,1.4-3c0.3-0.1,0.5-0.1,0.8-0.1h11.7l0,0l-2.3,2.3v-8l0,0l2.3,2.3c-8.7-0.2-17.3-0.2-26-0.2c-4.3,0-8.7-0.1-13,0
			c-4.3,0.1-8.7,0-13,0.2l0,0l2.3-2.3c0.3,1.3,0.4,2.6,0.4,3.8c0,1.3-0.1,2.6-0.4,3.8l0,0l-2.3-2.3c2,0.8,3.9,0.8,5.9,0.8
			c2-0.1,3.9-0.2,5.9-0.8l0,0c1,0,1.8,0.6,2.2,1.4l11.7,27c0.2,0.6,0.3,1.2,0.1,1.7l-18.4,51.601l0,0c-0.4,1.199-1.8,1.899-3,1.399
			c-0.7-0.2-1.2-0.8-1.4-1.399V170.2c-4.8-13-9.4-26.101-14.1-39.2l-6.9-19.6c-2.3-6.5-4.6-13.1-6.8-19.7l0,0c-0.5-1.1,0-2.4,1-2.9
			c0.2-0.1,0.5-0.2,0.7-0.2h0.5c2.1-0.2,4.2-0.3,6.3-0.3c2.1,0,4.2-0.2,6.2,0.3l0,0l-2.3,2.3c-0.3-1.3-0.4-2.6-0.4-3.8
			c0-1.3,0.1-2.6,0.4-3.8l0,0l2.3,2.3c-5-0.1-10-0.2-15-0.2h-7.5h-3.8c-1.3,0-2.5-0.1-3.8,0.2c-1.3,0.4-2.7-0.4-3-1.7
			c-0.3-1.3,0.4-2.7,1.7-3C-1329.6,81.4-1329.2,81.4-1328.7,81.5z"/>
		<path display="inline" opacity="0.1" enable-background="new    " d="M-1182.5,98.5c0,0.1,0.1,0.1,0,1.7c-0.1,0.8-0.2,1.2-0.3,1.8
			c-0.1,0.6-0.3,1.2-0.5,2c-0.7,2.9-1.9,6.9-3.3,11.7c-2.9,9.6-7,22.2-11.2,34.8c-4.3,12.6-8.6,25.2-11.8,34.6
			c-3.3,9.4-5.5,15.7-5.5,15.7l-4.4-1.5c0,0,8.4-25.2,16.9-50.399c4.2-12.601,8.4-25.2,11.4-34.7c1.5-4.7,2.7-8.7,3.4-11.4
			c0.2-0.7,0.4-1.3,0.5-1.8c0.1-0.5,0.2-1,0.2-1c0.2,0,0.1-0.8,0.1-0.7L-1182.5,98.5z"/>
		<g display="inline">
			<path fill="none" stroke="#000000" stroke-width="2" stroke-linecap="round" stroke-linejoin="round" stroke-miterlimit="10" d="
				M-1286.3,126.2"/>
		</g>
		<g display="inline">
			<path fill="none" stroke="#000000" stroke-width="2" stroke-linecap="round" stroke-linejoin="round" stroke-miterlimit="10" d="
				M-1275.3,107.5"/>
		</g>
	</g>
	<g display="inline">
		<path opacity="0.1" enable-background="new    " d="M-1572.1,120.7l0.3-6.601c0.1-2.199,0.6-4.6,0.9-6.8c0.8-4.5,1.8-8.9,3.3-13.3
			c0.7-2.2,1.7-4.2,2.6-6.3c0.9-2.1,2.1-4.1,3.2-6.1c1.3-1.9,2.5-3.9,3.9-5.7c1.5-1.7,2.8-3.6,4.5-5.2l2.5-2.4l2.7-2.2
			c1.7-1.6,3.7-2.7,5.6-4.1c4-2.3,8.2-4.4,12.8-5.5c1.1-0.4,2.3-0.6,3.4-0.8c1.2-0.2,2.3-0.5,3.5-0.6l3.6-0.3h3.4
			c5,0.2,9.6,1.3,14.1,3c4.4,1.7,8.5,4.1,12,5.7c0.9,0.4,1.7,0.7,2.5,0.9c0.4,0.1,0.8,0.2,1.1,0.2h0.5h0.3h0.1c-1.1,0.1-0.3,0-0.5,0
			l0,0h0.2l1.6-0.3l1-0.4c0.5-0.2,1.7-0.7,2.6-1.1c4-1.7,8.1-3.5,12.5-4.9c2.1-0.8,4.4-1.3,6.6-2c2.3-0.4,4.5-1.1,6.9-1.3
			c2.4-0.3,4.7-0.6,7.1-0.5h3.6c1.2,0.1,2.4,0.3,3.6,0.5c1.2,0.2,2.4,0.3,3.5,0.6l3.5,1c2.4,0.6,4.5,1.7,6.6,2.7
			c2.2,0.9,4.1,2.4,6.1,3.7c1,0.7,2,1.3,2.9,2.1l2.5,2.4c3.6,3,6.2,6.9,9,10.4c1,1.3,0.8,3.1-0.4,4.1c-0.2,0.2-0.5,0.3-0.7,0.4l0,0
			c-1.3,0.9-2.9,2.1-4.3,3.3c-1.4,1.3-2.7,2.6-3.9,4c-1.2,1.4-2.3,2.9-3.4,4.4c-1,1.5-1.9,3.1-2.8,4.8c-0.7,1.7-1.5,3.3-2.1,5.1
			c-0.7,1.7-1.1,3.5-1.5,5.3c-0.4,1.8-0.6,3.7-0.9,5.5l-0.1,2.8l-0.1,1.399v0.4v0.2c0,0.2,0-0.3,0-0.2l0,0l0,0v0.1v0.801l0.2,3.1
			c0,0.5,0,1,0.1,1.5l0.2,1.3l0.4,2.601c0.2,0.899,0.5,1.8,0.7,2.6c0.4,1.801,1.2,3.4,1.8,5.1c0.8,1.601,1.6,3.301,2.6,4.801
			c0.9,1.6,2.1,3,3.3,4.4c1.2,1.399,2.6,2.699,3.9,4c1.4,1.199,2.9,2.399,4.5,3.5c1.5,1,3.3,2.1,4.8,2.799l0.5,0.301
			c1.3,0.6,1.8,2.199,1.3,3.5l0,0c-1.5,4.699-3.1,9.199-5,13.699c-1.9,4.5-4,8.9-6.3,13.201c-2.3,4.299-5,8.5-8,12.399
			c-3,4-6.5,7.7-10.7,10.899c-4.2,3.101-9.3,5.7-15,6.2l-1.1,0.101h-0.5h-0.3h-0.1h-0.1h-0.3l-1.8-0.101c-1.2-0.1-2.3-0.1-3.6-0.3
			l-4.1-0.8c-1.4-0.2-2.5-0.7-3.8-1.101c-4.9-1.5-9.2-3.699-13.2-4.699c-1-0.2-2-0.601-2.9-0.5l-1.4-0.101h-0.4h-0.2l0,0
			c0.7,0,0.2,0,0.3,0h-0.1l-0.9,0.101l-1.8,0.199l-0.9,0.101l-0.7,0.2l-2.8,0.699c-4.3,1.2-8.8,2.9-13.5,4.301
			c-4.8,1.399-9.9,2.199-15.2,2.399h-0.1h-0.5h-0.1h-0.2l-0.4-0.1l-0.9-0.101c-0.3,0-0.5,0-0.9-0.1l-1.2-0.3
			c-0.8-0.2-1.6-0.5-2.4-0.8c-0.7-0.301-1.3-0.601-1.9-0.9l-1.8-0.9l-1.7-1c-1.1-0.699-2.2-1.399-3.2-2.199
			c-4.2-3-7.8-6.5-11.1-10.2l-2.5-2.8l-2.3-2.9c-1.6-1.9-2.9-4-4.3-6s-2.6-4.2-3.9-6.3l-3.5-6.5c-1-2.2-2.1-4.4-3-6.7
			s-1.8-4.5-2.6-6.8l-2.2-7l-1.7-7.101c-0.4-1.6,0.6-3.199,2.2-3.6c1.5-0.4,3.1,0.5,3.5,2l0.1,0.2l2.1,6.6l2.4,6.5
			c0.9,2.101,1.9,4.2,2.8,6.3l3.1,6.101l3.5,6c1.3,1.899,2.5,3.899,3.8,5.7c2.7,3.699,5.5,7.3,8.7,10.5c3.1,3.3,6.4,6.399,9.9,8.899
			c0.9,0.7,1.8,1.2,2.7,1.8l1.4,0.801l1.4,0.6c0.4,0.2,0.9,0.5,1.3,0.6c0.3,0.101,0.7,0.2,1,0.301l0.5,0.199
			c0.2,0.101,0.6,0.101,0.8,0.101l0.9,0.1l0.4,0.101h0.2h0.1c-0.2,0,0.5,0-0.4,0h0.1c4.2-0.2,8.5-0.9,12.8-2.2
			c4.4-1.2,8.8-2.8,13.7-4.2c1.3-0.3,2.7-0.6,4.1-0.9c0.7-0.199,1.4-0.299,1.9-0.299l1.8-0.201l0.9-0.1h0.1h0.4h0.1h0.3h0.5l2.1,0.2
			c1.5,0.101,2.7,0.5,4.1,0.8c5.3,1.5,9.4,3.7,13.6,5c2.1,0.801,4,1.1,5.9,1.5c1.1,0.1,2.3,0.2,3.5,0.301l1.8,0.1c0.3,0-0.3,0-0.2,0
			l0,0h0.1h0.2h0.4h0.7c3.8-0.2,7.6-1.9,11-4.301c3.4-2.5,6.6-5.6,9.4-9.199c2.8-3.5,5.4-7.301,7.7-11.301c2.4-4,4.5-8.1,6.5-12.299
			c2-4.201,3.8-8.5,5.4-12.801l0,0l1.8,3.7c-2.3-0.8-4.2-1.601-6.2-2.7c-1.9-1-3.8-2.199-5.6-3.5l-2.6-2c-0.8-0.699-1.6-1.5-2.4-2.3
			c-1.5-1.601-3.1-3.2-4.4-5.101c-1.4-1.8-2.5-3.8-3.6-5.699c-0.9-2.101-2-4.101-2.6-6.301c-0.3-1.1-0.7-2.199-1-3.3l-0.6-3.5
			c-0.5-2.5-0.4-4.2-0.6-6.399V119.6V119.2V119v-0.4l0.1-1.699l0.1-3.301c0.3-2.199,0.5-4.399,1-6.6s1.1-4.3,1.9-6.4
			c0.7-2.1,1.8-4.1,2.8-6.1c1.1-2,2.4-3.8,3.8-5.6c1.4-1.8,2.9-3.4,4.6-4.9c1.6-1.5,3.4-2.9,5.3-4.1c1.9-1.2,3.7-2.3,6.1-3.2l0,0
			l-1.2,4.5c-3-3-5.5-6.4-8.9-8.8l-2.4-2c-0.8-0.6-1.7-1.1-2.6-1.6c-1.7-1.1-3.4-2.3-5.3-2.9c-1.8-0.8-3.6-1.7-5.6-2.1l-2.9-0.8
			c-1-0.3-2-0.3-3-0.4l-3-0.4h-3c-2-0.1-4,0.2-6,0.5c-2,0.2-4,0.8-6,1.2c-2,0.6-4,1.1-6,1.8c-4,1.4-7.9,3-12,4.7
			c-1.1,0.4-2,0.8-3.5,1.3l-2.1,0.6l-1.6,0.3h-0.2l0,0h-0.6h-0.1h-0.6l-1.1-0.1c-0.7-0.1-1.4-0.3-2.1-0.4c-1.3-0.4-2.6-0.9-3.7-1.4
			c-4.5-2.1-7.8-4.5-11.6-6.1c-3.6-1.6-7.7-2.7-11.4-3.1l-3.2-0.2l-3,0.1c-1,0-2,0.2-3,0.3c-1,0.1-2,0.2-3,0.5
			c-4,0.8-7.8,2.6-11.4,4.5c-1.7,1.2-3.6,2.1-5.2,3.5l-2.5,1.9l-2.2,2.2c-1.6,1.4-2.8,3.1-4.2,4.7c-1.3,1.6-2.4,3.4-3.6,5.1
			c-1,1.9-2.1,3.6-3,5.6c-0.8,2-1.7,3.8-2.3,5.9c-1.3,4-2.3,8.1-2.9,12.3c-0.2,2.1-0.5,4.1-0.6,6.3l-0.1,6.6c0,1.601-1.4,3-3,2.9
			C-1570.799,123.7-1572.199,122.3-1572.1,120.7C-1572.1,120.8-1572.1,120.8-1572.1,120.7z"/>
		<path opacity="0.1" enable-background="new    " d="M-1488.2,52.3c-0.3-1.4-0.5-2.9-0.6-4.3c-0.1-1.4-0.1-2.9-0.1-4.3
			c0-1.4,0.2-2.9,0.3-4.3c0.2-1.4,0.5-2.9,0.8-4.3c0.4-1.4,0.8-2.8,1.2-4.2l1.7-4.1c0.6-1.3,1.5-2.6,2.2-3.9
			c0.7-1.3,1.8-2.4,2.7-3.6c0.9-1.2,2-2.3,3.1-3.3s2.2-2.1,3.5-2.9c1.2-0.9,2.5-1.7,3.7-2.5c1.3-0.7,2.7-1.3,4-1.9l2-0.9l2.1-0.6
			l4.2-1.1c1.4-0.3,2.8-0.4,4.2-0.6c1.4-0.1,2.8-0.3,4.2-0.3h0.3c1.6-0.1,2.9,1.1,3.1,2.6c0.2,1.6,0.2,2.9,0.2,4.4
			c0,1.4-0.1,2.8-0.3,4.2c-0.1,1.4-0.4,2.8-0.6,4.2c-0.3,1.4-0.6,2.8-1,4.1l-1.4,4l-1.8,3.9l-2.2,3.7c-0.8,1.2-1.8,2.3-2.6,3.4
			c-0.8,1.2-2,2.1-3,3.1s-2.1,2-3.3,2.8l-3.5,2.5l-3.8,2l-1.9,1l-2,0.7l-4,1.4c-1.3,0.4-2.7,0.7-4,1l-4.1,0.9
			c-1.5,0.3-3-0.6-3.3-2.1l0,0V52.3z M-1482,48.2c1.2-0.3,2.4-0.5,3.6-0.9l3.5-1.3l1.8-0.6l1.6-0.9l3.3-1.7l3-2.1
			c1-0.7,1.9-1.5,2.8-2.4c0.9-0.8,1.8-1.6,2.5-2.6s1.6-1.8,2.2-2.9l1.9-3.1l1.6-3.3l1.2-3.5l0.9-3.6c0.2-1.2,0.5-2.4,0.6-3.7
			c0.1-1.2,0.2-2.5,0.3-3.7c0-1.2,0-2.5-0.1-3.6l3.4,2.6c-1.2,0.4-2.4,0.9-3.6,1.3c-1.2,0.4-2.4,0.7-3.6,1.2l-3.4,1.5l-1.7,0.7
			l-1.6,0.9c-1,0.6-2.1,1.2-3.1,1.7c-0.9,0.7-1.9,1.4-2.8,2.1c-1,0.6-1.8,1.5-2.6,2.3c-0.8,0.8-1.7,1.6-2.4,2.5
			c-0.7,0.9-1.6,1.7-2.1,2.7c-0.6,1-1.3,1.9-1.9,3l-1.6,3.2l-1.3,3.3c-0.7,2.3-1.4,4.6-1.8,7.1c-0.3,1.2-0.5,2.4-0.6,3.7V48.2z"/>
	</g>
	<g>
		<path display="inline" opacity="0.8" enable-background="new    " d="M-280.5,150.4l-0.5-0.2c-1.4-0.7-3-1.601-4.3-2.601
			c-1.3-0.8-2.5-1.8-4.1-3.1c-1.4-1.3-2.6-2.5-3.6-3.6l-0.2-0.2c-1-1.2-2-2.5-2.9-3.8c-0.7-1-1.2-2.101-1.8-3.101
			c-0.2-0.399-0.4-0.8-0.6-1.101c-0.2-0.6-0.4-1.199-0.7-1.699c-0.4-1-0.8-1.9-1-3c-0.1-0.301-0.2-0.7-0.3-1c-0.1-0.5-0.3-1-0.4-1.4
			l-0.4-2.4l-0.2-1.199c0-0.2,0-0.5,0-0.801c0-0.199,0-0.399,0-0.6l-0.2-3.5l0.1-1.699l0.1-2.5c0.1-0.601,0.2-1.101,0.2-1.7
			c0.2-1.1,0.3-2.3,0.6-3.4v-0.2c0.4-1.6,0.7-3.2,1.3-4.7c0.4-1.3,0.9-2.4,1.4-3.6c0.1-0.3,0.3-0.7,0.4-1l0.2-0.3
			c0.7-1.3,1.5-2.7,2.3-4c1-1.5,2-2.9,3.1-4c1-1.2,2.2-2.4,3.6-3.7c1.2-1,2.6-2.2,3.9-3c0.3-0.1,0.5-0.3,0.8-0.5
			c1.4-1.1,1.6-3.2,0.5-4.6c-0.6-0.7-1.2-1.5-1.7-2.2c-2-2.6-4.1-5.3-6.7-7.5l-2.4-2.2c-0.6-0.5-1.2-1-1.9-1.4
			c-0.3-0.2-0.5-0.4-0.8-0.6c-0.4-0.3-0.8-0.5-1.1-0.8c-1.4-1-2.9-2-4.6-2.7c-0.4-0.2-0.8-0.4-1.2-0.6c-1.6-0.8-3.2-1.6-5-2l-3.2-1
			c-0.7-0.2-1.5-0.3-2.2-0.4c-0.4,0-0.7-0.1-1.1-0.2c-1.1-0.2-2.2-0.3-3.4-0.5h-3.3c-0.3,0-0.6,0-0.9,0c-1.6,0-3.1,0.2-4.6,0.3
			l-1.1,0.1c-1.5,0.1-2.9,0.4-4.3,0.7c-0.7,0.2-1.4,0.3-2.2,0.5c-0.6,0.2-1.3,0.4-1.9,0.5c-1.4,0.4-2.9,0.8-4.2,1.3
			c-3.4,1.1-6.5,2.4-9.6,3.7c-0.7,0.3-2.4,1-2.4,1c-0.8,0.3-1.6,0.7-2.1,0.8l-0.9,0.4l-1.3,0.2h-0.5c-0.2,0-0.3,0-0.5-0.1
			c-0.2,0-0.3-0.1-0.4-0.1c-0.7-0.2-1.5-0.5-2.2-0.8c-1.3-0.6-2.7-1.3-4.1-2c-2.2-1.1-4.5-2.3-7-3.3c-4.5-1.7-8.8-2.7-13.3-2.8h-3.2
			l-3.3,0.3c-0.8,0-1.6,0.2-2.4,0.3c-0.3,0.1-0.6,0.1-0.9,0.2l-0.7,0.1c-0.9,0.2-1.7,0.3-2.5,0.6c-4.5,1.1-8.6,3.3-12.1,5.2
			c-0.5,0.4-1.1,0.7-1.6,1.1c-1.2,0.8-2.5,1.7-3.6,2.7l-2.5,2.1l-2.3,2.2c-1.1,1-2.1,2.2-3,3.4c-0.4,0.5-0.8,1-1.2,1.5
			c-1,1.2-1.8,2.6-2.7,3.9c-0.3,0.5-0.6,1-1,1.5c-0.3,0.6-0.7,1.3-1,1.9c-0.7,1.2-1.4,2.5-2,3.8c-0.3,0.7-0.6,1.4-0.9,2.1
			c-0.5,1.2-1.1,2.5-1.5,3.8c-1.3,3.8-2.4,7.8-3.1,12.4c-0.1,0.7-0.2,1.4-0.3,2.1c-0.2,1.4-0.4,2.9-0.5,4.3l-0.3,6.2
			c0,0.899,0.3,1.7,0.9,2.399c0.6,0.601,1.4,1,2.4,1c1.8,0,3.3-1.5,3.3-3.3l0.1-6.1c0-1.2,0.2-2.5,0.3-3.6c0.1-0.7,0.2-1.4,0.2-2.1
			c0.5-3.8,1.4-7.6,2.7-11.3c0.3-1.2,0.9-2.4,1.4-3.5c0.3-0.6,0.5-1.2,0.8-1.8c0.5-1.1,1.1-2.2,1.7-3.2c0.4-0.6,0.7-1.3,1-1.8
			c0.3-0.5,0.7-1,1-1.5c0.7-1.1,1.5-2.2,2.3-3.2c0.4-0.5,0.8-1,1.2-1.4c0.8-1,1.6-2,2.6-2.9l2-2l2.3-1.8c0.9-0.8,2-1.5,3.1-2.1
			c0.6-0.3,1.1-0.7,1.6-1c3.2-1.7,6.7-3.4,10.5-4.1c0.7-0.2,1.3-0.3,2-0.4l0.6-0.1c0.3,0,0.6-0.1,0.9-0.1c0.6-0.1,1.1-0.2,1.7-0.2
			h0.2l2.7-0.1l3,0.1c3.4,0.3,7.1,1.3,10.4,2.8c1.8,0.8,3.6,1.8,5.4,2.8c1.6,0.9,3.4,1.9,5.3,2.8c1.2,0.5,2.4,1,3.6,1.3
			c0.2,0,0.4,0.1,0.6,0.1c0.5,0.1,0.9,0.2,1.5,0.3l1.1,0.1h0.5h0.2l0.6-0.1l1.8-0.3l2-0.6c1.1-0.3,1.8-0.6,2.5-0.9
			c0.3-0.1,0.5-0.2,0.8-0.3c1.2-0.5,2.4-1,3.6-1.4c2.6-1.1,5.1-2.1,7.6-2.9c1.2-0.4,2.4-0.8,3.6-1.1c0.6-0.2,1.3-0.4,1.8-0.5
			c0.7-0.1,1.4-0.3,2.1-0.4c1.1-0.3,2.3-0.5,3.5-0.6c0.4,0,0.8-0.1,1.2-0.1c1.2-0.2,2.5-0.3,3.7-0.3c0.2,0,0.4,0,0.7,0h2.7l2.7,0.3
			c0.3,0,0.7,0.1,1,0.1c0.6,0,1.1,0.1,1.7,0.2l2.7,0.7c1.3,0.2,2.5,0.8,3.8,1.3c0.4,0.2,0.8,0.4,1.3,0.6c1.3,0.4,2.4,1.2,3.6,2
			c0.4,0.2,0.8,0.5,1.1,0.7c0.3,0.2,0.7,0.4,1,0.6c0.5,0.3,0.9,0.6,1.3,0.9l2.2,1.9c1.9,1.4,3.6,3.2,5.3,5c-0.6,0.3-1.1,0.7-1.6,1
			c-1.5,1-3.3,2.3-4.9,3.8c-1.5,1.3-2.9,2.9-4.3,4.6c-1.2,1.5-2.3,3.1-3.6,5.3c-0.2,0.4-0.4,0.7-0.6,1.1c-0.8,1.5-1.5,3-2.1,4.6
			c-0.8,1.9-1.2,3.8-1.8,6c-0.4,1.5-0.6,3.1-0.8,4.6c-0.1,0.5-0.1,1.1-0.2,1.6l-0.1,3.1l-0.1,1.5v0.601v0.399v0.7
			c0.1,0.6,0.1,1.2,0.1,1.7c0.1,1.3,0.1,2.6,0.5,4.2l0.6,3.3c0.2,0.7,0.4,1.399,0.6,2.1c0.1,0.3,0.2,0.601,0.3,1
			c0.4,1.601,1.1,3,1.7,4.5c0.2,0.5,0.4,1,0.7,1.5c0.2,0.399,0.4,0.7,0.6,1.101c0.8,1.399,1.7,2.899,2.7,4.199
			c1.2,1.7,2.5,3.2,4.1,4.801l0.7,0.699c0.5,0.5,1,1,1.6,1.5l2.4,1.9c2,1.4,3.6,2.4,5.2,3.3c0.9,0.5,1.7,0.899,2.6,1.3
			c-1.1,2.801-2.4,5.7-3.9,8.9c-1.8,3.9-3.8,7.699-6,11.3c-2.4,4-4.7,7.399-7.1,10.399c-2.7,3.4-5.6,6.301-8.6,8.4
			c-3.3,2.4-6.7,3.7-9.9,3.9h-0.7h-0.5l-1.5-0.1c-0.4,0-0.8-0.101-1.2-0.101c-0.7,0-1.4-0.101-2-0.2c-0.4-0.1-0.8-0.199-1.2-0.3
			c-1.3-0.3-2.7-0.601-4.2-1.101c-1.6-0.5-3.3-1.199-5-1.899c-2.3-1-4.8-2-7.6-2.7l-0.7-0.199c-1-0.301-2.1-0.5-3.2-0.601l-2-0.2
			l-0.8-0.1h-0.4l-2.6,0.199c-0.6,0-1.2,0.101-1.9,0.301l-0.6,0.1c-1.1,0.2-2.2,0.5-3.2,0.7c-2.3,0.601-4.5,1.399-6.7,2
			c-2.1,0.7-4,1.3-6,1.8c-3.9,1.1-7.8,1.801-11.6,2l-1.2-0.1c-0.1,0-0.2,0-0.3,0c-0.1,0-0.3,0-0.3,0l-0.5-0.2
			c-0.3-0.101-0.7-0.2-0.9-0.3c-0.2-0.1-0.5-0.2-0.7-0.301c-0.2-0.1-0.3-0.199-0.5-0.199l-1.2-0.6l-1.3-0.801
			c-0.7-0.4-1.6-0.9-2.4-1.6c-2.9-2.1-5.9-4.7-9.1-8.2c-3.1-3.2-5.9-6.899-8-9.7c-0.8-1.1-1.5-2.199-2.3-3.3
			c-0.4-0.601-0.8-1.3-1.3-1.899l-3.2-5.5l-2.9-5.701c-0.3-0.699-0.7-1.5-1-2.199c-0.5-1.2-1.1-2.4-1.6-3.6l-2.2-6l-2-6.301
			c-0.4-1.4-1.7-2.3-3.2-2.3c-0.3,0-0.5,0-0.8,0.101c-1.8,0.399-2.9,2.199-2.4,4l1.6,6.6l2,6.5c0.5,1.4,1.1,2.9,1.6,4.3
			c0.3,0.7,0.5,1.399,0.8,2.101c0.7,1.699,1.5,3.399,2.3,5.1l0.5,1.199l3.2,6c0.4,0.701,0.8,1.301,1.2,2
			c0.8,1.301,1.6,2.601,2.4,3.801c0.4,0.5,0.8,1.1,1.1,1.6c0.9,1.301,1.8,2.7,2.9,3.9l2.1,2.699l2.3,2.601c3.6,4,6.9,7,10.4,9.5
			c0.8,0.601,1.8,1.3,3,2.101l1.6,1l1.7,0.799l0.6,0.301c0.4,0.199,0.8,0.4,1.3,0.6c0.7,0.301,1.5,0.5,2.2,0.7l1.1,0.3
			c0.3,0.101,0.4,0.101,0.6,0.101c0.1,0,0.2,0,0.3,0l1.6,0.2h0.5h0.1c4.9-0.101,9.7-0.9,14.2-2.2c2.2-0.601,4.4-1.4,6.5-2
			c2.1-0.7,4.1-1.3,6-1.9l2.6-0.6l0.6-0.101l3.1-0.3h0.4l1.4,0.101c0.6,0,1.2,0.199,1.9,0.3c0.2,0.1,0.4,0.1,0.6,0.2
			c1.9,0.5,4,1.3,6.2,2.199c1.9,0.801,3.9,1.5,6,2.2c0.4,0.101,0.8,0.2,1.2,0.399c0.7,0.201,1.5,0.5,2.4,0.601l3.8,0.7
			c0.8,0.1,1.5,0.1,2.2,0.199c0.4,0,0.8,0,1.2,0.101l1.7,0.101h0.3h0.5l1.5-0.101c6.1-0.5,11.1-3.5,14.2-5.8c3.6-2.7,6.8-6,10-10.2
			c2.8-3.601,5.3-7.601,7.5-11.601c2.1-3.899,4.1-8,5.9-12.199c1.8-4.301,3.4-8.5,4.6-12.7C-278.4,152.8-279.1,151.1-280.5,150.4z"
			/>
		<path display="inline" opacity="0.8" enable-background="new    " d="M-359.7,54.9c-0.3-1.3-0.5-2.7-0.5-4c-0.1-1.3-0.1-2.7-0.1-4
			c0-1.3,0.2-2.7,0.3-4c0.2-1.3,0.5-2.7,0.7-4c0.4-1.3,0.7-2.6,1.2-3.9l1.6-3.8c0.6-1.2,1.4-2.4,2.1-3.6c0.7-1.2,1.7-2.2,2.5-3.4
			c0.8-1.1,1.8-2.1,2.9-3c1-0.9,2-1.9,3.2-2.7c1.1-0.8,2.3-1.5,3.5-2.3c1.2-0.6,2.5-1.2,3.7-1.7l1.9-0.8l1.9-0.6l3.9-1
			c1.3-0.3,2.6-0.4,3.9-0.5s2.6-0.2,3.9-0.3h0.3c1.4-0.1,2.7,1,2.8,2.4c0.1,1.5,0.2,2.7,0.1,4.1c0,1.3-0.1,2.6-0.3,3.9
			c-0.1,1.3-0.4,2.6-0.6,3.9c-0.3,1.3-0.6,2.6-0.9,3.8l-1.3,3.7l-1.7,3.6l-2.1,3.4c-0.7,1.1-1.6,2.1-2.4,3.2
			c-0.8,1.1-1.8,1.9-2.8,2.9c-1,0.9-1.9,1.8-3,2.6l-3.3,2.3l-3.5,1.8l-1.8,0.9l-1.8,0.7l-3.7,1.3c-1.2,0.4-2.5,0.6-3.8,0.9l-3.8,0.8
			c-1.4,0.3-2.8-0.6-3.1-2l0,0L-359.7,54.9z M-353.9,51.1c1.1-0.3,2.3-0.5,3.3-0.8l3.3-1.2l1.6-0.6l1.5-0.8l3-1.6l2.8-2
			c1-0.6,1.8-1.4,2.6-2.2c0.8-0.8,1.7-1.5,2.3-2.4c0.7-0.9,1.5-1.7,2.1-2.7l1.8-2.9l1.4-3.1l1.1-3.2l0.8-3.3
			c0.2-1.1,0.4-2.3,0.5-3.4c0.1-1.1,0.2-2.3,0.2-3.4s0-2.3-0.1-3.3l3.1,2.4c-1.1,0.4-2.2,0.8-3.4,1.2c-1.1,0.4-2.2,0.6-3.3,1.1
			l-3.1,1.4l-1.6,0.6l-1.4,0.8c-0.9,0.6-1.9,1.1-2.9,1.6c-0.9,0.7-1.7,1.3-2.6,2c-0.9,0.6-1.6,1.4-2.4,2.1c-0.8,0.7-1.6,1.5-2.2,2.3
			c-0.6,0.9-1.4,1.6-2,2.5c-0.5,0.9-1.2,1.8-1.7,2.7l-1.5,2.9l-1.2,3.1c-0.7,2.1-1.3,4.3-1.7,6.5c-0.2,1.1-0.4,2.2-0.6,3.4
			C-353.9,51.1-353.9,51.1-353.9,51.1z"/>
	</g>
	<g>
		<path display="inline" opacity="0.8" enable-background="new    " d="M16.2,98.2c0,0,9.6-0.1,24.1-0.2c14.5-0.2,33.8-0.1,53.1-0.2
			c9.6,0,19.3-0.1,28.3-0.1s17.5-0.1,24.7,0c14.5,0,24.1,0.6,24.1,0.6v7c0,0-9.6,0.6-24.1,0.6c-7.2,0.1-15.7,0-24.7,0
			s-18.7-0.1-28.3-0.1c-19.3-0.1-38.6-0.1-53.1-0.2s-24.1-0.2-24.1-0.2V98.2z"/>
		<g display="inline">
			<path fill="none" d="M119.6,133.1c0-2.6,0-4.1,0-4.1c0-0.1,0-1.5,0-4.1c-0.1-2.7-0.199-6.601-0.5-11.5
				c-0.399-4.9-0.899-10.9-2.1-17.7c-1.1-6.8-2.7-14.4-5.4-22.3c-1.3-3.9-3-7.9-5.1-11.7c-2.1-3.8-4.8-7.5-8-9.5
				c-3.2-2.1-6.7-1.8-10,0.9c-3.3,2.6-6.1,6.9-8.3,11.5c-2.2,4.6-4,9.6-5.5,14.8c-1.5,5.2-2.7,10.6-3.8,16
				c-2.2,10.9-3.4,22.3-3.3,33.7c0,4.801,0.2,9.5,0.5,14.301c0.1,0,0.2,0,0.3,0c0.8,0,2,0.3,3.1,0.699c1.1,0.301,1.9,0.9,2.8,1.301
				c0.8,0.6,1.5,1.199,2.1,1.8c0.6,0.7,1.1,1.3,1.6,2c0.4,0.7,0.7,1.3,1,1.899c0.2,0.601,0.4,1.2,0.5,1.7c4.8,0,9.7,0,14.6,0
				c8.301,0,16.5,0,24.4,0c0.3-3,0.5-5.7,0.7-8.1C119.4,139.6,119.5,135.7,119.6,133.1z"/>
			<path fill="none" d="M79.5,159.8c-0.1,0.5-0.3,1.101-0.5,1.7c-0.3,0.6-0.7,1.3-1,1.9c-0.4,0.6-1,1.3-1.6,2
				c-0.6,0.6-1.4,1.199-2.1,1.8c-0.9,0.5-1.8,1-2.9,1.399c1.8,8.9,4.3,17.5,8,25.2c2.3,4.601,5.1,8.9,8.6,11.7
				c1.8,1.4,3.6,2.2,5.4,2.3c1.9,0.2,3.7-0.399,5.4-1.5c3.4-2.2,6.101-6,8.2-9.8s3.7-7.9,5-11.9c2.6-8,4.2-15.6,5.2-22.399
				c0.1-0.9,0.2-1.7,0.399-2.5c-7.6,0-15.6,0-23.5,0C89.2,159.8,84.3,159.8,79.5,159.8z"/>
			<path opacity="0.8" enable-background="new    " d="M171.9,152.7c0,0-20.5,0-46.5-0.101c-0.301,2.2-0.601,4.601-0.9,7.101
				c26.5,0,47.5-0.101,47.5-0.101V152.7H171.9z"/>
			<path opacity="0.8" enable-background="new    " d="M54,157.2v-0.5v-0.2v-0.1V156.3l0,0c0-0.1,0,0.2,0-0.3
				c0.1-1.1,0.1-1.9,0.5-3.4l0,0c-5,0-9.7,0-13.9,0c-7.3,0-13.4,0-17.6,0.101c-4.3,0-6.7,0.1-6.7,0.1v7c0,0,2.4,0,6.7,0.101
				c4.2,0,10.3,0,17.6,0.1c4.3,0,9,0,14,0c-0.2-0.6-0.4-1.1-0.4-1.7L54,157.2z"/>
			<path opacity="0.8" enable-background="new    " d="M79.5,152.6v0.101c0.4,1.1,0.3,2,0.4,2.6c0,0.601,0.1,0.9,0.1,0.9v0.3
				c0,0,0,0.3-0.1,0.7c0,0.2-0.1,0.5-0.1,0.899c0,0.2,0,0.301-0.1,0.601c-0.1,0.3-0.1,0.6-0.2,0.899c0,0.101-0.1,0.2-0.1,0.301
				c4.8,0,9.7,0,14.6,0c8,0,15.9,0,23.5,0c0.4-2.5,0.7-4.9,0.9-7.101c-7.9,0-16.2,0-24.4,0C89.2,152.6,84.3,152.6,79.5,152.6z"/>
			<path d="M74.9,156c0,0,0,0.1,0,0.2v0.1V156z"/>
			<path opacity="0.8" enable-background="new    " d="M74.9,156c0,0,0,0.1,0,0.2v0.1V156z"/>
			<path d="M59.1,158.6c-0.1-0.399-0.3-0.8-0.3-1.199l-0.1-0.601v-0.3v-0.2v-0.1l0,0c0,0.1,0,0.1,0,0.2c0-0.5,0-0.101,0-0.2l0,0l0,0
				c0.1-0.9,0.1-2.101,0.4-2.601c0.1-0.399,0.3-0.699,0.5-1.1c-1.7,0-3.4,0-5.1,0l0,0c-0.5,1.5-0.4,2.3-0.5,3.4c0,0.5,0,0.199,0,0.3
				l0,0v0.1v0.101v0.199v0.5l0.1,0.9c0,0.6,0.2,1.2,0.4,1.7c1.6,0,3.3,0,5,0C59.3,159.5,59.1,159.1,59.1,158.6z"/>
			<path opacity="0.8" enable-background="new    " d="M59.1,158.6c-0.1-0.399-0.3-0.8-0.3-1.199l-0.1-0.601v-0.3v-0.2v-0.1l0,0
				c0,0.1,0,0.1,0,0.2c0-0.5,0-0.101,0-0.2l0,0l0,0c0.1-0.9,0.1-2.101,0.4-2.601c0.1-0.399,0.3-0.699,0.5-1.1c-1.7,0-3.4,0-5.1,0
				l0,0c-0.5,1.5-0.4,2.3-0.5,3.4c0,0.5,0,0.199,0,0.3l0,0v0.1v0.101v0.199v0.5l0.1,0.9c0,0.6,0.2,1.2,0.4,1.7c1.6,0,3.3,0,5,0
				C59.3,159.5,59.1,159.1,59.1,158.6z"/>
			<path d="M74.2,153c0.2,0.4,0.2,0.8,0.4,1.1c0.3,0.601,0.2,1.2,0.3,1.601c0,0.3,0.1,0.399,0.1,0.5c0-0.101,0-0.2,0-0.2v0.3
				c0,0,0,0,0-0.1c0,0.1,0,0.3-0.1,0.5c0,0.2-0.1,0.5-0.1,0.899c0,0.2,0,0.4-0.1,0.5c0,0.101-0.1,0.2-0.2,0.4
				c-0.1,0.3-0.2,0.6-0.3,0.9c-0.1,0.1-0.2,0.3-0.2,0.399c1.8,0,3.7,0,5.5,0c0-0.1,0.1-0.2,0.1-0.3c0.1-0.3,0.2-0.6,0.2-0.9
				c0-0.199,0-0.399,0.1-0.6c0-0.4,0.1-0.7,0.1-0.9c0-0.5,0.1-0.699,0.1-0.699V156.1c0,0,0-0.3-0.1-0.899
				c-0.1-0.601,0-1.5-0.4-2.601v-0.1c-1.9,0-3.7,0-5.5,0C74.1,152.8,74.1,152.9,74.2,153z"/>
			<path d="M58.7,156.3c0,0.101,0-0.2,0,0.2C58.7,156.4,58.7,156.4,58.7,156.3L58.7,156.3L58.7,156.3z"/>
			<path opacity="0.8" enable-background="new    " d="M58.7,156.3c0,0.101,0-0.2,0,0.2C58.7,156.4,58.7,156.4,58.7,156.3
				L58.7,156.3L58.7,156.3z"/>
			<path opacity="0.8" enable-background="new    " d="M117.2,162.3c-1,6.8-2.601,14.4-5.2,22.4c-1.3,4-2.9,8-5,11.899
				c-2.1,3.801-4.8,7.601-8.2,9.801c-1.7,1.1-3.5,1.6-5.4,1.5c-1.8-0.101-3.6-0.9-5.4-2.301c-3.5-2.699-6.3-7.1-8.6-11.699
				c-3.7-7.7-6.2-16.301-8-25.2c-0.9,0.399-1.9,0.6-3,0.7l-0.8,0.1h-0.4H67h-0.4h-0.1c-0.1,0-0.3,0-0.4,0c1.8,9.3,4.4,18.4,8.4,26.9
				c2.5,5,5.4,10,10,13.8c1.2,1,2.5,1.8,3.9,2.399c0.7,0.301,1.4,0.601,2.3,0.801c0.8,0.199,1.9,0.399,2.4,0.399
				c3.2,0.3,6.5-0.7,8.9-2.3c5-3.2,8-7.6,10.4-11.9c2.399-4.3,4.199-8.6,5.699-12.8c2.9-8.399,4.601-16.3,5.801-23.399
				c0.199-1.2,0.399-2.4,0.6-3.601c-2.2,0-4.5,0-6.8,0C117.5,160.6,117.4,161.4,117.2,162.3z"/>
			<polygon opacity="0.8" enable-background="new    " points="119.7,128.9 119.7,128.9 119.7,129 			"/>
			<path opacity="0.8" enable-background="new    " d="M68.1,143.2c-0.3-4.7-0.5-9.5-0.5-14.3c-0.2-11.4,1-22.8,3.3-33.7
				c1.1-5.5,2.3-10.8,3.8-16c1.5-5.2,3.2-10.2,5.5-14.8c2.2-4.6,5-8.8,8.3-11.5c3.4-2.7,6.8-2.9,10-0.9c3.3,2.1,6,5.8,8,9.5
				c2.1,3.8,3.8,7.8,5.1,11.7c2.7,7.9,4.301,15.5,5.4,22.3s1.7,12.8,2.1,17.7c0.4,4.899,0.4,8.8,0.5,11.5c0,2.6,0,4,0,4.1l0,0l0,0
				l0,0c0,0.101,0,1.5,0,4.101c-0.1,2.6-0.199,6.5-0.5,11.5c-0.199,2.5-0.399,5.199-0.699,8.1c2.3,0,4.6,0,6.8,0
				c0.3-2.8,0.5-5.3,0.7-7.7c0.399-5.1,0.5-9.1,0.5-11.899c0-2.7,0-4.101,0-4.101l0,0c0,0,0-1.5,0-4.2
				c-0.101-2.699-0.101-6.8-0.5-11.899c-0.301-5.1-0.9-11.3-2.101-18.4c-1.1-7.1-2.8-15-5.6-23.5c-1.4-4.2-3.2-8.6-5.601-12.9
				c-2.399-4.3-5.399-8.8-10.6-12.1c-1.3-0.8-2.7-1.5-4.3-1.9l-1.4-0.3l-0.7-0.1h-0.5L94.2,43.4c0.2,0-0.4,0-0.4,0h-0.2h-0.3h-0.6
				c-3.4,0.2-6.5,1.8-8.9,3.7C79,51,76,56,73.5,61.1c-4.9,10.3-7.7,21.4-9.3,32.9c-1.4,11.5-1.9,23.1-2.1,34.7
				c0,5,0.2,10,0.5,14.899C64.6,143.3,66.4,143,68.1,143.2z"/>
			<path d="M67.2,164.2L67.2,164.2L67.2,164.2h-0.1c0,0,0,0-0.1,0l0,0C66.7,164.2,67.2,164.2,67.2,164.2z"/>
			<path opacity="0.8" enable-background="new    " d="M67.2,164.2L67.2,164.2L67.2,164.2h-0.1c0,0,0,0-0.1,0l0,0
				C66.7,164.2,67.2,164.2,67.2,164.2z"/>
			<path d="M66.6,169.5H67h0.2h0.4l0.8-0.1c1.1-0.101,2.1-0.301,3-0.7c-0.4-1.8-0.7-3.5-1-5.3c-0.8,0.399-1.6,0.699-2.6,0.699
				l-0.5,0.101H67h-0.1c0,0,0,0,0.1,0h0.1l0,0l0,0c0.1,0-0.5,0-0.3,0l0,0c-0.4,0-0.9-0.101-1.3-0.101c-0.2,0-0.4,0-0.6-0.1
				c0.3,1.8,0.6,3.6,1,5.4C66.2,169.4,66.3,169.4,66.6,169.5L66.6,169.5z"/>
			<path d="M63.6,148.8c1.4-0.5,2.8-0.8,4.2-0.5c0.3,0,0.5,0,0.7,0.101c-0.2-1.7-0.3-3.4-0.4-5.101c-1.7-0.2-3.5,0.101-5.2,0.601
				c0.1,1.699,0.2,3.399,0.4,5.1C63.4,148.9,63.5,148.9,63.6,148.8z"/>
			<path opacity="0.8" enable-background="new    " d="M79.9,155.3c-0.1-0.6,0-1.5-0.4-2.6V152.6c-0.2-0.5-0.3-1.1-0.5-1.699
				c-0.3-0.601-0.7-1.301-1-1.9c-0.4-0.6-1-1.3-1.6-2c-0.6-0.6-1.4-1.2-2.1-1.8c-0.9-0.4-1.7-1-2.8-1.3c-1.1-0.301-2.3-0.7-3.1-0.7
				c-0.1,0-0.2,0-0.3,0c-1.7-0.2-3.5,0.1-5.2,0.6c-0.4,0.101-0.8,0.3-1.2,0.4c-2.2,1-4.1,2.7-5.5,4.7c-0.6,1.1-1.3,2.1-1.6,3.6
				c1.7,0,3.4,0,5.1,0c0.2-0.3,0.3-0.6,0.5-0.9c0.9-1.199,1.9-2.1,3.2-2.699c0.1-0.101,0.2-0.101,0.4-0.2c1.4-0.5,2.8-0.8,4.2-0.5
				c0.3,0,0.5,0,0.7,0.1c0.6,0.101,0.9,0.3,1.3,0.4c0.5,0.1,1.1,0.6,1.6,0.8c0.4,0.4,0.9,0.7,1.3,1.1c0.3,0.4,0.7,0.801,1,1.2
				c0.1,0.3,0.3,0.5,0.4,0.8c0.1,0.101,0.2,0.301,0.2,0.4c0.2,0.4,0.2,0.8,0.4,1.1c0.3,0.601,0.2,1.2,0.3,1.601
				c0,0.3,0.1,0.399,0.1,0.5c0-0.101,0-0.2,0-0.2v0.301c0,0,0,0,0-0.101c0,0.101,0,0.3-0.1,0.5c0,0.2-0.1,0.5-0.1,0.899
				c0,0.2,0,0.4-0.1,0.5c0,0.101-0.1,0.2-0.2,0.4c-0.1,0.3-0.2,0.6-0.3,0.9c-0.1,0.1-0.2,0.3-0.2,0.399c-0.1,0.2-0.3,0.5-0.4,0.8
				c-0.3,0.4-0.6,0.7-1,1.2c-0.4,0.4-0.9,0.7-1.3,1.101c-0.3,0.199-0.6,0.3-0.9,0.5c-0.8,0.399-1.6,0.699-2.6,0.699l-0.5,0.101h-0.3
				h-0.1c0,0,0,0,0.1,0h0.1l0,0l0,0c0.1,0-0.5,0-0.3,0l0,0c-0.4,0-0.9-0.101-1.3-0.101c-0.2,0-0.4,0-0.6-0.1h-0.1l-0.4-0.2
				c-0.3-0.1-0.5-0.1-0.9-0.3c-0.6-0.4-1.3-0.7-1.9-1.2c-0.3-0.2-0.8-0.3-1-0.6c-0.3-0.3-0.5-0.601-0.8-0.9
				c-0.2-0.3-0.3-0.6-0.5-0.899c-1.7,0-3.4,0-5,0v0.1c0.3,1.2,1,2.3,1.6,3.4c0.4,0.5,0.8,0.899,1.1,1.5c0.3,0.5,0.6,1.1,1.1,1.5
				c0.9,0.899,2,1.399,3.1,2c0.6,0.3,1.2,0.399,1.9,0.6l1,0.3c0.3,0.101,0.5,0.101,0.7,0.101c0.3,0,0.6,0.1,0.9,0.1
				c0.1,0,0.3,0,0.4,0h0.1h0.4h0.2h0.4l0.8-0.1c1.1-0.101,2.1-0.301,3-0.7c1-0.399,2-0.899,2.9-1.399c0.8-0.601,1.5-1.201,2.1-1.801
				c0.6-0.699,1.1-1.3,1.6-2c0.4-0.699,0.7-1.3,1-1.9c0.2-0.6,0.4-1.1,0.5-1.699c0-0.1,0.1-0.2,0.1-0.301
				c0.1-0.299,0.2-0.6,0.2-0.899c0-0.2,0-0.399,0.1-0.601c0-0.399,0.1-0.699,0.1-0.899c0-0.5,0.1-0.7,0.1-0.7v-0.3
				C80,156.2,80,155.9,79.9,155.3z"/>
			<path opacity="0.8" enable-background="new    " d="M118.5,152.7c-0.2,2.2-0.5,4.6-0.9,7.1c2.301,0,4.601,0,6.801,0
				c0.399-2.5,0.699-4.899,0.899-7.1C123.1,152.7,120.8,152.7,118.5,152.7z"/>
			<path opacity="0.8" enable-background="new    " d="M118.5,152.7c-0.2,2.2-0.5,4.6-0.9,7.1c2.301,0,4.601,0,6.801,0
				c0.399-2.5,0.699-4.899,0.899-7.1C123.1,152.7,120.8,152.7,118.5,152.7z"/>
		</g>
	</g>
	<g>
		<path display="inline" fill="none" d="M159.7,74c0-0.2,0-0.4,0.1-0.5c0-0.4,0.101-0.6,0.101-0.9c0-0.3,0-0.4,0.1-0.6
			c0-0.1,0-0.2-0.1-0.5c-0.101-0.4,0-1-0.2-1.6c-0.101-0.3-0.2-0.7-0.3-1.1c-0.2-0.4-0.4-0.8-0.601-1.2c-0.3-0.4-0.6-0.8-1-1.2
			c-0.399-0.4-0.899-0.7-1.3-1.1c-0.5-0.2-1.1-0.7-1.7-0.8c-0.6-0.1-1-0.4-2-0.5c-1.1-0.2-2.2,0.1-3.2,0.5c1.2,1,2.301,2,3.4,3.1
			c1.3,1.1,2.4,2.5,3.6,3.8c1,1.1,2,2.1,2.9,3.3c0-0.1,0-0.1,0.1-0.2C159.6,74.3,159.6,74.2,159.7,74z"/>
		<path display="inline" fill="none" d="M93.5,207.1C93.5,207.1,93.6,207.1,93.5,207.1L93.5,207.1z"/>
		<path display="inline" fill="none" d="M147.7,72.9c-1.2-1.1-2.3-2.2-3.5-3.2c-0.3,0.4-0.3,1.5-0.4,2.4l0,0v0.1v0.1v0.3l0.101,0.6
			c0,0.4,0.1,0.8,0.3,1.1c0.1,0.8,0.6,1.4,0.899,2.1c0.9,1.3,2.101,2.3,3.4,2.9c0.3,0.2,0.6,0.2,0.9,0.3l0.399,0.2
			c0.2,0.1,0.4,0.1,0.7,0.1c0.5,0,0.9,0.1,1.3,0.1h0.101h0.3l0.5-0.1c0.5,0,1-0.1,1.399-0.3c-0.899-1.2-2-2.3-3-3.4
			C149.9,75.2,149,73.9,147.7,72.9z"/>
		<path display="inline" opacity="0.8" enable-background="new    " d="M93.5,207.1C93.5,207.1,93.4,207.1,93.5,207.1L93.5,207.1
			L93.5,207.1L93.5,207.1z"/>
		<path display="inline" opacity="0.8" enable-background="new    " d="M179,128.8v-0.2V128.2v-0.7c-0.2-3.9-0.3-7.8-1-11.6
			c-0.4-3.9-1.5-7.5-2.5-11.2c-2.3-7.2-5.2-14.2-9.1-20.4c-1-1.9-2.301-3.6-3.5-5.3c-0.101,0.1-0.101,0.2-0.2,0.3
			c-0.4,0.6-1,1.3-1.5,1.9c-0.601,0.6-1.3,1.2-2.101,1.8c-0.6,0.3-1.199,0.7-1.8,1c1,1.4,2,2.8,2.8,4.3c3.601,5.6,6.2,12,8.301,18.6
			c0.899,3.4,1.899,6.7,2.199,10.3c0.7,3.5,0.801,7,0.9,10.6v0.7v0.301V129v0.1V129c0,0.1,0,0.1,0,0.1l-0.1,1.301l-0.101,2.8
			c-0.1,1.8-0.1,3.899-0.399,5.5c-0.301,1.7-0.5,3.5-0.801,5.2c-0.3,1.8-0.899,3.5-1.3,5.3l-0.7,2.7c-0.199,0.9-0.6,1.699-0.899,2.6
			l-1.9,5.2c-1.6,3.3-3,6.7-5.1,9.8c-1.8,3.2-4.101,6.1-6.3,9.1c-1.2,1.4-2.5,2.701-3.7,4.101s-2.601,2.7-4,3.899
			c-1.4,1.201-2.7,2.601-4.2,3.601l-4.5,3.3c-1.5,1.1-3.1,1.9-4.7,2.9c-0.8,0.5-1.6,1-2.399,1.4L127.9,199
			c-6.601,3.4-13.7,5.5-20.801,6.9l-5.399,0.8c-1.8,0.2-3.601,0.2-5.4,0.3l-2.7,0.1h-0.2l0,0c0,0,0,0,0.1,0c0.1,0,0.1,0,0,0
			c0,0,0,0-0.1,0l0,0h-0.3h-0.7L91,207c-1.9-0.1-3.8-0.199-5.6-0.3c-1.7-0.3-3.4-0.5-5.2-0.8l-2.6-0.4l-2.6-0.699
			c-1.7-0.4-3.4-0.801-5.1-1.301c-1.6-0.6-3.3-1.199-4.9-1.8c-1.7-0.5-3.2-1.3-4.8-2c-1.5-0.8-3.1-1.399-4.6-2.3
			c-2.9-1.801-5.9-3.4-8.5-5.5c-5.5-3.801-10.2-8.5-14.4-13.301c-8.2-9.899-13.6-21.1-16.1-32c-0.4-1.299-0.6-2.699-0.8-4.1
			c-0.2-1.4-0.4-2.699-0.6-4c-0.3-1.3-0.3-2.699-0.4-4c-0.1-1.3-0.1-2.6-0.2-3.9c0-0.6-0.1-1.399-0.1-1.799c0-0.701,0.1-1.301,0.1-2
			c0.1-1.301,0.1-2.601,0.2-3.801c0-1.3,0.2-2.5,0.4-3.6c0.2-1.1,0.3-2.301,0.5-3.4c1.5-9,4.4-16.5,7.4-22.3
			C26,88,29,83.8,31.2,81.1c2.3-2.6,3.5-4.1,3.5-4.1l0.2-0.2c0,0,0.1-0.1,0.1-0.2c1.2-1.5,0.9-3.7-0.7-4.9c-1.5-1.2-3.7-0.9-4.9,0.7
			c0,0-1.2,1.6-3.5,4.6c-2.3,3-5.3,7.7-8.5,14c-2.9,6.4-6,14.4-7.6,24.2c-0.2,1.2-0.3,2.5-0.5,3.8c-0.2,1.3-0.3,2.6-0.4,3.8
			c-0.1,1.3-0.1,2.5-0.2,3.8c0,0.601-0.1,1.301-0.1,2c0,0.9,0,1.4,0.1,2.2c0.1,1.4,0.1,2.8,0.2,4.2s0.1,2.8,0.3,4.3
			c0.2,1.4,0.4,2.9,0.6,4.3c0.2,1.5,0.4,2.9,0.8,4.4c2.6,11.8,8,24,16.6,35c4.5,5.3,9.4,10.6,15.4,14.8c2.8,2.3,6.1,4.101,9.3,6.101
			c1.6,0.899,3.4,1.699,5,2.5c1.7,0.8,3.4,1.699,5.2,2.3c1.8,0.7,3.6,1.3,5.4,2c1.8,0.5,3.7,1,5.6,1.5l2.8,0.7l2.9,0.5
			c2,0.3,3.9,0.6,5.9,0.899c1.9,0.101,3.7,0.2,5.6,0.3l1.4,0.101h0.7h0.4h0.4h0.2l3-0.101c2-0.1,4-0.199,5.899-0.3
			c2-0.3,3.9-0.6,5.9-0.899c7.8-1.5,15.7-3.801,22.8-7.5l2.7-1.301c0.899-0.5,1.7-1,2.6-1.6c1.7-1.1,3.5-2.1,5.2-3.2l4.9-3.6
			c1.699-1.2,3.1-2.7,4.6-4c1.5-1.4,3-2.7,4.3-4.3c1.4-1.5,2.8-3,4.101-4.5c2.399-3.301,5-6.4,6.899-10
			c2.2-3.4,3.8-7.101,5.601-10.7l2.1-5.7c0.3-0.9,0.7-1.9,1-2.8l0.8-2.9c0.5-2,1.101-3.8,1.4-5.8s0.6-4,0.899-6
			c0.4-2.1,0.301-3.8,0.5-5.7l0.101-2.8l0.1-1.4C179,128.7,179,129,179,128.8z"/>
		<path display="inline" opacity="0.8" enable-background="new    " d="M145,60.8c-8.1-6.1-16.8-10.5-25.5-13.3
			c-2.9-0.9-5.8-1.5-8.7-2.3c-2.899-0.5-5.8-0.9-8.6-1.3c-2.7-0.2-5.2-0.3-7.8-0.4H93.3h-1c-0.6,0-1.3,0.1-1.9,0.1
			c-1.3,0.1-2.5,0.1-3.8,0.2c-9.9,0.8-18.3,3.2-24.8,5.9c-1.7,0.6-3.2,1.3-4.6,2c-1.4,0.7-2.8,1.3-4,2c-2.4,1.4-4.6,2.6-6.1,3.6
			c-3,2.1-4.6,3.2-4.6,3.2c-1.6,1.1-2,3.3-0.9,4.9s3.3,2,4.9,0.9c0,0,1.6-1.1,4.6-3.1c1.5-1,3.3-1.9,5.5-3.2
			c1.1-0.6,2.4-1.1,3.6-1.8c1.3-0.6,2.7-1.3,4.2-1.8c6-2.4,13.7-4.6,22.7-5.2c1.1,0,2.3-0.1,3.4-0.1c0.6,0,1.2,0,1.8-0.1h0.9H94
			c2.5,0.1,5.1,0.2,7.7,0.4c2.399,0.4,4.899,0.8,7.5,1.2c2.6,0.7,5.2,1.3,7.899,2.1c7.7,2.5,15.4,6.4,22.601,11.7
			c0.3-0.5,0.6-1,0.8-1.5C141.8,63.1,143.3,61.7,145,60.8z"/>
		<path display="inline" opacity="0.8" enable-background="new    " d="M171.5,128.8v0.101C171.5,128.9,171.5,128.9,171.5,128.8z"/>
		<path display="inline" d="M152,80.2L152,80.2L152,80.2h-0.1l0,0l0,0C151.5,80.2,152,80.2,152,80.2z"/>
		<path display="inline" d="M159.9,71.9c0,0,0,0.1,0,0.2v0.1V71.9z"/>
		<path display="inline" d="M143.8,72.1c0,0.1,0-0.3,0,0.2C143.8,72.3,143.8,72.2,143.8,72.1L143.8,72.1L143.8,72.1z"/>
		<path display="inline" opacity="0.8" enable-background="new    " d="M164.6,71.2c-0.1-0.6,0-1.5-0.5-2.5
			c-0.199-0.5-0.3-1.1-0.6-1.7s-0.7-1.2-1-1.9c-0.4-0.6-1-1.2-1.5-1.9c-0.6-0.6-1.3-1.2-2.1-1.7c-0.9-0.4-1.601-1-2.7-1.3
			c-1.101-0.3-2.3-0.7-3.101-0.7c-2.1-0.4-4.5-0.1-6.8,0.7c-0.5,0.2-0.899,0.5-1.399,0.7c-1.7,1-3.101,2.4-4.301,4
			c-0.3,0.5-0.6,1-0.8,1.5c-0.3,0.6-0.6,1.3-0.8,2.1c-0.5,1.5-0.4,2.3-0.6,3.4c0,0.5,0,0.2,0,0.3l0,0v0.1v0.1v0.2v0.5l0.1,1
			c0,0.7,0.2,1.3,0.4,1.9c0.3,1.3,1,2.4,1.6,3.5c1.5,2.1,3.4,3.7,5.7,4.7c0.6,0.3,1.2,0.4,1.8,0.6l0.9,0.2
			c0.3,0.1,0.5,0.1,0.699,0.1c0.5,0,0.9,0.1,1.4,0.1h0.4h0.199h0.4l0.8-0.1c1.4-0.1,2.7-0.6,3.9-1.1c0.6-0.3,1.3-0.6,1.8-1
			c0.7-0.6,1.5-1.2,2.1-1.8c0.601-0.7,1.101-1.3,1.5-1.9c0.101-0.1,0.101-0.2,0.2-0.3c0.3-0.6,0.601-1.1,0.9-1.6
			c0.3-0.6,0.399-1.3,0.6-1.9c0.101-0.3,0.2-0.6,0.2-0.8c0-0.2,0-0.4,0.1-0.6c0-0.4,0.101-0.7,0.101-0.9c0-0.5,0.1-0.7,0.1-0.7v-0.2
			C164.7,72.1,164.7,71.8,164.6,71.2z M159.2,75.4c-0.2,0.4-0.4,0.8-0.7,1.2s-0.6,0.8-1,1.2c-0.4,0.4-0.9,0.7-1.3,1.1
			c-0.7,0.4-1.4,0.7-2.2,1c-0.5,0.1-0.9,0.3-1.4,0.3l-0.5,0.1h-0.3h-0.1l0,0h0.1l0,0l0,0c0.101,0-0.5,0-0.2,0l0,0
			c-0.399,0-0.899-0.1-1.3-0.1c-0.2,0-0.5,0-0.7-0.1l-0.399-0.2c-0.3-0.1-0.601-0.2-0.9-0.3c-1.3-0.6-2.5-1.7-3.399-2.9
			c-0.301-0.7-0.801-1.3-0.9-2.1c-0.1-0.4-0.3-0.7-0.3-1.1l-0.101-0.6v-0.3v-0.1v-0.1l0,0c0,0.1,0,0.1,0,0.2c0-0.5,0-0.1,0-0.2l0,0
			l0,0c0.101-0.9,0.2-2,0.4-2.4l0,0c0.1-0.6,0.6-1.3,0.9-1.9c0.899-1.2,2.1-2.2,3.399-2.9c0.3-0.1,0.7-0.3,1-0.4
			c1-0.4,2.101-0.7,3.2-0.5c1,0,1.4,0.3,2,0.5c0.5,0.1,1.1,0.6,1.7,0.8c0.5,0.4,0.899,0.7,1.3,1.1c0.3,0.4,0.7,0.8,1,1.2
			c0.2,0.4,0.4,0.8,0.6,1.2c0.2,0.4,0.2,0.8,0.301,1.1c0.3,0.7,0.199,1.2,0.199,1.6c0,0.3,0,0.4,0.101,0.5c0-0.1,0-0.2,0-0.2v0.2
			c0,0,0,0,0-0.1c0,0.1,0,0.3-0.101,0.6c0,0.2-0.1,0.5-0.1,0.9c0,0.2,0,0.4-0.1,0.5c0,0.1-0.101,0.3-0.2,0.4c0,0.1,0,0.1-0.101,0.2
			C159.4,74.8,159.3,75.1,159.2,75.4z"/>
	</g>
</g>
<g id="Warstwa_2">
	<g opacity="0.8">
		<g>
			<path d="M-1324.9,150.2h-20.9c-1.3,0-2.4-1.101-2.4-2.4V127c0-1.3,1.1-2.4,2.4-2.4h20.9c1.3,0,2.4,1.101,2.4,2.4v20.9
				C-1322.5,149.1-1323.6,150.2-1324.9,150.2z M-1343.4,145.5h16.1v-16.1h-16.1V145.5z"/>
		</g>
		<g>
			<path d="M-1176.9,150.2h-20.9c-1.3,0-2.4-1.101-2.4-2.4V127c0-1.3,1.1-2.4,2.4-2.4h20.9c1.3,0,2.4,1.101,2.4,2.4v20.9
				C-1174.5,149.1-1175.6,150.2-1176.9,150.2z M-1195.4,145.5h16.1v-16.1h-16.1V145.5z"/>
		</g>
		<g>
			<path d="M-1250.9,66.8h-20.9c-1.3,0-2.4-1.1-2.4-2.4V43.5c0-1.3,1.1-2.4,2.4-2.4h20.9c1.3,0,2.4,1.1,2.4,2.4v20.9
				C-1248.5,65.7-1249.6,66.8-1250.9,66.8z M-1269.4,62h16.1V45.9h-16.1V62z"/>
		</g>
		<g>
			<path d="M-1271.1,57.2c0,0-1.6,0.3-4.5,0.9c-0.7,0.1-1.5,0.3-2.3,0.5c-0.8,0.2-1.6,0.5-2.5,0.8c-0.9,0.3-1.8,0.5-2.8,0.8
				c-1,0.3-2.1,0.8-3.1,1.2c-1.1,0.4-2.3,0.8-3.4,1.4c-1.1,0.6-2.3,1.1-3.5,1.8c-0.6,0.3-1.2,0.6-1.8,0.9c-0.6,0.4-1.2,0.7-1.8,1.1
				c-1.2,0.8-2.5,1.5-3.7,2.3c-2.3,1.8-4.9,3.5-7.1,5.6c-2.4,1.9-4.5,4.3-6.6,6.6c-2,2.4-4,4.8-5.6,7.5c-1.8,2.5-3.1,5.3-4.6,7.8
				c-1.1,2.7-2.5,5.2-3.2,7.8c-0.4,1.3-0.8,2.5-1.2,3.7c-0.3,1.2-0.6,2.4-0.8,3.6c-0.6,2.3-0.9,4.4-1.2,6.3
				c-0.1,0.9-0.3,1.8-0.4,2.7c0,0.8-0.1,1.6-0.1,2.3c-0.1,2.7-0.2,4.3-0.2,4.3v0.301c-0.1,2-1.8,3.5-3.7,3.399
				c-1.9-0.1-3.4-1.7-3.4-3.7c0,0,0.1-1.699,0.2-4.8c0-0.8,0.1-1.6,0.1-2.5c0.1-0.899,0.2-1.899,0.4-2.899c0.3-2.101,0.5-4.5,1.2-7
				c0.3-1.3,0.6-2.6,0.9-4c0.4-1.3,0.9-2.7,1.4-4.1c0.8-2.9,2.3-5.7,3.5-8.7c1.6-2.8,3-5.9,5-8.7c1.8-2.9,4-5.6,6.2-8.3
				c2.4-2.5,4.7-5.1,7.3-7.3c2.5-2.4,5.3-4.3,7.9-6.2c1.4-0.9,2.7-1.7,4.1-2.5c0.7-0.4,1.3-0.8,2-1.2c0.7-0.3,1.4-0.7,2-1
				c1.3-0.7,2.6-1.3,3.9-1.9c1.3-0.6,2.6-1,3.8-1.5c1.2-0.4,2.4-0.9,3.5-1.3c1.2-0.3,2.3-0.6,3.3-0.9c1-0.3,2-0.5,2.9-0.8
				c0.9-0.2,1.6-0.3,2.4-0.4c2.8-0.5,4.5-0.8,4.5-0.8c1.9-0.3,3.8,0.9,4.1,2.9C-1268,55-1269.2,56.9-1271.1,57.2z"/>
		</g>
		<g>
			<path d="M-1190.9,127.1c0,0-0.1-1.6-0.3-4.5c0-0.699-0.1-1.5-0.1-2.399c-0.1-0.8-0.3-1.7-0.4-2.601c-0.3-1.8-0.5-3.899-1.2-6.199
				c-0.3-1.101-0.6-2.3-0.9-3.601c-0.4-1.2-0.8-2.4-1.3-3.7c-0.7-2.6-2.1-5.1-3.2-7.8c-1.5-2.5-2.7-5.3-4.6-7.8
				c-1.6-2.6-3.7-5-5.6-7.4c-2.2-2.2-4.2-4.6-6.6-6.6c-2.2-2.1-4.8-3.8-7.1-5.6c-1.2-0.8-2.5-1.5-3.7-2.3c-0.6-0.4-1.2-0.7-1.8-1.1
				c-0.6-0.3-1.2-0.6-1.8-0.9c-1.2-0.6-2.4-1.2-3.5-1.7c-1.2-0.5-2.3-0.9-3.4-1.4c-1.1-0.4-2.1-0.9-3.1-1.2c-1-0.3-2-0.6-2.9-0.9
				c-0.9-0.3-1.8-0.5-2.6-0.8c-0.8-0.2-1.5-0.3-2.2-0.5c-2.7-0.6-4.2-0.9-4.2-0.9l-0.3-0.1c-1.9-0.4-3.1-2.3-2.7-4.2s2.2-3,4-2.7
				c0,0,1.7,0.3,4.7,0.8c0.7,0.1,1.6,0.2,2.5,0.4c0.9,0.2,1.8,0.5,2.9,0.8c1,0.3,2.1,0.6,3.3,0.9c1.1,0.3,2.3,0.8,3.5,1.3
				c1.2,0.5,2.5,0.9,3.8,1.5c1.3,0.6,2.6,1.3,3.9,1.9c0.7,0.3,1.3,0.7,2,1c0.7,0.4,1.3,0.8,2,1.2c1.3,0.8,2.7,1.6,4.1,2.5
				c2.6,1.9,5.4,3.9,7.9,6.2c2.6,2.2,4.9,4.8,7.3,7.4c2.2,2.7,4.4,5.4,6.2,8.3c2,2.8,3.4,5.9,5,8.7c1.2,3,2.7,5.8,3.5,8.7
				c0.5,1.4,0.9,2.8,1.3,4.1c0.3,1.4,0.6,2.7,0.9,4c0.6,2.5,0.9,4.9,1.2,7.1c0.1,1.1,0.3,2.1,0.4,3c0,0.9,0.1,1.7,0.1,2.4
				c0.1,2.899,0.2,4.5,0.2,4.5c0.1,2-1.5,3.6-3.4,3.699C-1189.2,130.6-1190.8,129.1-1190.9,127.1z"/>
		</g>
		<g>
			<path d="M-1276.6,169.7c-1.3,0-2.4-1.101-2.4-2.4c0-13.7-14.9-30.5-15.1-30.7c-0.7-0.8-0.8-1.899-0.3-2.8l6.6-11.3
				c0.7-1.1,2.1-1.5,3.2-0.8s1.5,2.1,0.8,3.2l-5.8,9.8c3.7,4.5,15.1,19.2,15.1,32.5C-1274.3,168.7-1275.3,169.7-1276.6,169.7z"/>
		</g>
		<g>
			<path fill="none" stroke="#000000" stroke-width="2" stroke-linecap="round" stroke-linejoin="round" stroke-miterlimit="10" d="
				M-1285.7,123.8"/>
		</g>
		<g>
			<path fill="none" stroke="#000000" stroke-width="2" stroke-linecap="round" stroke-linejoin="round" stroke-miterlimit="10" d="
				M-1274.4,104.8"/>
		</g>
		<g>
			<path d="M-1248.4,167.2l0.1-2.2c0-0.7,0.2-1.6,0.3-2.4c0.2-1.699,0.6-3.199,1-4.8l0.7-2.3c0.2-0.8,0.6-1.5,0.8-2.2
				c0.6-1.5,1.3-2.899,1.9-4.3c1.4-2.8,3-5.5,4.7-8c0.9-1.3,1.8-2.5,2.7-3.8c0.9-1.3,1.9-2.4,3-3.7l0,0l-0.4,3.7l-29.9-53.7l0,0h4.1
				c-1.5,4.1-3.5,8-5.6,11.7c-1.1,1.9-2.1,3.8-3.4,5.5c-1.2,1.8-2.5,3.5-4.2,5.1c-1,0.9-2.5,0.9-3.5-0.1c-0.6-0.6-0.8-1.5-0.6-2.3
				c0.6-2.2,1.4-4.2,2.4-6.1c0.9-1.9,2.1-3.8,3.2-5.6c2.3-3.7,4.7-7.3,7.5-10.6l0.5-0.6c0.8-0.9,2.1-1,2.9-0.2
				c0.3,0.2,0.5,0.6,0.6,0.9l0,0l31.2,52.899c0.7,1.2,0.5,2.7-0.3,3.601l-0.1,0.1l0,0c-0.9,0.9-1.9,2.101-2.8,3.2s-1.8,2.2-2.7,3.4
				c-1.7,2.3-3.3,4.699-4.7,7.199c-0.7,1.301-1.4,2.5-1.9,3.801c-0.3,0.6-0.6,1.3-0.8,1.899l-0.7,2c-0.2,0.7-0.4,1.3-0.6,2
				c-0.2,0.7-0.3,1.3-0.5,1.9c-0.1,0.7-0.3,1.2-0.3,2l-0.2,2.2c-0.1,1.3-1.2,2.3-2.5,2.199C-1247.5,169.6-1248.4,168.5-1248.4,167.2
				z"/>
		</g>
		<g>
			<path d="M-1261.5,140.4c-6,0-11-4.9-11-10.9s4.9-10.9,11-10.9c6,0,10.9,4.9,10.9,10.9S-1255.5,140.4-1261.5,140.4z
				 M-1261.5,123.3c-3.4,0-6.2,2.8-6.2,6.2s2.8,6.2,6.2,6.2s6.2-2.8,6.2-6.2S-1258.1,123.3-1261.5,123.3z"/>
		</g>
		<g>
			<path d="M-1261.5,123.3c-1.3,0-2.4-1.1-2.4-2.399V84.8c0-1.3,1.1-2.4,2.4-2.4s2.4,1.1,2.4,2.4V120.9
				C-1259.2,122.2-1260.2,123.3-1261.5,123.3z"/>
		</g>
		<g>
			<path d="M-1230.3,173.4c0,0-0.1,0.5-0.2,1.5c-0.3,1.5-1,3.399-2.7,5c-0.9,0.8-2,1.6-3.4,2c-1.3,0.5-3.2,0.5-4.2,0.5
				c-2.5,0-5.3,0-8.4,0c-6.1,0-13.3,0-21,0c-3.8,0-7.8,0-11.9,0h-0.8h-0.4h-0.2h-0.4l-0.8-0.101c-0.2,0-0.5,0-0.9-0.2
				c-1.6-0.399-2.8-1-3.8-1.899c-2.1-1.7-3.4-4.4-3.4-7.2l0.1-1c0-0.3,0-0.4,0.1-0.8c0.2-0.7,0.4-1.601,0.7-2.2
				c0.6-1.2,1.4-2.4,2.5-3.2c1-0.899,2.3-1.5,3.6-1.8c0.7-0.2,1.3-0.2,2-0.3c0.6,0,1,0,1.6,0c4,0,8,0,11.9,0c7.7,0,14.9,0,21,0
				c3.1,0,5.9,0,8.4,0c0.3,0,0.6,0,0.9,0h0.2h0.4h0.1h0.4c0.3,0,0.5,0,0.9,0.1c0.4,0.101,0.8,0.2,1.2,0.3c1.5,0.5,2.5,1.2,3.5,2.101
				c1.8,1.7,2.4,3.6,2.7,4.8c0.2,1.3,0.2,2,0.2,2L-1230.3,173.4z M-1235.1,173.1c0,0-0.1-0.3-0.1-1c-0.2-0.6-0.5-1.5-1.3-2.3
				c-0.4-0.399-1.1-0.8-1.6-1c-0.1,0-0.2-0.1-0.4-0.2c-0.2,0-0.5-0.1-0.8-0.1h-0.4h-0.1h-0.1c0.5,0,0.1,0,0.2,0l0,0h-0.2
				c-0.3,0-0.6,0-0.9,0c-2.5,0-5.3,0-8.4,0c-6.2,0-13.3,0-21,0c-3.8,0-7.8,0-11.9,0c-0.5,0-1.1,0-1.5,0c-0.3,0.1-0.7,0-1,0.1
				c-0.6,0.2-1.3,0.4-1.8,0.9c-0.6,0.4-0.9,1-1.2,1.6c-0.2,0.301-0.1,0.5-0.3,0.7c-0.1,0.101-0.1,0.5-0.1,0.7v0.4v0.199v0.101l0,0
				c0-0.101,0,0.3,0-0.2c0,1.4,0.7,2.7,1.7,3.5c0.5,0.5,1.2,0.7,1.6,0.9c0.1,0.1,0.3,0.1,0.6,0.1l0.8,0.1h0.1l0,0
				c-0.1,0,0.3,0-0.2,0h0.2h0.4h0.8c4,0,8,0,11.9,0c7.7,0,14.9,0,21,0c3.1,0,5.9,0,8.4,0c0.6,0,1.3,0,1.6-0.1c0.4,0,0.7-0.1,1.1-0.2
				c0.7-0.2,1.2-0.6,1.7-1c0.4-0.399,0.7-0.8,0.9-1.3c0.3-0.4,0.2-0.6,0.4-0.9c0.1-0.899,0.2-1.399,0.2-1.399L-1235.1,173.1z"/>
		</g>
		<g>
			<path d="M-1282.3,180.1c0,0,0.3,2,0.4,5c0.2,3,0.2,7.101,0.1,11.101c0,4-0.2,8.1-0.3,11.1s-0.3,5-0.3,5c-0.1,1.3-1.2,2.3-2.5,2.2
				c-1.2-0.1-2.1-1-2.2-2.2c0,0-0.1-2-0.3-5c-0.1-3-0.3-7.1-0.3-11.1c-0.1-4-0.1-8.101,0.1-11.101c0.1-3,0.4-5,0.4-5
				c0.2-1.3,1.4-2.199,2.7-2C-1283.2,178.2-1282.4,179.1-1282.3,180.1z"/>
		</g>
		<g>
			<path d="M-1235.8,180.1c0,0-0.2,2-0.3,5s-0.2,7.101-0.1,11.101c0,4,0.1,8.1,0.2,11.1c0.1,3,0.2,5,0.2,5c0.1,1.3-0.9,2.4-2.3,2.5
				c-1.3,0.101-2.4-0.899-2.5-2.3c0-0.1,0-0.2,0-0.2s0.1-2,0.2-5c0.1-3,0.2-7.1,0.2-11.1c0.1-4,0-8.101-0.1-11.101s-0.3-5-0.3-5
				c-0.1-1.3,0.8-2.5,2.1-2.6c1.3-0.1,2.5,0.8,2.6,2.1C-1235.8,179.7-1235.8,179.9-1235.8,180.1z"/>
		</g>
	</g>
	<g opacity="0.8">
		<g>
			<path d="M-196.4,150.2h-20.9c-1.3,0-2.4-1.101-2.4-2.4V127c0-1.3,1.1-2.4,2.4-2.4h20.9c1.3,0,2.4,1.101,2.4,2.4v20.9
				C-194.1,149.1-195.1,150.2-196.4,150.2z M-214.9,145.5h16.1v-16.1h-16.1V145.5z"/>
		</g>
		<g>
			<path d="M-48.5,150.2h-20.9c-1.3,0-2.4-1.101-2.4-2.4V127c0-1.3,1.1-2.4,2.4-2.4h20.9c1.3,0,2.4,1.101,2.4,2.4v20.9
				C-46.1,149.1-47.2,150.2-48.5,150.2z M-67,145.5h16.1v-16.1H-67V145.5z"/>
		</g>
		<g>
			<path d="M-122.5,66.8h-20.9c-1.3,0-2.4-1.1-2.4-2.4V43.5c0-1.3,1.1-2.4,2.4-2.4h20.9c1.3,0,2.4,1.1,2.4,2.4v20.9
				C-120.1,65.7-121.2,66.8-122.5,66.8z M-141,62h16.1V45.9H-141V62z"/>
		</g>
		<g>
			<path d="M-142.7,57.2c0,0-1.6,0.3-4.5,0.9c-0.7,0.1-1.5,0.3-2.3,0.5c-0.8,0.2-1.6,0.5-2.5,0.8c-0.9,0.3-1.8,0.5-2.8,0.8
				c-1,0.3-2.1,0.8-3.1,1.2c-1.1,0.4-2.3,0.8-3.4,1.4c-1.1,0.6-2.3,1.1-3.5,1.8c-0.6,0.3-1.2,0.6-1.8,0.9c-0.6,0.4-1.2,0.7-1.8,1.1
				c-1.2,0.8-2.5,1.5-3.7,2.3c-2.3,1.8-4.9,3.5-7.1,5.6c-2.4,1.9-4.5,4.3-6.6,6.6c-2,2.4-4,4.8-5.6,7.5c-1.8,2.5-3.1,5.3-4.6,7.8
				c-1.1,2.7-2.5,5.2-3.2,7.8c-0.4,1.3-0.8,2.5-1.2,3.7c-0.3,1.2-0.6,2.4-0.8,3.6c-0.6,2.3-0.9,4.4-1.2,6.3
				c-0.1,0.9-0.3,1.8-0.4,2.7c0,0.8-0.1,1.6-0.1,2.3c-0.1,2.7-0.2,4.3-0.2,4.3v0.301c-0.1,2-1.8,3.5-3.7,3.399
				c-1.9-0.1-3.4-1.7-3.4-3.7c0,0,0.1-1.699,0.2-4.8c0-0.8,0.1-1.6,0.1-2.5c0.1-0.899,0.2-1.899,0.4-2.899c0.3-2.101,0.5-4.5,1.2-7
				c0.3-1.3,0.6-2.6,0.9-4c0.4-1.3,0.9-2.7,1.3-4.1c0.8-2.9,2.3-5.7,3.5-8.7c1.6-2.8,3-5.9,5-8.7c1.8-2.9,4-5.6,6.2-8.3
				c2.4-2.5,4.7-5.1,7.3-7.3c2.5-2.4,5.3-4.3,7.9-6.2c1.4-0.9,2.7-1.7,4.1-2.5c0.7-0.4,1.3-0.8,2-1.2c0.7-0.3,1.4-0.7,2-1
				c1.3-0.7,2.6-1.3,3.9-1.9c1.3-0.6,2.6-1,3.8-1.5c1.2-0.4,2.4-0.9,3.5-1.3c1.2-0.3,2.3-0.6,3.3-0.9c1-0.3,2-0.5,2.9-0.8
				c0.9-0.2,1.6-0.3,2.4-0.4c2.8-0.5,4.5-0.8,4.5-0.8c1.9-0.3,3.8,0.9,4.1,2.9C-139.6,55-140.8,56.9-142.7,57.2z"/>
		</g>
		<g>
			<path d="M-62.5,127.1c0,0-0.1-1.6-0.3-4.5c0-0.699-0.1-1.5-0.1-2.399c-0.1-0.8-0.3-1.7-0.4-2.601c-0.3-1.8-0.5-3.899-1.2-6.199
				c-0.3-1.101-0.6-2.3-0.9-3.601c-0.4-1.2-0.8-2.4-1.3-3.7c-0.7-2.6-2.1-5.1-3.2-7.8c-1.5-2.5-2.7-5.3-4.6-7.8
				c-1.6-2.6-3.7-5-5.6-7.4c-2.2-2.2-4.2-4.6-6.6-6.6c-2.2-2.1-4.8-3.8-7.1-5.6c-1.2-0.8-2.5-1.5-3.7-2.3c-0.6-0.4-1.2-0.7-1.8-1.1
				c-0.6-0.3-1.2-0.6-1.8-0.9c-1.2-0.6-2.4-1.2-3.5-1.7c-1.2-0.5-2.3-0.9-3.4-1.4c-1.1-0.4-2.1-0.9-3.1-1.2c-1-0.3-2-0.6-2.9-0.9
				c-0.9-0.3-1.8-0.5-2.6-0.8c-0.8-0.2-1.5-0.3-2.2-0.5c-2.7-0.6-4.2-0.9-4.2-0.9l-0.3-0.1c-1.9-0.4-3.1-2.3-2.7-4.2s2.2-3,4-2.7
				c0,0,1.7,0.3,4.7,0.8c0.7,0.1,1.6,0.2,2.5,0.4c0.9,0.2,1.8,0.5,2.9,0.8c1,0.3,2.1,0.6,3.3,0.9c1.1,0.3,2.3,0.8,3.5,1.3
				c1.2,0.5,2.5,0.9,3.8,1.5c1.3,0.6,2.6,1.3,3.9,1.9c0.7,0.3,1.3,0.7,2,1c0.7,0.4,1.3,0.8,2,1.2c1.3,0.8,2.7,1.6,4.1,2.5
				c2.6,1.9,5.4,3.9,7.9,6.2c2.6,2.2,4.9,4.8,7.3,7.4c2.2,2.7,4.4,5.4,6.2,8.3c2,2.8,3.4,5.9,5,8.7c1.2,3,2.7,5.8,3.5,8.7
				c0.5,1.4,0.9,2.8,1.3,4.1c0.3,1.4,0.6,2.7,0.9,4c0.6,2.5,0.9,4.9,1.2,7.1c0.1,1.1,0.3,2.1,0.4,3c0,0.9,0.1,1.7,0.1,2.4
				c0.1,2.899,0.2,4.5,0.2,4.5c0.1,2-1.5,3.6-3.4,3.699C-60.7,130.6-62.3,129.1-62.5,127.1z"/>
		</g>
		<g>
			<path d="M-148.2,169.7c-1.3,0-2.4-1.101-2.4-2.4c0-13.7-14.9-30.5-15.1-30.7c-0.7-0.8-0.8-1.899-0.3-2.8l6.6-11.3
				c0.7-1.1,2.1-1.5,3.2-0.8c1.1,0.7,1.5,2.1,0.8,3.2l-5.8,9.8c3.7,4.5,15.1,19.2,15.1,32.5C-145.8,168.7-146.9,169.7-148.2,169.7z"
				/>
		</g>
		<g>
			<path fill="none" stroke="#000000" stroke-width="2" stroke-linecap="round" stroke-linejoin="round" stroke-miterlimit="10" d="
				M-157.2,123.8"/>
		</g>
		<g>
			<path fill="none" stroke="#000000" stroke-width="2" stroke-linecap="round" stroke-linejoin="round" stroke-miterlimit="10" d="
				M-146,104.8"/>
		</g>
		<g>
			<path d="M-120,167.2l0.1-2.2c0-0.7,0.2-1.6,0.3-2.4c0.2-1.699,0.6-3.199,1-4.8l0.7-2.3c0.2-0.8,0.6-1.5,0.8-2.2
				c0.6-1.5,1.3-2.899,1.9-4.3c1.4-2.8,3-5.5,4.7-8c0.9-1.3,1.8-2.5,2.7-3.8c0.9-1.3,1.9-2.4,3-3.7l0,0l-0.4,3.7l-29.9-53.7l0,0h4.1
				c-1.5,4.1-3.5,8-5.6,11.7c-1.1,1.9-2.1,3.8-3.4,5.5c-1.2,1.8-2.5,3.5-4.2,5.1c-1,0.9-2.5,0.9-3.5-0.1c-0.6-0.6-0.8-1.5-0.6-2.3
				c0.6-2.2,1.4-4.2,2.4-6.1c0.9-1.9,2.1-3.8,3.2-5.6c2.3-3.7,4.7-7.3,7.5-10.6l0.5-0.6c0.8-0.9,2.1-1,2.9-0.2
				c0.3,0.2,0.5,0.6,0.6,0.9l0,0L-100,134.1c0.7,1.2,0.5,2.7-0.3,3.601l-0.1,0.1l0,0c-0.9,0.9-1.9,2.101-2.8,3.2
				c-0.9,1.1-1.8,2.2-2.7,3.4c-1.7,2.3-3.3,4.699-4.7,7.199c-0.7,1.301-1.4,2.5-1.9,3.801c-0.3,0.6-0.6,1.3-0.8,1.899l-0.7,2
				c-0.2,0.7-0.4,1.3-0.6,2c-0.2,0.7-0.3,1.3-0.5,1.9c-0.1,0.7-0.3,1.2-0.3,2l-0.2,2.2c-0.1,1.3-1.2,2.3-2.5,2.199
				C-119.1,169.6-120,168.5-120,167.2z"/>
		</g>
		<g>
			<path d="M-133.1,140.4c-6,0-11-4.9-11-10.9s4.9-10.9,11-10.9c6,0,10.9,4.9,10.9,10.9S-127.1,140.4-133.1,140.4z M-133.1,123.3
				c-3.4,0-6.2,2.8-6.2,6.2s2.8,6.2,6.2,6.2s6.2-2.8,6.2-6.2S-129.7,123.3-133.1,123.3z"/>
		</g>
		<g>
			<path d="M-133.1,123.3c-1.3,0-2.4-1.1-2.4-2.399V84.8c0-1.3,1.1-2.4,2.4-2.4c1.3,0,2.4,1.1,2.4,2.4V120.9
				C-130.7,122.2-131.8,123.3-133.1,123.3z"/>
		</g>
		<g>
			<path d="M-101.9,173.4c0,0-0.1,0.5-0.2,1.5c-0.3,1.5-1,3.399-2.7,5c-0.9,0.8-2,1.6-3.4,2c-1.3,0.5-3.2,0.5-4.2,0.5
				c-2.5,0-5.3,0-8.4,0c-6.2,0-13.3,0-21,0c-3.8,0-7.8,0-11.9,0h-0.8h-0.4h-0.2h-0.4l-0.8-0.101c-0.2,0-0.5,0-0.9-0.2
				c-1.6-0.399-2.8-1-3.8-1.899c-2.1-1.7-3.4-4.4-3.4-7.2l0.1-1c0-0.3,0-0.4,0.1-0.8c0.2-0.7,0.4-1.601,0.7-2.2
				c0.6-1.2,1.4-2.4,2.5-3.2c1-0.899,2.3-1.5,3.6-1.8c0.7-0.2,1.3-0.2,2-0.3c0.6,0,1,0,1.6,0c4,0,8,0,11.9,0c7.7,0,14.9,0,21,0
				c3.1,0,5.9,0,8.4,0c0.3,0,0.6,0,0.9,0h0.2h0.3h0.1h0.4c0.3,0,0.5,0,0.9,0.1c0.4,0.101,0.8,0.2,1.2,0.3c1.5,0.5,2.5,1.2,3.5,2.101
				c1.8,1.7,2.4,3.6,2.7,4.8c0.2,1.3,0.2,2,0.2,2L-101.9,173.4z M-106.6,173.1c0,0-0.1-0.3-0.1-1c-0.2-0.6-0.5-1.5-1.3-2.3
				c-0.4-0.399-1.1-0.8-1.6-1c-0.1,0-0.2-0.1-0.4-0.2c-0.2,0-0.5-0.1-0.8-0.1h-0.4h-0.1h-0.1c0.5,0,0.1,0,0.2,0l0,0h-0.2
				c-0.3,0-0.6,0-0.9,0c-2.5,0-5.3,0-8.4,0c-6.2,0-13.3,0-21,0c-3.8,0-7.8,0-11.9,0c-0.5,0-1.1,0-1.5,0c-0.3,0.1-0.7,0-1,0.1
				c-0.6,0.2-1.3,0.4-1.8,0.9c-0.6,0.4-0.9,1-1.2,1.6c-0.2,0.301-0.1,0.5-0.3,0.7c-0.1,0.101-0.1,0.5-0.1,0.7v0.4v0.199v0.101l0,0
				c0-0.101,0,0.3,0-0.2c0,1.4,0.7,2.7,1.7,3.5c0.5,0.5,1.2,0.7,1.6,0.9c0.1,0.1,0.3,0.1,0.6,0.1l0.8,0.1h0.1l0,0
				c-0.1,0,0.3,0-0.2,0h0.2h0.4h0.8c4,0,8,0,11.9,0c7.7,0,14.9,0,21,0c3.1,0,5.9,0,8.4,0c0.6,0,1.3,0,1.6-0.1c0.4,0,0.7-0.1,1.1-0.2
				c0.7-0.2,1.2-0.6,1.7-1c0.4-0.399,0.7-0.8,0.9-1.3c0.3-0.4,0.2-0.6,0.4-0.9c0.1-0.899,0.2-1.399,0.2-1.399L-106.6,173.1z"/>
		</g>
		<g>
			<path d="M-153.8,180.1c0,0,0.3,2,0.4,5c0.2,3,0.2,7.101,0.1,11.101c0,4-0.2,8.1-0.3,11.1s-0.3,5-0.3,5c-0.1,1.3-1.2,2.3-2.5,2.2
				c-1.2-0.1-2.1-1-2.2-2.2c0,0-0.1-2-0.3-5c-0.1-3-0.3-7.1-0.3-11.1c-0.1-4-0.1-8.101,0.1-11.101c0.1-3,0.4-5,0.4-5
				c0.2-1.3,1.4-2.199,2.7-2C-154.8,178.2-154,179.1-153.8,180.1z"/>
		</g>
		<g>
			<path d="M-107.4,180.1c0,0-0.2,2-0.3,5c-0.1,3-0.2,7.101-0.1,11.101c0,4,0.1,8.1,0.2,11.1s0.2,5,0.2,5c0.1,1.3-0.9,2.4-2.3,2.5
				c-1.3,0.101-2.4-0.899-2.5-2.3c0-0.1,0-0.2,0-0.2s0.1-2,0.2-5s0.2-7.1,0.2-11.1c0.1-4,0-8.101-0.1-11.101s-0.3-5-0.3-5
				c-0.1-1.3,0.8-2.5,2.1-2.6c1.3-0.1,2.5,0.8,2.6,2.1C-107.3,179.7-107.3,179.9-107.4,180.1z"/>
		</g>
	</g>
</g>
<g opacity="0.8">
	<g>
		<path d="M26.14,148.906H4.09c-1.371,0-2.532-1.162-2.532-2.533v-21.945c0-1.371,1.161-2.531,2.532-2.531h22.05
			c1.372,0,2.532,1.16,2.532,2.531v22.051C28.672,147.744,27.512,148.906,26.14,148.906z M6.622,143.947h16.987v-16.986H6.622
			V143.947z"/>
	</g>
	<g>
		<path d="M182.284,148.906h-22.049c-1.371,0-2.533-1.162-2.533-2.533v-21.945c0-1.371,1.16-2.531,2.533-2.531h22.049
			c1.373,0,2.533,1.16,2.533,2.531v22.051C184.712,147.744,183.657,148.906,182.284,148.906z M162.767,143.947h16.986v-16.986
			h-16.986V143.947z"/>
	</g>
	<g>
		<path d="M104.212,60.915H82.163c-1.371,0-2.532-1.16-2.532-2.532v-22.05c0-1.371,1.16-2.532,2.532-2.532h22.049
			c1.373,0,2.533,1.161,2.533,2.532v22.05C106.745,59.754,105.585,60.915,104.212,60.915z M84.694,55.851h16.987V38.865H84.694
			V55.851z"/>
	</g>
	<g>
		<path d="M82.795,50.787c0,0-1.688,0.316-4.748,0.949c-0.738,0.105-1.582,0.316-2.426,0.527s-1.688,0.528-2.638,0.844
			c-0.95,0.317-1.899,0.528-2.954,0.845s-2.216,0.845-3.271,1.267c-1.16,0.422-2.426,0.844-3.586,1.477
			c-1.161,0.633-2.427,1.16-3.692,1.898c-0.634,0.316-1.267,0.634-1.899,0.95c-0.634,0.422-1.266,0.739-1.899,1.161
			c-1.266,0.844-2.638,1.582-3.903,2.426c-2.427,1.899-5.17,3.692-7.491,5.908c-2.531,2.004-4.747,4.537-6.963,6.963
			c-2.109,2.532-4.22,5.064-5.908,7.913c-1.899,2.638-3.271,5.591-4.854,8.229c-1.159,2.848-2.637,5.486-3.376,8.229
			c-0.421,1.372-0.844,2.639-1.266,3.904c-0.316,1.266-0.633,2.531-0.845,3.798c-0.632,2.427-0.948,4.644-1.266,6.648
			c-0.105,0.949-0.316,1.898-0.422,2.848c0,0.844-0.105,1.688-0.105,2.428c-0.105,2.848-0.211,4.535-0.211,4.535v0.318
			c-0.105,2.109-1.899,3.691-3.903,3.586c-2.005-0.105-3.588-1.793-3.588-3.904c0,0,0.106-1.793,0.212-5.064
			c0-0.844,0.104-1.688,0.104-2.637c0.106-0.949,0.211-2.004,0.423-3.059c0.316-2.217,0.527-4.749,1.266-7.387
			c0.316-1.371,0.633-2.743,0.949-4.22c0.423-1.372,0.95-2.849,1.372-4.325c0.844-3.061,2.427-6.014,3.693-9.18
			c1.688-2.953,3.165-6.225,5.274-9.178c1.899-3.061,4.221-5.908,6.541-8.758c2.532-2.637,4.958-5.38,7.702-7.701
			c2.638-2.532,5.592-4.537,8.334-6.541c1.478-0.949,2.849-1.794,4.326-2.638c0.738-0.422,1.371-0.845,2.11-1.267
			c0.737-0.316,1.477-0.738,2.11-1.055c1.371-0.738,2.742-1.371,4.113-2.004c1.372-0.634,2.744-1.056,4.009-1.583
			c1.267-0.422,2.533-0.949,3.693-1.371c1.266-0.317,2.427-0.634,3.482-0.95c1.055-0.316,2.109-0.527,3.059-0.844
			c0.95-0.211,1.688-0.316,2.532-0.422c2.954-0.527,4.748-0.844,4.748-0.844c2.004-0.316,4.009,0.949,4.325,3.06
			C86.171,48.465,84.8,50.47,82.795,50.787z"/>
	</g>
	<g>
		<path d="M167.515,124.533c0,0-0.105-1.688-0.316-4.748c0-0.736-0.105-1.582-0.105-2.531c-0.107-0.844-0.316-1.793-0.422-2.742
			c-0.316-1.9-0.529-4.115-1.268-6.542c-0.316-1.161-0.633-2.427-0.949-3.798c-0.422-1.266-0.844-2.533-1.371-3.904
			c-0.738-2.742-2.215-5.381-3.375-8.229c-1.584-2.639-2.85-5.592-4.855-8.229c-1.688-2.743-3.902-5.275-5.906-7.808
			c-2.322-2.32-4.432-4.854-6.963-6.963c-2.322-2.216-5.064-4.009-7.492-5.908c-1.266-0.844-2.637-1.582-3.904-2.426
			c-0.631-0.422-1.264-0.739-1.898-1.161c-0.633-0.316-1.266-0.634-1.898-0.95c-1.266-0.633-2.533-1.266-3.693-1.793
			c-1.266-0.527-2.426-0.949-3.586-1.477c-1.16-0.422-2.217-0.949-3.271-1.267c-1.055-0.316-2.109-0.633-3.059-0.95
			c-0.949-0.315-1.9-0.527-2.744-0.844c-0.844-0.211-1.582-0.316-2.32-0.527c-2.85-0.633-4.432-0.949-4.432-0.949l-0.316-0.105
			c-2.004-0.422-3.27-2.427-2.848-4.432c0.422-2.004,2.32-3.164,4.219-2.848c0,0,1.795,0.316,4.959,0.844
			c0.738,0.105,1.689,0.211,2.639,0.422s1.898,0.527,3.059,0.844c1.055,0.316,2.215,0.633,3.482,0.949
			c1.16,0.316,2.426,0.844,3.691,1.372c1.268,0.527,2.639,0.949,4.01,1.583c1.371,0.633,2.744,1.371,4.115,2.004
			c0.738,0.316,1.371,0.738,2.109,1.055c0.738,0.423,1.371,0.845,2.111,1.267c1.371,0.844,2.848,1.688,4.324,2.638
			c2.744,2.004,5.697,4.114,8.336,6.541c2.742,2.32,5.17,5.064,7.701,7.807c2.32,2.85,4.643,5.697,6.541,8.758
			c2.109,2.953,3.588,6.225,5.275,9.178c1.266,3.166,2.848,6.119,3.691,9.18c0.529,1.477,0.951,2.953,1.373,4.325
			c0.316,1.477,0.631,2.849,0.949,4.22c0.633,2.639,0.949,5.17,1.266,7.493c0.105,1.16,0.316,2.215,0.422,3.164
			c0,0.951,0.105,1.795,0.105,2.533c0.105,3.059,0.211,4.748,0.211,4.748c0.105,2.109-1.582,3.797-3.586,3.902
			C169.308,128.227,167.62,126.645,167.515,124.533z"/>
	</g>
	<g>
		<path d="M77.099,169.479c-1.373,0-2.533-1.162-2.533-2.533c0-14.453-15.72-32.178-15.931-32.389
			c-0.738-0.844-0.845-2.004-0.316-2.955l6.963-11.92c0.739-1.16,2.216-1.584,3.377-0.844c1.16,0.738,1.582,2.215,0.844,3.375
			l-6.119,10.34c3.902,4.748,15.931,20.256,15.931,34.289C79.525,168.424,78.47,169.479,77.099,169.479z"/>
	</g>
	<g>
		<path fill="none" stroke="#000000" stroke-width="2" stroke-linecap="round" stroke-linejoin="round" stroke-miterlimit="10" d="
			M67.498,121.053"/>
	</g>
	<g>
		<path fill="none" stroke="#000000" stroke-width="2" stroke-linecap="round" stroke-linejoin="round" stroke-miterlimit="10" d="
			M79.314,101.005"/>
	</g>
	<g>
		<path d="M106.851,166.842l0.105-2.322c0-0.738,0.211-1.688,0.316-2.533c0.211-1.791,0.633-3.375,1.055-5.063l0.738-2.428
			c0.211-0.844,0.633-1.582,0.844-2.32c0.633-1.582,1.371-3.059,2.006-4.537c1.477-2.953,3.164-5.803,4.957-8.439
			c0.951-1.371,1.9-2.639,2.85-4.01s2.004-2.531,3.164-3.902l0,0l-0.42,3.902L90.919,78.534l0,0h4.326
			c-1.584,4.325-3.693,8.44-5.909,12.345c-1.16,2.004-2.215,4.008-3.587,5.803c-1.267,1.898-2.638,3.691-4.432,5.379
			c-1.055,0.951-2.638,0.951-3.692-0.104c-0.633-0.633-0.844-1.583-0.633-2.427c0.633-2.32,1.478-4.431,2.532-6.436
			c0.949-2.005,2.216-4.01,3.376-5.908c2.427-3.904,4.958-7.701,7.913-11.184l0.527-0.633c0.844-0.949,2.216-1.055,3.06-0.211
			c0.316,0.211,0.527,0.633,0.633,0.949l0,0l32.916,55.811c0.738,1.268,0.527,2.85-0.316,3.799l-0.105,0.105l0,0
			c-0.949,0.951-2.004,2.217-2.953,3.377s-1.9,2.32-2.85,3.588c-1.793,2.426-3.48,4.957-4.959,7.594
			c-0.738,1.373-1.477,2.639-2.004,4.012c-0.316,0.631-0.633,1.371-0.844,2.004l-0.738,2.109c-0.211,0.738-0.422,1.371-0.633,2.109
			c-0.211,0.74-0.316,1.371-0.527,2.006c-0.105,0.738-0.316,1.266-0.316,2.109l-0.211,2.322c-0.105,1.371-1.268,2.426-2.639,2.32
			C107.8,169.373,106.745,168.213,106.851,166.842z"/>
	</g>
	<g>
		<path d="M92.924,138.566c-6.33,0-11.605-5.17-11.605-11.5s5.169-11.5,11.605-11.5c6.331,0,11.499,5.17,11.499,11.5
			C104.53,133.396,99.36,138.566,92.924,138.566z M92.924,120.525c-3.588,0-6.542,2.953-6.542,6.541s2.954,6.541,6.542,6.541
			c3.586,0,6.54-2.953,6.54-6.541C99.571,123.479,96.616,120.525,92.924,120.525z"/>
	</g>
	<g>
		<path d="M92.924,120.525c-1.372,0-2.532-1.16-2.532-2.531V79.906c0-1.372,1.16-2.533,2.532-2.533c1.372,0,2.532,1.161,2.532,2.533
			v38.088C95.456,119.365,94.401,120.525,92.924,120.525z"/>
	</g>
	<g>
		<path d="M125.946,173.383c0,0-0.105,0.527-0.211,1.582c-0.316,1.582-1.055,3.586-2.85,5.275c-0.949,0.844-2.109,1.688-3.586,2.109
			c-1.373,0.527-3.377,0.527-4.432,0.527c-2.637,0-5.592,0-8.861,0c-6.543,0-14.033,0-22.157,0c-4.009,0-8.229,0-12.555,0h-0.844
			H70.03h-0.211h-0.423l-0.844-0.105c-0.211,0-0.527,0-0.95-0.211c-1.688-0.422-2.953-1.055-4.009-2.004
			c-2.215-1.795-3.586-4.643-3.586-7.598l0.104-1.055c0-0.316,0-0.422,0.105-0.844c0.211-0.738,0.423-1.688,0.738-2.32
			c0.634-1.268,1.478-2.533,2.638-3.377c1.056-0.949,2.427-1.582,3.799-1.898c0.738-0.211,1.371-0.211,2.11-0.316
			c0.633,0,1.055,0,1.688,0c4.22,0,8.44,0,12.556,0c8.122,0,15.718,0,22.156,0c3.27,0,6.223,0,8.861,0c0.316,0,0.633,0,0.949,0
			h0.211h0.316h0.105h0.422c0.316,0,0.527,0,0.949,0.105c0.424,0.105,0.846,0.211,1.268,0.316c1.582,0.527,2.637,1.266,3.691,2.215
			c1.898,1.795,2.533,3.799,2.85,5.064c0.211,1.371,0.211,2.109,0.211,2.109L125.946,173.383z M120.882,173.064
			c0,0-0.105-0.316-0.105-1.055c-0.211-0.633-0.527-1.582-1.371-2.426c-0.422-0.422-1.16-0.844-1.688-1.055
			c-0.107,0-0.211-0.105-0.424-0.213c-0.211,0-0.527-0.104-0.844-0.104h-0.422h-0.105h-0.104c0.527,0,0.104,0,0.209,0l0,0h-0.209
			c-0.318,0-0.635,0-0.951,0c-2.637,0-5.592,0-8.861,0c-6.543,0-14.033,0-22.157,0c-4.009,0-8.229,0-12.554,0
			c-0.528,0-1.161,0-1.583,0c-0.317,0.104-0.738,0-1.055,0.104c-0.634,0.213-1.373,0.424-1.9,0.951
			c-0.632,0.422-0.948,1.055-1.265,1.688c-0.212,0.316-0.106,0.527-0.317,0.738c-0.105,0.105-0.105,0.527-0.105,0.738v0.424v0.209
			v0.107l0,0c0-0.107,0,0.316,0-0.213c0,1.479,0.739,2.85,1.794,3.693c0.527,0.527,1.267,0.738,1.688,0.949
			c0.106,0.105,0.316,0.105,0.634,0.105l0.844,0.105h0.105l0,0c-0.105,0,0.316,0-0.212,0h0.212h0.422h0.844c4.221,0,8.44,0,12.556,0
			c8.123,0,15.718,0,22.156,0c3.27,0,6.225,0,8.861,0c0.633,0,1.371,0,1.689-0.105c0.42,0,0.736-0.105,1.16-0.211
			c0.738-0.211,1.266-0.633,1.793-1.055c0.422-0.422,0.738-0.844,0.949-1.371c0.316-0.422,0.211-0.633,0.422-0.951
			c0.105-0.947,0.211-1.477,0.211-1.477L120.882,173.064z"/>
	</g>
	<g>
		<path d="M71.084,180.249c0,0,0.316,1.958,0.422,4.892c0.211,2.936,0.211,6.946,0.106,10.859c0,3.912-0.212,7.923-0.316,10.857
			c-0.106,2.935-0.317,4.891-0.317,4.891c-0.105,1.271-1.266,2.249-2.638,2.153c-1.266-0.098-2.215-0.978-2.32-2.153
			c0,0-0.106-1.956-0.317-4.891c-0.105-2.935-0.316-6.945-0.316-10.857c-0.105-3.913-0.105-7.924,0.106-10.859
			c0.104-2.934,0.421-4.892,0.421-4.892c0.212-1.271,1.478-2.149,2.849-1.956C70.135,178.391,70.979,179.271,71.084,180.249z"/>
	</g>
	<g>
		<path d="M120.144,180.249c0,0-0.211,1.958-0.316,4.892c-0.105,2.936-0.211,6.946-0.105,10.859c0,3.912,0.105,7.923,0.211,10.857
			s0.211,4.891,0.211,4.891c0.105,1.271-0.949,2.349-2.426,2.447c-1.371,0.098-2.533-0.881-2.639-2.252c0-0.096,0-0.195,0-0.195
			s0.105-1.956,0.211-4.891s0.211-6.945,0.211-10.857c0.105-3.913,0-7.924-0.105-10.859c-0.105-2.934-0.316-4.892-0.316-4.892
			c-0.105-1.271,0.844-2.444,2.215-2.543c1.373-0.098,2.639,0.782,2.744,2.054C120.144,179.859,120.144,180.056,120.144,180.249z"/>
	</g>
</g>
</svg>
