<?xml version="1.0" encoding="utf-8"?>
<!-- Generator: Adobe Illustrator 16.0.0, SVG Export Plug-In . SVG Version: 6.00 Build 0)  -->
<!DOCTYPE svg PUBLIC "-//W3C//DTD SVG 1.1//EN" "http://www.w3.org/Graphics/SVG/1.1/DTD/svg11.dtd">
<svg version="1.1" id="Warstwa_1" xmlns="http://www.w3.org/2000/svg" xmlns:xlink="http://www.w3.org/1999/xlink" x="0px" y="0px"
	 width="186px" height="186px" viewBox="0 0 186 186" enable-background="new 0 0 186 186" xml:space="preserve">
<image overflow="visible" width="353" height="309" xlink:href="37FEA403.jpg"  transform="matrix(1 0 0 1 254.3149 -34.6099)">
</image>
<path opacity="9.999999e-002" d="M-183.1,25.3c0,0,1.6-1.1,4.6-3.2c1.5-1,3.7-2.2,6.1-3.6c1.2-0.7,2.6-1.3,4-2
	c1.4-0.7,2.9-1.4,4.6-2c6.6-2.7,15-5.1,24.8-5.9c1.2-0.1,2.5-0.1,3.8-0.2c0.6,0,1.3-0.1,1.9-0.1l1,0l1.1,0c2.5,0.1,5.1,0.2,7.8,0.4
	c2.8,0.4,5.7,0.8,8.6,1.3c2.8,0.7,5.7,1.4,8.7,2.3c11.6,3.7,23.4,10.4,33.5,20.1c1.3,1.1,2.4,2.5,3.6,3.8c1.2,1.3,2.5,2.6,3.5,4
	c2.1,2.9,4.4,5.7,6.2,8.9c4,6.2,6.9,13.2,9.2,20.4c0.9,3.7,2,7.4,2.5,11.3c0.7,3.8,0.8,7.7,1,11.6l0,0.7l0,0.4l0,0.2
	c0,0.1,0-0.1,0,0.4l-0.1,1.4l-0.1,2.8c-0.2,1.9-0.1,3.7-0.4,5.8c-0.3,2-0.6,4-0.9,6c-0.3,2-0.9,3.9-1.4,5.8l-0.8,2.9
	c-0.3,1-0.7,1.9-1,2.8l-2.1,5.7c-1.8,3.6-3.3,7.4-5.6,10.7c-2,3.6-4.5,6.7-7,10c-1.3,1.5-2.7,3-4.1,4.5c-1.3,1.6-2.8,2.9-4.3,4.3
	c-1.5,1.3-2.9,2.8-4.6,4l-4.9,3.6c-1.7,1.2-3.4,2.1-5.2,3.2c-0.9,0.5-1.7,1.1-2.6,1.6l-2.7,1.3c-7.2,3.7-15,6.1-22.9,7.5
	c-2,0.3-4,0.6-5.9,0.9c-2,0.2-4,0.2-6,0.3l-3,0.1l-0.2,0l-0.4,0l-0.4,0l-0.7,0l-1.4-0.1c-1.9-0.1-3.8-0.2-5.6-0.3
	c-2-0.3-4-0.6-5.9-0.9l-2.9-0.5l-2.8-0.7c-1.9-0.5-3.8-0.9-5.6-1.5c-1.8-0.7-3.6-1.3-5.4-2c-1.8-0.6-3.5-1.4-5.2-2.3
	c-1.7-0.9-3.4-1.6-5-2.5c-3.2-2-6.4-3.8-9.3-6.1c-6-4.2-10.9-9.6-15.4-14.8c-8.6-11-14-23.3-16.6-35c-0.4-1.5-0.6-2.9-0.8-4.4
	c-0.2-1.5-0.4-2.9-0.6-4.3c-0.3-1.4-0.3-2.9-0.3-4.3c-0.1-1.4-0.1-2.8-0.2-4.2c0-0.7-0.1-1.2-0.1-2.2c0-0.7,0.1-1.3,0.1-2
	c0.1-1.3,0.1-2.6,0.2-3.8c0-1.2,0.2-2.5,0.4-3.8c0.2-1.3,0.3-2.5,0.5-3.8c1.6-9.8,4.6-17.8,7.6-24.2c3.2-6.3,6.2-11,8.5-14
	c2.3-3,3.5-4.6,3.5-4.6c1.2-1.5,3.4-1.8,4.9-0.7c1.5,1.2,1.8,3.4,0.7,4.9c0,0.1-0.1,0.1-0.1,0.2l-0.2,0.2c0,0-1.2,1.4-3.5,4.1
	c-2.2,2.7-5.2,6.9-8.4,12.7c-2.9,5.8-5.9,13.4-7.4,22.4c-0.2,1.1-0.3,2.2-0.5,3.4c-0.2,1.1-0.3,2.3-0.4,3.6
	c-0.1,1.3-0.1,2.5-0.2,3.8c0,0.6-0.1,1.3-0.1,2c0,0.4,0.1,1.2,0.1,1.8c0.1,1.3,0.1,2.6,0.2,3.9c0.1,1.3,0.1,2.6,0.4,4
	c0.2,1.3,0.4,2.7,0.6,4c0.2,1.4,0.4,2.7,0.8,4.1c2.6,10.9,8,22.2,16.1,32.1c4.3,4.8,8.9,9.5,14.5,13.3c2.6,2.1,5.6,3.7,8.6,5.5
	c1.5,0.8,3.1,1.5,4.6,2.3c1.6,0.8,3.1,1.5,4.8,2c1.6,0.6,3.3,1.2,4.9,1.8c1.7,0.5,3.4,0.9,5.1,1.3l2.6,0.7l2.6,0.4
	c1.7,0.3,3.4,0.5,5.2,0.8c1.9,0.1,3.8,0.2,5.6,0.3l1.4,0.1l0.7,0l0.4,0c0,0,0.3,0,0,0l0.2,0l2.7-0.1c1.8-0.1,3.6-0.1,5.4-0.3
	l5.4-0.8c7.2-1.3,14.3-3.5,20.9-6.9l2.5-1.2c0.8-0.4,1.6-1,2.4-1.4c1.6-1,3.2-1.9,4.7-2.9l4.5-3.3c1.5-1,2.8-2.4,4.2-3.6
	c1.4-1.2,2.8-2.5,4-3.9c1.2-1.4,2.5-2.7,3.7-4.1c2.2-3,4.6-5.9,6.3-9.1c2.1-3.1,3.5-6.5,5.1-9.8l1.9-5.2c0.3-0.9,0.7-1.7,0.9-2.6
	l0.7-2.7c0.4-1.8,1-3.5,1.3-5.3c0.3-1.8,0.5-3.5,0.8-5.3c0.4-1.7,0.3-3.7,0.4-5.5l0.1-2.8l0.1-1.4c0,0.3,0,0,0,0l0-0.2l0-0.3l0-0.7
	c-0.2-3.6-0.3-7.1-0.9-10.6c-0.4-3.5-1.4-6.9-2.2-10.3c-2.1-6.6-4.7-13-8.4-18.6c-1.6-2.9-3.8-5.5-5.7-8.1c-1-1.3-2.2-2.4-3.2-3.7
	c-1.1-1.2-2.1-2.5-3.3-3.5c-9.2-8.8-20-14.9-30.5-18.4c-2.7-0.8-5.3-1.4-7.9-2.1c-2.6-0.4-5.1-0.8-7.5-1.2c-2.6-0.2-5.2-0.3-7.7-0.4
	l-0.8,0l-0.9,0c-0.6,0-1.2,0-1.8,0.1c-1.2,0-2.3,0.1-3.5,0.1c-9.1,0.7-16.7,2.8-22.8,5.3c-1.5,0.5-2.9,1.2-4.2,1.8
	c-1.3,0.6-2.6,1.2-3.7,1.8c-2.1,1.3-4,2.2-5.5,3.2c-3,2.1-4.6,3.1-4.6,3.1c-1.6,1.1-3.8,0.7-4.9-0.9
	C-185,28.6-184.6,26.4-183.1,25.3z"/>
<path opacity="9.999999e-002" d="M-209.4,63.1c0,0,9.7-0.1,24.1-0.2c14.5-0.2,33.8-0.1,53.1-0.2c9.7,0,19.3-0.1,28.4-0.1
	c9.1,0,17.5-0.1,24.8,0c14.5,0,24.1,0.6,24.1,0.6v7c0,0-9.7,0.6-24.1,0.6c-7.2,0.1-15.7,0-24.8,0c-9.1,0-18.7-0.1-28.4-0.1
	c-19.3-0.1-38.6-0.1-53.1-0.2c-14.5-0.1-24.1-0.2-24.1-0.2V63.1z"/>
<path opacity="9.999999e-002" d="M-209.4,117.8c0,0,2.4,0,6.7-0.1c4.3,0,10.3,0,17.7-0.1c14.6,0,34.1,0,53.6,0
	c39,0,77.9,0.1,77.9,0.1v7c0,0-39,0-77.9,0.1c-19.5,0-39,0-53.6,0c-7.3,0-13.4-0.1-17.7-0.1c-4.3,0-6.7-0.1-6.7-0.1V117.8z"/>
<path opacity="9.999999e-002" d="M-98.9,94c0,0,0,1.4,0,4.1c-0.1,2.8-0.1,6.8-0.5,11.9c-0.4,5.1-1,11.3-2.2,18.4
	c-1.2,7.1-2.9,15-5.8,23.4c-1.5,4.2-3.2,8.5-5.7,12.8c-2.4,4.2-5.5,8.7-10.4,11.9c-2.5,1.6-5.7,2.6-8.9,2.3c-0.5,0-1.5-0.2-2.4-0.4
	c-0.8-0.2-1.5-0.5-2.3-0.8c-1.4-0.7-2.7-1.5-3.9-2.4c-4.6-3.8-7.6-8.8-10-13.8c-4.8-10.2-7.6-21.3-9.4-32.7
	c-1.8-11.4-2.6-23-2.6-34.7c0.2-11.7,0.6-23.3,2.1-34.8c1.5-11.5,4.4-22.6,9.3-32.9c2.5-5.1,5.5-10.1,10.3-14
	c2.4-1.9,5.5-3.5,8.9-3.7l0.6,0l0.3,0l0.2,0c0,0,0.6,0,0.4,0l0.9,0.1l0.5,0l0.7,0.1l1.4,0.3c1.6,0.5,3.1,1.1,4.3,1.9
	c5.1,3.3,8.1,7.8,10.6,12.1c2.4,4.3,4.2,8.7,5.6,13c2.9,8.5,4.5,16.4,5.6,23.5c1.1,7.1,1.7,13.3,2.1,18.4c0.4,5.1,0.4,9.1,0.5,11.9
	C-98.9,92.5-98.9,94-98.9,94L-98.9,94z M-105.9,94c0,0,0-1.4,0-4.1c-0.1-2.7-0.2-6.6-0.5-11.5c-0.4-4.9-0.9-11-2.1-17.8
	c-1.1-6.8-2.7-14.4-5.4-22.3c-1.4-3.9-3-8-5.1-11.8c-2.1-3.8-4.8-7.5-8.1-9.5c-3.2-2.1-6.7-1.8-10,0.9c-3.3,2.7-6.1,6.9-8.3,11.5
	c-2.2,4.6-4,9.6-5.5,14.8c-1.5,5.2-2.7,10.6-3.8,16c-2.2,10.9-3.4,22.3-3.3,33.7c0,11.4,0.9,22.8,2.7,33.8c1.9,11,4.6,21.8,9.1,31.1
	c2.3,4.6,5.1,8.9,8.6,11.7c1.8,1.4,3.6,2.2,5.4,2.3c1.9,0.2,3.7-0.4,5.4-1.5c3.4-2.2,6.1-6,8.2-9.8c2.1-3.8,3.7-7.9,5.1-11.9
	c2.6-8,4.2-15.6,5.3-22.4c1.1-6.8,1.6-12.8,1.9-17.8c0.3-5,0.4-8.9,0.5-11.5C-105.9,95.4-105.9,93.9-105.9,94L-105.9,94z"/>
<path fill="none" stroke="#000000" stroke-width="3" stroke-miterlimit="10" d="M171.5,189.4"/>
<path opacity="9.999999e-002" d="M144.3,164c0,0-1.6,1.1-4.6,3.2c-1.5,1-3.7,2.2-6.1,3.6c-1.2,0.7-2.6,1.3-4,2
	c-1.4,0.7-2.9,1.4-4.6,2c-6.6,2.7-15,5.1-24.9,5.9c-1.2,0.1-2.5,0.1-3.8,0.2c-0.6,0-1.3,0.1-1.9,0.1l-1,0l-1.1,0
	c-2.5-0.1-5.1-0.2-7.8-0.4c-2.8-0.4-5.7-0.8-8.7-1.3c-2.8-0.7-5.8-1.4-8.7-2.3c-11.7-3.7-23.5-10.4-33.6-20.1
	c-1.4-1.1-2.4-2.5-3.7-3.8c-1.2-1.3-2.5-2.6-3.5-4c-2.1-2.9-4.5-5.7-6.2-8.9c-4-6.2-6.9-13.2-9.2-20.5c-0.9-3.7-2-7.4-2.5-11.3
	c-0.7-3.8-0.8-7.7-1-11.7l0-0.7l0-0.4l0-0.2c0-0.1,0,0.1,0-0.4l0.1-1.4l0.1-2.8C7.7,88.8,7.6,87,8,84.9c0.3-2,0.6-4,0.9-6
	c0.3-2,0.9-3.9,1.4-5.9l0.8-2.9c0.3-1,0.7-1.9,1-2.9l2.1-5.7c1.8-3.6,3.4-7.4,5.6-10.8c2-3.6,4.5-6.7,7-10c1.3-1.6,2.7-3,4.1-4.5
	c1.3-1.6,2.8-2.9,4.4-4.3c1.5-1.3,2.9-2.8,4.6-4l4.9-3.7c1.7-1.2,3.5-2.1,5.2-3.2c0.9-0.5,1.7-1.1,2.6-1.6l2.7-1.3
	c7.2-3.7,15.1-6.1,22.9-7.5c2-0.3,4-0.6,5.9-0.9c2-0.2,4-0.2,6-0.3l3-0.1l0.2,0l0.4,0l0.4,0l0.7,0l1.4,0.1c1.9,0.1,3.8,0.2,5.7,0.3
	c2,0.3,4,0.6,5.9,0.9l3,0.5l2.8,0.7c1.9,0.5,3.8,0.9,5.6,1.5c1.8,0.7,3.6,1.3,5.4,2c1.8,0.6,3.5,1.4,5.2,2.3c1.7,0.9,3.4,1.6,5,2.5
	c3.2,2,6.5,3.8,9.3,6.1c6,4.2,10.9,9.6,15.4,14.9c8.6,11,14,23.3,16.7,35.1c0.4,1.5,0.6,2.9,0.8,4.4c0.2,1.5,0.4,2.9,0.6,4.3
	c0.3,1.4,0.3,2.9,0.4,4.3c0.1,1.4,0.1,2.8,0.2,4.2c0,0.7,0.1,1.3,0.1,2.2c0,0.7-0.1,1.3-0.1,2c-0.1,1.3-0.1,2.6-0.2,3.8
	c0,1.2-0.2,2.5-0.4,3.8c-0.2,1.3-0.3,2.5-0.5,3.8c-1.6,9.8-4.6,17.8-7.6,24.3c-3.2,6.3-6.2,11-8.5,14.1c-2.3,3-3.5,4.6-3.5,4.6
	c-1.2,1.5-3.4,1.8-4.9,0.7c-1.5-1.2-1.8-3.4-0.7-4.9c0-0.1,0.1-0.1,0.1-0.2l0.2-0.2c0,0,1.2-1.4,3.5-4.1c2.2-2.7,5.3-6.9,8.4-12.7
	c3-5.8,5.9-13.4,7.4-22.4c0.2-1.1,0.3-2.2,0.5-3.4c0.2-1.1,0.3-2.3,0.4-3.6c0.1-1.3,0.1-2.5,0.2-3.8c0-0.6,0.1-1.3,0.1-2
	c0-0.4-0.1-1.2-0.1-1.8c-0.1-1.3-0.1-2.6-0.2-3.9c-0.1-1.3-0.1-2.7-0.4-4c-0.2-1.3-0.4-2.7-0.6-4c-0.2-1.4-0.4-2.7-0.8-4.1
	c-2.6-11-8-22.2-16.2-32.2c-4.3-4.8-8.9-9.5-14.5-13.4c-2.6-2.1-5.7-3.7-8.6-5.5c-1.5-0.8-3.1-1.5-4.6-2.3c-1.6-0.8-3.1-1.5-4.8-2
	c-1.6-0.6-3.3-1.2-4.9-1.8c-1.7-0.5-3.4-0.9-5.1-1.3l-2.6-0.7l-2.6-0.4c-1.7-0.3-3.5-0.5-5.2-0.8c-1.9-0.1-3.8-0.2-5.7-0.3l-1.4-0.1
	l-0.7,0l-0.4,0c0,0-0.3,0,0,0l-0.2,0l-2.7,0.1c-1.8,0.1-3.6,0.1-5.5,0.3L79.5,18c-7.2,1.4-14.3,3.5-20.9,6.9l-2.5,1.2
	c-0.8,0.4-1.6,1-2.4,1.4c-1.6,1-3.2,1.9-4.7,2.9l-4.5,3.3c-1.5,1-2.8,2.5-4.2,3.7c-1.4,1.2-2.8,2.5-4,3.9c-1.2,1.4-2.5,2.7-3.7,4.1
	c-2.2,3-4.6,5.9-6.4,9.1c-2.1,3.1-3.5,6.5-5.1,9.8l-1.9,5.2c-0.3,0.9-0.7,1.7-0.9,2.6L17.6,75c-0.4,1.8-1,3.5-1.3,5.3
	c-0.3,1.8-0.5,3.5-0.8,5.3c-0.4,1.7-0.3,3.7-0.4,5.6l-0.1,2.8l-0.1,1.4c0-0.3,0,0,0,0l0,0.2l0,0.3l0,0.7c0.2,3.6,0.3,7.2,0.9,10.7
	c0.4,3.5,1.4,6.9,2.2,10.3c2.1,6.6,4.7,13,8.4,18.7c1.6,3,3.8,5.5,5.7,8.2c1,1.3,2.2,2.5,3.2,3.7c1.1,1.2,2.1,2.5,3.3,3.5
	c9.3,8.9,20,15,30.6,18.4c2.7,0.8,5.3,1.4,7.9,2.1c2.6,0.4,5.1,0.8,7.6,1.2c2.6,0.2,5.2,0.3,7.8,0.4l0.8,0l0.9,0
	c0.6,0,1.2,0,1.8-0.1c1.2,0,2.3-0.1,3.5-0.1c9.1-0.7,16.8-2.9,22.8-5.3c1.5-0.5,2.9-1.2,4.2-1.8c1.3-0.6,2.6-1.2,3.7-1.8
	c2.2-1.3,4-2.2,5.5-3.2c3-2.1,4.6-3.2,4.6-3.2c1.6-1.1,3.8-0.7,4.9,0.9C146.3,160.8,145.9,162.9,144.3,164z"/>
<path opacity="9.999999e-002" d="M66.6,172.8c0.7-3,2-5.8,3.1-8.7l3.3-8.6l6.7-17.2l6.6-17.2l6.5-17.3c0.5-1.2,1.8-1.8,3-1.4
	c0.6,0.2,1.1,0.7,1.3,1.3l0,0.1c2.2,5.6,4.5,11.3,6.6,17c2.2,5.7,4.3,11.3,6.4,17c4.2,11.4,8.5,22.7,11.8,34.4
	c0.4,1.2-0.4,2.5-1.6,2.9c-1.1,0.3-2.3-0.3-2.8-1.3c-4.9-11.1-8.9-22.6-13-34c-2.1-5.7-4-11.4-6-17.2c-2-5.7-3.9-11.5-5.8-17.3
	l4.4,0l-6.6,17.3L84,139.9l-6.4,17.3l-3.2,8.7c-1.1,2.9-2,5.8-3.5,8.6c-0.6,1.2-2,1.6-3.2,1C66.8,174.9,66.3,173.8,66.6,172.8z"/>
<path opacity="9.999999e-002" d="M20.5,66.6c0,0,0.8,1.5,1.8,4.2c1,2.8,2.5,6.7,4.2,11.4c1.7,4.7,3.7,10.3,5.9,16.2
	c2.2,5.9,4.5,12.2,6.8,18.5c2.3,6.3,4.6,12.6,6.8,18.5c1.1,3,2.2,5.8,3.3,8.5c1.1,2.7,2.2,5.2,3.2,7.5c1,2.3,1.8,4.5,2.6,6.4
	c0.7,1.9,1.3,3.6,1.7,5c0.8,2.8,1.1,4.5,1.1,4.5c0.2,1.3-0.7,2.5-2,2.7c-1,0.1-1.9-0.3-2.4-1.1c0,0-0.9-1.5-2.1-4.1
	c-0.6-1.3-1.3-3-2-4.9c-0.7-1.9-1.5-4.1-2.2-6.5c-0.8-2.4-1.6-5-2.5-7.8c-0.9-2.8-1.9-5.6-3-8.6c-2.2-5.9-4.6-12.2-6.9-18.5
	c-2.4-6.3-4.7-12.6-7-18.5c-2.2-5.9-4.3-11.4-6.1-16.1c-1.8-4.7-3.3-8.7-4.3-11.4c-1-2.8-1.4-4.4-1.4-4.4c-0.3-1.3,0.6-2.5,1.8-2.8
	C19,65.2,20,65.8,20.5,66.6z"/>
<path opacity="9.999999e-002" d="M25.4,46.5c1.3,0.4,2.5,0.2,3.8,0.2l3.8,0l7.5,0c5,0,10-0.1,15-0.2c1.3,0,2.3,1,2.3,2.2v0l0,0.1v0
	c0.3,1.3,0.4,2.6,0.4,3.8c0,1.3-0.1,2.6-0.4,3.8l-0.2,1c-0.2,1-1.2,1.6-2.1,1.3l0,0h0c-2.1,0.6-4.2,0.3-6.2,0.3
	c-2.1,0-4.2-0.1-6.3-0.3l2.2-3.1l0,0c2.4,6.5,4.8,13,7.1,19.6l7,19.6c4.6,13.1,9.2,26.2,13.7,39.3l-4.4,0l0,0l18.4-51.6l0.1,1.7
	l-11.7-27l2.1,1.4h0c-2-0.5-3.9-0.7-5.9-0.8c-2-0.1-3.9,0-5.9,0.8c-0.7,0.3-1.4-0.1-1.7-0.7l-0.6-1.6l0,0c-0.3-1.3-0.4-2.6-0.4-3.8
	c0-1.3,0.1-2.6,0.4-3.8l0.3-1.1c0.2-0.9,1.1-1.5,2.1-1.3l0,0l0,0c4.3,0.2,8.7,0.2,13,0.2c4.3,0.1,8.7,0,13,0c8.7,0,17.3-0.1,26-0.2
	c1.3,0,2.3,1,2.3,2.3v0l0,0.1v0v8c0,1.3-1,2.3-2.3,2.3h0h-11.7l2.2-3.1l0,0c2.5,6.9,4.9,13.9,7.4,20.8l7.2,20.9l14.3,41.8l-4.4-0.2
	l0,0c2-4.6,3.9-9.5,5.6-14.3c0.9-2.4,1.6-4.9,2.4-7.3c0.8-2.4,1.5-4.9,2.1-7.4c0.6-2.5,1.3-4.9,1.7-7.4c0.5-2.5,0.9-5,1.2-7.5
	l0.3-3.7l0-3.7c0-1.2-0.2-2.4-0.3-3.6c0-0.4-0.2-1.2-0.3-1.8c-0.1-0.7-0.3-1.1-0.4-1.7c-1.3-4.6-3.7-9-6.4-13.3
	c-2.7-4.3-5.8-8.5-8.1-13.7c-1.1-2.6-2-5.6-1.6-8.8c0.3-3.2,2-6,3.9-8.2c0.5-0.5,1-1,1.5-1.5l0,0l0.3-0.2l0.1-0.1l0.2-0.1l0.4-0.3
	l0.8-0.6c0.6-0.4,1-0.8,1.6-1.2l2.1-1.1c0.7-0.4,1.5-0.6,2.2-0.8c0.7-0.3,1.5-0.4,2.4-0.4c0.8-0.1,1.7,0,2.6,0.1
	c0.9,0.3,1.7,0.4,2.8,1.2c1,0.8,1.1,2.3,0.3,3.3c-0.8,1-2.3,1.1-3.3,0.3c0,0,0,0,0.1,0l-0.1,0c-0.1,0-0.1-0.1-0.2-0.1
	c-0.2,0-0.3-0.1-0.5-0.2c-0.4,0-0.8-0.1-1.3,0c-0.5,0-0.9,0.1-1.4,0.3c-0.5,0.2-1,0.2-1.4,0.5l-1.4,0.7c-0.5,0.3-1,0.7-1.5,1.1
	l-1.3,1c-0.4,0.4-0.8,0.8-1.2,1.2c-1.5,1.7-2.5,3.6-2.7,5.6c-0.3,2,0.3,4.2,1.2,6.3c1.9,4.3,5,8.5,7.8,12.9c2.8,4.4,5.5,9.2,7,14.6
	c0.2,0.7,0.4,1.5,0.5,2.1c0.1,0.7,0.3,1.2,0.3,2c0.1,1.4,0.3,2.8,0.3,4.1l-0.1,4.1l-0.4,4c-0.3,2.6-0.7,5.3-1.3,7.9
	c-0.5,2.6-1.2,5.2-1.8,7.7c-0.7,2.5-1.4,5.1-2.2,7.6c-0.8,2.5-1.6,5-2.5,7.5c-1.8,4.9-3.6,9.8-5.8,14.6l0,0
	c-0.5,1.2-1.9,1.7-3.1,1.2c-0.6-0.3-1.1-0.8-1.3-1.4l0,0l-14.6-41.7l-7.2-20.9c-2.4-7-4.8-13.9-7.1-21l0,0c-0.4-1.2,0.2-2.6,1.4-3
	c0.3-0.1,0.5-0.1,0.8-0.1h11.7h0l-2.3,2.3v-8v0l2.3,2.3c-8.7-0.2-17.3-0.2-26-0.2c-4.3,0-8.7-0.1-13,0c-4.3,0.1-8.7,0-13,0.2l0,0
	l2.3-2.3c0.3,1.3,0.4,2.6,0.4,3.8c0,1.3-0.1,2.6-0.4,3.8l0,0l-2.3-2.3c2,0.8,3.9,0.8,5.9,0.8c2-0.1,3.9-0.2,5.9-0.8h0
	c1,0,1.8,0.6,2.1,1.4l11.7,27c0.2,0.6,0.2,1.2,0.1,1.7l-18.4,51.6l0,0c-0.4,1.2-1.8,1.9-3,1.4c-0.7-0.2-1.2-0.8-1.4-1.4l0-0.1
	c-4.8-13-9.4-26.1-14.1-39.2L47.5,77c-2.3-6.5-4.6-13.1-6.8-19.7l0,0c-0.5-1.1,0-2.4,1-2.9c0.2-0.1,0.5-0.2,0.7-0.2l0.5,0
	c2.1-0.2,4.2-0.3,6.3-0.3c2.1,0,4.2-0.2,6.2,0.3h0l-2.3,2.3c-0.3-1.3-0.4-2.6-0.4-3.8c0-1.3,0.1-2.6,0.4-3.8v0l2.3,2.3
	c-5-0.1-10-0.2-15-0.2l-7.5,0l-3.8,0c-1.3,0-2.5-0.1-3.8,0.2c-1.3,0.4-2.7-0.4-3-1.7s0.4-2.7,1.7-3C24.5,46.4,25,46.4,25.4,46.5z"/>
<path opacity="9.999999e-002" d="M171.6,63.5c0,0.1,0.1,0.1,0,1.7c-0.1,0.8-0.2,1.2-0.3,1.8c-0.1,0.6-0.3,1.2-0.5,2
	c-0.7,2.9-1.9,6.9-3.3,11.7c-2.9,9.6-7,22.2-11.2,34.8c-4.3,12.6-8.6,25.2-11.8,34.6c-3.3,9.4-5.5,15.7-5.5,15.7l-4.4-1.5
	c0,0,8.4-25.2,16.9-50.4c4.2-12.6,8.4-25.2,11.4-34.7c1.5-4.7,2.7-8.7,3.4-11.4c0.2-0.7,0.4-1.3,0.5-1.8c0.1-0.5,0.2-1,0.2-1
	c0.2,0,0.1-0.8,0.1-0.7L171.6,63.5z"/>
</svg>
